G75*
%MOIN*%
%OFA0B0*%
%FSLAX25Y25*%
%IPPOS*%
%LPD*%
%AMOC8*
5,1,8,0,0,1.08239X$1,22.5*
%
%ADD10C,0.05400*%
%ADD11R,0.04500X0.04500*%
%ADD12R,0.04900X0.04900*%
%ADD13C,0.04500*%
%ADD14C,0.04900*%
%ADD15R,0.03976X0.03976*%
%ADD16R,0.04376X0.04376*%
%ADD17C,0.03976*%
%ADD18C,0.04376*%
%ADD19C,0.01387*%
%ADD20C,0.01787*%
%ADD21C,0.02998*%
%ADD22R,0.06450X0.06450*%
%ADD23R,0.06850X0.06850*%
%ADD24C,0.06450*%
%ADD25C,0.06850*%
%ADD26C,0.01400*%
%ADD27C,0.03543*%
D10*
X0007874Y0145669D03*
X0007874Y0007874D03*
X0185039Y0007874D03*
X0185039Y0145669D03*
D11*
X0169291Y0003346D03*
X0177165Y0057087D03*
D12*
X0169291Y0003346D03*
X0177165Y0057087D03*
D13*
X0169291Y0008346D03*
X0169291Y0013346D03*
X0169291Y0018346D03*
X0169291Y0023346D03*
X0169291Y0028346D03*
X0177165Y0052087D03*
X0177165Y0047087D03*
X0177165Y0042087D03*
X0177165Y0037087D03*
X0177165Y0032087D03*
D14*
X0169291Y0008346D03*
X0169291Y0013346D03*
X0169291Y0018346D03*
X0169291Y0023346D03*
X0169291Y0028346D03*
X0177165Y0052087D03*
X0177165Y0047087D03*
X0177165Y0042087D03*
X0177165Y0037087D03*
X0177165Y0032087D03*
D15*
X0094488Y0125177D03*
X0098484Y0129921D03*
D16*
X0094488Y0125177D03*
X0098484Y0129921D03*
D17*
X0094488Y0120177D03*
X0094488Y0115177D03*
X0094488Y0110177D03*
X0094488Y0105177D03*
X0094488Y0100177D03*
X0094488Y0095177D03*
X0094488Y0090177D03*
X0094488Y0085177D03*
X0094488Y0080177D03*
X0094488Y0075177D03*
X0094488Y0070177D03*
X0094488Y0065177D03*
X0094488Y0060177D03*
X0094488Y0055177D03*
X0094488Y0050177D03*
X0094488Y0045177D03*
X0094488Y0040177D03*
X0103484Y0129921D03*
X0108484Y0129921D03*
X0113484Y0129921D03*
X0118484Y0129921D03*
X0123484Y0129921D03*
X0128484Y0129921D03*
X0133484Y0129921D03*
X0138484Y0129921D03*
X0143484Y0129921D03*
X0148484Y0129921D03*
X0153484Y0129921D03*
D18*
X0094488Y0120177D03*
X0094488Y0115177D03*
X0094488Y0110177D03*
X0094488Y0105177D03*
X0094488Y0100177D03*
X0094488Y0095177D03*
X0094488Y0090177D03*
X0094488Y0085177D03*
X0094488Y0080177D03*
X0094488Y0075177D03*
X0094488Y0070177D03*
X0094488Y0065177D03*
X0094488Y0060177D03*
X0094488Y0055177D03*
X0094488Y0050177D03*
X0094488Y0045177D03*
X0094488Y0040177D03*
X0103484Y0129921D03*
X0108484Y0129921D03*
X0113484Y0129921D03*
X0118484Y0129921D03*
X0123484Y0129921D03*
X0128484Y0129921D03*
X0133484Y0129921D03*
X0138484Y0129921D03*
X0143484Y0129921D03*
X0148484Y0129921D03*
X0153484Y0129921D03*
D19*
X0156299Y0120669D03*
X0156299Y0116929D03*
X0156299Y0113189D03*
D20*
X0156299Y0120669D03*
X0156299Y0116929D03*
X0156299Y0113189D03*
D21*
X0108661Y0024390D03*
X0131496Y0024390D03*
D22*
X0020866Y0040354D03*
D23*
X0020866Y0040354D03*
D24*
X0020866Y0050354D03*
X0020866Y0060354D03*
X0020866Y0070354D03*
X0020866Y0080354D03*
X0020866Y0090354D03*
X0020866Y0100354D03*
X0020866Y0110354D03*
D25*
X0020866Y0050354D03*
X0020866Y0060354D03*
X0020866Y0070354D03*
X0020866Y0080354D03*
X0020866Y0090354D03*
X0020866Y0100354D03*
X0020866Y0110354D03*
D26*
X0130906Y0074803D03*
X0150591Y0097835D03*
X0127362Y0093504D03*
X0154921Y0067323D03*
X0134646Y0037008D03*
X0127953Y0052362D03*
X0106693Y0057480D03*
X0111417Y0053543D03*
X0136811Y0104921D03*
X0141732Y0082677D03*
X0141732Y0086614D03*
X0133858Y0086614D03*
X0137795Y0086614D03*
X0145669Y0086614D03*
X0149606Y0086614D03*
X0133858Y0082677D03*
X0137795Y0082677D03*
X0145669Y0082677D03*
X0149606Y0082677D03*
X0149606Y0078740D03*
X0145669Y0078740D03*
X0141732Y0078740D03*
X0137795Y0078740D03*
X0133858Y0078740D03*
X0133858Y0074803D03*
X0137795Y0074803D03*
X0141732Y0074803D03*
X0145669Y0074803D03*
X0149606Y0074803D03*
X0141732Y0047244D03*
X0145669Y0047244D03*
X0149606Y0043307D03*
X0145669Y0043307D03*
X0141732Y0043307D03*
X0141732Y0039370D03*
X0145669Y0039370D03*
X0149606Y0039370D03*
X0166339Y0053937D03*
X0152559Y0020079D03*
X0155315Y0020079D03*
X0155315Y0017520D03*
X0152559Y0017520D03*
X0108858Y0103543D03*
X0116339Y0101181D03*
X0104331Y0075591D03*
X0104331Y0069685D03*
X0155709Y0108268D03*
X0150984Y0108268D03*
X0171457Y0091732D03*
X0127559Y0042520D03*
X0109055Y0118110D03*
X0175000Y0126870D03*
X0135531Y0112697D03*
X0140276Y0141929D03*
X0044488Y0054843D03*
X0054134Y0141496D03*
X0054134Y0136220D03*
X0048740Y0135984D03*
X0048937Y0141417D03*
X0066850Y0061102D03*
X0070787Y0061102D03*
X0066850Y0065039D03*
X0070787Y0065039D03*
X0074724Y0068976D03*
X0074724Y0072913D03*
X0074724Y0076850D03*
X0070787Y0080787D03*
X0070787Y0076850D03*
X0070787Y0072913D03*
X0070787Y0068976D03*
X0066850Y0068976D03*
X0066850Y0072913D03*
X0066850Y0076850D03*
X0066850Y0080787D03*
X0062913Y0076850D03*
X0062913Y0072913D03*
X0062913Y0068976D03*
X0072835Y0099606D03*
X0142913Y0143307D03*
X0166929Y0074409D03*
X0053937Y0059843D03*
X0104331Y0064173D03*
X0115748Y0053937D03*
X0072835Y0103937D03*
X0073228Y0094094D03*
X0105906Y0042402D03*
X0108228Y0042402D03*
X0110630Y0042402D03*
X0165276Y0142559D03*
X0165276Y0140315D03*
X0165276Y0137953D03*
X0176378Y0114567D03*
X0161614Y0096850D03*
X0173780Y0104055D03*
X0152559Y0086614D03*
X0133858Y0093504D03*
X0154528Y0089567D03*
X0133858Y0071850D03*
X0130906Y0090551D03*
X0130906Y0088583D03*
X0131890Y0093504D03*
X0128740Y0016929D03*
X0124803Y0016969D03*
X0138583Y0120472D03*
X0056457Y0128661D03*
X0054488Y0126732D03*
X0056693Y0150394D03*
X0054724Y0151969D03*
X0139764Y0071850D03*
X0152756Y0031102D03*
X0141732Y0071850D03*
X0137205Y0043406D03*
X0166142Y0038976D03*
X0147638Y0071850D03*
X0159252Y0044685D03*
X0145669Y0071850D03*
X0138346Y0063465D03*
X0143701Y0071850D03*
X0143701Y0066240D03*
X0137795Y0093504D03*
X0130906Y0086614D03*
X0130906Y0084646D03*
X0130906Y0082677D03*
X0130906Y0080709D03*
X0130906Y0078740D03*
X0130906Y0072835D03*
X0137795Y0071850D03*
X0124016Y0056299D03*
X0118504Y0056299D03*
X0139764Y0093504D03*
X0145669Y0093504D03*
X0147638Y0093504D03*
X0152559Y0074803D03*
X0152559Y0078740D03*
X0152559Y0076772D03*
X0052520Y0148898D03*
X0052480Y0128937D03*
X0149606Y0071850D03*
X0102362Y0040157D03*
X0144488Y0059055D03*
X0102362Y0045276D03*
X0138976Y0059055D03*
X0102362Y0050197D03*
X0152559Y0080709D03*
X0163543Y0118858D03*
X0177559Y0120827D03*
X0164173Y0126772D03*
X0113780Y0037008D03*
X0114173Y0067323D03*
X0163780Y0120866D03*
X0118504Y0150472D03*
X0136299Y0151772D03*
X0141732Y0093504D03*
X0153465Y0148740D03*
X0143701Y0093504D03*
X0124252Y0152913D03*
X0121260Y0053543D03*
X0121260Y0058661D03*
D27*
X0106299Y0020866D03*
X0135433Y0020079D03*
X0099646Y0143228D03*
X0067323Y0027559D03*
X0048031Y0114567D03*
X0174803Y0071654D03*
X0174803Y0076378D03*
X0111417Y0021417D03*
X0129764Y0020866D03*
X0068386Y0054724D03*
X0074291Y0054724D03*
X0062441Y0054724D03*
M02*
