%
M48
M72
T01C0.0079
T02C0.0080
T03C0.0236
T04C0.0260
T05C0.0300
T06C0.0430
T07C0.0500
%
T01
X15630Y12067
X15630Y11693
X15630Y11319
T02
X13091Y7480
X15059Y9783
X12736Y9350
X15492Y6732
X13465Y3701
X12795Y5236
X10669Y5748
X11142Y5354
X13681Y10492
X14173Y8268
X14173Y8661
X13386Y8661
X13780Y8661
X14567Y8661
X14961Y8661
X13386Y8268
X13780Y8268
X14567Y8268
X14961Y8268
X14961Y7874
X14567Y7874
X14173Y7874
X13780Y7874
X13386Y7874
X13386Y7480
X13780Y7480
X14173Y7480
X14567Y7480
X14961Y7480
X14173Y4724
X14567Y4724
X14961Y4331
X14567Y4331
X14173Y4331
X14173Y3937
X14567Y3937
X14961Y3937
X16634Y5394
X15256Y2008
X15531Y2008
X15531Y1752
X15256Y1752
X10886Y10354
X11634Y10118
X10433Y7559
X10433Y6969
X15571Y10827
X15098Y10827
X17146Y9173
X12756Y4252
X10906Y11811
X17500Y12687
X13553Y11270
X14028Y14193
X4449Y5484
X5413Y14150
X5413Y13622
X4874Y13598
X4894Y14142
X6685Y6110
X7079Y6110
X6685Y6504
X7079Y6504
X7472Y6898
X7472Y7291
X7472Y7685
X7079Y8079
X7079Y7685
X7079Y7291
X7079Y6898
X6685Y6898
X6685Y7291
X6685Y7685
X6685Y8079
X6291Y7685
X6291Y7291
X6291Y6898
X7283Y9961
X14291Y14331
X16693Y7441
X5394Y5984
X10433Y6417
X11575Y5394
X7283Y10394
X7323Y9409
X10591Y4240
X10823Y4240
X11063Y4240
X16528Y14256
X16528Y14031
X16528Y13795
X17638Y11457
X16161Y9685
X17378Y10406
X15256Y8661
X13386Y9350
X15453Y8957
X13386Y7185
X13091Y9055
X13091Y8858
X13189Y9350
X12874Y1693
X12480Y1697
X13858Y12047
X5646Y12866
X5449Y12673
X5669Y15039
X5472Y15197
X13976Y7185
X15276Y3110
X14173Y7185
X13720Y4341
X16614Y3898
X14764Y7185
X15925Y4469
X14567Y7185
X13835Y6346
X14370Y7185
X14370Y6624
X13780Y9350
X13091Y8661
X13091Y8465
X13091Y8268
X13091Y8071
X13091Y7874
X13091Y7283
X13780Y7185
X12402Y5630
X11850Y5630
X13976Y9350
X14567Y9350
X14764Y9350
X15256Y7480
X15256Y7874
X15256Y7677
X5252Y14890
X5248Y12894
X14961Y7185
X10236Y4016
X14449Y5906
X10236Y4528
X13898Y5906
X10236Y5020
X15256Y8071
X16354Y11886
X17756Y12083
X16417Y12677
X11378Y3701
X11417Y6732
X16378Y12087
X11850Y15047
X13630Y15177
X14173Y9350
X15346Y14874
X14370Y9350
X12425Y15291
X12126Y5354
X12126Y5866
T03
X10630Y2087
X13543Y2008
X9965Y14323
X6732Y2756
X4803Y11457
X17480Y7165
X17480Y7638
X11142Y2142
X12976Y2087
X6839Y5472
X7429Y5472
X6244Y5472
T04
X9449Y12518
X9449Y12018
X9449Y11518
X9449Y11018
X9449Y10518
X9449Y10018
X9449Y9518
X9449Y9018
X9449Y8518
X9449Y8018
X9449Y7518
X9449Y7018
X9449Y6518
X9449Y6018
X9449Y5518
X9449Y5018
X9449Y4518
X9449Y4018
X9848Y12992
X10348Y12992
X10848Y12992
X11348Y12992
X11848Y12992
X12348Y12992
X12848Y12992
X13348Y12992
X13848Y12992
X14348Y12992
X14848Y12992
X15348Y12992
X10866Y2439
X13150Y2439
T05
X16929Y335
X16929Y835
X16929Y1335
X16929Y1835
X16929Y2335
X16929Y2835
X17717Y5709
X17717Y5209
X17717Y4709
X17717Y4209
X17717Y3709
X17717Y3209
T06
X2087Y4035
X2087Y5035
X2087Y6035
X2087Y7035
X2087Y8035
X2087Y9035
X2087Y10035
X2087Y11035
T07
X787Y14567
X787Y787
X18504Y787
X18504Y14567
M30
