G75*
%MOIN*%
%OFA0B0*%
%FSLAX25Y25*%
%IPPOS*%
%LPD*%
%AMOC8*
5,1,8,0,0,1.08239X$1,22.5*
%
%ADD10C,0.04500*%
%ADD11C,0.03976*%
%ADD12C,0.01387*%
%ADD13C,0.06450*%
%ADD14C,0.01400*%
%ADD15C,0.03543*%
%ADD16C,0.01000*%
D10*
X0169291Y0003346D03*
X0169291Y0008346D03*
X0169291Y0013346D03*
X0169291Y0018346D03*
X0169291Y0023346D03*
X0169291Y0028346D03*
X0177165Y0057087D03*
X0177165Y0052087D03*
X0177165Y0047087D03*
X0177165Y0042087D03*
X0177165Y0037087D03*
X0177165Y0032087D03*
D11*
X0094488Y0125177D03*
X0094488Y0120177D03*
X0094488Y0115177D03*
X0094488Y0110177D03*
X0094488Y0105177D03*
X0094488Y0100177D03*
X0094488Y0095177D03*
X0094488Y0090177D03*
X0094488Y0085177D03*
X0094488Y0080177D03*
X0094488Y0075177D03*
X0094488Y0070177D03*
X0094488Y0065177D03*
X0094488Y0060177D03*
X0094488Y0055177D03*
X0094488Y0050177D03*
X0094488Y0045177D03*
X0094488Y0040177D03*
X0098484Y0129921D03*
X0103484Y0129921D03*
X0108484Y0129921D03*
X0113484Y0129921D03*
X0118484Y0129921D03*
X0123484Y0129921D03*
X0128484Y0129921D03*
X0133484Y0129921D03*
X0138484Y0129921D03*
X0143484Y0129921D03*
X0148484Y0129921D03*
X0153484Y0129921D03*
D12*
X0156299Y0120669D03*
X0156299Y0116929D03*
X0156299Y0113189D03*
D13*
X0020866Y0040354D03*
X0020866Y0050354D03*
X0020866Y0060354D03*
X0020866Y0070354D03*
X0020866Y0080354D03*
X0020866Y0090354D03*
X0020866Y0100354D03*
X0020866Y0110354D03*
D14*
X0130906Y0074803D03*
X0150591Y0097835D03*
X0127362Y0093504D03*
X0154921Y0067323D03*
X0134646Y0037008D03*
X0127953Y0052362D03*
X0106693Y0057480D03*
X0111417Y0053543D03*
X0136811Y0104921D03*
X0141732Y0082677D03*
X0141732Y0086614D03*
X0133858Y0086614D03*
X0137795Y0086614D03*
X0145669Y0086614D03*
X0149606Y0086614D03*
X0133858Y0082677D03*
X0137795Y0082677D03*
X0145669Y0082677D03*
X0149606Y0082677D03*
X0149606Y0078740D03*
X0145669Y0078740D03*
X0141732Y0078740D03*
X0137795Y0078740D03*
X0133858Y0078740D03*
X0133858Y0074803D03*
X0137795Y0074803D03*
X0141732Y0074803D03*
X0145669Y0074803D03*
X0149606Y0074803D03*
X0141732Y0047244D03*
X0145669Y0047244D03*
X0149606Y0043307D03*
X0145669Y0043307D03*
X0141732Y0043307D03*
X0141732Y0039370D03*
X0145669Y0039370D03*
X0149606Y0039370D03*
X0166339Y0053937D03*
X0152559Y0020079D03*
X0155315Y0020079D03*
X0155315Y0017520D03*
X0152559Y0017520D03*
X0108858Y0103543D03*
X0116339Y0101181D03*
X0104331Y0075591D03*
X0104331Y0069685D03*
X0155709Y0108268D03*
X0150984Y0108268D03*
X0171457Y0091732D03*
X0127559Y0042520D03*
X0109055Y0118110D03*
X0175000Y0126870D03*
X0135531Y0112697D03*
X0140276Y0141929D03*
X0044488Y0054843D03*
X0054134Y0141496D03*
X0054134Y0136220D03*
X0048740Y0135984D03*
X0048937Y0141417D03*
X0066850Y0061102D03*
X0070787Y0061102D03*
X0066850Y0065039D03*
X0070787Y0065039D03*
X0074724Y0068976D03*
X0074724Y0072913D03*
X0074724Y0076850D03*
X0070787Y0080787D03*
X0070787Y0076850D03*
X0070787Y0072913D03*
X0070787Y0068976D03*
X0066850Y0068976D03*
X0066850Y0072913D03*
X0066850Y0076850D03*
X0066850Y0080787D03*
X0062913Y0076850D03*
X0062913Y0072913D03*
X0062913Y0068976D03*
X0072835Y0099606D03*
X0142913Y0143307D03*
X0166929Y0074409D03*
X0053937Y0059843D03*
X0104331Y0064173D03*
X0115748Y0053937D03*
X0072835Y0103937D03*
X0073228Y0094094D03*
X0105906Y0042402D03*
X0108228Y0042402D03*
X0110630Y0042402D03*
X0165276Y0142559D03*
X0165276Y0140315D03*
X0165276Y0137953D03*
X0176378Y0114567D03*
X0161614Y0096850D03*
X0173780Y0104055D03*
X0152559Y0086614D03*
X0133858Y0093504D03*
X0154528Y0089567D03*
X0133858Y0071850D03*
X0130906Y0090551D03*
X0130906Y0088583D03*
X0131890Y0093504D03*
X0128740Y0016929D03*
X0124803Y0016969D03*
X0138583Y0120472D03*
X0056457Y0128661D03*
X0054488Y0126732D03*
X0056693Y0150394D03*
X0054724Y0151969D03*
X0139764Y0071850D03*
X0152756Y0031102D03*
X0141732Y0071850D03*
X0137205Y0043406D03*
X0166142Y0038976D03*
X0147638Y0071850D03*
X0159252Y0044685D03*
X0145669Y0071850D03*
X0138346Y0063465D03*
X0143701Y0071850D03*
X0143701Y0066240D03*
X0137795Y0093504D03*
X0130906Y0086614D03*
X0130906Y0084646D03*
X0130906Y0082677D03*
X0130906Y0080709D03*
X0130906Y0078740D03*
X0130906Y0072835D03*
X0137795Y0071850D03*
X0124016Y0056299D03*
X0118504Y0056299D03*
X0139764Y0093504D03*
X0145669Y0093504D03*
X0147638Y0093504D03*
X0152559Y0074803D03*
X0152559Y0078740D03*
X0152559Y0076772D03*
X0052520Y0148898D03*
X0052480Y0128937D03*
X0149606Y0071850D03*
X0102362Y0040157D03*
X0144488Y0059055D03*
X0102362Y0045276D03*
X0138976Y0059055D03*
X0102362Y0050197D03*
X0152559Y0080709D03*
X0163543Y0118858D03*
X0177559Y0120827D03*
X0164173Y0126772D03*
X0113780Y0037008D03*
X0114173Y0067323D03*
X0163780Y0120866D03*
X0118504Y0150472D03*
X0136299Y0151772D03*
X0141732Y0093504D03*
X0153465Y0148740D03*
X0143701Y0093504D03*
X0124252Y0152913D03*
X0121260Y0053543D03*
X0121260Y0058661D03*
D15*
X0106299Y0020866D03*
X0135433Y0020079D03*
X0099646Y0143228D03*
X0067323Y0027559D03*
X0048031Y0114567D03*
X0174803Y0071654D03*
X0174803Y0076378D03*
X0111417Y0021417D03*
X0129764Y0020866D03*
X0068386Y0054724D03*
X0074291Y0054724D03*
X0062441Y0054724D03*
D16*
X0001369Y0004098D02*
X0001300Y0004800D01*
X0001300Y0152480D01*
X0001371Y0153202D01*
X0001924Y0154536D01*
X0002944Y0155557D01*
X0004278Y0156109D01*
X0005000Y0156180D01*
X0177165Y0156180D01*
X0177165Y0122527D01*
X0176855Y0122527D01*
X0175859Y0121531D01*
X0175859Y0120123D01*
X0176855Y0119127D01*
X0177165Y0119127D01*
X0177165Y0116184D01*
X0177082Y0116267D01*
X0175674Y0116267D01*
X0174678Y0115271D01*
X0174678Y0113863D01*
X0175674Y0112867D01*
X0177082Y0112867D01*
X0177165Y0112950D01*
X0177165Y0077918D01*
X0177153Y0077948D01*
X0176373Y0078728D01*
X0175354Y0079150D01*
X0174252Y0079150D01*
X0173233Y0078728D01*
X0172453Y0077948D01*
X0172031Y0076929D01*
X0172031Y0075827D01*
X0172453Y0074808D01*
X0173233Y0074028D01*
X0173263Y0074016D01*
X0173233Y0074003D01*
X0172453Y0073224D01*
X0172031Y0072205D01*
X0172031Y0071102D01*
X0172453Y0070084D01*
X0173233Y0069304D01*
X0174252Y0068882D01*
X0175354Y0068882D01*
X0176373Y0069304D01*
X0177153Y0070084D01*
X0177165Y0070114D01*
X0177165Y0060337D01*
X0176519Y0060337D01*
X0175324Y0059842D01*
X0174410Y0058928D01*
X0173915Y0057733D01*
X0173915Y0056440D01*
X0174410Y0055246D01*
X0175069Y0054587D01*
X0174410Y0053928D01*
X0173915Y0052733D01*
X0173915Y0051440D01*
X0174410Y0050246D01*
X0175069Y0049587D01*
X0174410Y0048928D01*
X0173915Y0047733D01*
X0173915Y0046440D01*
X0174410Y0045246D01*
X0175069Y0044587D01*
X0174410Y0043928D01*
X0173915Y0042733D01*
X0173915Y0041440D01*
X0174410Y0040246D01*
X0175069Y0039587D01*
X0174410Y0038928D01*
X0173915Y0037733D01*
X0173915Y0036440D01*
X0174410Y0035246D01*
X0175069Y0034587D01*
X0174410Y0033928D01*
X0173915Y0032733D01*
X0173915Y0031440D01*
X0174410Y0030246D01*
X0175324Y0029331D01*
X0176519Y0028837D01*
X0177165Y0028837D01*
X0177165Y0001200D01*
X0171741Y0001200D01*
X0172047Y0001505D01*
X0172541Y0002700D01*
X0172541Y0003993D01*
X0172047Y0005187D01*
X0171388Y0005846D01*
X0172047Y0006505D01*
X0172541Y0007700D01*
X0172541Y0008993D01*
X0172047Y0010187D01*
X0171388Y0010846D01*
X0172047Y0011505D01*
X0172541Y0012700D01*
X0172541Y0013993D01*
X0172047Y0015187D01*
X0171388Y0015846D01*
X0172047Y0016505D01*
X0172541Y0017700D01*
X0172541Y0018993D01*
X0172047Y0020187D01*
X0171388Y0020846D01*
X0172047Y0021505D01*
X0172541Y0022700D01*
X0172541Y0023993D01*
X0172047Y0025187D01*
X0171388Y0025846D01*
X0172047Y0026505D01*
X0172541Y0027700D01*
X0172541Y0028993D01*
X0172047Y0030187D01*
X0171132Y0031102D01*
X0169938Y0031596D01*
X0168645Y0031596D01*
X0167450Y0031102D01*
X0166536Y0030187D01*
X0166041Y0028993D01*
X0166041Y0027700D01*
X0166536Y0026505D01*
X0167195Y0025846D01*
X0166536Y0025187D01*
X0166041Y0023993D01*
X0166041Y0022700D01*
X0166536Y0021505D01*
X0167195Y0020846D01*
X0166536Y0020187D01*
X0166041Y0018993D01*
X0166041Y0017700D01*
X0166536Y0016505D01*
X0167195Y0015846D01*
X0166536Y0015187D01*
X0166041Y0013993D01*
X0166041Y0012700D01*
X0166536Y0011505D01*
X0167195Y0010846D01*
X0166536Y0010187D01*
X0166041Y0008993D01*
X0166041Y0007700D01*
X0166536Y0006505D01*
X0167195Y0005846D01*
X0166536Y0005187D01*
X0166041Y0003993D01*
X0166041Y0002700D01*
X0166536Y0001505D01*
X0166842Y0001200D01*
X0004900Y0001200D01*
X0004198Y0001269D01*
X0002900Y0001807D01*
X0001907Y0002800D01*
X0001369Y0004098D01*
X0137194Y0133358D02*
X0137609Y0133358D01*
X0137902Y0133651D01*
X0137902Y0150601D01*
X0137717Y0150785D01*
X0137999Y0151067D01*
X0137999Y0152476D01*
X0137003Y0153472D01*
X0135595Y0153472D01*
X0134599Y0152476D01*
X0134599Y0151067D01*
X0134773Y0150894D01*
X0120659Y0150894D01*
X0120366Y0150601D01*
X0120366Y0133651D01*
X0120659Y0133358D01*
X0121073Y0133358D01*
X0137194Y0133358D01*
X0065213Y0054173D02*
X0065213Y0055276D01*
X0064791Y0056294D01*
X0064011Y0057074D01*
X0062992Y0057496D01*
X0061890Y0057496D01*
X0060871Y0057074D01*
X0060091Y0056294D01*
X0059669Y0055276D01*
X0059669Y0054173D01*
X0060091Y0053154D01*
X0060871Y0052375D01*
X0061890Y0051953D01*
X0062992Y0051953D01*
X0064011Y0052375D01*
X0064791Y0053154D01*
X0065213Y0054173D01*
X0122960Y0057957D02*
X0122960Y0059366D01*
X0121964Y0060361D01*
X0120556Y0060361D01*
X0119560Y0059366D01*
X0119560Y0057957D01*
X0120556Y0056961D01*
X0121964Y0056961D01*
X0122960Y0057957D01*
X0125952Y0152209D02*
X0125952Y0153618D01*
X0124956Y0154613D01*
X0123548Y0154613D01*
X0122552Y0153618D01*
X0122552Y0152209D01*
X0123548Y0151213D01*
X0124956Y0151213D01*
X0125952Y0152209D01*
X0120204Y0149768D02*
X0120204Y0151177D01*
X0119208Y0152172D01*
X0117800Y0152172D01*
X0116804Y0151177D01*
X0116804Y0149768D01*
X0117800Y0148772D01*
X0119208Y0148772D01*
X0120204Y0149768D01*
X0104062Y0049493D02*
X0104062Y0050901D01*
X0103066Y0051897D01*
X0101658Y0051897D01*
X0100662Y0050901D01*
X0100662Y0049493D01*
X0101658Y0048497D01*
X0103066Y0048497D01*
X0104062Y0049493D01*
X0140676Y0058351D02*
X0140676Y0059759D01*
X0139681Y0060755D01*
X0138272Y0060755D01*
X0137276Y0059759D01*
X0137276Y0058351D01*
X0138272Y0057355D01*
X0139681Y0057355D01*
X0140676Y0058351D01*
X0104062Y0044571D02*
X0104062Y0045980D01*
X0103066Y0046976D01*
X0101658Y0046976D01*
X0100662Y0045980D01*
X0100662Y0044571D01*
X0101658Y0043576D01*
X0103066Y0043576D01*
X0104062Y0044571D01*
X0146188Y0058351D02*
X0146188Y0059759D01*
X0145192Y0060755D01*
X0143784Y0060755D01*
X0142788Y0059759D01*
X0142788Y0058351D01*
X0143784Y0057355D01*
X0145192Y0057355D01*
X0146188Y0058351D01*
X0104062Y0039453D02*
X0104062Y0040862D01*
X0103066Y0041857D01*
X0101658Y0041857D01*
X0100662Y0040862D01*
X0100662Y0039453D01*
X0101658Y0038457D01*
X0103066Y0038457D01*
X0104062Y0039453D01*
X0054220Y0148193D02*
X0054220Y0149602D01*
X0053224Y0150598D01*
X0051816Y0150598D01*
X0050820Y0149602D01*
X0050820Y0148193D01*
X0051816Y0147198D01*
X0053224Y0147198D01*
X0054220Y0148193D01*
X0120204Y0055595D02*
X0120204Y0057003D01*
X0119208Y0057999D01*
X0117800Y0057999D01*
X0116804Y0057003D01*
X0116804Y0055595D01*
X0117800Y0054599D01*
X0119208Y0054599D01*
X0120204Y0055595D01*
X0145401Y0065536D02*
X0145401Y0066944D01*
X0144405Y0067940D01*
X0142997Y0067940D01*
X0142001Y0066944D01*
X0142001Y0065536D01*
X0142997Y0064540D01*
X0144405Y0064540D01*
X0145401Y0065536D01*
X0160952Y0043981D02*
X0160952Y0045389D01*
X0159956Y0046385D01*
X0158548Y0046385D01*
X0157552Y0045389D01*
X0157552Y0043981D01*
X0158548Y0042985D01*
X0159956Y0042985D01*
X0160952Y0043981D01*
X0154456Y0030398D02*
X0154456Y0031807D01*
X0153460Y0032802D01*
X0152052Y0032802D01*
X0151056Y0031807D01*
X0151056Y0030398D01*
X0152052Y0029402D01*
X0153460Y0029402D01*
X0154456Y0030398D01*
X0058393Y0149690D02*
X0058393Y0151098D01*
X0057397Y0152094D01*
X0056424Y0152094D01*
X0056424Y0152673D01*
X0055429Y0153668D01*
X0054020Y0153668D01*
X0053024Y0152673D01*
X0053024Y0151264D01*
X0054020Y0150269D01*
X0054993Y0150269D01*
X0054993Y0149690D01*
X0055989Y0148694D01*
X0057397Y0148694D01*
X0058393Y0149690D01*
X0135558Y0092800D02*
X0135558Y0094208D01*
X0134562Y0095204D01*
X0133154Y0095204D01*
X0132874Y0094924D01*
X0132594Y0095204D01*
X0131186Y0095204D01*
X0130190Y0094208D01*
X0130190Y0092800D01*
X0130738Y0092251D01*
X0130201Y0092251D01*
X0129206Y0091255D01*
X0129206Y0089847D01*
X0129486Y0089567D01*
X0129206Y0089287D01*
X0129206Y0087879D01*
X0129486Y0087598D01*
X0129206Y0087318D01*
X0129206Y0085910D01*
X0129486Y0085630D01*
X0129206Y0085350D01*
X0129206Y0083941D01*
X0129486Y0083661D01*
X0129206Y0083381D01*
X0129206Y0081973D01*
X0129486Y0081693D01*
X0129206Y0081413D01*
X0129206Y0080004D01*
X0129486Y0079724D01*
X0129206Y0079444D01*
X0129206Y0078036D01*
X0130201Y0077040D01*
X0131610Y0077040D01*
X0132382Y0077812D01*
X0133154Y0077040D01*
X0134562Y0077040D01*
X0135558Y0078036D01*
X0135558Y0079444D01*
X0134562Y0080440D01*
X0133154Y0080440D01*
X0132382Y0079668D01*
X0132325Y0079724D01*
X0132605Y0080004D01*
X0132605Y0081413D01*
X0132325Y0081693D01*
X0132382Y0081749D01*
X0133154Y0080977D01*
X0134562Y0080977D01*
X0135558Y0081973D01*
X0135558Y0083381D01*
X0134562Y0084377D01*
X0133154Y0084377D01*
X0132382Y0083605D01*
X0132325Y0083661D01*
X0132605Y0083941D01*
X0132605Y0085350D01*
X0132325Y0085630D01*
X0132382Y0085686D01*
X0133154Y0084914D01*
X0134562Y0084914D01*
X0135558Y0085910D01*
X0135558Y0087318D01*
X0134562Y0088314D01*
X0133154Y0088314D01*
X0132382Y0087542D01*
X0132325Y0087598D01*
X0132605Y0087879D01*
X0132605Y0089287D01*
X0132325Y0089567D01*
X0132605Y0089847D01*
X0132605Y0091255D01*
X0132057Y0091804D01*
X0132594Y0091804D01*
X0132874Y0092084D01*
X0133154Y0091804D01*
X0134562Y0091804D01*
X0135558Y0092800D01*
X0050803Y0114016D02*
X0050803Y0115118D01*
X0050381Y0116137D01*
X0049602Y0116917D01*
X0048583Y0117339D01*
X0047480Y0117339D01*
X0046461Y0116917D01*
X0045682Y0116137D01*
X0045260Y0115118D01*
X0045260Y0114016D01*
X0045682Y0112997D01*
X0046461Y0112217D01*
X0047480Y0111795D01*
X0048583Y0111795D01*
X0049602Y0112217D01*
X0050381Y0112997D01*
X0050803Y0114016D01*
X0070094Y0027008D02*
X0070094Y0028110D01*
X0069673Y0029129D01*
X0068893Y0029909D01*
X0067874Y0030331D01*
X0066772Y0030331D01*
X0065753Y0029909D01*
X0064973Y0029129D01*
X0064551Y0028110D01*
X0064551Y0027008D01*
X0064973Y0025989D01*
X0065753Y0025209D01*
X0066772Y0024787D01*
X0067874Y0024787D01*
X0068893Y0025209D01*
X0069673Y0025989D01*
X0070094Y0027008D01*
X0102417Y0142677D02*
X0102417Y0143780D01*
X0101995Y0144798D01*
X0101216Y0145578D01*
X0100197Y0146000D01*
X0099094Y0146000D01*
X0098076Y0145578D01*
X0097296Y0144798D01*
X0096874Y0143780D01*
X0096874Y0142677D01*
X0097296Y0141658D01*
X0098076Y0140879D01*
X0099094Y0140457D01*
X0100197Y0140457D01*
X0101216Y0140879D01*
X0101995Y0141658D01*
X0102417Y0142677D01*
X0166976Y0141855D02*
X0166976Y0143263D01*
X0165980Y0144259D01*
X0164571Y0144259D01*
X0163576Y0143263D01*
X0163576Y0141855D01*
X0163993Y0141437D01*
X0163576Y0141019D01*
X0163576Y0139611D01*
X0164053Y0139134D01*
X0163576Y0138657D01*
X0163576Y0137249D01*
X0164571Y0136253D01*
X0165980Y0136253D01*
X0166976Y0137249D01*
X0166976Y0138657D01*
X0166499Y0139134D01*
X0166976Y0139611D01*
X0166976Y0141019D01*
X0166558Y0141437D01*
X0166976Y0141855D01*
X0106610Y0044102D02*
X0105201Y0044102D01*
X0104206Y0043106D01*
X0104206Y0041697D01*
X0105201Y0040702D01*
X0106610Y0040702D01*
X0107067Y0041159D01*
X0107524Y0040702D01*
X0108933Y0040702D01*
X0109429Y0041198D01*
X0109926Y0040702D01*
X0111334Y0040702D01*
X0112330Y0041697D01*
X0112330Y0043106D01*
X0111334Y0044102D01*
X0109926Y0044102D01*
X0109429Y0043605D01*
X0108933Y0044102D01*
X0107524Y0044102D01*
X0107067Y0043644D01*
X0106610Y0044102D01*
X0074928Y0093390D02*
X0074928Y0094799D01*
X0073933Y0095794D01*
X0072524Y0095794D01*
X0071528Y0094799D01*
X0071528Y0093390D01*
X0072524Y0092394D01*
X0073933Y0092394D01*
X0074928Y0093390D01*
X0074535Y0103233D02*
X0074535Y0104641D01*
X0073539Y0105637D01*
X0072130Y0105637D01*
X0071135Y0104641D01*
X0071135Y0103233D01*
X0072130Y0102237D01*
X0073539Y0102237D01*
X0074535Y0103233D01*
X0117448Y0053233D02*
X0117448Y0054641D01*
X0116452Y0055637D01*
X0115044Y0055637D01*
X0114048Y0054641D01*
X0114048Y0053233D01*
X0115044Y0052237D01*
X0116452Y0052237D01*
X0117448Y0053233D01*
X0138205Y0019527D02*
X0138205Y0020630D01*
X0137783Y0021649D01*
X0137003Y0022428D01*
X0135984Y0022850D01*
X0134882Y0022850D01*
X0133863Y0022428D01*
X0133083Y0021649D01*
X0132661Y0020630D01*
X0132661Y0019527D01*
X0133083Y0018509D01*
X0133863Y0017729D01*
X0134882Y0017307D01*
X0135984Y0017307D01*
X0137003Y0017729D01*
X0137783Y0018509D01*
X0138205Y0019527D01*
X0106031Y0063469D02*
X0106031Y0064877D01*
X0105035Y0065873D01*
X0103627Y0065873D01*
X0102631Y0064877D01*
X0102631Y0063469D01*
X0103627Y0062473D01*
X0105035Y0062473D01*
X0106031Y0063469D01*
X0055637Y0059138D02*
X0055637Y0060547D01*
X0054641Y0061543D01*
X0053233Y0061543D01*
X0052237Y0060547D01*
X0052237Y0059138D01*
X0053233Y0058143D01*
X0054641Y0058143D01*
X0055637Y0059138D01*
X0168629Y0073705D02*
X0168629Y0075114D01*
X0167633Y0076109D01*
X0166225Y0076109D01*
X0165229Y0075114D01*
X0165229Y0073705D01*
X0166225Y0072709D01*
X0167633Y0072709D01*
X0168629Y0073705D01*
X0153263Y0021779D02*
X0151855Y0021779D01*
X0150859Y0020783D01*
X0150859Y0019375D01*
X0151434Y0018799D01*
X0150859Y0018224D01*
X0150859Y0016816D01*
X0151855Y0015820D01*
X0153263Y0015820D01*
X0153937Y0016493D01*
X0154611Y0015820D01*
X0156019Y0015820D01*
X0157015Y0016816D01*
X0157015Y0018224D01*
X0156440Y0018799D01*
X0157015Y0019375D01*
X0157015Y0020783D01*
X0156019Y0021779D01*
X0154611Y0021779D01*
X0153937Y0021105D01*
X0153263Y0021779D01*
X0168039Y0053233D02*
X0168039Y0054641D01*
X0167043Y0055637D01*
X0165634Y0055637D01*
X0164639Y0054641D01*
X0164639Y0053233D01*
X0165634Y0052237D01*
X0167043Y0052237D01*
X0168039Y0053233D01*
X0151306Y0038666D02*
X0151306Y0040074D01*
X0150310Y0041070D01*
X0148902Y0041070D01*
X0147906Y0040074D01*
X0147906Y0038666D01*
X0148902Y0037670D01*
X0150310Y0037670D01*
X0151306Y0038666D01*
X0147369Y0038666D02*
X0147369Y0040074D01*
X0146373Y0041070D01*
X0144965Y0041070D01*
X0143969Y0040074D01*
X0143969Y0038666D01*
X0144965Y0037670D01*
X0146373Y0037670D01*
X0147369Y0038666D01*
X0143432Y0038666D02*
X0143432Y0040074D01*
X0142436Y0041070D01*
X0141028Y0041070D01*
X0140032Y0040074D01*
X0140032Y0038666D01*
X0141028Y0037670D01*
X0142436Y0037670D01*
X0143432Y0038666D01*
X0143432Y0042603D02*
X0143432Y0044011D01*
X0142436Y0045007D01*
X0141028Y0045007D01*
X0140032Y0044011D01*
X0140032Y0042603D01*
X0141028Y0041607D01*
X0142436Y0041607D01*
X0143432Y0042603D01*
X0147369Y0042603D02*
X0147369Y0044011D01*
X0146373Y0045007D01*
X0144965Y0045007D01*
X0143969Y0044011D01*
X0143969Y0042603D01*
X0144965Y0041607D01*
X0146373Y0041607D01*
X0147369Y0042603D01*
X0151306Y0042603D02*
X0151306Y0044011D01*
X0150310Y0045007D01*
X0148902Y0045007D01*
X0147906Y0044011D01*
X0147906Y0042603D01*
X0148902Y0041607D01*
X0150310Y0041607D01*
X0151306Y0042603D01*
X0147369Y0046540D02*
X0147369Y0047948D01*
X0146373Y0048944D01*
X0144965Y0048944D01*
X0143969Y0047948D01*
X0143969Y0046540D01*
X0144965Y0045544D01*
X0146373Y0045544D01*
X0147369Y0046540D01*
X0143432Y0046540D02*
X0143432Y0047948D01*
X0142436Y0048944D01*
X0141028Y0048944D01*
X0140032Y0047948D01*
X0140032Y0046540D01*
X0141028Y0045544D01*
X0142436Y0045544D01*
X0143432Y0046540D01*
X0150310Y0076503D02*
X0148902Y0076503D01*
X0147906Y0075507D01*
X0147906Y0074099D01*
X0148679Y0073327D01*
X0148622Y0073270D01*
X0148342Y0073550D01*
X0146934Y0073550D01*
X0146654Y0073270D01*
X0146597Y0073327D01*
X0147369Y0074099D01*
X0147369Y0075507D01*
X0146373Y0076503D01*
X0144965Y0076503D01*
X0143969Y0075507D01*
X0143969Y0074099D01*
X0144742Y0073327D01*
X0144685Y0073270D01*
X0144405Y0073550D01*
X0142997Y0073550D01*
X0142717Y0073270D01*
X0142660Y0073327D01*
X0143432Y0074099D01*
X0143432Y0075507D01*
X0142436Y0076503D01*
X0141028Y0076503D01*
X0140032Y0075507D01*
X0140032Y0074099D01*
X0140805Y0073327D01*
X0140748Y0073270D01*
X0140468Y0073550D01*
X0139060Y0073550D01*
X0138780Y0073270D01*
X0138723Y0073327D01*
X0139495Y0074099D01*
X0139495Y0075507D01*
X0138499Y0076503D01*
X0137091Y0076503D01*
X0136095Y0075507D01*
X0136095Y0074099D01*
X0136867Y0073327D01*
X0136095Y0072555D01*
X0136095Y0071146D01*
X0137091Y0070150D01*
X0138499Y0070150D01*
X0138780Y0070430D01*
X0139060Y0070150D01*
X0140468Y0070150D01*
X0140748Y0070430D01*
X0141028Y0070150D01*
X0142436Y0070150D01*
X0142717Y0070430D01*
X0142997Y0070150D01*
X0144405Y0070150D01*
X0144685Y0070430D01*
X0144965Y0070150D01*
X0146373Y0070150D01*
X0146654Y0070430D01*
X0146934Y0070150D01*
X0148342Y0070150D01*
X0148622Y0070430D01*
X0148902Y0070150D01*
X0150310Y0070150D01*
X0151306Y0071146D01*
X0151306Y0072555D01*
X0150534Y0073327D01*
X0151083Y0073875D01*
X0151855Y0073103D01*
X0153263Y0073103D01*
X0154259Y0074099D01*
X0154259Y0075507D01*
X0153979Y0075787D01*
X0154259Y0076067D01*
X0154259Y0077476D01*
X0153979Y0077756D01*
X0154259Y0078036D01*
X0154259Y0079444D01*
X0153979Y0079724D01*
X0154259Y0080004D01*
X0154259Y0081413D01*
X0153263Y0082409D01*
X0151855Y0082409D01*
X0150859Y0081413D01*
X0150859Y0080004D01*
X0151139Y0079724D01*
X0151083Y0079668D01*
X0150310Y0080440D01*
X0148902Y0080440D01*
X0147906Y0079444D01*
X0147906Y0078036D01*
X0148902Y0077040D01*
X0150310Y0077040D01*
X0151083Y0077812D01*
X0151139Y0077756D01*
X0150859Y0077476D01*
X0150859Y0076067D01*
X0151139Y0075787D01*
X0151083Y0075731D01*
X0150310Y0076503D01*
X0100177Y0132455D02*
X0099079Y0132909D01*
X0097890Y0132909D01*
X0096792Y0132455D01*
X0095951Y0131614D01*
X0095496Y0130516D01*
X0095496Y0129327D01*
X0095951Y0128229D01*
X0096792Y0127388D01*
X0097890Y0126933D01*
X0099079Y0126933D01*
X0100177Y0127388D01*
X0100984Y0128195D01*
X0101792Y0127388D01*
X0102890Y0126933D01*
X0104079Y0126933D01*
X0105177Y0127388D01*
X0105984Y0128195D01*
X0106792Y0127388D01*
X0107890Y0126933D01*
X0109079Y0126933D01*
X0110177Y0127388D01*
X0110984Y0128195D01*
X0111792Y0127388D01*
X0112890Y0126933D01*
X0114079Y0126933D01*
X0115177Y0127388D01*
X0115984Y0128195D01*
X0116792Y0127388D01*
X0117890Y0126933D01*
X0119079Y0126933D01*
X0120177Y0127388D01*
X0120984Y0128195D01*
X0121792Y0127388D01*
X0122890Y0126933D01*
X0124079Y0126933D01*
X0125177Y0127388D01*
X0125984Y0128195D01*
X0126792Y0127388D01*
X0127890Y0126933D01*
X0129079Y0126933D01*
X0130177Y0127388D01*
X0130984Y0128195D01*
X0131792Y0127388D01*
X0132890Y0126933D01*
X0134079Y0126933D01*
X0135177Y0127388D01*
X0135984Y0128195D01*
X0136792Y0127388D01*
X0137890Y0126933D01*
X0139079Y0126933D01*
X0140177Y0127388D01*
X0140984Y0128195D01*
X0141792Y0127388D01*
X0142890Y0126933D01*
X0144079Y0126933D01*
X0145177Y0127388D01*
X0145984Y0128195D01*
X0146792Y0127388D01*
X0147890Y0126933D01*
X0149079Y0126933D01*
X0150177Y0127388D01*
X0150984Y0128195D01*
X0151792Y0127388D01*
X0152890Y0126933D01*
X0154079Y0126933D01*
X0155177Y0127388D01*
X0156018Y0128229D01*
X0156472Y0129327D01*
X0156472Y0130516D01*
X0156018Y0131614D01*
X0155177Y0132455D01*
X0154079Y0132909D01*
X0152890Y0132909D01*
X0151792Y0132455D01*
X0150984Y0131647D01*
X0150177Y0132455D01*
X0149079Y0132909D01*
X0147890Y0132909D01*
X0146792Y0132455D01*
X0145984Y0131647D01*
X0145177Y0132455D01*
X0144079Y0132909D01*
X0142890Y0132909D01*
X0141792Y0132455D01*
X0140984Y0131647D01*
X0140177Y0132455D01*
X0139079Y0132909D01*
X0137890Y0132909D01*
X0136792Y0132455D01*
X0135984Y0131647D01*
X0135177Y0132455D01*
X0134079Y0132909D01*
X0132890Y0132909D01*
X0131792Y0132455D01*
X0130984Y0131647D01*
X0130177Y0132455D01*
X0129079Y0132909D01*
X0127890Y0132909D01*
X0126792Y0132455D01*
X0125984Y0131647D01*
X0125177Y0132455D01*
X0124079Y0132909D01*
X0122890Y0132909D01*
X0121792Y0132455D01*
X0120984Y0131647D01*
X0120177Y0132455D01*
X0119079Y0132909D01*
X0117890Y0132909D01*
X0116792Y0132455D01*
X0115984Y0131647D01*
X0115177Y0132455D01*
X0114079Y0132909D01*
X0112890Y0132909D01*
X0111792Y0132455D01*
X0110984Y0131647D01*
X0110177Y0132455D01*
X0109079Y0132909D01*
X0107890Y0132909D01*
X0106792Y0132455D01*
X0105984Y0131647D01*
X0105177Y0132455D01*
X0104079Y0132909D01*
X0102890Y0132909D01*
X0101792Y0132455D01*
X0100984Y0131647D01*
X0100177Y0132455D01*
X0097476Y0124583D02*
X0097476Y0125772D01*
X0097021Y0126870D01*
X0096181Y0127710D01*
X0095083Y0128165D01*
X0093894Y0128165D01*
X0092796Y0127710D01*
X0091955Y0126870D01*
X0091500Y0125772D01*
X0091500Y0124583D01*
X0091955Y0123484D01*
X0092762Y0122677D01*
X0091955Y0121870D01*
X0091500Y0120772D01*
X0091500Y0119583D01*
X0091955Y0118484D01*
X0092762Y0117677D01*
X0091955Y0116870D01*
X0091500Y0115772D01*
X0091500Y0114583D01*
X0091955Y0113484D01*
X0092762Y0112677D01*
X0091955Y0111870D01*
X0091500Y0110772D01*
X0091500Y0109583D01*
X0091955Y0108484D01*
X0092762Y0107677D01*
X0091955Y0106870D01*
X0091500Y0105772D01*
X0091500Y0104583D01*
X0091955Y0103484D01*
X0092762Y0102677D01*
X0091955Y0101870D01*
X0091500Y0100772D01*
X0091500Y0099583D01*
X0091955Y0098484D01*
X0092762Y0097677D01*
X0091955Y0096870D01*
X0091500Y0095772D01*
X0091500Y0094583D01*
X0091955Y0093484D01*
X0092762Y0092677D01*
X0091955Y0091870D01*
X0091500Y0090772D01*
X0091500Y0089583D01*
X0091955Y0088484D01*
X0092762Y0087677D01*
X0091955Y0086870D01*
X0091500Y0085772D01*
X0091500Y0084583D01*
X0091955Y0083484D01*
X0092762Y0082677D01*
X0091955Y0081870D01*
X0091500Y0080772D01*
X0091500Y0079583D01*
X0091955Y0078484D01*
X0092762Y0077677D01*
X0091955Y0076870D01*
X0091500Y0075772D01*
X0091500Y0074583D01*
X0091955Y0073484D01*
X0092762Y0072677D01*
X0091955Y0071870D01*
X0091500Y0070772D01*
X0091500Y0069583D01*
X0091955Y0068484D01*
X0092762Y0067677D01*
X0091955Y0066870D01*
X0091500Y0065772D01*
X0091500Y0064583D01*
X0091955Y0063484D01*
X0092762Y0062677D01*
X0091955Y0061870D01*
X0091500Y0060772D01*
X0091500Y0059583D01*
X0091955Y0058484D01*
X0092762Y0057677D01*
X0091955Y0056870D01*
X0091500Y0055772D01*
X0091500Y0054583D01*
X0091955Y0053484D01*
X0092762Y0052677D01*
X0091955Y0051870D01*
X0091500Y0050772D01*
X0091500Y0049583D01*
X0091955Y0048484D01*
X0092762Y0047677D01*
X0091955Y0046870D01*
X0091500Y0045772D01*
X0091500Y0044583D01*
X0091955Y0043484D01*
X0092762Y0042677D01*
X0091955Y0041870D01*
X0091500Y0040772D01*
X0091500Y0039583D01*
X0091955Y0038484D01*
X0092796Y0037644D01*
X0093894Y0037189D01*
X0095083Y0037189D01*
X0096181Y0037644D01*
X0097021Y0038484D01*
X0097476Y0039583D01*
X0097476Y0040772D01*
X0097021Y0041870D01*
X0096214Y0042677D01*
X0097021Y0043484D01*
X0097476Y0044583D01*
X0097476Y0045772D01*
X0097021Y0046870D01*
X0096214Y0047677D01*
X0097021Y0048484D01*
X0097476Y0049583D01*
X0097476Y0050772D01*
X0097021Y0051870D01*
X0096214Y0052677D01*
X0097021Y0053484D01*
X0097476Y0054583D01*
X0097476Y0055772D01*
X0097021Y0056870D01*
X0096214Y0057677D01*
X0097021Y0058484D01*
X0097476Y0059583D01*
X0097476Y0060772D01*
X0097021Y0061870D01*
X0096214Y0062677D01*
X0097021Y0063484D01*
X0097476Y0064583D01*
X0097476Y0065772D01*
X0097021Y0066870D01*
X0096214Y0067677D01*
X0097021Y0068484D01*
X0097476Y0069583D01*
X0097476Y0070772D01*
X0097021Y0071870D01*
X0096214Y0072677D01*
X0097021Y0073484D01*
X0097476Y0074583D01*
X0097476Y0075772D01*
X0097021Y0076870D01*
X0096214Y0077677D01*
X0097021Y0078484D01*
X0097476Y0079583D01*
X0097476Y0080772D01*
X0097021Y0081870D01*
X0096214Y0082677D01*
X0097021Y0083484D01*
X0097476Y0084583D01*
X0097476Y0085772D01*
X0097021Y0086870D01*
X0096214Y0087677D01*
X0097021Y0088484D01*
X0097476Y0089583D01*
X0097476Y0090772D01*
X0097021Y0091870D01*
X0096214Y0092677D01*
X0097021Y0093484D01*
X0097476Y0094583D01*
X0097476Y0095772D01*
X0097021Y0096870D01*
X0096214Y0097677D01*
X0097021Y0098484D01*
X0097476Y0099583D01*
X0097476Y0100772D01*
X0097021Y0101870D01*
X0096214Y0102677D01*
X0097021Y0103484D01*
X0097476Y0104583D01*
X0097476Y0105772D01*
X0097021Y0106870D01*
X0096214Y0107677D01*
X0097021Y0108484D01*
X0097476Y0109583D01*
X0097476Y0110772D01*
X0097021Y0111870D01*
X0096214Y0112677D01*
X0097021Y0113484D01*
X0097476Y0114583D01*
X0097476Y0115772D01*
X0097021Y0116870D01*
X0096214Y0117677D01*
X0097021Y0118484D01*
X0097476Y0119583D01*
X0097476Y0120772D01*
X0097021Y0121870D01*
X0096214Y0122677D01*
X0097021Y0123484D01*
X0097476Y0124583D01*
X0011174Y0007218D02*
X0011174Y0008530D01*
X0010672Y0009743D01*
X0009743Y0010672D01*
X0008530Y0011174D01*
X0007218Y0011174D01*
X0006005Y0010672D01*
X0005076Y0009743D01*
X0004574Y0008530D01*
X0004574Y0007218D01*
X0005076Y0006005D01*
X0006005Y0005076D01*
X0007218Y0004574D01*
X0008530Y0004574D01*
X0009743Y0005076D01*
X0010672Y0006005D01*
X0011174Y0007218D01*
X0011174Y0145013D02*
X0011174Y0146326D01*
X0010672Y0147539D01*
X0009743Y0148467D01*
X0008530Y0148969D01*
X0007218Y0148969D01*
X0006005Y0148467D01*
X0005076Y0147539D01*
X0004574Y0146326D01*
X0004574Y0145013D01*
X0005076Y0143800D01*
X0006005Y0142872D01*
X0007218Y0142369D01*
X0008530Y0142369D01*
X0009743Y0142872D01*
X0010672Y0143800D01*
X0011174Y0145013D01*
X0157993Y0119968D02*
X0157993Y0121371D01*
X0157001Y0122363D01*
X0155598Y0122363D01*
X0154606Y0121371D01*
X0154606Y0119968D01*
X0155598Y0118976D01*
X0157001Y0118976D01*
X0157993Y0119968D01*
X0157993Y0116228D02*
X0157993Y0117631D01*
X0157001Y0118623D01*
X0155598Y0118623D01*
X0154606Y0117631D01*
X0154606Y0116228D01*
X0155598Y0115235D01*
X0157001Y0115235D01*
X0157993Y0116228D01*
X0157993Y0112487D02*
X0157993Y0113891D01*
X0157001Y0114883D01*
X0155598Y0114883D01*
X0154606Y0113891D01*
X0154606Y0112487D01*
X0155598Y0111495D01*
X0157001Y0111495D01*
X0157993Y0112487D01*
X0110761Y0025259D02*
X0109531Y0026489D01*
X0107792Y0026489D01*
X0106562Y0025259D01*
X0106562Y0023638D01*
X0105748Y0023638D01*
X0104729Y0023216D01*
X0103950Y0022436D01*
X0103528Y0021417D01*
X0103528Y0020315D01*
X0103950Y0019296D01*
X0104729Y0018516D01*
X0105748Y0018094D01*
X0106851Y0018094D01*
X0107869Y0018516D01*
X0108649Y0019296D01*
X0108972Y0020077D01*
X0109068Y0019847D01*
X0109847Y0019068D01*
X0110866Y0018646D01*
X0111969Y0018646D01*
X0112987Y0019068D01*
X0113767Y0019847D01*
X0114189Y0020866D01*
X0114189Y0021969D01*
X0113767Y0022987D01*
X0112987Y0023767D01*
X0111969Y0024189D01*
X0110866Y0024189D01*
X0110761Y0024145D01*
X0110761Y0025259D01*
X0025091Y0039514D02*
X0025091Y0041195D01*
X0024448Y0042748D01*
X0023259Y0043936D01*
X0021707Y0044579D01*
X0020026Y0044579D01*
X0018473Y0043936D01*
X0017284Y0042748D01*
X0016641Y0041195D01*
X0016641Y0039514D01*
X0017284Y0037961D01*
X0018473Y0036773D01*
X0020026Y0036129D01*
X0021707Y0036129D01*
X0023259Y0036773D01*
X0024448Y0037961D01*
X0025091Y0039514D01*
X0025091Y0049514D02*
X0025091Y0051195D01*
X0024448Y0052748D01*
X0023259Y0053936D01*
X0021707Y0054579D01*
X0020026Y0054579D01*
X0018473Y0053936D01*
X0017284Y0052748D01*
X0016641Y0051195D01*
X0016641Y0049514D01*
X0017284Y0047961D01*
X0018473Y0046773D01*
X0020026Y0046129D01*
X0021707Y0046129D01*
X0023259Y0046773D01*
X0024448Y0047961D01*
X0025091Y0049514D01*
X0025091Y0059514D02*
X0025091Y0061195D01*
X0024448Y0062748D01*
X0023259Y0063936D01*
X0021707Y0064579D01*
X0020026Y0064579D01*
X0018473Y0063936D01*
X0017284Y0062748D01*
X0016641Y0061195D01*
X0016641Y0059514D01*
X0017284Y0057961D01*
X0018473Y0056773D01*
X0020026Y0056129D01*
X0021707Y0056129D01*
X0023259Y0056773D01*
X0024448Y0057961D01*
X0025091Y0059514D01*
X0025091Y0069514D02*
X0025091Y0071195D01*
X0024448Y0072748D01*
X0023259Y0073936D01*
X0021707Y0074579D01*
X0020026Y0074579D01*
X0018473Y0073936D01*
X0017284Y0072748D01*
X0016641Y0071195D01*
X0016641Y0069514D01*
X0017284Y0067961D01*
X0018473Y0066773D01*
X0020026Y0066129D01*
X0021707Y0066129D01*
X0023259Y0066773D01*
X0024448Y0067961D01*
X0025091Y0069514D01*
X0025091Y0079514D02*
X0025091Y0081195D01*
X0024448Y0082748D01*
X0023259Y0083936D01*
X0021707Y0084579D01*
X0020026Y0084579D01*
X0018473Y0083936D01*
X0017284Y0082748D01*
X0016641Y0081195D01*
X0016641Y0079514D01*
X0017284Y0077961D01*
X0018473Y0076773D01*
X0020026Y0076129D01*
X0021707Y0076129D01*
X0023259Y0076773D01*
X0024448Y0077961D01*
X0025091Y0079514D01*
X0025091Y0089514D02*
X0025091Y0091195D01*
X0024448Y0092748D01*
X0023259Y0093936D01*
X0021707Y0094579D01*
X0020026Y0094579D01*
X0018473Y0093936D01*
X0017284Y0092748D01*
X0016641Y0091195D01*
X0016641Y0089514D01*
X0017284Y0087961D01*
X0018473Y0086773D01*
X0020026Y0086129D01*
X0021707Y0086129D01*
X0023259Y0086773D01*
X0024448Y0087961D01*
X0025091Y0089514D01*
X0025091Y0099514D02*
X0025091Y0101195D01*
X0024448Y0102748D01*
X0023259Y0103936D01*
X0021707Y0104579D01*
X0020026Y0104579D01*
X0018473Y0103936D01*
X0017284Y0102748D01*
X0016641Y0101195D01*
X0016641Y0099514D01*
X0017284Y0097961D01*
X0018473Y0096773D01*
X0020026Y0096129D01*
X0021707Y0096129D01*
X0023259Y0096773D01*
X0024448Y0097961D01*
X0025091Y0099514D01*
X0025091Y0109514D02*
X0025091Y0111195D01*
X0024448Y0112748D01*
X0023259Y0113936D01*
X0021707Y0114579D01*
X0020026Y0114579D01*
X0018473Y0113936D01*
X0017284Y0112748D01*
X0016641Y0111195D01*
X0016641Y0109514D01*
X0017284Y0107961D01*
X0018473Y0106773D01*
X0020026Y0106129D01*
X0021707Y0106129D01*
X0023259Y0106773D01*
X0024448Y0107961D01*
X0025091Y0109514D01*
X0131610Y0076503D02*
X0130201Y0076503D01*
X0129206Y0075507D01*
X0129206Y0074099D01*
X0129486Y0073819D01*
X0129206Y0073539D01*
X0129206Y0072130D01*
X0130201Y0071135D01*
X0131610Y0071135D01*
X0132158Y0071683D01*
X0132158Y0071146D01*
X0133154Y0070150D01*
X0134562Y0070150D01*
X0135558Y0071146D01*
X0135558Y0072555D01*
X0134786Y0073327D01*
X0135558Y0074099D01*
X0135558Y0075507D01*
X0134562Y0076503D01*
X0133154Y0076503D01*
X0132382Y0075731D01*
X0131610Y0076503D01*
X0152291Y0097130D02*
X0152291Y0098539D01*
X0151295Y0099535D01*
X0149886Y0099535D01*
X0148891Y0098539D01*
X0148891Y0097130D01*
X0149886Y0096135D01*
X0151295Y0096135D01*
X0152291Y0097130D01*
X0129062Y0092800D02*
X0129062Y0094208D01*
X0128066Y0095204D01*
X0126658Y0095204D01*
X0125662Y0094208D01*
X0125662Y0092800D01*
X0126658Y0091804D01*
X0128066Y0091804D01*
X0129062Y0092800D01*
X0156621Y0066619D02*
X0156621Y0068027D01*
X0155625Y0069023D01*
X0154217Y0069023D01*
X0153221Y0068027D01*
X0153221Y0066619D01*
X0154217Y0065623D01*
X0155625Y0065623D01*
X0156621Y0066619D01*
X0136346Y0036304D02*
X0136346Y0037712D01*
X0135350Y0038708D01*
X0133941Y0038708D01*
X0132946Y0037712D01*
X0132946Y0036304D01*
X0133941Y0035308D01*
X0135350Y0035308D01*
X0136346Y0036304D01*
X0129653Y0051658D02*
X0129653Y0053066D01*
X0128657Y0054062D01*
X0127249Y0054062D01*
X0126253Y0053066D01*
X0126253Y0051658D01*
X0127249Y0050662D01*
X0128657Y0050662D01*
X0129653Y0051658D01*
X0108393Y0056776D02*
X0108393Y0058184D01*
X0107397Y0059180D01*
X0105989Y0059180D01*
X0104993Y0058184D01*
X0104993Y0056776D01*
X0105989Y0055780D01*
X0107397Y0055780D01*
X0108393Y0056776D01*
X0113117Y0052839D02*
X0113117Y0054247D01*
X0112121Y0055243D01*
X0110713Y0055243D01*
X0109717Y0054247D01*
X0109717Y0052839D01*
X0110713Y0051843D01*
X0112121Y0051843D01*
X0113117Y0052839D01*
X0138511Y0104217D02*
X0138511Y0105625D01*
X0137515Y0106621D01*
X0136107Y0106621D01*
X0135111Y0105625D01*
X0135111Y0104217D01*
X0136107Y0103221D01*
X0137515Y0103221D01*
X0138511Y0104217D01*
X0143432Y0081973D02*
X0143432Y0083381D01*
X0142436Y0084377D01*
X0141028Y0084377D01*
X0140032Y0083381D01*
X0140032Y0081973D01*
X0141028Y0080977D01*
X0142436Y0080977D01*
X0143432Y0081973D01*
X0143432Y0085910D02*
X0143432Y0087318D01*
X0142436Y0088314D01*
X0141028Y0088314D01*
X0140032Y0087318D01*
X0140032Y0085910D01*
X0141028Y0084914D01*
X0142436Y0084914D01*
X0143432Y0085910D01*
X0139495Y0085910D02*
X0139495Y0087318D01*
X0138499Y0088314D01*
X0137091Y0088314D01*
X0136095Y0087318D01*
X0136095Y0085910D01*
X0137091Y0084914D01*
X0138499Y0084914D01*
X0139495Y0085910D01*
X0147369Y0085910D02*
X0147369Y0087318D01*
X0146373Y0088314D01*
X0144965Y0088314D01*
X0143969Y0087318D01*
X0143969Y0085910D01*
X0144965Y0084914D01*
X0146373Y0084914D01*
X0147369Y0085910D01*
X0150310Y0088314D02*
X0148902Y0088314D01*
X0147906Y0087318D01*
X0147906Y0085910D01*
X0148902Y0084914D01*
X0150310Y0084914D01*
X0151083Y0085686D01*
X0151855Y0084914D01*
X0153263Y0084914D01*
X0154259Y0085910D01*
X0154259Y0087318D01*
X0153263Y0088314D01*
X0151855Y0088314D01*
X0151083Y0087542D01*
X0150310Y0088314D01*
X0139495Y0081973D02*
X0139495Y0083381D01*
X0138499Y0084377D01*
X0137091Y0084377D01*
X0136095Y0083381D01*
X0136095Y0081973D01*
X0137091Y0080977D01*
X0138499Y0080977D01*
X0139495Y0081973D01*
X0147369Y0081973D02*
X0147369Y0083381D01*
X0146373Y0084377D01*
X0144965Y0084377D01*
X0143969Y0083381D01*
X0143969Y0081973D01*
X0144965Y0080977D01*
X0146373Y0080977D01*
X0147369Y0081973D01*
X0151306Y0081973D02*
X0151306Y0083381D01*
X0150310Y0084377D01*
X0148902Y0084377D01*
X0147906Y0083381D01*
X0147906Y0081973D01*
X0148902Y0080977D01*
X0150310Y0080977D01*
X0151306Y0081973D01*
X0147369Y0078036D02*
X0147369Y0079444D01*
X0146373Y0080440D01*
X0144965Y0080440D01*
X0143969Y0079444D01*
X0143969Y0078036D01*
X0144965Y0077040D01*
X0146373Y0077040D01*
X0147369Y0078036D01*
X0143432Y0078036D02*
X0143432Y0079444D01*
X0142436Y0080440D01*
X0141028Y0080440D01*
X0140032Y0079444D01*
X0140032Y0078036D01*
X0141028Y0077040D01*
X0142436Y0077040D01*
X0143432Y0078036D01*
X0139495Y0078036D02*
X0139495Y0079444D01*
X0138499Y0080440D01*
X0137091Y0080440D01*
X0136095Y0079444D01*
X0136095Y0078036D01*
X0137091Y0077040D01*
X0138499Y0077040D01*
X0139495Y0078036D01*
X0110558Y0102839D02*
X0110558Y0104247D01*
X0109562Y0105243D01*
X0108154Y0105243D01*
X0107158Y0104247D01*
X0107158Y0102839D01*
X0108154Y0101843D01*
X0109562Y0101843D01*
X0110558Y0102839D01*
X0118039Y0100477D02*
X0118039Y0101885D01*
X0117043Y0102881D01*
X0115634Y0102881D01*
X0114639Y0101885D01*
X0114639Y0100477D01*
X0115634Y0099481D01*
X0117043Y0099481D01*
X0118039Y0100477D01*
X0106031Y0074886D02*
X0106031Y0076295D01*
X0105035Y0077291D01*
X0103627Y0077291D01*
X0102631Y0076295D01*
X0102631Y0074886D01*
X0103627Y0073891D01*
X0105035Y0073891D01*
X0106031Y0074886D01*
X0106031Y0068981D02*
X0106031Y0070389D01*
X0105035Y0071385D01*
X0103627Y0071385D01*
X0102631Y0070389D01*
X0102631Y0068981D01*
X0103627Y0067985D01*
X0105035Y0067985D01*
X0106031Y0068981D01*
X0157409Y0107564D02*
X0157409Y0108972D01*
X0156413Y0109968D01*
X0155004Y0109968D01*
X0154009Y0108972D01*
X0154009Y0107564D01*
X0155004Y0106568D01*
X0156413Y0106568D01*
X0157409Y0107564D01*
X0152684Y0107564D02*
X0152684Y0108972D01*
X0151688Y0109968D01*
X0150280Y0109968D01*
X0149284Y0108972D01*
X0149284Y0107564D01*
X0150280Y0106568D01*
X0151688Y0106568D01*
X0152684Y0107564D01*
X0173157Y0091028D02*
X0173157Y0092436D01*
X0172161Y0093432D01*
X0170753Y0093432D01*
X0169757Y0092436D01*
X0169757Y0091028D01*
X0170753Y0090032D01*
X0172161Y0090032D01*
X0173157Y0091028D01*
X0129259Y0041816D02*
X0129259Y0043224D01*
X0128263Y0044220D01*
X0126855Y0044220D01*
X0125859Y0043224D01*
X0125859Y0041816D01*
X0126855Y0040820D01*
X0128263Y0040820D01*
X0129259Y0041816D01*
X0110755Y0117406D02*
X0110755Y0118814D01*
X0109759Y0119810D01*
X0108351Y0119810D01*
X0107355Y0118814D01*
X0107355Y0117406D01*
X0108351Y0116410D01*
X0109759Y0116410D01*
X0110755Y0117406D01*
X0176700Y0126166D02*
X0176700Y0127574D01*
X0175704Y0128570D01*
X0174296Y0128570D01*
X0173300Y0127574D01*
X0173300Y0126166D01*
X0174296Y0125170D01*
X0175704Y0125170D01*
X0176700Y0126166D01*
X0137231Y0111993D02*
X0137231Y0113401D01*
X0136236Y0114397D01*
X0134827Y0114397D01*
X0133831Y0113401D01*
X0133831Y0111993D01*
X0134827Y0110997D01*
X0136236Y0110997D01*
X0137231Y0111993D01*
X0141976Y0141225D02*
X0141976Y0141841D01*
X0142209Y0141607D01*
X0143618Y0141607D01*
X0144613Y0142603D01*
X0144613Y0144011D01*
X0143618Y0145007D01*
X0142209Y0145007D01*
X0141213Y0144011D01*
X0141213Y0143395D01*
X0140980Y0143629D01*
X0139571Y0143629D01*
X0138576Y0142633D01*
X0138576Y0141225D01*
X0139571Y0140229D01*
X0140980Y0140229D01*
X0141976Y0141225D01*
X0046188Y0054138D02*
X0046188Y0055547D01*
X0045192Y0056543D01*
X0043784Y0056543D01*
X0042788Y0055547D01*
X0042788Y0054138D01*
X0043784Y0053143D01*
X0045192Y0053143D01*
X0046188Y0054138D01*
X0055834Y0140792D02*
X0055834Y0142200D01*
X0054838Y0143196D01*
X0053430Y0143196D01*
X0052434Y0142200D01*
X0052434Y0140792D01*
X0053430Y0139796D01*
X0054838Y0139796D01*
X0055834Y0140792D01*
X0055834Y0135516D02*
X0055834Y0136925D01*
X0054838Y0137920D01*
X0053430Y0137920D01*
X0052434Y0136925D01*
X0052434Y0135516D01*
X0053430Y0134520D01*
X0054838Y0134520D01*
X0055834Y0135516D01*
X0050440Y0135280D02*
X0050440Y0136688D01*
X0049444Y0137684D01*
X0048036Y0137684D01*
X0047040Y0136688D01*
X0047040Y0135280D01*
X0048036Y0134284D01*
X0049444Y0134284D01*
X0050440Y0135280D01*
X0050637Y0140713D02*
X0050637Y0142121D01*
X0049641Y0143117D01*
X0048233Y0143117D01*
X0047237Y0142121D01*
X0047237Y0140713D01*
X0048233Y0139717D01*
X0049641Y0139717D01*
X0050637Y0140713D01*
X0068550Y0060398D02*
X0068550Y0061807D01*
X0067555Y0062802D01*
X0066146Y0062802D01*
X0065150Y0061807D01*
X0065150Y0060398D01*
X0066146Y0059402D01*
X0067555Y0059402D01*
X0068550Y0060398D01*
X0072487Y0060398D02*
X0072487Y0061807D01*
X0071492Y0062802D01*
X0070083Y0062802D01*
X0069087Y0061807D01*
X0069087Y0060398D01*
X0070083Y0059402D01*
X0071492Y0059402D01*
X0072487Y0060398D01*
X0068550Y0064335D02*
X0068550Y0065744D01*
X0067555Y0066739D01*
X0066146Y0066739D01*
X0065150Y0065744D01*
X0065150Y0064335D01*
X0066146Y0063339D01*
X0067555Y0063339D01*
X0068550Y0064335D01*
X0072487Y0064335D02*
X0072487Y0065744D01*
X0071492Y0066739D01*
X0070083Y0066739D01*
X0069087Y0065744D01*
X0069087Y0064335D01*
X0070083Y0063339D01*
X0071492Y0063339D01*
X0072487Y0064335D01*
X0076424Y0068272D02*
X0076424Y0069681D01*
X0075429Y0070676D01*
X0074020Y0070676D01*
X0073024Y0069681D01*
X0073024Y0068272D01*
X0074020Y0067276D01*
X0075429Y0067276D01*
X0076424Y0068272D01*
X0076424Y0072209D02*
X0076424Y0073618D01*
X0075429Y0074613D01*
X0074020Y0074613D01*
X0073024Y0073618D01*
X0073024Y0072209D01*
X0074020Y0071213D01*
X0075429Y0071213D01*
X0076424Y0072209D01*
X0076424Y0076146D02*
X0076424Y0077555D01*
X0075429Y0078550D01*
X0074020Y0078550D01*
X0073024Y0077555D01*
X0073024Y0076146D01*
X0074020Y0075150D01*
X0075429Y0075150D01*
X0076424Y0076146D01*
X0072487Y0080083D02*
X0072487Y0081492D01*
X0071492Y0082487D01*
X0070083Y0082487D01*
X0069087Y0081492D01*
X0069087Y0080083D01*
X0070083Y0079087D01*
X0071492Y0079087D01*
X0072487Y0080083D01*
X0072487Y0076146D02*
X0072487Y0077555D01*
X0071492Y0078550D01*
X0070083Y0078550D01*
X0069087Y0077555D01*
X0069087Y0076146D01*
X0070083Y0075150D01*
X0071492Y0075150D01*
X0072487Y0076146D01*
X0072487Y0072209D02*
X0072487Y0073618D01*
X0071492Y0074613D01*
X0070083Y0074613D01*
X0069087Y0073618D01*
X0069087Y0072209D01*
X0070083Y0071213D01*
X0071492Y0071213D01*
X0072487Y0072209D01*
X0072487Y0068272D02*
X0072487Y0069681D01*
X0071492Y0070676D01*
X0070083Y0070676D01*
X0069087Y0069681D01*
X0069087Y0068272D01*
X0070083Y0067276D01*
X0071492Y0067276D01*
X0072487Y0068272D01*
X0068550Y0068272D02*
X0068550Y0069681D01*
X0067555Y0070676D01*
X0066146Y0070676D01*
X0065150Y0069681D01*
X0065150Y0068272D01*
X0066146Y0067276D01*
X0067555Y0067276D01*
X0068550Y0068272D01*
X0068550Y0072209D02*
X0068550Y0073618D01*
X0067555Y0074613D01*
X0066146Y0074613D01*
X0065150Y0073618D01*
X0065150Y0072209D01*
X0066146Y0071213D01*
X0067555Y0071213D01*
X0068550Y0072209D01*
X0068550Y0076146D02*
X0068550Y0077555D01*
X0067555Y0078550D01*
X0066146Y0078550D01*
X0065150Y0077555D01*
X0065150Y0076146D01*
X0066146Y0075150D01*
X0067555Y0075150D01*
X0068550Y0076146D01*
X0068550Y0080083D02*
X0068550Y0081492D01*
X0067555Y0082487D01*
X0066146Y0082487D01*
X0065150Y0081492D01*
X0065150Y0080083D01*
X0066146Y0079087D01*
X0067555Y0079087D01*
X0068550Y0080083D01*
X0064613Y0076146D02*
X0064613Y0077555D01*
X0063618Y0078550D01*
X0062209Y0078550D01*
X0061213Y0077555D01*
X0061213Y0076146D01*
X0062209Y0075150D01*
X0063618Y0075150D01*
X0064613Y0076146D01*
X0064613Y0072209D02*
X0064613Y0073618D01*
X0063618Y0074613D01*
X0062209Y0074613D01*
X0061213Y0073618D01*
X0061213Y0072209D01*
X0062209Y0071213D01*
X0063618Y0071213D01*
X0064613Y0072209D01*
X0064613Y0068272D02*
X0064613Y0069681D01*
X0063618Y0070676D01*
X0062209Y0070676D01*
X0061213Y0069681D01*
X0061213Y0068272D01*
X0062209Y0067276D01*
X0063618Y0067276D01*
X0064613Y0068272D01*
X0074535Y0098902D02*
X0074535Y0100310D01*
X0073539Y0101306D01*
X0072130Y0101306D01*
X0071135Y0100310D01*
X0071135Y0098902D01*
X0072130Y0097906D01*
X0073539Y0097906D01*
X0074535Y0098902D01*
X0163314Y0096146D02*
X0163314Y0097555D01*
X0162318Y0098550D01*
X0160910Y0098550D01*
X0159914Y0097555D01*
X0159914Y0096146D01*
X0160910Y0095150D01*
X0162318Y0095150D01*
X0163314Y0096146D01*
X0175480Y0103351D02*
X0175480Y0104759D01*
X0174484Y0105755D01*
X0173075Y0105755D01*
X0172080Y0104759D01*
X0172080Y0103351D01*
X0173075Y0102355D01*
X0174484Y0102355D01*
X0175480Y0103351D01*
X0156228Y0088863D02*
X0156228Y0090271D01*
X0155232Y0091267D01*
X0153823Y0091267D01*
X0152828Y0090271D01*
X0152828Y0088863D01*
X0153823Y0087867D01*
X0155232Y0087867D01*
X0156228Y0088863D01*
X0130440Y0016225D02*
X0130440Y0017633D01*
X0129979Y0018094D01*
X0130315Y0018094D01*
X0131334Y0018516D01*
X0132113Y0019296D01*
X0132535Y0020315D01*
X0132535Y0021417D01*
X0132174Y0022291D01*
X0132366Y0022291D01*
X0133595Y0023520D01*
X0133595Y0025259D01*
X0132366Y0026489D01*
X0130627Y0026489D01*
X0129397Y0025259D01*
X0129397Y0023638D01*
X0129212Y0023638D01*
X0128194Y0023216D01*
X0127414Y0022436D01*
X0126992Y0021417D01*
X0126992Y0020315D01*
X0127414Y0019296D01*
X0128081Y0018629D01*
X0128036Y0018629D01*
X0127040Y0017633D01*
X0127040Y0016225D01*
X0128036Y0015229D01*
X0129444Y0015229D01*
X0130440Y0016225D01*
X0126503Y0016264D02*
X0126503Y0017673D01*
X0125507Y0018668D01*
X0124099Y0018668D01*
X0123103Y0017673D01*
X0123103Y0016264D01*
X0124099Y0015269D01*
X0125507Y0015269D01*
X0126503Y0016264D01*
X0140283Y0119768D02*
X0140283Y0121177D01*
X0139287Y0122172D01*
X0137879Y0122172D01*
X0136883Y0121177D01*
X0136883Y0119768D01*
X0137879Y0118772D01*
X0139287Y0118772D01*
X0140283Y0119768D01*
X0058157Y0127957D02*
X0058157Y0129366D01*
X0057161Y0130361D01*
X0055753Y0130361D01*
X0054757Y0129366D01*
X0054757Y0128432D01*
X0054180Y0128432D01*
X0054180Y0129641D01*
X0053184Y0130637D01*
X0051776Y0130637D01*
X0050780Y0129641D01*
X0050780Y0128233D01*
X0051776Y0127237D01*
X0052788Y0127237D01*
X0052788Y0126028D01*
X0053784Y0125032D01*
X0055192Y0125032D01*
X0056188Y0126028D01*
X0056188Y0126961D01*
X0057161Y0126961D01*
X0058157Y0127957D01*
X0138905Y0042701D02*
X0138905Y0044110D01*
X0137909Y0045105D01*
X0136501Y0045105D01*
X0135505Y0044110D01*
X0135505Y0042701D01*
X0136501Y0041706D01*
X0137909Y0041706D01*
X0138905Y0042701D01*
X0167842Y0038272D02*
X0167842Y0039681D01*
X0166846Y0040676D01*
X0165438Y0040676D01*
X0164442Y0039681D01*
X0164442Y0038272D01*
X0165438Y0037276D01*
X0166846Y0037276D01*
X0167842Y0038272D01*
X0140046Y0062760D02*
X0140046Y0064169D01*
X0139051Y0065165D01*
X0137642Y0065165D01*
X0136646Y0064169D01*
X0136646Y0062760D01*
X0137642Y0061765D01*
X0139051Y0061765D01*
X0140046Y0062760D01*
X0125716Y0055595D02*
X0125716Y0057003D01*
X0124720Y0057999D01*
X0123312Y0057999D01*
X0122316Y0057003D01*
X0122316Y0055595D01*
X0123312Y0054599D01*
X0124720Y0054599D01*
X0125716Y0055595D01*
X0146373Y0095204D02*
X0144965Y0095204D01*
X0144685Y0094924D01*
X0144405Y0095204D01*
X0142997Y0095204D01*
X0142717Y0094924D01*
X0142436Y0095204D01*
X0141028Y0095204D01*
X0140748Y0094924D01*
X0140468Y0095204D01*
X0139060Y0095204D01*
X0138780Y0094924D01*
X0138499Y0095204D01*
X0137091Y0095204D01*
X0136095Y0094208D01*
X0136095Y0092800D01*
X0137091Y0091804D01*
X0138499Y0091804D01*
X0138780Y0092084D01*
X0139060Y0091804D01*
X0140468Y0091804D01*
X0140748Y0092084D01*
X0141028Y0091804D01*
X0142436Y0091804D01*
X0142717Y0092084D01*
X0142997Y0091804D01*
X0144405Y0091804D01*
X0144685Y0092084D01*
X0144965Y0091804D01*
X0146373Y0091804D01*
X0146654Y0092084D01*
X0146934Y0091804D01*
X0148342Y0091804D01*
X0149338Y0092800D01*
X0149338Y0094208D01*
X0148342Y0095204D01*
X0146934Y0095204D01*
X0146654Y0094924D01*
X0146373Y0095204D01*
X0071157Y0054173D02*
X0071157Y0055276D01*
X0070736Y0056294D01*
X0069956Y0057074D01*
X0068937Y0057496D01*
X0067834Y0057496D01*
X0066816Y0057074D01*
X0066036Y0056294D01*
X0065614Y0055276D01*
X0065614Y0054173D01*
X0066036Y0053154D01*
X0066816Y0052375D01*
X0067834Y0051953D01*
X0068937Y0051953D01*
X0069956Y0052375D01*
X0070736Y0053154D01*
X0071157Y0054173D01*
X0077063Y0054173D02*
X0077063Y0055276D01*
X0076641Y0056294D01*
X0075861Y0057074D01*
X0074843Y0057496D01*
X0073740Y0057496D01*
X0072721Y0057074D01*
X0071942Y0056294D01*
X0071520Y0055276D01*
X0071520Y0054173D01*
X0071942Y0053154D01*
X0072721Y0052375D01*
X0073740Y0051953D01*
X0074843Y0051953D01*
X0075861Y0052375D01*
X0076641Y0053154D01*
X0077063Y0054173D01*
X0165243Y0118154D02*
X0165243Y0119562D01*
X0164247Y0120558D01*
X0162839Y0120558D01*
X0161843Y0119562D01*
X0161843Y0118154D01*
X0162839Y0117158D01*
X0164247Y0117158D01*
X0165243Y0118154D01*
X0155165Y0148036D02*
X0155165Y0149444D01*
X0154169Y0150440D01*
X0152760Y0150440D01*
X0151765Y0149444D01*
X0151765Y0148036D01*
X0152760Y0147040D01*
X0154169Y0147040D01*
X0155165Y0148036D01*
X0122960Y0052839D02*
X0122960Y0054247D01*
X0121964Y0055243D01*
X0120556Y0055243D01*
X0119560Y0054247D01*
X0119560Y0052839D01*
X0120556Y0051843D01*
X0121964Y0051843D01*
X0122960Y0052839D01*
X0166333Y0001997D02*
X0002710Y0001997D01*
X0172250Y0001997D02*
X0177165Y0001997D01*
X0166041Y0002996D02*
X0001826Y0002996D01*
X0172541Y0002996D02*
X0177165Y0002996D01*
X0166042Y0003994D02*
X0001412Y0003994D01*
X0172541Y0003994D02*
X0177165Y0003994D01*
X0006207Y0004993D02*
X0001300Y0004993D01*
X0009541Y0004993D02*
X0166455Y0004993D01*
X0172127Y0004993D02*
X0177165Y0004993D01*
X0005090Y0005991D02*
X0001300Y0005991D01*
X0010658Y0005991D02*
X0167051Y0005991D01*
X0171532Y0005991D02*
X0177165Y0005991D01*
X0004668Y0006990D02*
X0001300Y0006990D01*
X0011080Y0006990D02*
X0166336Y0006990D01*
X0172247Y0006990D02*
X0177165Y0006990D01*
X0004574Y0007988D02*
X0001300Y0007988D01*
X0011174Y0007988D02*
X0166041Y0007988D01*
X0172541Y0007988D02*
X0177165Y0007988D01*
X0004763Y0008987D02*
X0001300Y0008987D01*
X0010985Y0008987D02*
X0166041Y0008987D01*
X0172541Y0008987D02*
X0177165Y0008987D01*
X0005318Y0009985D02*
X0001300Y0009985D01*
X0010430Y0009985D02*
X0166452Y0009985D01*
X0172130Y0009985D02*
X0177165Y0009985D01*
X0006758Y0010984D02*
X0001300Y0010984D01*
X0008990Y0010984D02*
X0167058Y0010984D01*
X0171525Y0010984D02*
X0177165Y0010984D01*
X0166339Y0011982D02*
X0001300Y0011982D01*
X0172244Y0011982D02*
X0177165Y0011982D01*
X0166041Y0012981D02*
X0001300Y0012981D01*
X0172541Y0012981D02*
X0177165Y0012981D01*
X0166041Y0013979D02*
X0001300Y0013979D01*
X0172541Y0013979D02*
X0177165Y0013979D01*
X0166449Y0014978D02*
X0001300Y0014978D01*
X0172133Y0014978D02*
X0177165Y0014978D01*
X0123391Y0015976D02*
X0001300Y0015976D01*
X0126215Y0015976D02*
X0127289Y0015976D01*
X0130191Y0015976D02*
X0151698Y0015976D01*
X0153420Y0015976D02*
X0154454Y0015976D01*
X0156176Y0015976D02*
X0167065Y0015976D01*
X0171517Y0015976D02*
X0177165Y0015976D01*
X0123103Y0016975D02*
X0001300Y0016975D01*
X0126503Y0016975D02*
X0127040Y0016975D01*
X0130440Y0016975D02*
X0150859Y0016975D01*
X0157015Y0016975D02*
X0166342Y0016975D01*
X0172241Y0016975D02*
X0177165Y0016975D01*
X0123404Y0017973D02*
X0001300Y0017973D01*
X0126203Y0017973D02*
X0127380Y0017973D01*
X0130100Y0017973D02*
X0133619Y0017973D01*
X0137247Y0017973D02*
X0150859Y0017973D01*
X0157015Y0017973D02*
X0166041Y0017973D01*
X0172541Y0017973D02*
X0177165Y0017973D01*
X0104274Y0018972D02*
X0001300Y0018972D01*
X0108324Y0018972D02*
X0110079Y0018972D01*
X0112756Y0018972D02*
X0127738Y0018972D01*
X0131789Y0018972D02*
X0132892Y0018972D01*
X0137975Y0018972D02*
X0151262Y0018972D01*
X0156612Y0018972D02*
X0166041Y0018972D01*
X0172541Y0018972D02*
X0177165Y0018972D01*
X0103670Y0019970D02*
X0001300Y0019970D01*
X0108928Y0019970D02*
X0109017Y0019970D01*
X0113818Y0019970D02*
X0127135Y0019970D01*
X0132393Y0019970D02*
X0132661Y0019970D01*
X0138205Y0019970D02*
X0150859Y0019970D01*
X0157015Y0019970D02*
X0166446Y0019970D01*
X0172137Y0019970D02*
X0177165Y0019970D01*
X0103528Y0020969D02*
X0001300Y0020969D01*
X0114189Y0020969D02*
X0126992Y0020969D01*
X0132535Y0020969D02*
X0132802Y0020969D01*
X0138064Y0020969D02*
X0151045Y0020969D01*
X0156829Y0020969D02*
X0167073Y0020969D01*
X0171510Y0020969D02*
X0177165Y0020969D01*
X0103755Y0021967D02*
X0001300Y0021967D01*
X0114189Y0021967D02*
X0127220Y0021967D01*
X0132308Y0021967D02*
X0133402Y0021967D01*
X0137464Y0021967D02*
X0166345Y0021967D01*
X0172238Y0021967D02*
X0177165Y0021967D01*
X0104479Y0022966D02*
X0001300Y0022966D01*
X0113776Y0022966D02*
X0127944Y0022966D01*
X0133041Y0022966D02*
X0166041Y0022966D01*
X0172541Y0022966D02*
X0177165Y0022966D01*
X0106562Y0023964D02*
X0001300Y0023964D01*
X0112511Y0023964D02*
X0129397Y0023964D01*
X0133595Y0023964D02*
X0166041Y0023964D01*
X0172541Y0023964D02*
X0177165Y0023964D01*
X0066348Y0024963D02*
X0001300Y0024963D01*
X0068298Y0024963D02*
X0106562Y0024963D01*
X0110761Y0024963D02*
X0129397Y0024963D01*
X0133595Y0024963D02*
X0166443Y0024963D01*
X0172140Y0024963D02*
X0177165Y0024963D01*
X0065001Y0025961D02*
X0001300Y0025961D01*
X0069645Y0025961D02*
X0107264Y0025961D01*
X0110059Y0025961D02*
X0130099Y0025961D01*
X0132893Y0025961D02*
X0167080Y0025961D01*
X0171502Y0025961D02*
X0177165Y0025961D01*
X0064571Y0026960D02*
X0001300Y0026960D01*
X0070075Y0026960D02*
X0166348Y0026960D01*
X0172235Y0026960D02*
X0177165Y0026960D01*
X0064551Y0027958D02*
X0001300Y0027958D01*
X0070094Y0027958D02*
X0166041Y0027958D01*
X0172541Y0027958D02*
X0177165Y0027958D01*
X0064902Y0028957D02*
X0001300Y0028957D01*
X0069744Y0028957D02*
X0166041Y0028957D01*
X0172541Y0028957D02*
X0176229Y0028957D01*
X0065865Y0029955D02*
X0001300Y0029955D01*
X0068780Y0029955D02*
X0151499Y0029955D01*
X0154013Y0029955D02*
X0166440Y0029955D01*
X0172143Y0029955D02*
X0174700Y0029955D01*
X0151056Y0030954D02*
X0001300Y0030954D01*
X0154456Y0030954D02*
X0167303Y0030954D01*
X0171280Y0030954D02*
X0174117Y0030954D01*
X0151202Y0031952D02*
X0001300Y0031952D01*
X0154310Y0031952D02*
X0173915Y0031952D01*
X0174006Y0032951D02*
X0001300Y0032951D01*
X0001300Y0033949D02*
X0174432Y0033949D01*
X0174708Y0034948D02*
X0001300Y0034948D01*
X0001300Y0035946D02*
X0133303Y0035946D01*
X0135988Y0035946D02*
X0174120Y0035946D01*
X0018301Y0036945D02*
X0001300Y0036945D01*
X0023432Y0036945D02*
X0132946Y0036945D01*
X0136346Y0036945D02*
X0173915Y0036945D01*
X0017302Y0037943D02*
X0001300Y0037943D01*
X0024430Y0037943D02*
X0092496Y0037943D01*
X0096480Y0037943D02*
X0133177Y0037943D01*
X0136114Y0037943D02*
X0140755Y0037943D01*
X0142710Y0037943D02*
X0144692Y0037943D01*
X0146647Y0037943D02*
X0148629Y0037943D01*
X0150584Y0037943D02*
X0164771Y0037943D01*
X0167513Y0037943D02*
X0174002Y0037943D01*
X0016878Y0038942D02*
X0001300Y0038942D01*
X0024854Y0038942D02*
X0091765Y0038942D01*
X0097211Y0038942D02*
X0101174Y0038942D01*
X0103551Y0038942D02*
X0140032Y0038942D01*
X0143432Y0038942D02*
X0143969Y0038942D01*
X0147369Y0038942D02*
X0147906Y0038942D01*
X0151306Y0038942D02*
X0164442Y0038942D01*
X0167842Y0038942D02*
X0174424Y0038942D01*
X0016641Y0039940D02*
X0001300Y0039940D01*
X0025091Y0039940D02*
X0091500Y0039940D01*
X0097476Y0039940D02*
X0100662Y0039940D01*
X0104062Y0039940D02*
X0140032Y0039940D01*
X0143432Y0039940D02*
X0143969Y0039940D01*
X0147369Y0039940D02*
X0147906Y0039940D01*
X0151306Y0039940D02*
X0164702Y0039940D01*
X0167582Y0039940D02*
X0174715Y0039940D01*
X0016641Y0040939D02*
X0001300Y0040939D01*
X0025091Y0040939D02*
X0091569Y0040939D01*
X0097407Y0040939D02*
X0100740Y0040939D01*
X0103985Y0040939D02*
X0104964Y0040939D01*
X0106847Y0040939D02*
X0107287Y0040939D01*
X0109170Y0040939D02*
X0109688Y0040939D01*
X0111571Y0040939D02*
X0126736Y0040939D01*
X0128382Y0040939D02*
X0140897Y0040939D01*
X0142568Y0040939D02*
X0144834Y0040939D01*
X0146505Y0040939D02*
X0148771Y0040939D01*
X0150442Y0040939D02*
X0174123Y0040939D01*
X0016949Y0041937D02*
X0001300Y0041937D01*
X0024783Y0041937D02*
X0092023Y0041937D01*
X0096954Y0041937D02*
X0104206Y0041937D01*
X0112330Y0041937D02*
X0125859Y0041937D01*
X0129259Y0041937D02*
X0136269Y0041937D01*
X0138141Y0041937D02*
X0140698Y0041937D01*
X0142767Y0041937D02*
X0144635Y0041937D01*
X0146704Y0041937D02*
X0148572Y0041937D01*
X0150641Y0041937D02*
X0173915Y0041937D01*
X0017473Y0042936D02*
X0001300Y0042936D01*
X0024260Y0042936D02*
X0092503Y0042936D01*
X0096473Y0042936D02*
X0104206Y0042936D01*
X0112330Y0042936D02*
X0125859Y0042936D01*
X0129259Y0042936D02*
X0135505Y0042936D01*
X0138905Y0042936D02*
X0140032Y0042936D01*
X0143432Y0042936D02*
X0143969Y0042936D01*
X0147369Y0042936D02*
X0147906Y0042936D01*
X0151306Y0042936D02*
X0173999Y0042936D01*
X0018471Y0043934D02*
X0001300Y0043934D01*
X0023261Y0043934D02*
X0091769Y0043934D01*
X0097208Y0043934D02*
X0101299Y0043934D01*
X0103425Y0043934D02*
X0105034Y0043934D01*
X0106777Y0043934D02*
X0107357Y0043934D01*
X0109100Y0043934D02*
X0109759Y0043934D01*
X0111501Y0043934D02*
X0126570Y0043934D01*
X0128548Y0043934D02*
X0135505Y0043934D01*
X0138905Y0043934D02*
X0140032Y0043934D01*
X0143432Y0043934D02*
X0143969Y0043934D01*
X0147369Y0043934D02*
X0147906Y0043934D01*
X0151306Y0043934D02*
X0157598Y0043934D01*
X0160906Y0043934D02*
X0174417Y0043934D01*
X0091500Y0044933D02*
X0001300Y0044933D01*
X0097476Y0044933D02*
X0100662Y0044933D01*
X0104062Y0044933D02*
X0136328Y0044933D01*
X0138081Y0044933D02*
X0140954Y0044933D01*
X0142511Y0044933D02*
X0144891Y0044933D01*
X0146448Y0044933D02*
X0148828Y0044933D01*
X0150385Y0044933D02*
X0157552Y0044933D01*
X0160952Y0044933D02*
X0174723Y0044933D01*
X0091566Y0045932D02*
X0001300Y0045932D01*
X0097410Y0045932D02*
X0100662Y0045932D01*
X0104062Y0045932D02*
X0140641Y0045932D01*
X0142824Y0045932D02*
X0144578Y0045932D01*
X0146761Y0045932D02*
X0158094Y0045932D01*
X0160410Y0045932D02*
X0174126Y0045932D01*
X0018315Y0046930D02*
X0001300Y0046930D01*
X0023417Y0046930D02*
X0092015Y0046930D01*
X0096961Y0046930D02*
X0101612Y0046930D01*
X0103112Y0046930D02*
X0140032Y0046930D01*
X0143432Y0046930D02*
X0143969Y0046930D01*
X0147369Y0046930D02*
X0173915Y0046930D01*
X0017317Y0047929D02*
X0001300Y0047929D01*
X0024415Y0047929D02*
X0092511Y0047929D01*
X0096465Y0047929D02*
X0140032Y0047929D01*
X0143432Y0047929D02*
X0143969Y0047929D01*
X0147369Y0047929D02*
X0173996Y0047929D01*
X0016884Y0048927D02*
X0001300Y0048927D01*
X0024848Y0048927D02*
X0091772Y0048927D01*
X0097205Y0048927D02*
X0101228Y0048927D01*
X0103497Y0048927D02*
X0141011Y0048927D01*
X0142453Y0048927D02*
X0144948Y0048927D01*
X0146390Y0048927D02*
X0174410Y0048927D01*
X0016641Y0049926D02*
X0001300Y0049926D01*
X0025091Y0049926D02*
X0091500Y0049926D01*
X0097476Y0049926D02*
X0100662Y0049926D01*
X0104062Y0049926D02*
X0174730Y0049926D01*
X0016641Y0050924D02*
X0001300Y0050924D01*
X0025091Y0050924D02*
X0091563Y0050924D01*
X0097413Y0050924D02*
X0100685Y0050924D01*
X0104039Y0050924D02*
X0126987Y0050924D01*
X0128919Y0050924D02*
X0174129Y0050924D01*
X0016943Y0051923D02*
X0001300Y0051923D01*
X0024790Y0051923D02*
X0092008Y0051923D01*
X0096969Y0051923D02*
X0110634Y0051923D01*
X0112201Y0051923D02*
X0120476Y0051923D01*
X0122043Y0051923D02*
X0126253Y0051923D01*
X0129653Y0051923D02*
X0173915Y0051923D01*
X0017458Y0052921D02*
X0001300Y0052921D01*
X0024274Y0052921D02*
X0060325Y0052921D01*
X0064557Y0052921D02*
X0066269Y0052921D01*
X0070502Y0052921D02*
X0072175Y0052921D01*
X0076408Y0052921D02*
X0092518Y0052921D01*
X0096458Y0052921D02*
X0109717Y0052921D01*
X0113117Y0052921D02*
X0114360Y0052921D01*
X0117136Y0052921D02*
X0119560Y0052921D01*
X0122960Y0052921D02*
X0126253Y0052921D01*
X0129653Y0052921D02*
X0164950Y0052921D01*
X0167727Y0052921D02*
X0173993Y0052921D01*
X0018456Y0053920D02*
X0001300Y0053920D01*
X0023276Y0053920D02*
X0043007Y0053920D01*
X0045969Y0053920D02*
X0059774Y0053920D01*
X0065108Y0053920D02*
X0065719Y0053920D01*
X0071052Y0053920D02*
X0071625Y0053920D01*
X0076958Y0053920D02*
X0091775Y0053920D01*
X0097202Y0053920D02*
X0109717Y0053920D01*
X0113117Y0053920D02*
X0114048Y0053920D01*
X0117448Y0053920D02*
X0119560Y0053920D01*
X0122960Y0053920D02*
X0127106Y0053920D01*
X0128799Y0053920D02*
X0164639Y0053920D01*
X0168039Y0053920D02*
X0174407Y0053920D01*
X0042788Y0054918D02*
X0001300Y0054918D01*
X0046188Y0054918D02*
X0059669Y0054918D01*
X0065213Y0054918D02*
X0065614Y0054918D01*
X0071157Y0054918D02*
X0071520Y0054918D01*
X0077063Y0054918D02*
X0091500Y0054918D01*
X0097476Y0054918D02*
X0110388Y0054918D01*
X0112447Y0054918D02*
X0114325Y0054918D01*
X0117171Y0054918D02*
X0117481Y0054918D01*
X0119527Y0054918D02*
X0120230Y0054918D01*
X0122289Y0054918D02*
X0122993Y0054918D01*
X0125039Y0054918D02*
X0164916Y0054918D01*
X0167762Y0054918D02*
X0174738Y0054918D01*
X0043158Y0055917D02*
X0001300Y0055917D01*
X0045818Y0055917D02*
X0059935Y0055917D01*
X0064947Y0055917D02*
X0065880Y0055917D01*
X0070892Y0055917D02*
X0071785Y0055917D01*
X0076798Y0055917D02*
X0091560Y0055917D01*
X0097416Y0055917D02*
X0105852Y0055917D01*
X0107533Y0055917D02*
X0116804Y0055917D01*
X0120204Y0055917D02*
X0122316Y0055917D01*
X0125716Y0055917D02*
X0174132Y0055917D01*
X0018330Y0056915D02*
X0001300Y0056915D01*
X0023402Y0056915D02*
X0060712Y0056915D01*
X0064170Y0056915D02*
X0066657Y0056915D01*
X0070115Y0056915D02*
X0072562Y0056915D01*
X0076020Y0056915D02*
X0092000Y0056915D01*
X0096976Y0056915D02*
X0104993Y0056915D01*
X0108393Y0056915D02*
X0116804Y0056915D01*
X0120204Y0056915D02*
X0122316Y0056915D01*
X0125716Y0056915D02*
X0173915Y0056915D01*
X0017332Y0057914D02*
X0001300Y0057914D01*
X0024401Y0057914D02*
X0092526Y0057914D01*
X0096451Y0057914D02*
X0104993Y0057914D01*
X0108393Y0057914D02*
X0117714Y0057914D01*
X0119294Y0057914D02*
X0119603Y0057914D01*
X0122916Y0057914D02*
X0123226Y0057914D01*
X0124805Y0057914D02*
X0137714Y0057914D01*
X0140239Y0057914D02*
X0143225Y0057914D01*
X0145751Y0057914D02*
X0173990Y0057914D01*
X0016890Y0058912D02*
X0001300Y0058912D01*
X0024842Y0058912D02*
X0052463Y0058912D01*
X0055411Y0058912D02*
X0091778Y0058912D01*
X0097199Y0058912D02*
X0105721Y0058912D01*
X0107665Y0058912D02*
X0119560Y0058912D01*
X0122960Y0058912D02*
X0137276Y0058912D01*
X0140676Y0058912D02*
X0142788Y0058912D01*
X0146188Y0058912D02*
X0174404Y0058912D01*
X0016641Y0059911D02*
X0001300Y0059911D01*
X0025091Y0059911D02*
X0052237Y0059911D01*
X0055637Y0059911D02*
X0065638Y0059911D01*
X0068063Y0059911D02*
X0069575Y0059911D01*
X0072000Y0059911D02*
X0091500Y0059911D01*
X0097476Y0059911D02*
X0120105Y0059911D01*
X0122415Y0059911D02*
X0137428Y0059911D01*
X0140525Y0059911D02*
X0142940Y0059911D01*
X0146037Y0059911D02*
X0175491Y0059911D01*
X0016641Y0060909D02*
X0001300Y0060909D01*
X0025091Y0060909D02*
X0052600Y0060909D01*
X0055274Y0060909D02*
X0065150Y0060909D01*
X0068550Y0060909D02*
X0069087Y0060909D01*
X0072487Y0060909D02*
X0091557Y0060909D01*
X0097419Y0060909D02*
X0177165Y0060909D01*
X0016936Y0061908D02*
X0001300Y0061908D01*
X0024796Y0061908D02*
X0065252Y0061908D01*
X0068449Y0061908D02*
X0069189Y0061908D01*
X0072386Y0061908D02*
X0091993Y0061908D01*
X0096984Y0061908D02*
X0137499Y0061908D01*
X0139194Y0061908D02*
X0177165Y0061908D01*
X0017443Y0062906D02*
X0001300Y0062906D01*
X0024289Y0062906D02*
X0092533Y0062906D01*
X0096443Y0062906D02*
X0103194Y0062906D01*
X0105468Y0062906D02*
X0136646Y0062906D01*
X0140046Y0062906D02*
X0177165Y0062906D01*
X0018441Y0063905D02*
X0001300Y0063905D01*
X0023291Y0063905D02*
X0065581Y0063905D01*
X0068120Y0063905D02*
X0069518Y0063905D01*
X0072057Y0063905D02*
X0091781Y0063905D01*
X0097196Y0063905D02*
X0102631Y0063905D01*
X0106031Y0063905D02*
X0136646Y0063905D01*
X0140046Y0063905D02*
X0177165Y0063905D01*
X0065150Y0064903D02*
X0001300Y0064903D01*
X0068550Y0064903D02*
X0069087Y0064903D01*
X0072487Y0064903D02*
X0091500Y0064903D01*
X0097476Y0064903D02*
X0102657Y0064903D01*
X0106005Y0064903D02*
X0137381Y0064903D01*
X0139312Y0064903D02*
X0142634Y0064903D01*
X0144768Y0064903D02*
X0177165Y0064903D01*
X0065309Y0065902D02*
X0001300Y0065902D01*
X0068392Y0065902D02*
X0069246Y0065902D01*
X0072329Y0065902D02*
X0091554Y0065902D01*
X0097422Y0065902D02*
X0142001Y0065902D01*
X0145401Y0065902D02*
X0153938Y0065902D01*
X0155904Y0065902D02*
X0177165Y0065902D01*
X0018345Y0066900D02*
X0001300Y0066900D01*
X0023387Y0066900D02*
X0091985Y0066900D01*
X0096991Y0066900D02*
X0142001Y0066900D01*
X0145401Y0066900D02*
X0153221Y0066900D01*
X0156621Y0066900D02*
X0177165Y0066900D01*
X0017347Y0067899D02*
X0001300Y0067899D01*
X0024386Y0067899D02*
X0061587Y0067899D01*
X0064240Y0067899D02*
X0065524Y0067899D01*
X0068177Y0067899D02*
X0069461Y0067899D01*
X0072114Y0067899D02*
X0073398Y0067899D01*
X0076051Y0067899D02*
X0092541Y0067899D01*
X0096436Y0067899D02*
X0142955Y0067899D01*
X0144446Y0067899D02*
X0153221Y0067899D01*
X0156621Y0067899D02*
X0177165Y0067899D01*
X0016897Y0068897D02*
X0001300Y0068897D01*
X0024836Y0068897D02*
X0061213Y0068897D01*
X0064613Y0068897D02*
X0065150Y0068897D01*
X0068550Y0068897D02*
X0069087Y0068897D01*
X0072487Y0068897D02*
X0073024Y0068897D01*
X0076424Y0068897D02*
X0091784Y0068897D01*
X0097192Y0068897D02*
X0102714Y0068897D01*
X0105947Y0068897D02*
X0154092Y0068897D01*
X0155751Y0068897D02*
X0174215Y0068897D01*
X0175392Y0068897D02*
X0177165Y0068897D01*
X0016641Y0069896D02*
X0001300Y0069896D01*
X0025091Y0069896D02*
X0061429Y0069896D01*
X0064398Y0069896D02*
X0065366Y0069896D01*
X0068335Y0069896D02*
X0069303Y0069896D01*
X0072272Y0069896D02*
X0073240Y0069896D01*
X0076209Y0069896D02*
X0091500Y0069896D01*
X0097476Y0069896D02*
X0102631Y0069896D01*
X0106031Y0069896D02*
X0172641Y0069896D01*
X0176965Y0069896D02*
X0177165Y0069896D01*
X0016641Y0070894D02*
X0001300Y0070894D01*
X0025091Y0070894D02*
X0091551Y0070894D01*
X0097426Y0070894D02*
X0103136Y0070894D01*
X0105526Y0070894D02*
X0132410Y0070894D01*
X0135306Y0070894D02*
X0136347Y0070894D01*
X0151054Y0070894D02*
X0172118Y0070894D01*
X0016930Y0071893D02*
X0001300Y0071893D01*
X0024802Y0071893D02*
X0061530Y0071893D01*
X0064297Y0071893D02*
X0065467Y0071893D01*
X0068234Y0071893D02*
X0069404Y0071893D01*
X0072171Y0071893D02*
X0073341Y0071893D01*
X0076108Y0071893D02*
X0091978Y0071893D01*
X0096998Y0071893D02*
X0129443Y0071893D01*
X0135558Y0071893D02*
X0136095Y0071893D01*
X0151306Y0071893D02*
X0172031Y0071893D01*
X0017428Y0072891D02*
X0001300Y0072891D01*
X0024304Y0072891D02*
X0061213Y0072891D01*
X0064613Y0072891D02*
X0065150Y0072891D01*
X0068550Y0072891D02*
X0069087Y0072891D01*
X0072487Y0072891D02*
X0073024Y0072891D01*
X0076424Y0072891D02*
X0092548Y0072891D01*
X0096428Y0072891D02*
X0129206Y0072891D01*
X0135221Y0072891D02*
X0136432Y0072891D01*
X0150970Y0072891D02*
X0166043Y0072891D01*
X0167815Y0072891D02*
X0172316Y0072891D01*
X0018427Y0073890D02*
X0001300Y0073890D01*
X0023306Y0073890D02*
X0061486Y0073890D01*
X0064341Y0073890D02*
X0065423Y0073890D01*
X0068278Y0073890D02*
X0069360Y0073890D01*
X0072215Y0073890D02*
X0073297Y0073890D01*
X0076152Y0073890D02*
X0091787Y0073890D01*
X0097189Y0073890D02*
X0129415Y0073890D01*
X0135349Y0073890D02*
X0136304Y0073890D01*
X0139286Y0073890D02*
X0140241Y0073890D01*
X0143223Y0073890D02*
X0144178Y0073890D01*
X0147160Y0073890D02*
X0148115Y0073890D01*
X0154050Y0073890D02*
X0165229Y0073890D01*
X0168629Y0073890D02*
X0173120Y0073890D01*
X0091500Y0074888D02*
X0001300Y0074888D01*
X0097476Y0074888D02*
X0102631Y0074888D01*
X0106031Y0074888D02*
X0129206Y0074888D01*
X0135558Y0074888D02*
X0136095Y0074888D01*
X0139495Y0074888D02*
X0140032Y0074888D01*
X0143432Y0074888D02*
X0143969Y0074888D01*
X0147369Y0074888D02*
X0147906Y0074888D01*
X0154259Y0074888D02*
X0165229Y0074888D01*
X0168629Y0074888D02*
X0172420Y0074888D01*
X0061473Y0075887D02*
X0001300Y0075887D01*
X0064354Y0075887D02*
X0065410Y0075887D01*
X0068291Y0075887D02*
X0069347Y0075887D01*
X0072228Y0075887D02*
X0073284Y0075887D01*
X0076165Y0075887D02*
X0091548Y0075887D01*
X0097429Y0075887D02*
X0102631Y0075887D01*
X0106031Y0075887D02*
X0129585Y0075887D01*
X0132226Y0075887D02*
X0132538Y0075887D01*
X0135179Y0075887D02*
X0136475Y0075887D01*
X0139116Y0075887D02*
X0140412Y0075887D01*
X0143053Y0075887D02*
X0144349Y0075887D01*
X0146990Y0075887D02*
X0148286Y0075887D01*
X0150927Y0075887D02*
X0151040Y0075887D01*
X0154078Y0075887D02*
X0166002Y0075887D01*
X0167856Y0075887D02*
X0172031Y0075887D01*
X0018360Y0076885D02*
X0001300Y0076885D01*
X0023372Y0076885D02*
X0061213Y0076885D01*
X0064613Y0076885D02*
X0065150Y0076885D01*
X0068550Y0076885D02*
X0069087Y0076885D01*
X0072487Y0076885D02*
X0073024Y0076885D01*
X0076424Y0076885D02*
X0091970Y0076885D01*
X0097006Y0076885D02*
X0103221Y0076885D01*
X0105440Y0076885D02*
X0150859Y0076885D01*
X0154259Y0076885D02*
X0172031Y0076885D01*
X0017362Y0077884D02*
X0001300Y0077884D01*
X0024371Y0077884D02*
X0061543Y0077884D01*
X0064284Y0077884D02*
X0065480Y0077884D01*
X0068221Y0077884D02*
X0069417Y0077884D01*
X0072158Y0077884D02*
X0073354Y0077884D01*
X0076095Y0077884D02*
X0092556Y0077884D01*
X0096421Y0077884D02*
X0129358Y0077884D01*
X0135406Y0077884D02*
X0136247Y0077884D01*
X0139343Y0077884D02*
X0140184Y0077884D01*
X0143280Y0077884D02*
X0144121Y0077884D01*
X0147217Y0077884D02*
X0148058Y0077884D01*
X0154107Y0077884D02*
X0172427Y0077884D01*
X0016903Y0078882D02*
X0001300Y0078882D01*
X0024830Y0078882D02*
X0091790Y0078882D01*
X0097186Y0078882D02*
X0129206Y0078882D01*
X0135558Y0078882D02*
X0136095Y0078882D01*
X0139495Y0078882D02*
X0140032Y0078882D01*
X0143432Y0078882D02*
X0143969Y0078882D01*
X0147369Y0078882D02*
X0147906Y0078882D01*
X0154259Y0078882D02*
X0173607Y0078882D01*
X0176000Y0078882D02*
X0177165Y0078882D01*
X0016641Y0079881D02*
X0001300Y0079881D01*
X0025091Y0079881D02*
X0065353Y0079881D01*
X0068348Y0079881D02*
X0069290Y0079881D01*
X0072285Y0079881D02*
X0091500Y0079881D01*
X0097476Y0079881D02*
X0129329Y0079881D01*
X0132482Y0079881D02*
X0132595Y0079881D01*
X0135122Y0079881D02*
X0136532Y0079881D01*
X0139059Y0079881D02*
X0140469Y0079881D01*
X0142996Y0079881D02*
X0144406Y0079881D01*
X0146933Y0079881D02*
X0148343Y0079881D01*
X0150870Y0079881D02*
X0150983Y0079881D01*
X0154135Y0079881D02*
X0177165Y0079881D01*
X0016641Y0080879D02*
X0001300Y0080879D01*
X0025091Y0080879D02*
X0065150Y0080879D01*
X0068550Y0080879D02*
X0069087Y0080879D01*
X0072487Y0080879D02*
X0091545Y0080879D01*
X0097432Y0080879D02*
X0129206Y0080879D01*
X0132605Y0080879D02*
X0150859Y0080879D01*
X0154259Y0080879D02*
X0177165Y0080879D01*
X0016924Y0081878D02*
X0001300Y0081878D01*
X0024808Y0081878D02*
X0065537Y0081878D01*
X0068164Y0081878D02*
X0069474Y0081878D01*
X0072101Y0081878D02*
X0091963Y0081878D01*
X0097013Y0081878D02*
X0129301Y0081878D01*
X0135463Y0081878D02*
X0136190Y0081878D01*
X0139400Y0081878D02*
X0140127Y0081878D01*
X0143337Y0081878D02*
X0144064Y0081878D01*
X0147274Y0081878D02*
X0148001Y0081878D01*
X0151211Y0081878D02*
X0151324Y0081878D01*
X0153794Y0081878D02*
X0177165Y0081878D01*
X0017413Y0082876D02*
X0001300Y0082876D01*
X0024319Y0082876D02*
X0092563Y0082876D01*
X0096413Y0082876D02*
X0129206Y0082876D01*
X0135558Y0082876D02*
X0136095Y0082876D01*
X0139495Y0082876D02*
X0140032Y0082876D01*
X0143432Y0082876D02*
X0143969Y0082876D01*
X0147369Y0082876D02*
X0147906Y0082876D01*
X0151306Y0082876D02*
X0177165Y0082876D01*
X0018412Y0083875D02*
X0001300Y0083875D01*
X0023321Y0083875D02*
X0091793Y0083875D01*
X0097183Y0083875D02*
X0129272Y0083875D01*
X0132539Y0083875D02*
X0132652Y0083875D01*
X0135065Y0083875D02*
X0136589Y0083875D01*
X0139002Y0083875D02*
X0140526Y0083875D01*
X0142939Y0083875D02*
X0144463Y0083875D01*
X0146876Y0083875D02*
X0148400Y0083875D01*
X0150813Y0083875D02*
X0177165Y0083875D01*
X0091500Y0084873D02*
X0001300Y0084873D01*
X0097476Y0084873D02*
X0129206Y0084873D01*
X0132605Y0084873D02*
X0177165Y0084873D01*
X0091542Y0085872D02*
X0001300Y0085872D01*
X0097435Y0085872D02*
X0129244Y0085872D01*
X0135520Y0085872D02*
X0136133Y0085872D01*
X0139457Y0085872D02*
X0140070Y0085872D01*
X0143394Y0085872D02*
X0144007Y0085872D01*
X0147331Y0085872D02*
X0147944Y0085872D01*
X0154221Y0085872D02*
X0177165Y0085872D01*
X0018375Y0086870D02*
X0001300Y0086870D01*
X0023357Y0086870D02*
X0091956Y0086870D01*
X0097021Y0086870D02*
X0129206Y0086870D01*
X0135558Y0086870D02*
X0136095Y0086870D01*
X0139495Y0086870D02*
X0140032Y0086870D01*
X0143432Y0086870D02*
X0143969Y0086870D01*
X0147369Y0086870D02*
X0147906Y0086870D01*
X0154259Y0086870D02*
X0177165Y0086870D01*
X0017376Y0087869D02*
X0001300Y0087869D01*
X0024356Y0087869D02*
X0092570Y0087869D01*
X0096406Y0087869D02*
X0129215Y0087869D01*
X0132596Y0087869D02*
X0132709Y0087869D01*
X0135008Y0087869D02*
X0136646Y0087869D01*
X0138945Y0087869D02*
X0140583Y0087869D01*
X0142882Y0087869D02*
X0144520Y0087869D01*
X0146819Y0087869D02*
X0148457Y0087869D01*
X0150756Y0087869D02*
X0151410Y0087869D01*
X0153708Y0087869D02*
X0153821Y0087869D01*
X0155234Y0087869D02*
X0177165Y0087869D01*
X0016909Y0088868D02*
X0001300Y0088868D01*
X0024823Y0088868D02*
X0091796Y0088868D01*
X0097180Y0088868D02*
X0129206Y0088868D01*
X0132605Y0088868D02*
X0152828Y0088868D01*
X0156228Y0088868D02*
X0177165Y0088868D01*
X0016641Y0089866D02*
X0001300Y0089866D01*
X0025091Y0089866D02*
X0091500Y0089866D01*
X0097476Y0089866D02*
X0129206Y0089866D01*
X0132605Y0089866D02*
X0152828Y0089866D01*
X0156228Y0089866D02*
X0177165Y0089866D01*
X0016641Y0090865D02*
X0001300Y0090865D01*
X0025091Y0090865D02*
X0091539Y0090865D01*
X0097438Y0090865D02*
X0129206Y0090865D01*
X0132605Y0090865D02*
X0153421Y0090865D01*
X0155634Y0090865D02*
X0169920Y0090865D01*
X0172993Y0090865D02*
X0177165Y0090865D01*
X0016918Y0091863D02*
X0001300Y0091863D01*
X0024814Y0091863D02*
X0091952Y0091863D01*
X0097024Y0091863D02*
X0126599Y0091863D01*
X0128125Y0091863D02*
X0129813Y0091863D01*
X0132653Y0091863D02*
X0133095Y0091863D01*
X0134622Y0091863D02*
X0137032Y0091863D01*
X0138559Y0091863D02*
X0139001Y0091863D01*
X0140527Y0091863D02*
X0140969Y0091863D01*
X0142496Y0091863D02*
X0142938Y0091863D01*
X0144464Y0091863D02*
X0144906Y0091863D01*
X0146433Y0091863D02*
X0146875Y0091863D01*
X0148401Y0091863D02*
X0169757Y0091863D01*
X0173157Y0091863D02*
X0177165Y0091863D01*
X0017398Y0092862D02*
X0001300Y0092862D01*
X0024334Y0092862D02*
X0072057Y0092862D01*
X0074400Y0092862D02*
X0092578Y0092862D01*
X0096398Y0092862D02*
X0125662Y0092862D01*
X0129062Y0092862D02*
X0130190Y0092862D01*
X0135558Y0092862D02*
X0136095Y0092862D01*
X0149338Y0092862D02*
X0170182Y0092862D01*
X0172732Y0092862D02*
X0177165Y0092862D01*
X0018397Y0093860D02*
X0001300Y0093860D01*
X0023335Y0093860D02*
X0071528Y0093860D01*
X0074928Y0093860D02*
X0091799Y0093860D01*
X0097177Y0093860D02*
X0125662Y0093860D01*
X0129062Y0093860D02*
X0130190Y0093860D01*
X0135558Y0093860D02*
X0136095Y0093860D01*
X0149338Y0093860D02*
X0177165Y0093860D01*
X0071588Y0094859D02*
X0001300Y0094859D01*
X0074868Y0094859D02*
X0091500Y0094859D01*
X0097476Y0094859D02*
X0126313Y0094859D01*
X0128412Y0094859D02*
X0130840Y0094859D01*
X0134908Y0094859D02*
X0136746Y0094859D01*
X0148687Y0094859D02*
X0177165Y0094859D01*
X0091535Y0095857D02*
X0001300Y0095857D01*
X0097441Y0095857D02*
X0160203Y0095857D01*
X0163025Y0095857D02*
X0177165Y0095857D01*
X0018390Y0096856D02*
X0001300Y0096856D01*
X0023342Y0096856D02*
X0091949Y0096856D01*
X0097027Y0096856D02*
X0149165Y0096856D01*
X0152016Y0096856D02*
X0159914Y0096856D01*
X0163314Y0096856D02*
X0177165Y0096856D01*
X0017391Y0097854D02*
X0001300Y0097854D01*
X0024341Y0097854D02*
X0092585Y0097854D01*
X0096391Y0097854D02*
X0148891Y0097854D01*
X0152291Y0097854D02*
X0160214Y0097854D01*
X0163015Y0097854D02*
X0177165Y0097854D01*
X0016915Y0098853D02*
X0001300Y0098853D01*
X0024817Y0098853D02*
X0071184Y0098853D01*
X0074485Y0098853D02*
X0091802Y0098853D01*
X0097174Y0098853D02*
X0149204Y0098853D01*
X0151977Y0098853D02*
X0177165Y0098853D01*
X0016641Y0099851D02*
X0001300Y0099851D01*
X0025091Y0099851D02*
X0071135Y0099851D01*
X0074535Y0099851D02*
X0091500Y0099851D01*
X0097476Y0099851D02*
X0115264Y0099851D01*
X0117413Y0099851D02*
X0177165Y0099851D01*
X0016641Y0100850D02*
X0001300Y0100850D01*
X0025091Y0100850D02*
X0071674Y0100850D01*
X0073995Y0100850D02*
X0091532Y0100850D01*
X0097444Y0100850D02*
X0114639Y0100850D01*
X0118039Y0100850D02*
X0177165Y0100850D01*
X0016912Y0101848D02*
X0001300Y0101848D01*
X0024820Y0101848D02*
X0091946Y0101848D01*
X0097030Y0101848D02*
X0108149Y0101848D01*
X0109567Y0101848D02*
X0114639Y0101848D01*
X0118039Y0101848D02*
X0177165Y0101848D01*
X0017383Y0102847D02*
X0001300Y0102847D01*
X0024349Y0102847D02*
X0071521Y0102847D01*
X0074148Y0102847D02*
X0092593Y0102847D01*
X0096384Y0102847D02*
X0107158Y0102847D01*
X0110558Y0102847D02*
X0115600Y0102847D01*
X0117077Y0102847D02*
X0172584Y0102847D01*
X0174975Y0102847D02*
X0177165Y0102847D01*
X0018382Y0103845D02*
X0001300Y0103845D01*
X0023350Y0103845D02*
X0071135Y0103845D01*
X0074535Y0103845D02*
X0091806Y0103845D01*
X0097171Y0103845D02*
X0107158Y0103845D01*
X0110558Y0103845D02*
X0135483Y0103845D01*
X0138139Y0103845D02*
X0172080Y0103845D01*
X0175480Y0103845D02*
X0177165Y0103845D01*
X0071337Y0104844D02*
X0001300Y0104844D01*
X0074332Y0104844D02*
X0091500Y0104844D01*
X0097476Y0104844D02*
X0107754Y0104844D01*
X0109962Y0104844D02*
X0135111Y0104844D01*
X0138511Y0104844D02*
X0172164Y0104844D01*
X0175395Y0104844D02*
X0177165Y0104844D01*
X0091529Y0105842D02*
X0001300Y0105842D01*
X0097447Y0105842D02*
X0135328Y0105842D01*
X0138294Y0105842D02*
X0177165Y0105842D01*
X0018405Y0106841D02*
X0001300Y0106841D01*
X0023328Y0106841D02*
X0091943Y0106841D01*
X0097034Y0106841D02*
X0150007Y0106841D01*
X0151961Y0106841D02*
X0154731Y0106841D01*
X0156686Y0106841D02*
X0177165Y0106841D01*
X0017406Y0107839D02*
X0001300Y0107839D01*
X0024326Y0107839D02*
X0092600Y0107839D01*
X0096376Y0107839D02*
X0149284Y0107839D01*
X0152684Y0107839D02*
X0154009Y0107839D01*
X0157409Y0107839D02*
X0177165Y0107839D01*
X0016921Y0108838D02*
X0001300Y0108838D01*
X0024811Y0108838D02*
X0091809Y0108838D01*
X0097168Y0108838D02*
X0149284Y0108838D01*
X0152684Y0108838D02*
X0154009Y0108838D01*
X0157409Y0108838D02*
X0177165Y0108838D01*
X0016641Y0109836D02*
X0001300Y0109836D01*
X0025091Y0109836D02*
X0091500Y0109836D01*
X0097476Y0109836D02*
X0150149Y0109836D01*
X0151820Y0109836D02*
X0154873Y0109836D01*
X0156544Y0109836D02*
X0177165Y0109836D01*
X0016641Y0110835D02*
X0001300Y0110835D01*
X0025091Y0110835D02*
X0091526Y0110835D01*
X0097450Y0110835D02*
X0177165Y0110835D01*
X0016906Y0111833D02*
X0001300Y0111833D01*
X0024827Y0111833D02*
X0047388Y0111833D01*
X0048675Y0111833D02*
X0091940Y0111833D01*
X0097037Y0111833D02*
X0133991Y0111833D01*
X0137072Y0111833D02*
X0155260Y0111833D01*
X0157339Y0111833D02*
X0177165Y0111833D01*
X0017369Y0112832D02*
X0001300Y0112832D01*
X0024364Y0112832D02*
X0045847Y0112832D01*
X0050216Y0112832D02*
X0092608Y0112832D01*
X0096369Y0112832D02*
X0133831Y0112832D01*
X0137231Y0112832D02*
X0154606Y0112832D01*
X0157993Y0112832D02*
X0177165Y0112832D01*
X0018367Y0113830D02*
X0001300Y0113830D01*
X0023365Y0113830D02*
X0045337Y0113830D01*
X0050726Y0113830D02*
X0091812Y0113830D01*
X0097165Y0113830D02*
X0134261Y0113830D01*
X0136802Y0113830D02*
X0154606Y0113830D01*
X0157993Y0113830D02*
X0174710Y0113830D01*
X0045260Y0114829D02*
X0001300Y0114829D01*
X0050803Y0114829D02*
X0091500Y0114829D01*
X0097476Y0114829D02*
X0155544Y0114829D01*
X0157055Y0114829D02*
X0174678Y0114829D01*
X0045554Y0115827D02*
X0001300Y0115827D01*
X0050509Y0115827D02*
X0091523Y0115827D01*
X0097453Y0115827D02*
X0155006Y0115827D01*
X0157593Y0115827D02*
X0175234Y0115827D01*
X0046371Y0116826D02*
X0001300Y0116826D01*
X0049692Y0116826D02*
X0091937Y0116826D01*
X0097040Y0116826D02*
X0107935Y0116826D01*
X0110175Y0116826D02*
X0154606Y0116826D01*
X0157993Y0116826D02*
X0177165Y0116826D01*
X0092615Y0117824D02*
X0001300Y0117824D01*
X0096361Y0117824D02*
X0107355Y0117824D01*
X0110755Y0117824D02*
X0154799Y0117824D01*
X0157799Y0117824D02*
X0162173Y0117824D01*
X0164914Y0117824D02*
X0177165Y0117824D01*
X0091815Y0118823D02*
X0001300Y0118823D01*
X0097162Y0118823D02*
X0107364Y0118823D01*
X0110747Y0118823D02*
X0137828Y0118823D01*
X0139337Y0118823D02*
X0161843Y0118823D01*
X0165243Y0118823D02*
X0177165Y0118823D01*
X0091500Y0119821D02*
X0001300Y0119821D01*
X0097476Y0119821D02*
X0136883Y0119821D01*
X0140283Y0119821D02*
X0154752Y0119821D01*
X0157847Y0119821D02*
X0162102Y0119821D01*
X0164984Y0119821D02*
X0176160Y0119821D01*
X0091520Y0120820D02*
X0001300Y0120820D01*
X0097456Y0120820D02*
X0136883Y0120820D01*
X0140283Y0120820D02*
X0154606Y0120820D01*
X0157993Y0120820D02*
X0175859Y0120820D01*
X0091934Y0121818D02*
X0001300Y0121818D01*
X0097043Y0121818D02*
X0137524Y0121818D01*
X0139641Y0121818D02*
X0155053Y0121818D01*
X0157545Y0121818D02*
X0176147Y0121818D01*
X0092623Y0122817D02*
X0001300Y0122817D01*
X0096354Y0122817D02*
X0177165Y0122817D01*
X0091818Y0123815D02*
X0001300Y0123815D01*
X0097159Y0123815D02*
X0177165Y0123815D01*
X0091500Y0124814D02*
X0001300Y0124814D01*
X0097476Y0124814D02*
X0177165Y0124814D01*
X0053004Y0125812D02*
X0001300Y0125812D01*
X0055972Y0125812D02*
X0091517Y0125812D01*
X0097459Y0125812D02*
X0173653Y0125812D01*
X0176347Y0125812D02*
X0177165Y0125812D01*
X0052788Y0126811D02*
X0001300Y0126811D01*
X0056188Y0126811D02*
X0091931Y0126811D01*
X0097046Y0126811D02*
X0173300Y0126811D01*
X0176700Y0126811D02*
X0177165Y0126811D01*
X0051204Y0127809D02*
X0001300Y0127809D01*
X0058009Y0127809D02*
X0093035Y0127809D01*
X0095942Y0127809D02*
X0096370Y0127809D01*
X0100598Y0127809D02*
X0101370Y0127809D01*
X0105598Y0127809D02*
X0106370Y0127809D01*
X0110598Y0127809D02*
X0111370Y0127809D01*
X0115598Y0127809D02*
X0116370Y0127809D01*
X0120598Y0127809D02*
X0121370Y0127809D01*
X0125598Y0127809D02*
X0126370Y0127809D01*
X0130598Y0127809D02*
X0131370Y0127809D01*
X0135598Y0127809D02*
X0136370Y0127809D01*
X0140598Y0127809D02*
X0141370Y0127809D01*
X0145598Y0127809D02*
X0146370Y0127809D01*
X0150598Y0127809D02*
X0151370Y0127809D01*
X0155598Y0127809D02*
X0173535Y0127809D01*
X0176465Y0127809D02*
X0177165Y0127809D01*
X0050780Y0128808D02*
X0001300Y0128808D01*
X0054180Y0128808D02*
X0054757Y0128808D01*
X0058157Y0128808D02*
X0095711Y0128808D01*
X0156257Y0128808D02*
X0177165Y0128808D01*
X0050946Y0129806D02*
X0001300Y0129806D01*
X0054015Y0129806D02*
X0055198Y0129806D01*
X0057716Y0129806D02*
X0095496Y0129806D01*
X0156472Y0129806D02*
X0177165Y0129806D01*
X0095616Y0130805D02*
X0001300Y0130805D01*
X0156353Y0130805D02*
X0177165Y0130805D01*
X0096141Y0131803D02*
X0001300Y0131803D01*
X0100828Y0131803D02*
X0101141Y0131803D01*
X0105828Y0131803D02*
X0106141Y0131803D01*
X0110828Y0131803D02*
X0111141Y0131803D01*
X0115828Y0131803D02*
X0116141Y0131803D01*
X0120828Y0131803D02*
X0121141Y0131803D01*
X0125828Y0131803D02*
X0126141Y0131803D01*
X0130828Y0131803D02*
X0131141Y0131803D01*
X0135828Y0131803D02*
X0136141Y0131803D01*
X0140828Y0131803D02*
X0141141Y0131803D01*
X0145828Y0131803D02*
X0146141Y0131803D01*
X0150828Y0131803D02*
X0151141Y0131803D01*
X0155828Y0131803D02*
X0177165Y0131803D01*
X0097630Y0132802D02*
X0001300Y0132802D01*
X0099338Y0132802D02*
X0102630Y0132802D01*
X0104338Y0132802D02*
X0107630Y0132802D01*
X0109338Y0132802D02*
X0112630Y0132802D01*
X0114338Y0132802D02*
X0117630Y0132802D01*
X0119338Y0132802D02*
X0122630Y0132802D01*
X0124338Y0132802D02*
X0127630Y0132802D01*
X0129338Y0132802D02*
X0132630Y0132802D01*
X0134338Y0132802D02*
X0137630Y0132802D01*
X0139338Y0132802D02*
X0142630Y0132802D01*
X0144338Y0132802D02*
X0147630Y0132802D01*
X0149338Y0132802D02*
X0152630Y0132802D01*
X0154338Y0132802D02*
X0177165Y0132802D01*
X0120366Y0133801D02*
X0001300Y0133801D01*
X0137902Y0133801D02*
X0177165Y0133801D01*
X0047521Y0134799D02*
X0001300Y0134799D01*
X0049959Y0134799D02*
X0053151Y0134799D01*
X0055117Y0134799D02*
X0120366Y0134799D01*
X0137902Y0134799D02*
X0177165Y0134799D01*
X0047040Y0135798D02*
X0001300Y0135798D01*
X0050440Y0135798D02*
X0052434Y0135798D01*
X0055834Y0135798D02*
X0120366Y0135798D01*
X0137902Y0135798D02*
X0177165Y0135798D01*
X0047148Y0136796D02*
X0001300Y0136796D01*
X0050333Y0136796D02*
X0052434Y0136796D01*
X0055834Y0136796D02*
X0120366Y0136796D01*
X0137902Y0136796D02*
X0164028Y0136796D01*
X0166523Y0136796D02*
X0177165Y0136796D01*
X0053304Y0137795D02*
X0001300Y0137795D01*
X0054964Y0137795D02*
X0120366Y0137795D01*
X0137902Y0137795D02*
X0163576Y0137795D01*
X0166976Y0137795D02*
X0177165Y0137795D01*
X0120366Y0138793D02*
X0001300Y0138793D01*
X0137902Y0138793D02*
X0163712Y0138793D01*
X0166839Y0138793D02*
X0177165Y0138793D01*
X0048159Y0139792D02*
X0001300Y0139792D01*
X0049715Y0139792D02*
X0120366Y0139792D01*
X0137902Y0139792D02*
X0163576Y0139792D01*
X0166976Y0139792D02*
X0177165Y0139792D01*
X0047237Y0140790D02*
X0001300Y0140790D01*
X0050637Y0140790D02*
X0052436Y0140790D01*
X0055832Y0140790D02*
X0098289Y0140790D01*
X0101002Y0140790D02*
X0120366Y0140790D01*
X0137902Y0140790D02*
X0139010Y0140790D01*
X0141541Y0140790D02*
X0163576Y0140790D01*
X0166976Y0140790D02*
X0177165Y0140790D01*
X0047237Y0141789D02*
X0001300Y0141789D01*
X0050637Y0141789D02*
X0052434Y0141789D01*
X0055834Y0141789D02*
X0097242Y0141789D01*
X0102049Y0141789D02*
X0120366Y0141789D01*
X0137902Y0141789D02*
X0138576Y0141789D01*
X0141976Y0141789D02*
X0142028Y0141789D01*
X0143799Y0141789D02*
X0163642Y0141789D01*
X0166909Y0141789D02*
X0177165Y0141789D01*
X0006209Y0142787D02*
X0001300Y0142787D01*
X0009539Y0142787D02*
X0047903Y0142787D01*
X0049971Y0142787D02*
X0053021Y0142787D01*
X0055247Y0142787D02*
X0096874Y0142787D01*
X0102417Y0142787D02*
X0120366Y0142787D01*
X0137902Y0142787D02*
X0138729Y0142787D01*
X0144613Y0142787D02*
X0163576Y0142787D01*
X0166976Y0142787D02*
X0177165Y0142787D01*
X0005091Y0143786D02*
X0001300Y0143786D01*
X0010657Y0143786D02*
X0096876Y0143786D01*
X0102415Y0143786D02*
X0120366Y0143786D01*
X0137902Y0143786D02*
X0141213Y0143786D01*
X0144613Y0143786D02*
X0164098Y0143786D01*
X0166453Y0143786D02*
X0177165Y0143786D01*
X0004669Y0144784D02*
X0001300Y0144784D01*
X0011079Y0144784D02*
X0097290Y0144784D01*
X0102001Y0144784D02*
X0120366Y0144784D01*
X0137902Y0144784D02*
X0141986Y0144784D01*
X0143840Y0144784D02*
X0177165Y0144784D01*
X0004574Y0145783D02*
X0001300Y0145783D01*
X0011174Y0145783D02*
X0098570Y0145783D01*
X0100722Y0145783D02*
X0120366Y0145783D01*
X0137902Y0145783D02*
X0177165Y0145783D01*
X0004763Y0146781D02*
X0001300Y0146781D01*
X0010985Y0146781D02*
X0120366Y0146781D01*
X0137902Y0146781D02*
X0177165Y0146781D01*
X0005318Y0147780D02*
X0001300Y0147780D01*
X0010431Y0147780D02*
X0051233Y0147780D01*
X0053806Y0147780D02*
X0120366Y0147780D01*
X0137902Y0147780D02*
X0152021Y0147780D01*
X0154908Y0147780D02*
X0177165Y0147780D01*
X0006756Y0148778D02*
X0001300Y0148778D01*
X0008992Y0148778D02*
X0050820Y0148778D01*
X0054220Y0148778D02*
X0055904Y0148778D01*
X0057482Y0148778D02*
X0117794Y0148778D01*
X0119214Y0148778D02*
X0120366Y0148778D01*
X0137902Y0148778D02*
X0151765Y0148778D01*
X0155165Y0148778D02*
X0177165Y0148778D01*
X0050995Y0149777D02*
X0001300Y0149777D01*
X0054045Y0149777D02*
X0054993Y0149777D01*
X0058393Y0149777D02*
X0116804Y0149777D01*
X0120204Y0149777D02*
X0120366Y0149777D01*
X0137902Y0149777D02*
X0152097Y0149777D01*
X0154832Y0149777D02*
X0177165Y0149777D01*
X0053514Y0150775D02*
X0001300Y0150775D01*
X0058393Y0150775D02*
X0116804Y0150775D01*
X0120204Y0150775D02*
X0120541Y0150775D01*
X0137727Y0150775D02*
X0177165Y0150775D01*
X0053024Y0151774D02*
X0001300Y0151774D01*
X0057717Y0151774D02*
X0117401Y0151774D01*
X0119607Y0151774D02*
X0122987Y0151774D01*
X0125516Y0151774D02*
X0134599Y0151774D01*
X0137999Y0151774D02*
X0177165Y0151774D01*
X0053124Y0152772D02*
X0001329Y0152772D01*
X0056325Y0152772D02*
X0122552Y0152772D01*
X0125952Y0152772D02*
X0134896Y0152772D01*
X0137703Y0152772D02*
X0177165Y0152772D01*
X0122705Y0153771D02*
X0001607Y0153771D01*
X0125799Y0153771D02*
X0177165Y0153771D01*
X0177165Y0154769D02*
X0002157Y0154769D01*
X0003454Y0155768D02*
X0177165Y0155768D01*
M02*
