G75*
%MOIN*%
%OFA0B0*%
%FSLAX25Y25*%
%IPPOS*%
%LPD*%
%AMOC8*
5,1,8,0,0,1.08239X$1,22.5*
%
%ADD10C,0.04500*%
%ADD11C,0.03976*%
%ADD12C,0.01387*%
%ADD13C,0.06450*%
%ADD14C,0.01400*%
%ADD15C,0.00500*%
%ADD16C,0.03543*%
D10*
X0169291Y0003346D03*
X0169291Y0008346D03*
X0169291Y0013346D03*
X0169291Y0018346D03*
X0169291Y0023346D03*
X0169291Y0028346D03*
X0177165Y0057087D03*
X0177165Y0052087D03*
X0177165Y0047087D03*
X0177165Y0042087D03*
X0177165Y0037087D03*
X0177165Y0032087D03*
D11*
X0094488Y0125177D03*
X0094488Y0120177D03*
X0094488Y0115177D03*
X0094488Y0110177D03*
X0094488Y0105177D03*
X0094488Y0100177D03*
X0094488Y0095177D03*
X0094488Y0090177D03*
X0094488Y0085177D03*
X0094488Y0080177D03*
X0094488Y0075177D03*
X0094488Y0070177D03*
X0094488Y0065177D03*
X0094488Y0060177D03*
X0094488Y0055177D03*
X0094488Y0050177D03*
X0094488Y0045177D03*
X0094488Y0040177D03*
X0098484Y0129921D03*
X0103484Y0129921D03*
X0108484Y0129921D03*
X0113484Y0129921D03*
X0118484Y0129921D03*
X0123484Y0129921D03*
X0128484Y0129921D03*
X0133484Y0129921D03*
X0138484Y0129921D03*
X0143484Y0129921D03*
X0148484Y0129921D03*
X0153484Y0129921D03*
D12*
X0156299Y0120669D03*
X0156299Y0116929D03*
X0156299Y0113189D03*
D13*
X0020866Y0040354D03*
X0020866Y0050354D03*
X0020866Y0060354D03*
X0020866Y0070354D03*
X0020866Y0080354D03*
X0020866Y0090354D03*
X0020866Y0100354D03*
X0020866Y0110354D03*
D14*
X0130906Y0074803D03*
X0150591Y0097835D03*
X0127362Y0093504D03*
X0154921Y0067323D03*
X0134646Y0037008D03*
X0127953Y0052362D03*
X0106693Y0057480D03*
X0111417Y0053543D03*
X0136811Y0104921D03*
X0141732Y0082677D03*
X0141732Y0086614D03*
X0133858Y0086614D03*
X0137795Y0086614D03*
X0145669Y0086614D03*
X0149606Y0086614D03*
X0133858Y0082677D03*
X0137795Y0082677D03*
X0145669Y0082677D03*
X0149606Y0082677D03*
X0149606Y0078740D03*
X0145669Y0078740D03*
X0141732Y0078740D03*
X0137795Y0078740D03*
X0133858Y0078740D03*
X0133858Y0074803D03*
X0137795Y0074803D03*
X0141732Y0074803D03*
X0145669Y0074803D03*
X0149606Y0074803D03*
X0141732Y0047244D03*
X0145669Y0047244D03*
X0149606Y0043307D03*
X0145669Y0043307D03*
X0141732Y0043307D03*
X0141732Y0039370D03*
X0145669Y0039370D03*
X0149606Y0039370D03*
X0166339Y0053937D03*
X0152559Y0020079D03*
X0155315Y0020079D03*
X0155315Y0017520D03*
X0152559Y0017520D03*
X0108858Y0103543D03*
X0116339Y0101181D03*
X0104331Y0075591D03*
X0104331Y0069685D03*
X0155709Y0108268D03*
X0150984Y0108268D03*
X0171457Y0091732D03*
X0127559Y0042520D03*
X0109055Y0118110D03*
X0175000Y0126870D03*
X0135531Y0112697D03*
X0140276Y0141929D03*
X0044488Y0054843D03*
X0054134Y0141496D03*
X0054134Y0136220D03*
X0048740Y0135984D03*
X0048937Y0141417D03*
X0066850Y0061102D03*
X0070787Y0061102D03*
X0066850Y0065039D03*
X0070787Y0065039D03*
X0074724Y0068976D03*
X0074724Y0072913D03*
X0074724Y0076850D03*
X0070787Y0080787D03*
X0070787Y0076850D03*
X0070787Y0072913D03*
X0070787Y0068976D03*
X0066850Y0068976D03*
X0066850Y0072913D03*
X0066850Y0076850D03*
X0066850Y0080787D03*
X0062913Y0076850D03*
X0062913Y0072913D03*
X0062913Y0068976D03*
X0072835Y0099606D03*
X0142913Y0143307D03*
X0166929Y0074409D03*
X0053937Y0059843D03*
X0104331Y0064173D03*
X0115748Y0053937D03*
X0072835Y0103937D03*
X0073228Y0094094D03*
X0105906Y0042402D03*
X0108228Y0042402D03*
X0110630Y0042402D03*
X0165276Y0142559D03*
X0165276Y0140315D03*
X0165276Y0137953D03*
X0176378Y0114567D03*
X0161614Y0096850D03*
X0173780Y0104055D03*
X0152559Y0086614D03*
X0133858Y0093504D03*
X0154528Y0089567D03*
X0133858Y0071850D03*
X0130906Y0090551D03*
X0130906Y0088583D03*
X0131890Y0093504D03*
X0128740Y0016929D03*
X0124803Y0016969D03*
X0138583Y0120472D03*
X0056457Y0128661D03*
X0054488Y0126732D03*
X0056693Y0150394D03*
X0054724Y0151969D03*
X0139764Y0071850D03*
X0152756Y0031102D03*
X0141732Y0071850D03*
X0137205Y0043406D03*
X0166142Y0038976D03*
X0147638Y0071850D03*
X0159252Y0044685D03*
X0145669Y0071850D03*
X0138346Y0063465D03*
X0143701Y0071850D03*
X0143701Y0066240D03*
X0137795Y0093504D03*
X0130906Y0086614D03*
X0130906Y0084646D03*
X0130906Y0082677D03*
X0130906Y0080709D03*
X0130906Y0078740D03*
X0130906Y0072835D03*
X0137795Y0071850D03*
X0124016Y0056299D03*
X0118504Y0056299D03*
X0139764Y0093504D03*
X0145669Y0093504D03*
X0147638Y0093504D03*
X0152559Y0074803D03*
X0152559Y0078740D03*
X0152559Y0076772D03*
X0052520Y0148898D03*
X0052480Y0128937D03*
X0149606Y0071850D03*
X0102362Y0040157D03*
X0144488Y0059055D03*
X0102362Y0045276D03*
X0138976Y0059055D03*
X0102362Y0050197D03*
X0152559Y0080709D03*
X0163543Y0118858D03*
X0177559Y0120827D03*
X0164173Y0126772D03*
X0113780Y0037008D03*
X0114173Y0067323D03*
X0163780Y0120866D03*
X0118504Y0150472D03*
X0136299Y0151772D03*
X0141732Y0093504D03*
X0153465Y0148740D03*
X0143701Y0093504D03*
X0124252Y0152913D03*
X0121260Y0053543D03*
X0121260Y0058661D03*
D15*
X0156299Y0118873D02*
X0156299Y0120669D01*
X0156299Y0120669D01*
X0156299Y0116929D01*
X0156299Y0116929D01*
X0156299Y0118873D01*
X0156299Y0115133D02*
X0156299Y0116929D01*
X0156299Y0116929D01*
X0156299Y0113189D01*
X0156299Y0113189D01*
X0156299Y0115133D01*
X0169541Y0031846D02*
X0169541Y0028597D01*
X0169041Y0028597D01*
X0169041Y0031846D01*
X0168947Y0031846D01*
X0168270Y0031712D01*
X0167633Y0031448D01*
X0167060Y0031065D01*
X0166573Y0030578D01*
X0166190Y0030004D01*
X0165926Y0029367D01*
X0165791Y0028691D01*
X0165791Y0028596D01*
X0169041Y0028596D01*
X0169041Y0028096D01*
X0165791Y0028096D01*
X0165791Y0028002D01*
X0165926Y0027326D01*
X0166190Y0026689D01*
X0166573Y0026115D01*
X0166842Y0025846D01*
X0166324Y0025329D01*
X0165791Y0024043D01*
X0165791Y0022650D01*
X0166324Y0021364D01*
X0166842Y0020846D01*
X0166324Y0020329D01*
X0165791Y0019043D01*
X0165791Y0017650D01*
X0166324Y0016364D01*
X0166842Y0015846D01*
X0166324Y0015329D01*
X0165791Y0014043D01*
X0165791Y0012650D01*
X0166324Y0011364D01*
X0166842Y0010846D01*
X0166324Y0010329D01*
X0165791Y0009043D01*
X0165791Y0007650D01*
X0166324Y0006364D01*
X0166842Y0005846D01*
X0166324Y0005329D01*
X0165791Y0004043D01*
X0165791Y0002650D01*
X0166206Y0001650D01*
X0094488Y0001650D01*
X0094488Y0036939D01*
X0095132Y0036939D01*
X0096322Y0037432D01*
X0097233Y0038343D01*
X0097726Y0039533D01*
X0097726Y0040821D01*
X0097233Y0042011D01*
X0096568Y0042677D01*
X0097233Y0043343D01*
X0097726Y0044533D01*
X0097726Y0045821D01*
X0097233Y0047011D01*
X0096568Y0047677D01*
X0097233Y0048343D01*
X0097726Y0049533D01*
X0097726Y0050821D01*
X0097233Y0052011D01*
X0096568Y0052677D01*
X0097233Y0053343D01*
X0097726Y0054533D01*
X0097726Y0055821D01*
X0097233Y0057011D01*
X0096568Y0057677D01*
X0097233Y0058343D01*
X0097726Y0059533D01*
X0097726Y0060821D01*
X0097233Y0062011D01*
X0096568Y0062677D01*
X0097233Y0063343D01*
X0097726Y0064533D01*
X0097726Y0065821D01*
X0097233Y0067011D01*
X0096568Y0067677D01*
X0097233Y0068343D01*
X0097726Y0069533D01*
X0097726Y0070821D01*
X0097233Y0072011D01*
X0096568Y0072677D01*
X0097233Y0073343D01*
X0097726Y0074533D01*
X0097726Y0075821D01*
X0097233Y0077011D01*
X0096568Y0077677D01*
X0097233Y0078343D01*
X0097726Y0079533D01*
X0097726Y0080821D01*
X0097233Y0082011D01*
X0096568Y0082677D01*
X0097233Y0083343D01*
X0097726Y0084533D01*
X0097726Y0085821D01*
X0097233Y0087011D01*
X0096568Y0087677D01*
X0097233Y0088343D01*
X0097726Y0089533D01*
X0097726Y0090821D01*
X0097233Y0092011D01*
X0096568Y0092677D01*
X0097233Y0093343D01*
X0097726Y0094533D01*
X0097726Y0095821D01*
X0097233Y0097011D01*
X0096568Y0097677D01*
X0097233Y0098343D01*
X0097726Y0099533D01*
X0097726Y0100821D01*
X0097233Y0102011D01*
X0096568Y0102677D01*
X0097233Y0103343D01*
X0097726Y0104533D01*
X0097726Y0105821D01*
X0097233Y0107011D01*
X0096568Y0107677D01*
X0097233Y0108343D01*
X0097726Y0109533D01*
X0097726Y0110821D01*
X0097233Y0112011D01*
X0096568Y0112677D01*
X0097233Y0113343D01*
X0097726Y0114533D01*
X0097726Y0115821D01*
X0097233Y0117011D01*
X0096568Y0117677D01*
X0097233Y0118343D01*
X0097726Y0119533D01*
X0097726Y0120821D01*
X0097233Y0122011D01*
X0096568Y0122677D01*
X0097233Y0123343D01*
X0097726Y0124533D01*
X0097726Y0125821D01*
X0097272Y0126918D01*
X0097840Y0126683D01*
X0099128Y0126683D01*
X0100319Y0127176D01*
X0100984Y0127842D01*
X0101650Y0127176D01*
X0102840Y0126683D01*
X0104128Y0126683D01*
X0105319Y0127176D01*
X0105984Y0127842D01*
X0106650Y0127176D01*
X0107840Y0126683D01*
X0109128Y0126683D01*
X0110319Y0127176D01*
X0110984Y0127842D01*
X0111650Y0127176D01*
X0112840Y0126683D01*
X0114128Y0126683D01*
X0115319Y0127176D01*
X0115984Y0127842D01*
X0116650Y0127176D01*
X0117840Y0126683D01*
X0119128Y0126683D01*
X0120319Y0127176D01*
X0120984Y0127842D01*
X0121650Y0127176D01*
X0122840Y0126683D01*
X0124128Y0126683D01*
X0125319Y0127176D01*
X0125984Y0127842D01*
X0126650Y0127176D01*
X0127840Y0126683D01*
X0129128Y0126683D01*
X0130319Y0127176D01*
X0130984Y0127842D01*
X0131650Y0127176D01*
X0132840Y0126683D01*
X0134128Y0126683D01*
X0135319Y0127176D01*
X0135984Y0127842D01*
X0136650Y0127176D01*
X0137840Y0126683D01*
X0139128Y0126683D01*
X0140319Y0127176D01*
X0140984Y0127842D01*
X0141650Y0127176D01*
X0142840Y0126683D01*
X0144128Y0126683D01*
X0145319Y0127176D01*
X0145984Y0127842D01*
X0146650Y0127176D01*
X0147840Y0126683D01*
X0149128Y0126683D01*
X0150319Y0127176D01*
X0150984Y0127842D01*
X0151650Y0127176D01*
X0152840Y0126683D01*
X0154128Y0126683D01*
X0155319Y0127176D01*
X0156229Y0128087D01*
X0156722Y0129277D01*
X0156722Y0129921D01*
X0177165Y0129921D01*
X0177165Y0122777D01*
X0176751Y0122777D01*
X0175609Y0121634D01*
X0175609Y0120019D01*
X0176751Y0118877D01*
X0177165Y0118877D01*
X0177165Y0078289D01*
X0176515Y0078940D01*
X0175404Y0079400D01*
X0174202Y0079400D01*
X0173092Y0078940D01*
X0172242Y0078090D01*
X0171781Y0076979D01*
X0171781Y0075777D01*
X0172242Y0074666D01*
X0172892Y0074016D01*
X0172242Y0073365D01*
X0171781Y0072255D01*
X0171781Y0071052D01*
X0172242Y0069942D01*
X0173092Y0069092D01*
X0174202Y0068632D01*
X0175404Y0068632D01*
X0176515Y0069092D01*
X0177165Y0069742D01*
X0177165Y0060587D01*
X0176469Y0060587D01*
X0175183Y0060054D01*
X0174198Y0059069D01*
X0173665Y0057783D01*
X0173665Y0056390D01*
X0174198Y0055104D01*
X0174716Y0054587D01*
X0174198Y0054069D01*
X0173665Y0052783D01*
X0173665Y0051390D01*
X0174198Y0050104D01*
X0174716Y0049587D01*
X0174198Y0049069D01*
X0173665Y0047783D01*
X0173665Y0046390D01*
X0174198Y0045104D01*
X0174716Y0044587D01*
X0174198Y0044069D01*
X0173665Y0042783D01*
X0173665Y0041390D01*
X0174198Y0040104D01*
X0174716Y0039587D01*
X0174198Y0039069D01*
X0173665Y0037783D01*
X0173665Y0036390D01*
X0174198Y0035104D01*
X0174716Y0034587D01*
X0174198Y0034069D01*
X0173665Y0032783D01*
X0173665Y0031390D01*
X0174198Y0030104D01*
X0175183Y0029119D01*
X0176469Y0028587D01*
X0177165Y0028587D01*
X0177165Y0001650D01*
X0172377Y0001650D01*
X0172791Y0002650D01*
X0172791Y0004043D01*
X0172258Y0005329D01*
X0171741Y0005846D01*
X0172258Y0006364D01*
X0172791Y0007650D01*
X0172791Y0009043D01*
X0172258Y0010329D01*
X0171741Y0010846D01*
X0172258Y0011364D01*
X0172791Y0012650D01*
X0172791Y0014043D01*
X0172258Y0015329D01*
X0171741Y0015846D01*
X0172258Y0016364D01*
X0172791Y0017650D01*
X0172791Y0019043D01*
X0172258Y0020329D01*
X0171741Y0020846D01*
X0172258Y0021364D01*
X0172791Y0022650D01*
X0172791Y0024043D01*
X0172258Y0025329D01*
X0171741Y0025846D01*
X0172010Y0026115D01*
X0172393Y0026689D01*
X0172657Y0027326D01*
X0172791Y0028002D01*
X0172791Y0028096D01*
X0169541Y0028096D01*
X0169541Y0028596D01*
X0172791Y0028596D01*
X0172791Y0028691D01*
X0172657Y0029367D01*
X0172393Y0030004D01*
X0172010Y0030578D01*
X0171522Y0031065D01*
X0170949Y0031448D01*
X0170312Y0031712D01*
X0169636Y0031846D01*
X0169541Y0031846D01*
X0116123Y0066515D02*
X0116123Y0068131D01*
X0114981Y0069273D01*
X0113366Y0069273D01*
X0112223Y0068131D01*
X0112223Y0066515D01*
X0113366Y0065373D01*
X0114981Y0065373D01*
X0116123Y0066515D01*
X0115730Y0036200D02*
X0115730Y0037816D01*
X0114587Y0038958D01*
X0112972Y0038958D01*
X0111830Y0037816D01*
X0111830Y0036200D01*
X0112972Y0035058D01*
X0114587Y0035058D01*
X0115730Y0036200D01*
X0166123Y0125964D02*
X0166123Y0127579D01*
X0164981Y0128722D01*
X0163366Y0128722D01*
X0162223Y0127579D01*
X0162223Y0125964D01*
X0163366Y0124822D01*
X0164981Y0124822D01*
X0166123Y0125964D01*
X0104312Y0049389D02*
X0104312Y0051005D01*
X0103170Y0052147D01*
X0101554Y0052147D01*
X0100412Y0051005D01*
X0100412Y0049389D01*
X0101554Y0048247D01*
X0103170Y0048247D01*
X0104312Y0049389D01*
X0140926Y0058247D02*
X0140926Y0059863D01*
X0139784Y0061005D01*
X0138169Y0061005D01*
X0137026Y0059863D01*
X0137026Y0058247D01*
X0138169Y0057105D01*
X0139784Y0057105D01*
X0140926Y0058247D01*
X0104312Y0044468D02*
X0104312Y0046083D01*
X0103170Y0047226D01*
X0101554Y0047226D01*
X0100412Y0046083D01*
X0100412Y0044468D01*
X0101554Y0043326D01*
X0103170Y0043326D01*
X0104312Y0044468D01*
X0146438Y0058247D02*
X0146438Y0059863D01*
X0145296Y0061005D01*
X0143680Y0061005D01*
X0142538Y0059863D01*
X0142538Y0058247D01*
X0143680Y0057105D01*
X0145296Y0057105D01*
X0146438Y0058247D01*
X0104312Y0039350D02*
X0104312Y0040965D01*
X0103170Y0042107D01*
X0101554Y0042107D01*
X0100412Y0040965D01*
X0100412Y0039350D01*
X0101554Y0038207D01*
X0103170Y0038207D01*
X0104312Y0039350D01*
X0154509Y0077932D02*
X0154509Y0079548D01*
X0154333Y0079724D01*
X0154509Y0079901D01*
X0154509Y0081516D01*
X0153367Y0082659D01*
X0151751Y0082659D01*
X0150609Y0081516D01*
X0150609Y0079901D01*
X0150786Y0079724D01*
X0150609Y0079548D01*
X0150609Y0077932D01*
X0150786Y0077756D01*
X0150609Y0077579D01*
X0150609Y0075964D01*
X0150786Y0075787D01*
X0150609Y0075611D01*
X0150609Y0073995D01*
X0151751Y0072853D01*
X0153367Y0072853D01*
X0154509Y0073995D01*
X0154509Y0075611D01*
X0154333Y0075787D01*
X0154509Y0075964D01*
X0154509Y0077579D01*
X0154333Y0077756D01*
X0154509Y0077932D01*
X0125966Y0055491D02*
X0125966Y0057107D01*
X0124823Y0058249D01*
X0123210Y0058249D01*
X0123210Y0059469D01*
X0122068Y0060611D01*
X0120452Y0060611D01*
X0119310Y0059469D01*
X0119310Y0058249D01*
X0117696Y0058249D01*
X0116554Y0057107D01*
X0116554Y0055491D01*
X0117696Y0054349D01*
X0119310Y0054349D01*
X0119310Y0052736D01*
X0120452Y0051593D01*
X0122068Y0051593D01*
X0123210Y0052736D01*
X0123210Y0054349D01*
X0124823Y0054349D01*
X0125966Y0055491D01*
X0140296Y0062657D02*
X0140296Y0064272D01*
X0139154Y0065415D01*
X0137539Y0065415D01*
X0136396Y0064272D01*
X0136396Y0062657D01*
X0137539Y0061515D01*
X0139154Y0061515D01*
X0140296Y0062657D01*
X0154706Y0030295D02*
X0154706Y0031910D01*
X0153564Y0033052D01*
X0151948Y0033052D01*
X0150806Y0031910D01*
X0150806Y0030295D01*
X0151948Y0029152D01*
X0153564Y0029152D01*
X0154706Y0030295D01*
X0140571Y0073800D02*
X0138956Y0073800D01*
X0138780Y0073624D01*
X0138603Y0073800D01*
X0136988Y0073800D01*
X0135845Y0072658D01*
X0135845Y0071043D01*
X0136988Y0069900D01*
X0138603Y0069900D01*
X0138780Y0070077D01*
X0138956Y0069900D01*
X0140571Y0069900D01*
X0140748Y0070077D01*
X0140925Y0069900D01*
X0142540Y0069900D01*
X0142717Y0070077D01*
X0142893Y0069900D01*
X0144509Y0069900D01*
X0144685Y0070077D01*
X0144862Y0069900D01*
X0146477Y0069900D01*
X0146654Y0070077D01*
X0146830Y0069900D01*
X0148446Y0069900D01*
X0148622Y0070077D01*
X0148799Y0069900D01*
X0150414Y0069900D01*
X0151556Y0071043D01*
X0151556Y0072658D01*
X0150414Y0073800D01*
X0148799Y0073800D01*
X0148622Y0073624D01*
X0148446Y0073800D01*
X0146830Y0073800D01*
X0146654Y0073624D01*
X0146477Y0073800D01*
X0144862Y0073800D01*
X0144685Y0073624D01*
X0144509Y0073800D01*
X0142893Y0073800D01*
X0142717Y0073624D01*
X0142540Y0073800D01*
X0140925Y0073800D01*
X0140748Y0073624D01*
X0140571Y0073800D01*
X0140533Y0119665D02*
X0140533Y0121280D01*
X0139390Y0122422D01*
X0137775Y0122422D01*
X0136633Y0121280D01*
X0136633Y0119665D01*
X0137775Y0118522D01*
X0139390Y0118522D01*
X0140533Y0119665D01*
X0126753Y0016161D02*
X0126753Y0017776D01*
X0125611Y0018918D01*
X0123995Y0018918D01*
X0122853Y0017776D01*
X0122853Y0016161D01*
X0123995Y0015019D01*
X0125611Y0015019D01*
X0126753Y0016161D01*
X0156043Y0111245D02*
X0156299Y0111245D01*
X0156299Y0113189D01*
X0156299Y0113189D01*
X0156299Y0111245D01*
X0156555Y0111245D01*
X0157049Y0111378D01*
X0157493Y0111634D01*
X0157855Y0111996D01*
X0158110Y0112439D01*
X0158243Y0112933D01*
X0158243Y0113189D01*
X0156299Y0113189D01*
X0156299Y0113189D01*
X0158243Y0113189D01*
X0158243Y0113445D01*
X0158110Y0113939D01*
X0157855Y0114382D01*
X0157493Y0114744D01*
X0157049Y0115000D01*
X0156830Y0115059D01*
X0157049Y0115118D01*
X0157493Y0115374D01*
X0157855Y0115736D01*
X0158110Y0116179D01*
X0158243Y0116673D01*
X0158243Y0116929D01*
X0156299Y0116929D01*
X0156299Y0116929D01*
X0158243Y0116929D01*
X0158243Y0117185D01*
X0158110Y0117679D01*
X0157855Y0118123D01*
X0157493Y0118484D01*
X0157049Y0118740D01*
X0156830Y0118799D01*
X0157049Y0118858D01*
X0157493Y0119114D01*
X0157855Y0119476D01*
X0158110Y0119919D01*
X0158243Y0120413D01*
X0158243Y0120669D01*
X0156299Y0120669D01*
X0156299Y0120669D01*
X0158243Y0120669D01*
X0158243Y0120925D01*
X0158110Y0121420D01*
X0157855Y0121863D01*
X0157493Y0122225D01*
X0157049Y0122481D01*
X0156555Y0122613D01*
X0156299Y0122613D01*
X0156299Y0120669D01*
X0156299Y0120669D01*
X0156299Y0122613D01*
X0156043Y0122613D01*
X0155549Y0122481D01*
X0155106Y0122225D01*
X0154744Y0121863D01*
X0154488Y0121420D01*
X0154356Y0120925D01*
X0154356Y0120669D01*
X0156299Y0120669D01*
X0156299Y0120669D01*
X0154356Y0120669D01*
X0154356Y0120413D01*
X0154488Y0119919D01*
X0154744Y0119476D01*
X0155106Y0119114D01*
X0155549Y0118858D01*
X0155769Y0118799D01*
X0155549Y0118740D01*
X0155106Y0118484D01*
X0154744Y0118123D01*
X0154488Y0117679D01*
X0154356Y0117185D01*
X0154356Y0116929D01*
X0156299Y0116929D01*
X0156299Y0116929D01*
X0154356Y0116929D01*
X0154356Y0116673D01*
X0154488Y0116179D01*
X0154744Y0115736D01*
X0155106Y0115374D01*
X0155549Y0115118D01*
X0155769Y0115059D01*
X0155549Y0115000D01*
X0155106Y0114744D01*
X0154744Y0114382D01*
X0154488Y0113939D01*
X0154356Y0113445D01*
X0154356Y0113189D01*
X0156299Y0113189D01*
X0156299Y0113189D01*
X0154356Y0113189D01*
X0154356Y0112933D01*
X0154488Y0112439D01*
X0154744Y0111996D01*
X0155106Y0111634D01*
X0155549Y0111378D01*
X0156043Y0111245D01*
X0111211Y0024897D02*
X0110823Y0025834D01*
X0110105Y0026551D01*
X0109168Y0026939D01*
X0108154Y0026939D01*
X0107217Y0026551D01*
X0106500Y0025834D01*
X0106112Y0024897D01*
X0106112Y0023883D01*
X0106500Y0022946D01*
X0107217Y0022229D01*
X0108154Y0021841D01*
X0108396Y0021841D01*
X0108396Y0020816D01*
X0108856Y0019706D01*
X0109706Y0018856D01*
X0110816Y0018396D01*
X0112018Y0018396D01*
X0113129Y0018856D01*
X0113979Y0019706D01*
X0114439Y0020816D01*
X0114439Y0022018D01*
X0113979Y0023129D01*
X0113129Y0023979D01*
X0112018Y0024439D01*
X0111211Y0024439D01*
X0111211Y0024897D01*
X0134045Y0023883D02*
X0134045Y0024897D01*
X0133657Y0025834D01*
X0132940Y0026551D01*
X0132003Y0026939D01*
X0130989Y0026939D01*
X0130052Y0026551D01*
X0129335Y0025834D01*
X0128947Y0024897D01*
X0128947Y0023883D01*
X0128977Y0023811D01*
X0128052Y0023428D01*
X0127202Y0022578D01*
X0126742Y0021467D01*
X0126742Y0020265D01*
X0127202Y0019155D01*
X0127705Y0018652D01*
X0126790Y0017737D01*
X0126790Y0016121D01*
X0127932Y0014979D01*
X0129548Y0014979D01*
X0130690Y0016121D01*
X0130690Y0017737D01*
X0130519Y0017908D01*
X0131475Y0018305D01*
X0132325Y0019155D01*
X0132785Y0020265D01*
X0132785Y0021467D01*
X0132539Y0022062D01*
X0132940Y0022229D01*
X0133657Y0022946D01*
X0134045Y0023883D01*
X0132855Y0073995D02*
X0132855Y0075611D01*
X0131713Y0076753D01*
X0130098Y0076753D01*
X0128956Y0075611D01*
X0128956Y0073995D01*
X0129132Y0073819D01*
X0128956Y0073642D01*
X0128956Y0072027D01*
X0130098Y0070885D01*
X0131713Y0070885D01*
X0131908Y0071080D01*
X0131908Y0071043D01*
X0133051Y0069900D01*
X0134666Y0069900D01*
X0135808Y0071043D01*
X0135808Y0072658D01*
X0134666Y0073800D01*
X0133051Y0073800D01*
X0132855Y0073605D01*
X0132855Y0073642D01*
X0132679Y0073819D01*
X0132855Y0073995D01*
X0152541Y0097027D02*
X0152541Y0098642D01*
X0151398Y0099785D01*
X0149783Y0099785D01*
X0148641Y0098642D01*
X0148641Y0097027D01*
X0149783Y0095885D01*
X0151398Y0095885D01*
X0152541Y0097027D01*
X0129312Y0092696D02*
X0129312Y0094312D01*
X0128170Y0095454D01*
X0126554Y0095454D01*
X0125412Y0094312D01*
X0125412Y0092696D01*
X0126554Y0091554D01*
X0128170Y0091554D01*
X0129312Y0092696D01*
X0156871Y0066515D02*
X0156871Y0068131D01*
X0155729Y0069273D01*
X0154114Y0069273D01*
X0152971Y0068131D01*
X0152971Y0066515D01*
X0154114Y0065373D01*
X0155729Y0065373D01*
X0156871Y0066515D01*
X0136596Y0036200D02*
X0136596Y0037816D01*
X0135453Y0038958D01*
X0133838Y0038958D01*
X0132696Y0037816D01*
X0132696Y0036200D01*
X0133838Y0035058D01*
X0135453Y0035058D01*
X0136596Y0036200D01*
X0129903Y0051554D02*
X0129903Y0053170D01*
X0128760Y0054312D01*
X0127145Y0054312D01*
X0126003Y0053170D01*
X0126003Y0051554D01*
X0127145Y0050412D01*
X0128760Y0050412D01*
X0129903Y0051554D01*
X0108643Y0056673D02*
X0108643Y0058288D01*
X0107501Y0059430D01*
X0105885Y0059430D01*
X0104743Y0058288D01*
X0104743Y0056673D01*
X0105885Y0055530D01*
X0107501Y0055530D01*
X0108643Y0056673D01*
X0113367Y0052736D02*
X0113367Y0054351D01*
X0112225Y0055493D01*
X0110610Y0055493D01*
X0109467Y0054351D01*
X0109467Y0052736D01*
X0110610Y0051593D01*
X0112225Y0051593D01*
X0113367Y0052736D01*
X0154509Y0085806D02*
X0154509Y0087422D01*
X0154314Y0087617D01*
X0155335Y0087617D01*
X0156478Y0088759D01*
X0156478Y0090375D01*
X0155335Y0091517D01*
X0153720Y0091517D01*
X0152578Y0090375D01*
X0152578Y0088759D01*
X0152773Y0088564D01*
X0151751Y0088564D01*
X0150609Y0087422D01*
X0150609Y0085806D01*
X0151751Y0084664D01*
X0153367Y0084664D01*
X0154509Y0085806D01*
X0135808Y0092696D02*
X0135808Y0094312D01*
X0134666Y0095454D01*
X0133051Y0095454D01*
X0132874Y0095277D01*
X0132697Y0095454D01*
X0131082Y0095454D01*
X0129940Y0094312D01*
X0129940Y0092696D01*
X0130135Y0092501D01*
X0130098Y0092501D01*
X0128956Y0091359D01*
X0128956Y0089743D01*
X0129132Y0089567D01*
X0128956Y0089390D01*
X0128956Y0087775D01*
X0129132Y0087598D01*
X0128956Y0087422D01*
X0128956Y0085806D01*
X0129132Y0085630D01*
X0128956Y0085453D01*
X0128956Y0083838D01*
X0129132Y0083661D01*
X0128956Y0083485D01*
X0128956Y0081869D01*
X0129132Y0081693D01*
X0128956Y0081516D01*
X0128956Y0079901D01*
X0129132Y0079724D01*
X0128956Y0079548D01*
X0128956Y0077932D01*
X0130098Y0076790D01*
X0131713Y0076790D01*
X0132855Y0077932D01*
X0132855Y0079548D01*
X0132679Y0079724D01*
X0132855Y0079901D01*
X0132855Y0081516D01*
X0132679Y0081693D01*
X0132855Y0081869D01*
X0132855Y0083485D01*
X0132679Y0083661D01*
X0132855Y0083838D01*
X0132855Y0085453D01*
X0132679Y0085630D01*
X0132855Y0085806D01*
X0132855Y0087422D01*
X0132679Y0087598D01*
X0132855Y0087775D01*
X0132855Y0089390D01*
X0132679Y0089567D01*
X0132855Y0089743D01*
X0132855Y0091359D01*
X0132660Y0091554D01*
X0132697Y0091554D01*
X0132874Y0091730D01*
X0133051Y0091554D01*
X0134666Y0091554D01*
X0135808Y0092696D01*
X0139155Y0042598D02*
X0139155Y0044213D01*
X0138012Y0045355D01*
X0136397Y0045355D01*
X0135255Y0044213D01*
X0135255Y0042598D01*
X0136397Y0041456D01*
X0138012Y0041456D01*
X0139155Y0042598D01*
X0168092Y0038169D02*
X0168092Y0039784D01*
X0166949Y0040926D01*
X0165334Y0040926D01*
X0164192Y0039784D01*
X0164192Y0038169D01*
X0165334Y0037026D01*
X0166949Y0037026D01*
X0168092Y0038169D01*
X0161202Y0043877D02*
X0161202Y0045493D01*
X0160060Y0046635D01*
X0158444Y0046635D01*
X0157302Y0045493D01*
X0157302Y0043877D01*
X0158444Y0042735D01*
X0160060Y0042735D01*
X0161202Y0043877D01*
X0145651Y0065432D02*
X0145651Y0067048D01*
X0144509Y0068190D01*
X0142893Y0068190D01*
X0141751Y0067048D01*
X0141751Y0065432D01*
X0142893Y0064290D01*
X0144509Y0064290D01*
X0145651Y0065432D01*
X0138603Y0095454D02*
X0136988Y0095454D01*
X0135845Y0094312D01*
X0135845Y0092696D01*
X0136988Y0091554D01*
X0138603Y0091554D01*
X0138780Y0091730D01*
X0138956Y0091554D01*
X0140571Y0091554D01*
X0140748Y0091730D01*
X0140925Y0091554D01*
X0142540Y0091554D01*
X0142717Y0091730D01*
X0142893Y0091554D01*
X0144509Y0091554D01*
X0144685Y0091730D01*
X0144862Y0091554D01*
X0146477Y0091554D01*
X0146654Y0091730D01*
X0146830Y0091554D01*
X0148446Y0091554D01*
X0149588Y0092696D01*
X0149588Y0094312D01*
X0148446Y0095454D01*
X0146830Y0095454D01*
X0146654Y0095277D01*
X0146477Y0095454D01*
X0144862Y0095454D01*
X0144685Y0095277D01*
X0144509Y0095454D01*
X0142893Y0095454D01*
X0142717Y0095277D01*
X0142540Y0095454D01*
X0140925Y0095454D01*
X0140748Y0095277D01*
X0140571Y0095454D01*
X0138956Y0095454D01*
X0138780Y0095277D01*
X0138603Y0095454D01*
X0165493Y0118051D02*
X0165493Y0119666D01*
X0165415Y0119744D01*
X0165730Y0120058D01*
X0165730Y0121674D01*
X0164587Y0122816D01*
X0162972Y0122816D01*
X0161830Y0121674D01*
X0161830Y0120058D01*
X0161908Y0119980D01*
X0161593Y0119666D01*
X0161593Y0118051D01*
X0162736Y0116908D01*
X0164351Y0116908D01*
X0165493Y0118051D01*
X0166063Y0001994D02*
X0094488Y0001994D01*
X0172520Y0001994D02*
X0177165Y0001994D01*
X0165857Y0002493D02*
X0094488Y0002493D01*
X0172726Y0002493D02*
X0177165Y0002493D01*
X0165791Y0002991D02*
X0094488Y0002991D01*
X0172791Y0002991D02*
X0177165Y0002991D01*
X0165791Y0003490D02*
X0094488Y0003490D01*
X0172791Y0003490D02*
X0177165Y0003490D01*
X0165791Y0003988D02*
X0094488Y0003988D01*
X0172791Y0003988D02*
X0177165Y0003988D01*
X0165975Y0004487D02*
X0094488Y0004487D01*
X0172607Y0004487D02*
X0177165Y0004487D01*
X0166182Y0004985D02*
X0094488Y0004985D01*
X0172401Y0004985D02*
X0177165Y0004985D01*
X0166479Y0005484D02*
X0094488Y0005484D01*
X0172104Y0005484D02*
X0177165Y0005484D01*
X0166706Y0005982D02*
X0094488Y0005982D01*
X0171877Y0005982D02*
X0177165Y0005982D01*
X0166276Y0006481D02*
X0094488Y0006481D01*
X0172307Y0006481D02*
X0177165Y0006481D01*
X0166069Y0006979D02*
X0094488Y0006979D01*
X0172513Y0006979D02*
X0177165Y0006979D01*
X0165863Y0007478D02*
X0094488Y0007478D01*
X0172720Y0007478D02*
X0177165Y0007478D01*
X0165791Y0007976D02*
X0094488Y0007976D01*
X0172791Y0007976D02*
X0177165Y0007976D01*
X0165791Y0008475D02*
X0094488Y0008475D01*
X0172791Y0008475D02*
X0177165Y0008475D01*
X0165791Y0008973D02*
X0094488Y0008973D01*
X0172791Y0008973D02*
X0177165Y0008973D01*
X0165969Y0009472D02*
X0094488Y0009472D01*
X0172614Y0009472D02*
X0177165Y0009472D01*
X0166176Y0009970D02*
X0094488Y0009970D01*
X0172407Y0009970D02*
X0177165Y0009970D01*
X0166464Y0010469D02*
X0094488Y0010469D01*
X0172119Y0010469D02*
X0177165Y0010469D01*
X0166721Y0010967D02*
X0094488Y0010967D01*
X0171862Y0010967D02*
X0177165Y0010967D01*
X0166282Y0011466D02*
X0094488Y0011466D01*
X0172301Y0011466D02*
X0177165Y0011466D01*
X0166075Y0011964D02*
X0094488Y0011964D01*
X0172507Y0011964D02*
X0177165Y0011964D01*
X0165869Y0012463D02*
X0094488Y0012463D01*
X0172714Y0012463D02*
X0177165Y0012463D01*
X0165791Y0012961D02*
X0094488Y0012961D01*
X0172791Y0012961D02*
X0177165Y0012961D01*
X0165791Y0013460D02*
X0094488Y0013460D01*
X0172791Y0013460D02*
X0177165Y0013460D01*
X0165791Y0013958D02*
X0094488Y0013958D01*
X0172791Y0013958D02*
X0177165Y0013958D01*
X0165963Y0014457D02*
X0094488Y0014457D01*
X0172620Y0014457D02*
X0177165Y0014457D01*
X0166169Y0014955D02*
X0094488Y0014955D01*
X0172413Y0014955D02*
X0177165Y0014955D01*
X0123560Y0015454D02*
X0094488Y0015454D01*
X0126046Y0015454D02*
X0127458Y0015454D01*
X0130023Y0015454D02*
X0166449Y0015454D01*
X0172134Y0015454D02*
X0177165Y0015454D01*
X0123062Y0015952D02*
X0094488Y0015952D01*
X0126545Y0015952D02*
X0126959Y0015952D01*
X0130521Y0015952D02*
X0166736Y0015952D01*
X0171847Y0015952D02*
X0177165Y0015952D01*
X0122853Y0016451D02*
X0094488Y0016451D01*
X0126753Y0016451D02*
X0126790Y0016451D01*
X0130690Y0016451D02*
X0166288Y0016451D01*
X0172295Y0016451D02*
X0177165Y0016451D01*
X0122853Y0016949D02*
X0094488Y0016949D01*
X0126753Y0016949D02*
X0126790Y0016949D01*
X0130690Y0016949D02*
X0166082Y0016949D01*
X0172501Y0016949D02*
X0177165Y0016949D01*
X0122853Y0017448D02*
X0094488Y0017448D01*
X0126753Y0017448D02*
X0126790Y0017448D01*
X0130690Y0017448D02*
X0165875Y0017448D01*
X0172708Y0017448D02*
X0177165Y0017448D01*
X0123023Y0017946D02*
X0094488Y0017946D01*
X0126583Y0017946D02*
X0127000Y0017946D01*
X0130611Y0017946D02*
X0165791Y0017946D01*
X0172791Y0017946D02*
X0177165Y0017946D01*
X0110697Y0018445D02*
X0094488Y0018445D01*
X0112137Y0018445D02*
X0123522Y0018445D01*
X0126084Y0018445D02*
X0127498Y0018445D01*
X0131616Y0018445D02*
X0165791Y0018445D01*
X0172791Y0018445D02*
X0177165Y0018445D01*
X0109618Y0018943D02*
X0094488Y0018943D01*
X0113217Y0018943D02*
X0127413Y0018943D01*
X0132114Y0018943D02*
X0165791Y0018943D01*
X0172791Y0018943D02*
X0177165Y0018943D01*
X0109119Y0019442D02*
X0094488Y0019442D01*
X0113715Y0019442D02*
X0127083Y0019442D01*
X0132444Y0019442D02*
X0165957Y0019442D01*
X0172626Y0019442D02*
X0177165Y0019442D01*
X0108758Y0019940D02*
X0094488Y0019940D01*
X0114076Y0019940D02*
X0126877Y0019940D01*
X0132651Y0019940D02*
X0166163Y0019940D01*
X0172419Y0019940D02*
X0177165Y0019940D01*
X0108552Y0020439D02*
X0094488Y0020439D01*
X0114283Y0020439D02*
X0126742Y0020439D01*
X0132785Y0020439D02*
X0166434Y0020439D01*
X0172149Y0020439D02*
X0177165Y0020439D01*
X0108396Y0020937D02*
X0094488Y0020937D01*
X0114439Y0020937D02*
X0126742Y0020937D01*
X0132785Y0020937D02*
X0166751Y0020937D01*
X0171832Y0020937D02*
X0177165Y0020937D01*
X0108396Y0021436D02*
X0094488Y0021436D01*
X0114439Y0021436D02*
X0126742Y0021436D01*
X0132785Y0021436D02*
X0166294Y0021436D01*
X0172288Y0021436D02*
X0177165Y0021436D01*
X0107928Y0021934D02*
X0094488Y0021934D01*
X0114439Y0021934D02*
X0126936Y0021934D01*
X0132592Y0021934D02*
X0166088Y0021934D01*
X0172495Y0021934D02*
X0177165Y0021934D01*
X0107013Y0022433D02*
X0094488Y0022433D01*
X0114267Y0022433D02*
X0127142Y0022433D01*
X0133144Y0022433D02*
X0165881Y0022433D01*
X0172701Y0022433D02*
X0177165Y0022433D01*
X0106515Y0022932D02*
X0094488Y0022932D01*
X0114061Y0022932D02*
X0127556Y0022932D01*
X0133643Y0022932D02*
X0165791Y0022932D01*
X0172791Y0022932D02*
X0177165Y0022932D01*
X0106300Y0023430D02*
X0094488Y0023430D01*
X0113678Y0023430D02*
X0128058Y0023430D01*
X0133858Y0023430D02*
X0165791Y0023430D01*
X0172791Y0023430D02*
X0177165Y0023430D01*
X0106112Y0023929D02*
X0094488Y0023929D01*
X0113179Y0023929D02*
X0128947Y0023929D01*
X0134045Y0023929D02*
X0165791Y0023929D01*
X0172791Y0023929D02*
X0177165Y0023929D01*
X0106112Y0024427D02*
X0094488Y0024427D01*
X0112047Y0024427D02*
X0128947Y0024427D01*
X0134045Y0024427D02*
X0165951Y0024427D01*
X0172632Y0024427D02*
X0177165Y0024427D01*
X0106124Y0024926D02*
X0094488Y0024926D01*
X0111199Y0024926D02*
X0128959Y0024926D01*
X0134033Y0024926D02*
X0166157Y0024926D01*
X0172426Y0024926D02*
X0177165Y0024926D01*
X0106331Y0025424D02*
X0094488Y0025424D01*
X0110992Y0025424D02*
X0129165Y0025424D01*
X0133827Y0025424D02*
X0166419Y0025424D01*
X0172163Y0025424D02*
X0177165Y0025424D01*
X0106589Y0025923D02*
X0094488Y0025923D01*
X0110734Y0025923D02*
X0129424Y0025923D01*
X0133568Y0025923D02*
X0166765Y0025923D01*
X0171817Y0025923D02*
X0177165Y0025923D01*
X0107088Y0026421D02*
X0094488Y0026421D01*
X0110235Y0026421D02*
X0129922Y0026421D01*
X0133070Y0026421D02*
X0166368Y0026421D01*
X0172214Y0026421D02*
X0177165Y0026421D01*
X0108108Y0026920D02*
X0094488Y0026920D01*
X0109215Y0026920D02*
X0130942Y0026920D01*
X0132050Y0026920D02*
X0166094Y0026920D01*
X0172489Y0026920D02*
X0177165Y0026920D01*
X0165907Y0027418D02*
X0094488Y0027418D01*
X0172675Y0027418D02*
X0177165Y0027418D01*
X0165808Y0027917D02*
X0094488Y0027917D01*
X0172774Y0027917D02*
X0177165Y0027917D01*
X0169041Y0028415D02*
X0094488Y0028415D01*
X0169541Y0028415D02*
X0177165Y0028415D01*
X0165836Y0028914D02*
X0094488Y0028914D01*
X0169041Y0028914D02*
X0169541Y0028914D01*
X0172747Y0028914D02*
X0175680Y0028914D01*
X0151688Y0029412D02*
X0094488Y0029412D01*
X0153823Y0029412D02*
X0165944Y0029412D01*
X0169041Y0029412D02*
X0169541Y0029412D01*
X0172638Y0029412D02*
X0174890Y0029412D01*
X0151190Y0029911D02*
X0094488Y0029911D01*
X0154322Y0029911D02*
X0166151Y0029911D01*
X0169041Y0029911D02*
X0169541Y0029911D01*
X0172432Y0029911D02*
X0174392Y0029911D01*
X0150806Y0030409D02*
X0094488Y0030409D01*
X0154706Y0030409D02*
X0166460Y0030409D01*
X0169041Y0030409D02*
X0169541Y0030409D01*
X0172122Y0030409D02*
X0174072Y0030409D01*
X0150806Y0030908D02*
X0094488Y0030908D01*
X0154706Y0030908D02*
X0166903Y0030908D01*
X0169041Y0030908D02*
X0169541Y0030908D01*
X0171680Y0030908D02*
X0173865Y0030908D01*
X0150806Y0031406D02*
X0094488Y0031406D01*
X0154706Y0031406D02*
X0167571Y0031406D01*
X0169041Y0031406D02*
X0169541Y0031406D01*
X0171012Y0031406D02*
X0173665Y0031406D01*
X0150806Y0031905D02*
X0094488Y0031905D01*
X0154706Y0031905D02*
X0173665Y0031905D01*
X0151299Y0032403D02*
X0094488Y0032403D01*
X0154213Y0032403D02*
X0173665Y0032403D01*
X0151798Y0032902D02*
X0094488Y0032902D01*
X0153714Y0032902D02*
X0173715Y0032902D01*
X0173921Y0033400D02*
X0094488Y0033400D01*
X0094488Y0033899D02*
X0174128Y0033899D01*
X0174526Y0034397D02*
X0094488Y0034397D01*
X0094488Y0034896D02*
X0174406Y0034896D01*
X0112635Y0035394D02*
X0094488Y0035394D01*
X0114924Y0035394D02*
X0133502Y0035394D01*
X0135790Y0035394D02*
X0174078Y0035394D01*
X0112137Y0035893D02*
X0094488Y0035893D01*
X0115422Y0035893D02*
X0133003Y0035893D01*
X0136288Y0035893D02*
X0173871Y0035893D01*
X0111830Y0036391D02*
X0094488Y0036391D01*
X0115730Y0036391D02*
X0132696Y0036391D01*
X0136596Y0036391D02*
X0173665Y0036391D01*
X0111830Y0036890D02*
X0094488Y0036890D01*
X0115730Y0036890D02*
X0132696Y0036890D01*
X0136596Y0036890D02*
X0173665Y0036890D01*
X0111830Y0037388D02*
X0096217Y0037388D01*
X0115730Y0037388D02*
X0132696Y0037388D01*
X0136596Y0037388D02*
X0164972Y0037388D01*
X0167311Y0037388D02*
X0173665Y0037388D01*
X0111901Y0037887D02*
X0096777Y0037887D01*
X0115658Y0037887D02*
X0132767Y0037887D01*
X0136524Y0037887D02*
X0164474Y0037887D01*
X0167810Y0037887D02*
X0173708Y0037887D01*
X0101377Y0038385D02*
X0097251Y0038385D01*
X0103348Y0038385D02*
X0112399Y0038385D01*
X0115160Y0038385D02*
X0133265Y0038385D01*
X0136026Y0038385D02*
X0164192Y0038385D01*
X0168092Y0038385D02*
X0173915Y0038385D01*
X0100878Y0038884D02*
X0097457Y0038884D01*
X0103846Y0038884D02*
X0112898Y0038884D01*
X0114661Y0038884D02*
X0133764Y0038884D01*
X0135527Y0038884D02*
X0164192Y0038884D01*
X0168092Y0038884D02*
X0174121Y0038884D01*
X0100412Y0039382D02*
X0097664Y0039382D01*
X0104312Y0039382D02*
X0164192Y0039382D01*
X0168092Y0039382D02*
X0174511Y0039382D01*
X0100412Y0039881D02*
X0097726Y0039881D01*
X0104312Y0039881D02*
X0164289Y0039881D01*
X0167995Y0039881D02*
X0174421Y0039881D01*
X0100412Y0040379D02*
X0097726Y0040379D01*
X0104312Y0040379D02*
X0164787Y0040379D01*
X0167496Y0040379D02*
X0174084Y0040379D01*
X0100412Y0040878D02*
X0097703Y0040878D01*
X0104312Y0040878D02*
X0165286Y0040878D01*
X0166998Y0040878D02*
X0173878Y0040878D01*
X0100823Y0041376D02*
X0097496Y0041376D01*
X0103901Y0041376D02*
X0173671Y0041376D01*
X0101322Y0041875D02*
X0097290Y0041875D01*
X0103402Y0041875D02*
X0135978Y0041875D01*
X0138432Y0041875D02*
X0173665Y0041875D01*
X0135479Y0042373D02*
X0096871Y0042373D01*
X0138930Y0042373D02*
X0173665Y0042373D01*
X0135255Y0042872D02*
X0096762Y0042872D01*
X0139155Y0042872D02*
X0158307Y0042872D01*
X0160197Y0042872D02*
X0173702Y0042872D01*
X0101510Y0043370D02*
X0097245Y0043370D01*
X0103215Y0043370D02*
X0135255Y0043370D01*
X0139155Y0043370D02*
X0157809Y0043370D01*
X0160695Y0043370D02*
X0173909Y0043370D01*
X0101011Y0043869D02*
X0097451Y0043869D01*
X0103713Y0043869D02*
X0135255Y0043869D01*
X0139155Y0043869D02*
X0157310Y0043869D01*
X0161194Y0043869D02*
X0174115Y0043869D01*
X0100513Y0044368D02*
X0097658Y0044368D01*
X0104212Y0044368D02*
X0135409Y0044368D01*
X0139000Y0044368D02*
X0157302Y0044368D01*
X0161202Y0044368D02*
X0174497Y0044368D01*
X0100412Y0044866D02*
X0097726Y0044866D01*
X0104312Y0044866D02*
X0135908Y0044866D01*
X0138502Y0044866D02*
X0157302Y0044866D01*
X0161202Y0044866D02*
X0174436Y0044866D01*
X0100412Y0045365D02*
X0097726Y0045365D01*
X0104312Y0045365D02*
X0157302Y0045365D01*
X0161202Y0045365D02*
X0174090Y0045365D01*
X0100412Y0045863D02*
X0097709Y0045863D01*
X0104312Y0045863D02*
X0157672Y0045863D01*
X0160832Y0045863D02*
X0173884Y0045863D01*
X0100690Y0046362D02*
X0097503Y0046362D01*
X0104034Y0046362D02*
X0158171Y0046362D01*
X0160333Y0046362D02*
X0173677Y0046362D01*
X0101189Y0046860D02*
X0097296Y0046860D01*
X0103535Y0046860D02*
X0173665Y0046860D01*
X0173665Y0047359D02*
X0096886Y0047359D01*
X0096748Y0047857D02*
X0173696Y0047857D01*
X0101446Y0048356D02*
X0097239Y0048356D01*
X0103279Y0048356D02*
X0173903Y0048356D01*
X0100947Y0048854D02*
X0097445Y0048854D01*
X0103777Y0048854D02*
X0174109Y0048854D01*
X0100449Y0049353D02*
X0097652Y0049353D01*
X0104276Y0049353D02*
X0174482Y0049353D01*
X0100412Y0049851D02*
X0097726Y0049851D01*
X0104312Y0049851D02*
X0174451Y0049851D01*
X0100412Y0050350D02*
X0097726Y0050350D01*
X0104312Y0050350D02*
X0174096Y0050350D01*
X0100412Y0050848D02*
X0097715Y0050848D01*
X0104312Y0050848D02*
X0126709Y0050848D01*
X0129196Y0050848D02*
X0173890Y0050848D01*
X0100754Y0051347D02*
X0097509Y0051347D01*
X0103970Y0051347D02*
X0126211Y0051347D01*
X0129695Y0051347D02*
X0173683Y0051347D01*
X0101253Y0051845D02*
X0097302Y0051845D01*
X0103472Y0051845D02*
X0110358Y0051845D01*
X0112477Y0051845D02*
X0120200Y0051845D01*
X0122319Y0051845D02*
X0126003Y0051845D01*
X0129903Y0051845D02*
X0173665Y0051845D01*
X0109859Y0052344D02*
X0096901Y0052344D01*
X0112975Y0052344D02*
X0119702Y0052344D01*
X0122818Y0052344D02*
X0126003Y0052344D01*
X0129903Y0052344D02*
X0173665Y0052344D01*
X0109467Y0052842D02*
X0096733Y0052842D01*
X0113367Y0052842D02*
X0119310Y0052842D01*
X0123210Y0052842D02*
X0126003Y0052842D01*
X0129903Y0052842D02*
X0173690Y0052842D01*
X0109467Y0053341D02*
X0097231Y0053341D01*
X0113367Y0053341D02*
X0119310Y0053341D01*
X0123210Y0053341D02*
X0126174Y0053341D01*
X0129732Y0053341D02*
X0173896Y0053341D01*
X0109467Y0053839D02*
X0097439Y0053839D01*
X0113367Y0053839D02*
X0119310Y0053839D01*
X0123210Y0053839D02*
X0126672Y0053839D01*
X0129233Y0053839D02*
X0174103Y0053839D01*
X0109467Y0054338D02*
X0097645Y0054338D01*
X0113367Y0054338D02*
X0119310Y0054338D01*
X0123210Y0054338D02*
X0174467Y0054338D01*
X0109953Y0054836D02*
X0097726Y0054836D01*
X0112882Y0054836D02*
X0117209Y0054836D01*
X0125310Y0054836D02*
X0174466Y0054836D01*
X0110451Y0055335D02*
X0097726Y0055335D01*
X0112384Y0055335D02*
X0116711Y0055335D01*
X0125809Y0055335D02*
X0174103Y0055335D01*
X0105582Y0055833D02*
X0097721Y0055833D01*
X0107804Y0055833D02*
X0116554Y0055833D01*
X0125966Y0055833D02*
X0173896Y0055833D01*
X0105084Y0056332D02*
X0097515Y0056332D01*
X0108302Y0056332D02*
X0116554Y0056332D01*
X0125966Y0056332D02*
X0173690Y0056332D01*
X0104743Y0056830D02*
X0097308Y0056830D01*
X0108643Y0056830D02*
X0116554Y0056830D01*
X0125966Y0056830D02*
X0173665Y0056830D01*
X0104743Y0057329D02*
X0096916Y0057329D01*
X0108643Y0057329D02*
X0116776Y0057329D01*
X0125744Y0057329D02*
X0137945Y0057329D01*
X0140008Y0057329D02*
X0143457Y0057329D01*
X0145520Y0057329D02*
X0173665Y0057329D01*
X0104743Y0057827D02*
X0096718Y0057827D01*
X0108643Y0057827D02*
X0117274Y0057827D01*
X0125245Y0057827D02*
X0137446Y0057827D01*
X0140506Y0057827D02*
X0142958Y0057827D01*
X0146018Y0057827D02*
X0173684Y0057827D01*
X0104781Y0058326D02*
X0097216Y0058326D01*
X0108605Y0058326D02*
X0119310Y0058326D01*
X0123210Y0058326D02*
X0137026Y0058326D01*
X0140926Y0058326D02*
X0142538Y0058326D01*
X0146438Y0058326D02*
X0173890Y0058326D01*
X0105279Y0058824D02*
X0097433Y0058824D01*
X0108107Y0058824D02*
X0119310Y0058824D01*
X0123210Y0058824D02*
X0137026Y0058824D01*
X0140926Y0058824D02*
X0142538Y0058824D01*
X0146438Y0058824D02*
X0174097Y0058824D01*
X0105778Y0059323D02*
X0097639Y0059323D01*
X0107608Y0059323D02*
X0119310Y0059323D01*
X0123210Y0059323D02*
X0137026Y0059323D01*
X0140926Y0059323D02*
X0142538Y0059323D01*
X0146438Y0059323D02*
X0174452Y0059323D01*
X0119662Y0059821D02*
X0097726Y0059821D01*
X0122858Y0059821D02*
X0137026Y0059821D01*
X0140926Y0059821D02*
X0142538Y0059821D01*
X0146438Y0059821D02*
X0174950Y0059821D01*
X0120161Y0060320D02*
X0097726Y0060320D01*
X0122359Y0060320D02*
X0137483Y0060320D01*
X0140469Y0060320D02*
X0142995Y0060320D01*
X0145981Y0060320D02*
X0175825Y0060320D01*
X0137982Y0060818D02*
X0097726Y0060818D01*
X0139971Y0060818D02*
X0143494Y0060818D01*
X0145483Y0060818D02*
X0177165Y0060818D01*
X0177165Y0061317D02*
X0097521Y0061317D01*
X0097315Y0061815D02*
X0137238Y0061815D01*
X0139455Y0061815D02*
X0177165Y0061815D01*
X0136739Y0062314D02*
X0096931Y0062314D01*
X0139954Y0062314D02*
X0177165Y0062314D01*
X0136396Y0062812D02*
X0096703Y0062812D01*
X0140296Y0062812D02*
X0177165Y0062812D01*
X0136396Y0063311D02*
X0097201Y0063311D01*
X0140296Y0063311D02*
X0177165Y0063311D01*
X0136396Y0063809D02*
X0097427Y0063809D01*
X0140296Y0063809D02*
X0177165Y0063809D01*
X0136432Y0064308D02*
X0097633Y0064308D01*
X0140261Y0064308D02*
X0142875Y0064308D01*
X0144526Y0064308D02*
X0177165Y0064308D01*
X0136931Y0064806D02*
X0097726Y0064806D01*
X0139762Y0064806D02*
X0142377Y0064806D01*
X0145025Y0064806D02*
X0177165Y0064806D01*
X0137429Y0065305D02*
X0097726Y0065305D01*
X0139264Y0065305D02*
X0141878Y0065305D01*
X0145523Y0065305D02*
X0177165Y0065305D01*
X0112935Y0065803D02*
X0097726Y0065803D01*
X0115412Y0065803D02*
X0141751Y0065803D01*
X0145651Y0065803D02*
X0153683Y0065803D01*
X0156160Y0065803D02*
X0177165Y0065803D01*
X0112436Y0066302D02*
X0097527Y0066302D01*
X0115910Y0066302D02*
X0141751Y0066302D01*
X0145651Y0066302D02*
X0153184Y0066302D01*
X0156658Y0066302D02*
X0177165Y0066302D01*
X0112223Y0066801D02*
X0097321Y0066801D01*
X0116123Y0066801D02*
X0141751Y0066801D01*
X0145651Y0066801D02*
X0152971Y0066801D01*
X0156871Y0066801D02*
X0177165Y0066801D01*
X0112223Y0067299D02*
X0096946Y0067299D01*
X0116123Y0067299D02*
X0142002Y0067299D01*
X0145400Y0067299D02*
X0152971Y0067299D01*
X0156871Y0067299D02*
X0177165Y0067299D01*
X0112223Y0067798D02*
X0096688Y0067798D01*
X0116123Y0067798D02*
X0142500Y0067798D01*
X0144901Y0067798D02*
X0152971Y0067798D01*
X0156871Y0067798D02*
X0177165Y0067798D01*
X0112389Y0068296D02*
X0097187Y0068296D01*
X0115958Y0068296D02*
X0153137Y0068296D01*
X0156706Y0068296D02*
X0177165Y0068296D01*
X0112887Y0068795D02*
X0097420Y0068795D01*
X0115459Y0068795D02*
X0153635Y0068795D01*
X0156207Y0068795D02*
X0173809Y0068795D01*
X0175797Y0068795D02*
X0177165Y0068795D01*
X0172890Y0069293D02*
X0097627Y0069293D01*
X0176716Y0069293D02*
X0177165Y0069293D01*
X0172392Y0069792D02*
X0097726Y0069792D01*
X0097726Y0070290D02*
X0132661Y0070290D01*
X0135056Y0070290D02*
X0136598Y0070290D01*
X0150804Y0070290D02*
X0172097Y0070290D01*
X0132162Y0070789D02*
X0097726Y0070789D01*
X0135554Y0070789D02*
X0136099Y0070789D01*
X0151302Y0070789D02*
X0171891Y0070789D01*
X0129695Y0071287D02*
X0097533Y0071287D01*
X0135808Y0071287D02*
X0135845Y0071287D01*
X0151556Y0071287D02*
X0171781Y0071287D01*
X0129197Y0071786D02*
X0097327Y0071786D01*
X0135808Y0071786D02*
X0135845Y0071786D01*
X0151556Y0071786D02*
X0171781Y0071786D01*
X0128956Y0072284D02*
X0096961Y0072284D01*
X0135808Y0072284D02*
X0135845Y0072284D01*
X0151556Y0072284D02*
X0171794Y0072284D01*
X0128956Y0072783D02*
X0096673Y0072783D01*
X0135684Y0072783D02*
X0135970Y0072783D01*
X0151432Y0072783D02*
X0172000Y0072783D01*
X0128956Y0073281D02*
X0097172Y0073281D01*
X0135185Y0073281D02*
X0136468Y0073281D01*
X0150933Y0073281D02*
X0151323Y0073281D01*
X0153795Y0073281D02*
X0172207Y0073281D01*
X0129093Y0073780D02*
X0097414Y0073780D01*
X0132718Y0073780D02*
X0133030Y0073780D01*
X0134687Y0073780D02*
X0136967Y0073780D01*
X0138624Y0073780D02*
X0138935Y0073780D01*
X0140592Y0073780D02*
X0140904Y0073780D01*
X0142561Y0073780D02*
X0142872Y0073780D01*
X0144529Y0073780D02*
X0144841Y0073780D01*
X0146498Y0073780D02*
X0146809Y0073780D01*
X0148466Y0073780D02*
X0148778Y0073780D01*
X0150435Y0073780D02*
X0150825Y0073780D01*
X0154293Y0073780D02*
X0172656Y0073780D01*
X0128956Y0074278D02*
X0097621Y0074278D01*
X0132855Y0074278D02*
X0150609Y0074278D01*
X0154509Y0074278D02*
X0172630Y0074278D01*
X0128956Y0074777D02*
X0097726Y0074777D01*
X0132855Y0074777D02*
X0150609Y0074777D01*
X0154509Y0074777D02*
X0172196Y0074777D01*
X0128956Y0075275D02*
X0097726Y0075275D01*
X0132855Y0075275D02*
X0150609Y0075275D01*
X0154509Y0075275D02*
X0171989Y0075275D01*
X0129118Y0075774D02*
X0097726Y0075774D01*
X0132693Y0075774D02*
X0150772Y0075774D01*
X0154346Y0075774D02*
X0171783Y0075774D01*
X0129617Y0076272D02*
X0097540Y0076272D01*
X0132194Y0076272D02*
X0150609Y0076272D01*
X0154509Y0076272D02*
X0171781Y0076272D01*
X0150609Y0076771D02*
X0097333Y0076771D01*
X0154509Y0076771D02*
X0171781Y0076771D01*
X0129619Y0077269D02*
X0096976Y0077269D01*
X0132192Y0077269D02*
X0150609Y0077269D01*
X0154509Y0077269D02*
X0171902Y0077269D01*
X0129120Y0077768D02*
X0096658Y0077768D01*
X0132691Y0077768D02*
X0150774Y0077768D01*
X0154344Y0077768D02*
X0172108Y0077768D01*
X0128956Y0078266D02*
X0097157Y0078266D01*
X0132855Y0078266D02*
X0150609Y0078266D01*
X0154509Y0078266D02*
X0172418Y0078266D01*
X0128956Y0078765D02*
X0097408Y0078765D01*
X0132855Y0078765D02*
X0150609Y0078765D01*
X0154509Y0078765D02*
X0172917Y0078765D01*
X0176690Y0078765D02*
X0177165Y0078765D01*
X0128956Y0079263D02*
X0097615Y0079263D01*
X0132855Y0079263D02*
X0150609Y0079263D01*
X0154509Y0079263D02*
X0173873Y0079263D01*
X0175733Y0079263D02*
X0177165Y0079263D01*
X0129095Y0079762D02*
X0097726Y0079762D01*
X0132716Y0079762D02*
X0150748Y0079762D01*
X0154370Y0079762D02*
X0177165Y0079762D01*
X0128956Y0080260D02*
X0097726Y0080260D01*
X0132855Y0080260D02*
X0150609Y0080260D01*
X0154509Y0080260D02*
X0177165Y0080260D01*
X0128956Y0080759D02*
X0097726Y0080759D01*
X0132855Y0080759D02*
X0150609Y0080759D01*
X0154509Y0080759D02*
X0177165Y0080759D01*
X0128956Y0081257D02*
X0097546Y0081257D01*
X0132855Y0081257D02*
X0150609Y0081257D01*
X0154509Y0081257D02*
X0177165Y0081257D01*
X0129069Y0081756D02*
X0097339Y0081756D01*
X0132742Y0081756D02*
X0150849Y0081756D01*
X0154270Y0081756D02*
X0177165Y0081756D01*
X0128956Y0082254D02*
X0096990Y0082254D01*
X0132855Y0082254D02*
X0151347Y0082254D01*
X0153771Y0082254D02*
X0177165Y0082254D01*
X0128956Y0082753D02*
X0096643Y0082753D01*
X0132855Y0082753D02*
X0177165Y0082753D01*
X0128956Y0083251D02*
X0097142Y0083251D01*
X0132855Y0083251D02*
X0177165Y0083251D01*
X0129044Y0083750D02*
X0097402Y0083750D01*
X0132767Y0083750D02*
X0177165Y0083750D01*
X0128956Y0084248D02*
X0097608Y0084248D01*
X0132855Y0084248D02*
X0177165Y0084248D01*
X0128956Y0084747D02*
X0097726Y0084747D01*
X0132855Y0084747D02*
X0151669Y0084747D01*
X0153450Y0084747D02*
X0177165Y0084747D01*
X0128956Y0085245D02*
X0097726Y0085245D01*
X0132855Y0085245D02*
X0151170Y0085245D01*
X0153948Y0085245D02*
X0177165Y0085245D01*
X0129018Y0085744D02*
X0097726Y0085744D01*
X0132793Y0085744D02*
X0150672Y0085744D01*
X0154447Y0085744D02*
X0177165Y0085744D01*
X0128956Y0086242D02*
X0097552Y0086242D01*
X0132855Y0086242D02*
X0150609Y0086242D01*
X0154509Y0086242D02*
X0177165Y0086242D01*
X0128956Y0086741D02*
X0097345Y0086741D01*
X0132855Y0086741D02*
X0150609Y0086741D01*
X0154509Y0086741D02*
X0177165Y0086741D01*
X0128956Y0087239D02*
X0097005Y0087239D01*
X0132855Y0087239D02*
X0150609Y0087239D01*
X0154509Y0087239D02*
X0177165Y0087239D01*
X0128992Y0087738D02*
X0096628Y0087738D01*
X0132819Y0087738D02*
X0150925Y0087738D01*
X0155456Y0087738D02*
X0177165Y0087738D01*
X0128956Y0088237D02*
X0097127Y0088237D01*
X0132855Y0088237D02*
X0151424Y0088237D01*
X0155955Y0088237D02*
X0177165Y0088237D01*
X0128956Y0088735D02*
X0097396Y0088735D01*
X0132855Y0088735D02*
X0152602Y0088735D01*
X0156453Y0088735D02*
X0177165Y0088735D01*
X0128956Y0089234D02*
X0097602Y0089234D01*
X0132855Y0089234D02*
X0152578Y0089234D01*
X0156478Y0089234D02*
X0177165Y0089234D01*
X0128967Y0089732D02*
X0097726Y0089732D01*
X0132844Y0089732D02*
X0152578Y0089732D01*
X0156478Y0089732D02*
X0177165Y0089732D01*
X0128956Y0090231D02*
X0097726Y0090231D01*
X0132855Y0090231D02*
X0152578Y0090231D01*
X0156478Y0090231D02*
X0177165Y0090231D01*
X0128956Y0090729D02*
X0097726Y0090729D01*
X0132855Y0090729D02*
X0152932Y0090729D01*
X0156123Y0090729D02*
X0177165Y0090729D01*
X0128956Y0091228D02*
X0097558Y0091228D01*
X0132855Y0091228D02*
X0153430Y0091228D01*
X0155625Y0091228D02*
X0177165Y0091228D01*
X0126382Y0091726D02*
X0097352Y0091726D01*
X0128342Y0091726D02*
X0129323Y0091726D01*
X0132870Y0091726D02*
X0132878Y0091726D01*
X0134838Y0091726D02*
X0136815Y0091726D01*
X0138775Y0091726D02*
X0138784Y0091726D01*
X0140744Y0091726D02*
X0140752Y0091726D01*
X0142712Y0091726D02*
X0142721Y0091726D01*
X0144681Y0091726D02*
X0144689Y0091726D01*
X0146649Y0091726D02*
X0146658Y0091726D01*
X0148618Y0091726D02*
X0177165Y0091726D01*
X0125884Y0092225D02*
X0097020Y0092225D01*
X0128841Y0092225D02*
X0129821Y0092225D01*
X0135337Y0092225D02*
X0136317Y0092225D01*
X0149116Y0092225D02*
X0177165Y0092225D01*
X0125412Y0092723D02*
X0096614Y0092723D01*
X0129312Y0092723D02*
X0129940Y0092723D01*
X0135808Y0092723D02*
X0135845Y0092723D01*
X0149588Y0092723D02*
X0177165Y0092723D01*
X0125412Y0093222D02*
X0097112Y0093222D01*
X0129312Y0093222D02*
X0129940Y0093222D01*
X0135808Y0093222D02*
X0135845Y0093222D01*
X0149588Y0093222D02*
X0177165Y0093222D01*
X0125412Y0093720D02*
X0097390Y0093720D01*
X0129312Y0093720D02*
X0129940Y0093720D01*
X0135808Y0093720D02*
X0135845Y0093720D01*
X0149588Y0093720D02*
X0177165Y0093720D01*
X0125412Y0094219D02*
X0097596Y0094219D01*
X0129312Y0094219D02*
X0129940Y0094219D01*
X0135808Y0094219D02*
X0135845Y0094219D01*
X0149588Y0094219D02*
X0177165Y0094219D01*
X0125818Y0094717D02*
X0097726Y0094717D01*
X0128907Y0094717D02*
X0130345Y0094717D01*
X0135403Y0094717D02*
X0136251Y0094717D01*
X0149182Y0094717D02*
X0177165Y0094717D01*
X0126316Y0095216D02*
X0097726Y0095216D01*
X0128408Y0095216D02*
X0130844Y0095216D01*
X0134904Y0095216D02*
X0136749Y0095216D01*
X0148684Y0095216D02*
X0177165Y0095216D01*
X0177165Y0095714D02*
X0097726Y0095714D01*
X0097564Y0096213D02*
X0149455Y0096213D01*
X0151726Y0096213D02*
X0177165Y0096213D01*
X0148956Y0096711D02*
X0097358Y0096711D01*
X0152225Y0096711D02*
X0177165Y0096711D01*
X0148641Y0097210D02*
X0097035Y0097210D01*
X0152541Y0097210D02*
X0177165Y0097210D01*
X0148641Y0097708D02*
X0096599Y0097708D01*
X0152541Y0097708D02*
X0177165Y0097708D01*
X0148641Y0098207D02*
X0097097Y0098207D01*
X0152541Y0098207D02*
X0177165Y0098207D01*
X0148703Y0098705D02*
X0097383Y0098705D01*
X0152478Y0098705D02*
X0177165Y0098705D01*
X0149202Y0099204D02*
X0097590Y0099204D01*
X0151979Y0099204D02*
X0177165Y0099204D01*
X0149700Y0099702D02*
X0097726Y0099702D01*
X0151481Y0099702D02*
X0177165Y0099702D01*
X0177165Y0100201D02*
X0097726Y0100201D01*
X0097726Y0100699D02*
X0177165Y0100699D01*
X0177165Y0101198D02*
X0097570Y0101198D01*
X0097364Y0101696D02*
X0177165Y0101696D01*
X0177165Y0102195D02*
X0097050Y0102195D01*
X0096584Y0102693D02*
X0177165Y0102693D01*
X0177165Y0103192D02*
X0097082Y0103192D01*
X0097377Y0103690D02*
X0177165Y0103690D01*
X0177165Y0104189D02*
X0097584Y0104189D01*
X0097726Y0104687D02*
X0177165Y0104687D01*
X0177165Y0105186D02*
X0097726Y0105186D01*
X0097726Y0105684D02*
X0177165Y0105684D01*
X0177165Y0106183D02*
X0097577Y0106183D01*
X0097370Y0106681D02*
X0177165Y0106681D01*
X0177165Y0107180D02*
X0097065Y0107180D01*
X0096569Y0107678D02*
X0177165Y0107678D01*
X0177165Y0108177D02*
X0097067Y0108177D01*
X0097371Y0108675D02*
X0177165Y0108675D01*
X0177165Y0109174D02*
X0097578Y0109174D01*
X0097726Y0109672D02*
X0177165Y0109672D01*
X0177165Y0110171D02*
X0097726Y0110171D01*
X0097726Y0110670D02*
X0177165Y0110670D01*
X0177165Y0111168D02*
X0097583Y0111168D01*
X0097376Y0111667D02*
X0155073Y0111667D01*
X0156299Y0111667D02*
X0156299Y0111667D01*
X0157526Y0111667D02*
X0177165Y0111667D01*
X0154646Y0112165D02*
X0097080Y0112165D01*
X0156299Y0112165D02*
X0156299Y0112165D01*
X0157952Y0112165D02*
X0177165Y0112165D01*
X0154428Y0112664D02*
X0096581Y0112664D01*
X0156299Y0112664D02*
X0156299Y0112664D01*
X0158171Y0112664D02*
X0177165Y0112664D01*
X0154356Y0113162D02*
X0097053Y0113162D01*
X0156299Y0113162D02*
X0156299Y0113162D01*
X0158243Y0113162D02*
X0177165Y0113162D01*
X0154413Y0113661D02*
X0097365Y0113661D01*
X0156299Y0113661D02*
X0156299Y0113661D01*
X0158185Y0113661D02*
X0177165Y0113661D01*
X0154615Y0114159D02*
X0097571Y0114159D01*
X0156299Y0114159D02*
X0156299Y0114159D01*
X0157984Y0114159D02*
X0177165Y0114159D01*
X0155019Y0114658D02*
X0097726Y0114658D01*
X0156299Y0114658D02*
X0156299Y0114658D01*
X0157579Y0114658D02*
X0177165Y0114658D01*
X0155483Y0115156D02*
X0097726Y0115156D01*
X0156299Y0115156D02*
X0156299Y0115156D01*
X0157116Y0115156D02*
X0177165Y0115156D01*
X0154825Y0115655D02*
X0097726Y0115655D01*
X0156299Y0115655D02*
X0156299Y0115655D01*
X0157774Y0115655D02*
X0177165Y0115655D01*
X0154503Y0116153D02*
X0097589Y0116153D01*
X0156299Y0116153D02*
X0156299Y0116153D01*
X0158096Y0116153D02*
X0177165Y0116153D01*
X0154361Y0116652D02*
X0097382Y0116652D01*
X0156299Y0116652D02*
X0156299Y0116652D01*
X0158237Y0116652D02*
X0177165Y0116652D01*
X0154356Y0117150D02*
X0097095Y0117150D01*
X0156299Y0117150D02*
X0156299Y0117150D01*
X0158243Y0117150D02*
X0162494Y0117150D01*
X0164593Y0117150D02*
X0177165Y0117150D01*
X0154480Y0117649D02*
X0096596Y0117649D01*
X0156299Y0117649D02*
X0156299Y0117649D01*
X0158119Y0117649D02*
X0161995Y0117649D01*
X0165091Y0117649D02*
X0177165Y0117649D01*
X0154768Y0118147D02*
X0097038Y0118147D01*
X0156299Y0118147D02*
X0156299Y0118147D01*
X0157830Y0118147D02*
X0161593Y0118147D01*
X0165493Y0118147D02*
X0177165Y0118147D01*
X0137652Y0118646D02*
X0097359Y0118646D01*
X0139514Y0118646D02*
X0155385Y0118646D01*
X0156299Y0118646D02*
X0156299Y0118646D01*
X0157213Y0118646D02*
X0161593Y0118646D01*
X0165493Y0118646D02*
X0177165Y0118646D01*
X0137153Y0119144D02*
X0097565Y0119144D01*
X0140012Y0119144D02*
X0155075Y0119144D01*
X0156299Y0119144D02*
X0156299Y0119144D01*
X0157523Y0119144D02*
X0161593Y0119144D01*
X0165493Y0119144D02*
X0176484Y0119144D01*
X0136655Y0119643D02*
X0097726Y0119643D01*
X0140511Y0119643D02*
X0154648Y0119643D01*
X0156299Y0119643D02*
X0156299Y0119643D01*
X0157951Y0119643D02*
X0161593Y0119643D01*
X0165493Y0119643D02*
X0175985Y0119643D01*
X0136633Y0120141D02*
X0097726Y0120141D01*
X0140533Y0120141D02*
X0154428Y0120141D01*
X0156299Y0120141D02*
X0156299Y0120141D01*
X0158170Y0120141D02*
X0161830Y0120141D01*
X0165730Y0120141D02*
X0175609Y0120141D01*
X0136633Y0120640D02*
X0097726Y0120640D01*
X0140533Y0120640D02*
X0154356Y0120640D01*
X0156299Y0120640D02*
X0156299Y0120640D01*
X0158243Y0120640D02*
X0161830Y0120640D01*
X0165730Y0120640D02*
X0175609Y0120640D01*
X0136633Y0121138D02*
X0097595Y0121138D01*
X0140533Y0121138D02*
X0154413Y0121138D01*
X0156299Y0121138D02*
X0156299Y0121138D01*
X0158186Y0121138D02*
X0161830Y0121138D01*
X0165730Y0121138D02*
X0175609Y0121138D01*
X0136989Y0121637D02*
X0097389Y0121637D01*
X0140176Y0121637D02*
X0154613Y0121637D01*
X0156299Y0121637D02*
X0156299Y0121637D01*
X0157985Y0121637D02*
X0161830Y0121637D01*
X0165730Y0121637D02*
X0175611Y0121637D01*
X0137488Y0122135D02*
X0097110Y0122135D01*
X0139678Y0122135D02*
X0155016Y0122135D01*
X0156299Y0122135D02*
X0156299Y0122135D01*
X0157582Y0122135D02*
X0162291Y0122135D01*
X0165268Y0122135D02*
X0176110Y0122135D01*
X0162789Y0122634D02*
X0096611Y0122634D01*
X0164770Y0122634D02*
X0176608Y0122634D01*
X0177165Y0123132D02*
X0097023Y0123132D01*
X0097353Y0123631D02*
X0177165Y0123631D01*
X0177165Y0124129D02*
X0097559Y0124129D01*
X0097726Y0124628D02*
X0177165Y0124628D01*
X0163061Y0125126D02*
X0097726Y0125126D01*
X0165286Y0125126D02*
X0177165Y0125126D01*
X0162562Y0125625D02*
X0097726Y0125625D01*
X0165784Y0125625D02*
X0177165Y0125625D01*
X0162223Y0126123D02*
X0097601Y0126123D01*
X0166123Y0126123D02*
X0177165Y0126123D01*
X0162223Y0126622D02*
X0097395Y0126622D01*
X0166123Y0126622D02*
X0177165Y0126622D01*
X0101784Y0127120D02*
X0100184Y0127120D01*
X0105184Y0127120D02*
X0106784Y0127120D01*
X0110184Y0127120D02*
X0111784Y0127120D01*
X0115184Y0127120D02*
X0116784Y0127120D01*
X0120184Y0127120D02*
X0121784Y0127120D01*
X0125184Y0127120D02*
X0126784Y0127120D01*
X0130184Y0127120D02*
X0131784Y0127120D01*
X0135184Y0127120D02*
X0136784Y0127120D01*
X0140184Y0127120D02*
X0141784Y0127120D01*
X0145184Y0127120D02*
X0146784Y0127120D01*
X0150184Y0127120D02*
X0151784Y0127120D01*
X0155184Y0127120D02*
X0162223Y0127120D01*
X0166123Y0127120D02*
X0177165Y0127120D01*
X0101207Y0127619D02*
X0100761Y0127619D01*
X0105761Y0127619D02*
X0106207Y0127619D01*
X0110761Y0127619D02*
X0111207Y0127619D01*
X0115761Y0127619D02*
X0116207Y0127619D01*
X0120761Y0127619D02*
X0121207Y0127619D01*
X0125761Y0127619D02*
X0126207Y0127619D01*
X0130761Y0127619D02*
X0131207Y0127619D01*
X0135761Y0127619D02*
X0136207Y0127619D01*
X0140761Y0127619D02*
X0141207Y0127619D01*
X0145761Y0127619D02*
X0146207Y0127619D01*
X0150761Y0127619D02*
X0151207Y0127619D01*
X0155761Y0127619D02*
X0162263Y0127619D01*
X0166084Y0127619D02*
X0177165Y0127619D01*
X0162761Y0128117D02*
X0156242Y0128117D01*
X0165585Y0128117D02*
X0177165Y0128117D01*
X0163260Y0128616D02*
X0156449Y0128616D01*
X0165087Y0128616D02*
X0177165Y0128616D01*
X0177165Y0129114D02*
X0156655Y0129114D01*
X0156722Y0129613D02*
X0177165Y0129613D01*
D16*
X0106299Y0020866D03*
X0135433Y0020079D03*
X0099646Y0143228D03*
X0067323Y0027559D03*
X0048031Y0114567D03*
X0174803Y0071654D03*
X0174803Y0076378D03*
X0111417Y0021417D03*
X0129764Y0020866D03*
X0068386Y0054724D03*
X0074291Y0054724D03*
X0062441Y0054724D03*
M02*
