G75*
%MOIN*%
%OFA0B0*%
%FSLAX25Y25*%
%IPPOS*%
%LPD*%
%AMOC8*
5,1,8,0,0,1.08239X$1,22.5*
%
%ADD10C,0.05400*%
%ADD11C,0.01400*%
%ADD12C,0.01483*%
%ADD13R,0.19494X0.19494*%
%ADD14R,0.02762X0.02369*%
%ADD15R,0.02369X0.02762*%
%ADD16R,0.06500X0.03000*%
%ADD17R,0.02762X0.03943*%
%ADD18R,0.04300X0.01400*%
%ADD19R,0.01400X0.04300*%
%ADD20R,0.06100X0.06100*%
%ADD21R,0.04500X0.04500*%
%ADD22R,0.04900X0.04900*%
%ADD23C,0.04500*%
%ADD24C,0.04900*%
%ADD25R,0.04400X0.02100*%
%ADD26R,0.14200X0.17700*%
%ADD27R,0.03976X0.03976*%
%ADD28R,0.04376X0.04376*%
%ADD29C,0.03976*%
%ADD30C,0.04376*%
%ADD31R,0.02762X0.01384*%
%ADD32R,0.01384X0.02762*%
%ADD33R,0.14967X0.22841*%
%ADD34R,0.01384X0.03156*%
%ADD35R,0.03156X0.01384*%
%ADD36R,0.04829X0.04829*%
%ADD37R,0.01876X0.01876*%
%ADD38C,0.00317*%
%ADD39R,0.10243X0.03943*%
%ADD40R,0.03156X0.05518*%
%ADD41R,0.10450X0.13400*%
%ADD42R,0.05518X0.03156*%
%ADD43R,0.03943X0.02762*%
%ADD44C,0.00102*%
%ADD45R,0.03707X0.09849*%
%ADD46C,0.01387*%
%ADD47C,0.01787*%
%ADD48R,0.05124X0.06187*%
%ADD49R,0.03150X0.05900*%
%ADD50C,0.01775*%
%ADD51R,0.03550X0.03943*%
%ADD52R,0.02800X0.04900*%
%ADD53R,0.01600X0.04900*%
%ADD54R,0.08900X0.08300*%
%ADD55C,0.02998*%
%ADD56R,0.01600X0.03600*%
%ADD57R,0.00900X0.00900*%
%ADD58C,0.00100*%
%ADD59R,0.01384X0.02369*%
%ADD60R,0.06699X0.03943*%
%ADD61R,0.02369X0.01384*%
%ADD62R,0.03943X0.06699*%
%ADD63R,0.06450X0.06450*%
%ADD64R,0.06850X0.06850*%
%ADD65C,0.06450*%
%ADD66C,0.06850*%
%ADD67C,0.03543*%
D10*
X0007874Y0145669D03*
X0007874Y0007874D03*
X0185039Y0007874D03*
X0185039Y0145669D03*
D11*
X0136811Y0095472D03*
X0138780Y0095472D03*
X0140748Y0095472D03*
X0142717Y0095472D03*
X0144685Y0095472D03*
X0146654Y0095472D03*
X0148622Y0095472D03*
X0150591Y0095472D03*
X0152559Y0095472D03*
X0128937Y0093504D03*
X0137795Y0093504D03*
X0139764Y0093504D03*
X0141732Y0093504D03*
X0143701Y0093504D03*
X0145669Y0093504D03*
X0147638Y0093504D03*
X0154528Y0093504D03*
X0128937Y0091535D03*
X0130906Y0090551D03*
X0152559Y0090551D03*
X0154528Y0089567D03*
X0130906Y0088583D03*
X0152559Y0088583D03*
X0128937Y0087598D03*
X0130906Y0086614D03*
X0152559Y0086614D03*
X0128937Y0085630D03*
X0154528Y0085630D03*
X0130906Y0084646D03*
X0128937Y0083661D03*
X0154528Y0083661D03*
X0130906Y0082677D03*
X0128937Y0081693D03*
X0154528Y0081693D03*
X0130906Y0080709D03*
X0152559Y0080709D03*
X0128937Y0079724D03*
X0154528Y0079724D03*
X0130906Y0078740D03*
X0152559Y0078740D03*
X0128937Y0077756D03*
X0154528Y0077756D03*
X0152559Y0076772D03*
X0128937Y0075787D03*
X0154528Y0075787D03*
X0130906Y0074803D03*
X0152559Y0074803D03*
X0154528Y0073819D03*
X0130906Y0072835D03*
X0133858Y0071850D03*
X0137795Y0071850D03*
X0139764Y0071850D03*
X0141732Y0071850D03*
X0143701Y0071850D03*
X0145669Y0071850D03*
X0147638Y0071850D03*
X0149606Y0071850D03*
X0154528Y0071850D03*
X0130906Y0069882D03*
X0132874Y0069882D03*
X0134843Y0069882D03*
X0136811Y0069882D03*
X0138780Y0069882D03*
X0140748Y0069882D03*
X0142717Y0069882D03*
X0144685Y0069882D03*
X0146654Y0069882D03*
X0148622Y0069882D03*
X0150591Y0069882D03*
X0152559Y0069882D03*
X0130906Y0074803D03*
X0150591Y0097835D03*
X0127362Y0093504D03*
X0154921Y0067323D03*
X0134646Y0037008D03*
X0127953Y0052362D03*
X0106693Y0057480D03*
X0111417Y0053543D03*
X0136811Y0104921D03*
X0141732Y0082677D03*
X0141732Y0086614D03*
X0133858Y0086614D03*
X0137795Y0086614D03*
X0145669Y0086614D03*
X0149606Y0086614D03*
X0133858Y0082677D03*
X0137795Y0082677D03*
X0145669Y0082677D03*
X0149606Y0082677D03*
X0149606Y0078740D03*
X0145669Y0078740D03*
X0141732Y0078740D03*
X0137795Y0078740D03*
X0133858Y0078740D03*
X0133858Y0074803D03*
X0137795Y0074803D03*
X0141732Y0074803D03*
X0145669Y0074803D03*
X0149606Y0074803D03*
X0141732Y0047244D03*
X0145669Y0047244D03*
X0149606Y0043307D03*
X0145669Y0043307D03*
X0141732Y0043307D03*
X0141732Y0039370D03*
X0145669Y0039370D03*
X0149606Y0039370D03*
X0166339Y0053937D03*
X0152559Y0020079D03*
X0155315Y0020079D03*
X0155315Y0017520D03*
X0152559Y0017520D03*
X0108858Y0103543D03*
X0116339Y0101181D03*
X0104331Y0075591D03*
X0104331Y0069685D03*
X0155709Y0108268D03*
X0150984Y0108268D03*
X0171457Y0091732D03*
X0127559Y0042520D03*
X0109055Y0118110D03*
X0175000Y0126870D03*
X0135531Y0112697D03*
X0140276Y0141929D03*
X0044488Y0054843D03*
X0054134Y0141496D03*
X0054134Y0136220D03*
X0048740Y0135984D03*
X0048937Y0141417D03*
X0066850Y0061102D03*
X0070787Y0061102D03*
X0066850Y0065039D03*
X0070787Y0065039D03*
X0074724Y0068976D03*
X0074724Y0072913D03*
X0074724Y0076850D03*
X0070787Y0080787D03*
X0070787Y0076850D03*
X0070787Y0072913D03*
X0070787Y0068976D03*
X0066850Y0068976D03*
X0066850Y0072913D03*
X0066850Y0076850D03*
X0066850Y0080787D03*
X0062913Y0076850D03*
X0062913Y0072913D03*
X0062913Y0068976D03*
X0072835Y0099606D03*
X0142913Y0143307D03*
X0166929Y0074409D03*
X0053937Y0059843D03*
X0104331Y0064173D03*
X0115748Y0053937D03*
X0072835Y0103937D03*
X0073228Y0094094D03*
X0105906Y0042402D03*
X0108228Y0042402D03*
X0110630Y0042402D03*
X0165276Y0142559D03*
X0165276Y0140315D03*
X0165276Y0137953D03*
X0176378Y0114567D03*
X0161614Y0096850D03*
X0173780Y0104055D03*
X0152559Y0086614D03*
X0133858Y0093504D03*
X0154528Y0089567D03*
X0133858Y0071850D03*
X0130906Y0090551D03*
X0130906Y0088583D03*
X0131890Y0093504D03*
X0128740Y0016929D03*
X0124803Y0016969D03*
X0138583Y0120472D03*
X0056457Y0128661D03*
X0054488Y0126732D03*
X0056693Y0150394D03*
X0054724Y0151969D03*
X0139764Y0071850D03*
X0152756Y0031102D03*
X0141732Y0071850D03*
X0137205Y0043406D03*
X0166142Y0038976D03*
X0147638Y0071850D03*
X0159252Y0044685D03*
X0145669Y0071850D03*
X0138346Y0063465D03*
X0143701Y0071850D03*
X0143701Y0066240D03*
X0137795Y0093504D03*
X0130906Y0086614D03*
X0130906Y0084646D03*
X0130906Y0082677D03*
X0130906Y0080709D03*
X0130906Y0078740D03*
X0130906Y0072835D03*
X0137795Y0071850D03*
X0124016Y0056299D03*
X0118504Y0056299D03*
X0139764Y0093504D03*
X0145669Y0093504D03*
X0147638Y0093504D03*
X0152559Y0074803D03*
X0152559Y0078740D03*
X0152559Y0076772D03*
X0052520Y0148898D03*
X0052480Y0128937D03*
X0149606Y0071850D03*
X0102362Y0040157D03*
X0144488Y0059055D03*
X0102362Y0045276D03*
X0138976Y0059055D03*
X0102362Y0050197D03*
X0152559Y0080709D03*
X0163543Y0118858D03*
X0177559Y0120827D03*
X0164173Y0126772D03*
X0113780Y0037008D03*
X0114173Y0067323D03*
X0163780Y0120866D03*
X0118504Y0150472D03*
X0136299Y0151772D03*
X0141732Y0093504D03*
X0153465Y0148740D03*
X0143701Y0093504D03*
X0124252Y0152913D03*
X0121260Y0053543D03*
X0121260Y0058661D03*
D12*
X0131890Y0093504D03*
X0133858Y0093504D03*
X0135827Y0093504D03*
D13*
X0141732Y0082677D03*
D14*
X0177165Y0099803D03*
X0177165Y0104134D03*
X0161609Y0104134D03*
X0161609Y0099803D03*
X0160126Y0087457D03*
X0160126Y0091787D03*
X0178665Y0087417D03*
X0178665Y0091748D03*
X0127505Y0049096D03*
X0127505Y0044766D03*
X0150984Y0101417D03*
X0150984Y0105748D03*
X0106299Y0113752D03*
X0106299Y0118083D03*
X0155709Y0101417D03*
X0155709Y0105748D03*
X0112012Y0113776D03*
X0112012Y0118106D03*
X0116843Y0113776D03*
X0116843Y0118106D03*
X0105709Y0099354D03*
X0105709Y0103685D03*
X0111626Y0099354D03*
X0111626Y0103685D03*
X0173969Y0087417D03*
X0173969Y0091748D03*
X0138760Y0117126D03*
X0138760Y0112795D03*
X0037638Y0147795D03*
X0037638Y0143465D03*
X0037598Y0133937D03*
X0037598Y0138268D03*
X0047362Y0064252D03*
X0047362Y0068583D03*
X0051181Y0080394D03*
X0051181Y0084724D03*
X0082205Y0065335D03*
X0082205Y0069665D03*
X0052972Y0073602D03*
X0052972Y0069272D03*
X0047362Y0059134D03*
X0047362Y0054803D03*
X0082205Y0060217D03*
X0082205Y0055886D03*
X0110827Y0142717D03*
X0110827Y0138386D03*
X0140256Y0148524D03*
X0140256Y0144193D03*
X0117126Y0142677D03*
X0117126Y0138346D03*
X0116850Y0037205D03*
X0116850Y0041535D03*
X0175039Y0138228D03*
X0175039Y0142559D03*
D15*
X0120669Y0092787D03*
X0116339Y0092787D03*
X0110760Y0075591D03*
X0106429Y0075591D03*
G36*
X0162301Y0080806D02*
X0163975Y0079132D01*
X0162023Y0077180D01*
X0160349Y0078854D01*
X0162301Y0080806D01*
G37*
G36*
X0165363Y0077743D02*
X0167037Y0076069D01*
X0165085Y0074117D01*
X0163411Y0075791D01*
X0165363Y0077743D01*
G37*
X0164835Y0092126D03*
X0169165Y0092126D03*
X0139173Y0104921D03*
X0134843Y0104921D03*
X0120669Y0097630D03*
X0116339Y0097630D03*
X0110760Y0069791D03*
X0106429Y0069791D03*
X0110760Y0064260D03*
X0106429Y0064260D03*
X0107256Y0108748D03*
X0111587Y0108748D03*
X0164803Y0087425D03*
X0169134Y0087425D03*
X0037520Y0123819D03*
X0041850Y0123819D03*
X0041850Y0118898D03*
X0037520Y0118898D03*
X0082106Y0094291D03*
X0077776Y0094291D03*
X0167520Y0126969D03*
X0171850Y0126969D03*
X0148031Y0112894D03*
X0143701Y0112894D03*
X0167520Y0109252D03*
X0163189Y0109252D03*
X0103976Y0057402D03*
X0099646Y0057402D03*
X0150000Y0143346D03*
X0145669Y0143346D03*
X0055630Y0104094D03*
X0059961Y0104094D03*
X0055630Y0099213D03*
X0059961Y0099213D03*
X0055630Y0094252D03*
X0059961Y0094252D03*
X0065079Y0094291D03*
X0069409Y0094291D03*
X0065079Y0099213D03*
X0069409Y0099213D03*
X0065079Y0104094D03*
X0069409Y0104094D03*
D16*
X0187008Y0087393D03*
X0187008Y0098591D03*
D17*
X0116866Y0108276D03*
X0122772Y0108276D03*
X0167441Y0114764D03*
X0173346Y0114764D03*
X0105315Y0050787D03*
X0111220Y0050787D03*
X0109606Y0057165D03*
X0115512Y0057165D03*
X0150000Y0137795D03*
X0144094Y0137795D03*
D18*
X0159532Y0016811D03*
X0159532Y0018780D03*
X0159532Y0020748D03*
X0148421Y0020748D03*
X0148421Y0018780D03*
X0148421Y0016811D03*
D19*
X0156929Y0024335D03*
X0154961Y0024335D03*
X0152992Y0024335D03*
X0151024Y0024335D03*
X0151024Y0013224D03*
X0152992Y0013224D03*
X0154961Y0013224D03*
X0156929Y0013224D03*
D20*
X0153976Y0018780D03*
D21*
X0169291Y0003346D03*
X0177165Y0057087D03*
D22*
X0169291Y0003346D03*
X0177165Y0057087D03*
D23*
X0169291Y0008346D03*
X0169291Y0013346D03*
X0169291Y0018346D03*
X0169291Y0023346D03*
X0169291Y0028346D03*
X0177165Y0052087D03*
X0177165Y0047087D03*
X0177165Y0042087D03*
X0177165Y0037087D03*
X0177165Y0032087D03*
D24*
X0169291Y0008346D03*
X0169291Y0013346D03*
X0169291Y0018346D03*
X0169291Y0023346D03*
X0169291Y0028346D03*
X0177165Y0052087D03*
X0177165Y0047087D03*
X0177165Y0042087D03*
X0177165Y0037087D03*
X0177165Y0032087D03*
D25*
X0162704Y0038979D03*
X0162704Y0043979D03*
X0162704Y0048979D03*
X0162704Y0053979D03*
X0131604Y0053979D03*
X0131604Y0048979D03*
X0131604Y0043979D03*
X0131604Y0038979D03*
D26*
X0147154Y0046479D03*
D27*
X0094488Y0125177D03*
X0098484Y0129921D03*
D28*
X0094488Y0125177D03*
X0098484Y0129921D03*
D29*
X0094488Y0120177D03*
X0094488Y0115177D03*
X0094488Y0110177D03*
X0094488Y0105177D03*
X0094488Y0100177D03*
X0094488Y0095177D03*
X0094488Y0090177D03*
X0094488Y0085177D03*
X0094488Y0080177D03*
X0094488Y0075177D03*
X0094488Y0070177D03*
X0094488Y0065177D03*
X0094488Y0060177D03*
X0094488Y0055177D03*
X0094488Y0050177D03*
X0094488Y0045177D03*
X0094488Y0040177D03*
X0103484Y0129921D03*
X0108484Y0129921D03*
X0113484Y0129921D03*
X0118484Y0129921D03*
X0123484Y0129921D03*
X0128484Y0129921D03*
X0133484Y0129921D03*
X0138484Y0129921D03*
X0143484Y0129921D03*
X0148484Y0129921D03*
X0153484Y0129921D03*
D30*
X0094488Y0120177D03*
X0094488Y0115177D03*
X0094488Y0110177D03*
X0094488Y0105177D03*
X0094488Y0100177D03*
X0094488Y0095177D03*
X0094488Y0090177D03*
X0094488Y0085177D03*
X0094488Y0080177D03*
X0094488Y0075177D03*
X0094488Y0070177D03*
X0094488Y0065177D03*
X0094488Y0060177D03*
X0094488Y0055177D03*
X0094488Y0050177D03*
X0094488Y0045177D03*
X0094488Y0040177D03*
X0103484Y0129921D03*
X0108484Y0129921D03*
X0113484Y0129921D03*
X0118484Y0129921D03*
X0123484Y0129921D03*
X0128484Y0129921D03*
X0133484Y0129921D03*
X0138484Y0129921D03*
X0143484Y0129921D03*
X0148484Y0129921D03*
X0153484Y0129921D03*
D31*
X0058839Y0082343D03*
X0058839Y0080374D03*
X0058839Y0078406D03*
X0058839Y0076437D03*
X0058839Y0074469D03*
X0058839Y0072500D03*
X0058839Y0070531D03*
X0058839Y0068563D03*
X0058839Y0066594D03*
X0058839Y0064626D03*
X0058839Y0062657D03*
X0058839Y0060689D03*
X0077736Y0060689D03*
X0077736Y0062657D03*
X0077736Y0064626D03*
X0077736Y0066594D03*
X0077736Y0068563D03*
X0077736Y0070531D03*
X0077736Y0072500D03*
X0077736Y0074469D03*
X0077736Y0076437D03*
X0077736Y0078406D03*
X0077736Y0080374D03*
X0077736Y0082343D03*
D32*
X0061398Y0058130D03*
X0063366Y0058130D03*
X0065335Y0058130D03*
X0067303Y0058130D03*
X0069272Y0058130D03*
X0071240Y0058130D03*
X0073209Y0058130D03*
X0075177Y0058130D03*
X0075177Y0084902D03*
X0073209Y0084902D03*
X0071240Y0084902D03*
X0069272Y0084902D03*
X0067303Y0084902D03*
X0065335Y0084902D03*
X0063366Y0084902D03*
X0061398Y0084902D03*
D33*
X0068287Y0071516D03*
D34*
X0046614Y0131339D03*
X0048583Y0131339D03*
X0050551Y0131339D03*
X0052520Y0131339D03*
X0054488Y0131339D03*
X0056457Y0131339D03*
X0056457Y0146299D03*
X0054488Y0146299D03*
X0052520Y0146299D03*
X0050551Y0146299D03*
X0048583Y0146299D03*
X0046614Y0146299D03*
D35*
X0059016Y0133898D03*
X0059016Y0135866D03*
X0059016Y0137835D03*
X0059016Y0139803D03*
X0059016Y0141772D03*
X0059016Y0143740D03*
X0044055Y0143740D03*
X0044055Y0141772D03*
X0044055Y0139803D03*
X0044055Y0137835D03*
X0044055Y0135866D03*
X0044055Y0133898D03*
D36*
X0048927Y0141427D03*
X0054144Y0141427D03*
X0054144Y0136211D03*
D37*
X0044400Y0131683D03*
X0044400Y0145955D03*
X0058671Y0145955D03*
X0058671Y0131683D03*
D38*
X0134021Y0138786D02*
X0136625Y0138786D01*
X0136625Y0137836D01*
X0134021Y0137836D01*
X0134021Y0138786D01*
X0134021Y0138152D02*
X0136625Y0138152D01*
X0136625Y0138468D02*
X0134021Y0138468D01*
X0134021Y0138784D02*
X0136625Y0138784D01*
X0134021Y0140361D02*
X0136625Y0140361D01*
X0136625Y0139411D01*
X0134021Y0139411D01*
X0134021Y0140361D01*
X0134021Y0139727D02*
X0136625Y0139727D01*
X0136625Y0140043D02*
X0134021Y0140043D01*
X0134021Y0140359D02*
X0136625Y0140359D01*
X0134021Y0141936D02*
X0136625Y0141936D01*
X0136625Y0140986D01*
X0134021Y0140986D01*
X0134021Y0141936D01*
X0134021Y0141302D02*
X0136625Y0141302D01*
X0136625Y0141618D02*
X0134021Y0141618D01*
X0134021Y0141934D02*
X0136625Y0141934D01*
X0134021Y0143510D02*
X0136625Y0143510D01*
X0136625Y0142560D01*
X0134021Y0142560D01*
X0134021Y0143510D01*
X0134021Y0142876D02*
X0136625Y0142876D01*
X0136625Y0143192D02*
X0134021Y0143192D01*
X0134021Y0143508D02*
X0136625Y0143508D01*
X0134021Y0145085D02*
X0136625Y0145085D01*
X0136625Y0144135D01*
X0134021Y0144135D01*
X0134021Y0145085D01*
X0134021Y0144451D02*
X0136625Y0144451D01*
X0136625Y0144767D02*
X0134021Y0144767D01*
X0134021Y0145083D02*
X0136625Y0145083D01*
X0134021Y0146660D02*
X0136625Y0146660D01*
X0136625Y0145710D01*
X0134021Y0145710D01*
X0134021Y0146660D01*
X0134021Y0146026D02*
X0136625Y0146026D01*
X0136625Y0146342D02*
X0134021Y0146342D01*
X0134021Y0146658D02*
X0136625Y0146658D01*
X0132702Y0149633D02*
X0133652Y0149633D01*
X0133652Y0147029D01*
X0132702Y0147029D01*
X0132702Y0149633D01*
X0132702Y0147345D02*
X0133652Y0147345D01*
X0133652Y0147661D02*
X0132702Y0147661D01*
X0132702Y0147977D02*
X0133652Y0147977D01*
X0133652Y0148293D02*
X0132702Y0148293D01*
X0132702Y0148609D02*
X0133652Y0148609D01*
X0133652Y0148925D02*
X0132702Y0148925D01*
X0132702Y0149241D02*
X0133652Y0149241D01*
X0133652Y0149557D02*
X0132702Y0149557D01*
X0131127Y0149633D02*
X0132077Y0149633D01*
X0132077Y0147029D01*
X0131127Y0147029D01*
X0131127Y0149633D01*
X0131127Y0147345D02*
X0132077Y0147345D01*
X0132077Y0147661D02*
X0131127Y0147661D01*
X0131127Y0147977D02*
X0132077Y0147977D01*
X0132077Y0148293D02*
X0131127Y0148293D01*
X0131127Y0148609D02*
X0132077Y0148609D01*
X0132077Y0148925D02*
X0131127Y0148925D01*
X0131127Y0149241D02*
X0132077Y0149241D01*
X0132077Y0149557D02*
X0131127Y0149557D01*
X0129553Y0149633D02*
X0130503Y0149633D01*
X0130503Y0147029D01*
X0129553Y0147029D01*
X0129553Y0149633D01*
X0129553Y0147345D02*
X0130503Y0147345D01*
X0130503Y0147661D02*
X0129553Y0147661D01*
X0129553Y0147977D02*
X0130503Y0147977D01*
X0130503Y0148293D02*
X0129553Y0148293D01*
X0129553Y0148609D02*
X0130503Y0148609D01*
X0130503Y0148925D02*
X0129553Y0148925D01*
X0129553Y0149241D02*
X0130503Y0149241D01*
X0130503Y0149557D02*
X0129553Y0149557D01*
X0127978Y0149633D02*
X0128928Y0149633D01*
X0128928Y0147029D01*
X0127978Y0147029D01*
X0127978Y0149633D01*
X0127978Y0147345D02*
X0128928Y0147345D01*
X0128928Y0147661D02*
X0127978Y0147661D01*
X0127978Y0147977D02*
X0128928Y0147977D01*
X0128928Y0148293D02*
X0127978Y0148293D01*
X0127978Y0148609D02*
X0128928Y0148609D01*
X0128928Y0148925D02*
X0127978Y0148925D01*
X0127978Y0149241D02*
X0128928Y0149241D01*
X0128928Y0149557D02*
X0127978Y0149557D01*
X0126403Y0149633D02*
X0127353Y0149633D01*
X0127353Y0147029D01*
X0126403Y0147029D01*
X0126403Y0149633D01*
X0126403Y0147345D02*
X0127353Y0147345D01*
X0127353Y0147661D02*
X0126403Y0147661D01*
X0126403Y0147977D02*
X0127353Y0147977D01*
X0127353Y0148293D02*
X0126403Y0148293D01*
X0126403Y0148609D02*
X0127353Y0148609D01*
X0127353Y0148925D02*
X0126403Y0148925D01*
X0126403Y0149241D02*
X0127353Y0149241D01*
X0127353Y0149557D02*
X0126403Y0149557D01*
X0124828Y0149633D02*
X0125778Y0149633D01*
X0125778Y0147029D01*
X0124828Y0147029D01*
X0124828Y0149633D01*
X0124828Y0147345D02*
X0125778Y0147345D01*
X0125778Y0147661D02*
X0124828Y0147661D01*
X0124828Y0147977D02*
X0125778Y0147977D01*
X0125778Y0148293D02*
X0124828Y0148293D01*
X0124828Y0148609D02*
X0125778Y0148609D01*
X0125778Y0148925D02*
X0124828Y0148925D01*
X0124828Y0149241D02*
X0125778Y0149241D01*
X0125778Y0149557D02*
X0124828Y0149557D01*
X0121855Y0146660D02*
X0124459Y0146660D01*
X0124459Y0145710D01*
X0121855Y0145710D01*
X0121855Y0146660D01*
X0121855Y0146026D02*
X0124459Y0146026D01*
X0124459Y0146342D02*
X0121855Y0146342D01*
X0121855Y0146658D02*
X0124459Y0146658D01*
X0121855Y0145085D02*
X0124459Y0145085D01*
X0124459Y0144135D01*
X0121855Y0144135D01*
X0121855Y0145085D01*
X0121855Y0144451D02*
X0124459Y0144451D01*
X0124459Y0144767D02*
X0121855Y0144767D01*
X0121855Y0145083D02*
X0124459Y0145083D01*
X0121855Y0143510D02*
X0124459Y0143510D01*
X0124459Y0142560D01*
X0121855Y0142560D01*
X0121855Y0143510D01*
X0121855Y0142876D02*
X0124459Y0142876D01*
X0124459Y0143192D02*
X0121855Y0143192D01*
X0121855Y0143508D02*
X0124459Y0143508D01*
X0121855Y0141936D02*
X0124459Y0141936D01*
X0124459Y0140986D01*
X0121855Y0140986D01*
X0121855Y0141936D01*
X0121855Y0141302D02*
X0124459Y0141302D01*
X0124459Y0141618D02*
X0121855Y0141618D01*
X0121855Y0141934D02*
X0124459Y0141934D01*
X0121855Y0140361D02*
X0124459Y0140361D01*
X0124459Y0139411D01*
X0121855Y0139411D01*
X0121855Y0140361D01*
X0121855Y0139727D02*
X0124459Y0139727D01*
X0124459Y0140043D02*
X0121855Y0140043D01*
X0121855Y0140359D02*
X0124459Y0140359D01*
X0121855Y0138786D02*
X0124459Y0138786D01*
X0124459Y0137836D01*
X0121855Y0137836D01*
X0121855Y0138786D01*
X0121855Y0138152D02*
X0124459Y0138152D01*
X0124459Y0138468D02*
X0121855Y0138468D01*
X0121855Y0138784D02*
X0124459Y0138784D01*
X0124828Y0137467D02*
X0125778Y0137467D01*
X0125778Y0134863D01*
X0124828Y0134863D01*
X0124828Y0137467D01*
X0124828Y0135179D02*
X0125778Y0135179D01*
X0125778Y0135495D02*
X0124828Y0135495D01*
X0124828Y0135811D02*
X0125778Y0135811D01*
X0125778Y0136127D02*
X0124828Y0136127D01*
X0124828Y0136443D02*
X0125778Y0136443D01*
X0125778Y0136759D02*
X0124828Y0136759D01*
X0124828Y0137075D02*
X0125778Y0137075D01*
X0125778Y0137391D02*
X0124828Y0137391D01*
X0126403Y0137467D02*
X0127353Y0137467D01*
X0127353Y0134863D01*
X0126403Y0134863D01*
X0126403Y0137467D01*
X0126403Y0135179D02*
X0127353Y0135179D01*
X0127353Y0135495D02*
X0126403Y0135495D01*
X0126403Y0135811D02*
X0127353Y0135811D01*
X0127353Y0136127D02*
X0126403Y0136127D01*
X0126403Y0136443D02*
X0127353Y0136443D01*
X0127353Y0136759D02*
X0126403Y0136759D01*
X0126403Y0137075D02*
X0127353Y0137075D01*
X0127353Y0137391D02*
X0126403Y0137391D01*
X0127978Y0137467D02*
X0128928Y0137467D01*
X0128928Y0134863D01*
X0127978Y0134863D01*
X0127978Y0137467D01*
X0127978Y0135179D02*
X0128928Y0135179D01*
X0128928Y0135495D02*
X0127978Y0135495D01*
X0127978Y0135811D02*
X0128928Y0135811D01*
X0128928Y0136127D02*
X0127978Y0136127D01*
X0127978Y0136443D02*
X0128928Y0136443D01*
X0128928Y0136759D02*
X0127978Y0136759D01*
X0127978Y0137075D02*
X0128928Y0137075D01*
X0128928Y0137391D02*
X0127978Y0137391D01*
X0129553Y0137467D02*
X0130503Y0137467D01*
X0130503Y0134863D01*
X0129553Y0134863D01*
X0129553Y0137467D01*
X0129553Y0135179D02*
X0130503Y0135179D01*
X0130503Y0135495D02*
X0129553Y0135495D01*
X0129553Y0135811D02*
X0130503Y0135811D01*
X0130503Y0136127D02*
X0129553Y0136127D01*
X0129553Y0136443D02*
X0130503Y0136443D01*
X0130503Y0136759D02*
X0129553Y0136759D01*
X0129553Y0137075D02*
X0130503Y0137075D01*
X0130503Y0137391D02*
X0129553Y0137391D01*
X0131127Y0137467D02*
X0132077Y0137467D01*
X0132077Y0134863D01*
X0131127Y0134863D01*
X0131127Y0137467D01*
X0131127Y0135179D02*
X0132077Y0135179D01*
X0132077Y0135495D02*
X0131127Y0135495D01*
X0131127Y0135811D02*
X0132077Y0135811D01*
X0132077Y0136127D02*
X0131127Y0136127D01*
X0131127Y0136443D02*
X0132077Y0136443D01*
X0132077Y0136759D02*
X0131127Y0136759D01*
X0131127Y0137075D02*
X0132077Y0137075D01*
X0132077Y0137391D02*
X0131127Y0137391D01*
X0132702Y0137467D02*
X0133652Y0137467D01*
X0133652Y0134863D01*
X0132702Y0134863D01*
X0132702Y0137467D01*
X0132702Y0135179D02*
X0133652Y0135179D01*
X0133652Y0135495D02*
X0132702Y0135495D01*
X0132702Y0135811D02*
X0133652Y0135811D01*
X0133652Y0136127D02*
X0132702Y0136127D01*
X0132702Y0136443D02*
X0133652Y0136443D01*
X0133652Y0136759D02*
X0132702Y0136759D01*
X0132702Y0137075D02*
X0133652Y0137075D01*
X0133652Y0137391D02*
X0132702Y0137391D01*
D39*
X0099685Y0137638D03*
X0099685Y0149055D03*
D40*
X0055315Y0120354D03*
X0047835Y0120354D03*
D41*
X0087012Y0137795D03*
X0067162Y0137795D03*
D42*
X0054154Y0064252D03*
X0054154Y0056772D03*
D43*
X0045276Y0074488D03*
X0045276Y0080394D03*
X0156102Y0137441D03*
X0156102Y0143346D03*
D44*
X0153987Y0120186D02*
X0150777Y0120186D01*
X0150777Y0121546D01*
X0153987Y0121546D01*
X0153987Y0120186D01*
X0153987Y0120287D02*
X0150777Y0120287D01*
X0150777Y0120388D02*
X0153987Y0120388D01*
X0153987Y0120489D02*
X0150777Y0120489D01*
X0150777Y0120590D02*
X0153987Y0120590D01*
X0153987Y0120691D02*
X0150777Y0120691D01*
X0150777Y0120792D02*
X0153987Y0120792D01*
X0153987Y0120893D02*
X0150777Y0120893D01*
X0150777Y0120994D02*
X0153987Y0120994D01*
X0153987Y0121095D02*
X0150777Y0121095D01*
X0150777Y0121196D02*
X0153987Y0121196D01*
X0153987Y0121297D02*
X0150777Y0121297D01*
X0150777Y0121398D02*
X0153987Y0121398D01*
X0153987Y0121499D02*
X0150777Y0121499D01*
X0153987Y0118218D02*
X0150777Y0118218D01*
X0150777Y0119578D01*
X0153987Y0119578D01*
X0153987Y0118218D01*
X0153987Y0118319D02*
X0150777Y0118319D01*
X0150777Y0118420D02*
X0153987Y0118420D01*
X0153987Y0118521D02*
X0150777Y0118521D01*
X0150777Y0118622D02*
X0153987Y0118622D01*
X0153987Y0118723D02*
X0150777Y0118723D01*
X0150777Y0118824D02*
X0153987Y0118824D01*
X0153987Y0118925D02*
X0150777Y0118925D01*
X0150777Y0119026D02*
X0153987Y0119026D01*
X0153987Y0119127D02*
X0150777Y0119127D01*
X0150777Y0119228D02*
X0153987Y0119228D01*
X0153987Y0119329D02*
X0150777Y0119329D01*
X0150777Y0119430D02*
X0153987Y0119430D01*
X0153987Y0119531D02*
X0150777Y0119531D01*
X0153987Y0116249D02*
X0150777Y0116249D01*
X0150777Y0117609D01*
X0153987Y0117609D01*
X0153987Y0116249D01*
X0153987Y0116350D02*
X0150777Y0116350D01*
X0150777Y0116451D02*
X0153987Y0116451D01*
X0153987Y0116552D02*
X0150777Y0116552D01*
X0150777Y0116653D02*
X0153987Y0116653D01*
X0153987Y0116754D02*
X0150777Y0116754D01*
X0150777Y0116855D02*
X0153987Y0116855D01*
X0153987Y0116956D02*
X0150777Y0116956D01*
X0150777Y0117057D02*
X0153987Y0117057D01*
X0153987Y0117158D02*
X0150777Y0117158D01*
X0150777Y0117259D02*
X0153987Y0117259D01*
X0153987Y0117360D02*
X0150777Y0117360D01*
X0150777Y0117461D02*
X0153987Y0117461D01*
X0153987Y0117562D02*
X0150777Y0117562D01*
X0153987Y0114281D02*
X0150777Y0114281D01*
X0150777Y0115641D01*
X0153987Y0115641D01*
X0153987Y0114281D01*
X0153987Y0114382D02*
X0150777Y0114382D01*
X0150777Y0114483D02*
X0153987Y0114483D01*
X0153987Y0114584D02*
X0150777Y0114584D01*
X0150777Y0114685D02*
X0153987Y0114685D01*
X0153987Y0114786D02*
X0150777Y0114786D01*
X0150777Y0114887D02*
X0153987Y0114887D01*
X0153987Y0114988D02*
X0150777Y0114988D01*
X0150777Y0115089D02*
X0153987Y0115089D01*
X0153987Y0115190D02*
X0150777Y0115190D01*
X0150777Y0115291D02*
X0153987Y0115291D01*
X0153987Y0115392D02*
X0150777Y0115392D01*
X0150777Y0115493D02*
X0153987Y0115493D01*
X0153987Y0115594D02*
X0150777Y0115594D01*
X0153987Y0112312D02*
X0150777Y0112312D01*
X0150777Y0113672D01*
X0153987Y0113672D01*
X0153987Y0112312D01*
X0153987Y0112413D02*
X0150777Y0112413D01*
X0150777Y0112514D02*
X0153987Y0112514D01*
X0153987Y0112615D02*
X0150777Y0112615D01*
X0150777Y0112716D02*
X0153987Y0112716D01*
X0153987Y0112817D02*
X0150777Y0112817D01*
X0150777Y0112918D02*
X0153987Y0112918D01*
X0153987Y0113019D02*
X0150777Y0113019D01*
X0150777Y0113120D02*
X0153987Y0113120D01*
X0153987Y0113221D02*
X0150777Y0113221D01*
X0150777Y0113322D02*
X0153987Y0113322D01*
X0153987Y0113423D02*
X0150777Y0113423D01*
X0150777Y0113524D02*
X0153987Y0113524D01*
X0153987Y0113625D02*
X0150777Y0113625D01*
X0161822Y0112312D02*
X0158612Y0112312D01*
X0158612Y0113672D01*
X0161822Y0113672D01*
X0161822Y0112312D01*
X0161822Y0112413D02*
X0158612Y0112413D01*
X0158612Y0112514D02*
X0161822Y0112514D01*
X0161822Y0112615D02*
X0158612Y0112615D01*
X0158612Y0112716D02*
X0161822Y0112716D01*
X0161822Y0112817D02*
X0158612Y0112817D01*
X0158612Y0112918D02*
X0161822Y0112918D01*
X0161822Y0113019D02*
X0158612Y0113019D01*
X0158612Y0113120D02*
X0161822Y0113120D01*
X0161822Y0113221D02*
X0158612Y0113221D01*
X0158612Y0113322D02*
X0161822Y0113322D01*
X0161822Y0113423D02*
X0158612Y0113423D01*
X0158612Y0113524D02*
X0161822Y0113524D01*
X0161822Y0113625D02*
X0158612Y0113625D01*
X0161822Y0114281D02*
X0158612Y0114281D01*
X0158612Y0115641D01*
X0161822Y0115641D01*
X0161822Y0114281D01*
X0161822Y0114382D02*
X0158612Y0114382D01*
X0158612Y0114483D02*
X0161822Y0114483D01*
X0161822Y0114584D02*
X0158612Y0114584D01*
X0158612Y0114685D02*
X0161822Y0114685D01*
X0161822Y0114786D02*
X0158612Y0114786D01*
X0158612Y0114887D02*
X0161822Y0114887D01*
X0161822Y0114988D02*
X0158612Y0114988D01*
X0158612Y0115089D02*
X0161822Y0115089D01*
X0161822Y0115190D02*
X0158612Y0115190D01*
X0158612Y0115291D02*
X0161822Y0115291D01*
X0161822Y0115392D02*
X0158612Y0115392D01*
X0158612Y0115493D02*
X0161822Y0115493D01*
X0161822Y0115594D02*
X0158612Y0115594D01*
X0161822Y0116249D02*
X0158612Y0116249D01*
X0158612Y0117609D01*
X0161822Y0117609D01*
X0161822Y0116249D01*
X0161822Y0116350D02*
X0158612Y0116350D01*
X0158612Y0116451D02*
X0161822Y0116451D01*
X0161822Y0116552D02*
X0158612Y0116552D01*
X0158612Y0116653D02*
X0161822Y0116653D01*
X0161822Y0116754D02*
X0158612Y0116754D01*
X0158612Y0116855D02*
X0161822Y0116855D01*
X0161822Y0116956D02*
X0158612Y0116956D01*
X0158612Y0117057D02*
X0161822Y0117057D01*
X0161822Y0117158D02*
X0158612Y0117158D01*
X0158612Y0117259D02*
X0161822Y0117259D01*
X0161822Y0117360D02*
X0158612Y0117360D01*
X0158612Y0117461D02*
X0161822Y0117461D01*
X0161822Y0117562D02*
X0158612Y0117562D01*
X0161822Y0118218D02*
X0158612Y0118218D01*
X0158612Y0119578D01*
X0161822Y0119578D01*
X0161822Y0118218D01*
X0161822Y0118319D02*
X0158612Y0118319D01*
X0158612Y0118420D02*
X0161822Y0118420D01*
X0161822Y0118521D02*
X0158612Y0118521D01*
X0158612Y0118622D02*
X0161822Y0118622D01*
X0161822Y0118723D02*
X0158612Y0118723D01*
X0158612Y0118824D02*
X0161822Y0118824D01*
X0161822Y0118925D02*
X0158612Y0118925D01*
X0158612Y0119026D02*
X0161822Y0119026D01*
X0161822Y0119127D02*
X0158612Y0119127D01*
X0158612Y0119228D02*
X0161822Y0119228D01*
X0161822Y0119329D02*
X0158612Y0119329D01*
X0158612Y0119430D02*
X0161822Y0119430D01*
X0161822Y0119531D02*
X0158612Y0119531D01*
X0161822Y0120186D02*
X0158612Y0120186D01*
X0158612Y0121546D01*
X0161822Y0121546D01*
X0161822Y0120186D01*
X0161822Y0120287D02*
X0158612Y0120287D01*
X0158612Y0120388D02*
X0161822Y0120388D01*
X0161822Y0120489D02*
X0158612Y0120489D01*
X0158612Y0120590D02*
X0161822Y0120590D01*
X0161822Y0120691D02*
X0158612Y0120691D01*
X0158612Y0120792D02*
X0161822Y0120792D01*
X0161822Y0120893D02*
X0158612Y0120893D01*
X0158612Y0120994D02*
X0161822Y0120994D01*
X0161822Y0121095D02*
X0158612Y0121095D01*
X0158612Y0121196D02*
X0161822Y0121196D01*
X0161822Y0121297D02*
X0158612Y0121297D01*
X0158612Y0121398D02*
X0161822Y0121398D01*
X0161822Y0121499D02*
X0158612Y0121499D01*
D45*
X0156299Y0116929D03*
D46*
X0156299Y0120669D03*
X0156299Y0116929D03*
X0156299Y0113189D03*
D47*
X0156299Y0120669D03*
X0156299Y0116929D03*
X0156299Y0113189D03*
D48*
X0174252Y0120866D03*
X0167480Y0120866D03*
D49*
X0105686Y0092913D03*
X0111636Y0092913D03*
D50*
X0169388Y0097538D02*
X0169388Y0099706D01*
X0171164Y0099706D01*
X0171164Y0097538D01*
X0169388Y0097538D01*
X0169388Y0099312D02*
X0171164Y0099312D01*
D51*
X0170276Y0104134D03*
X0165945Y0098622D03*
X0165945Y0104134D03*
D52*
X0107480Y0028594D03*
X0132677Y0028594D03*
X0110630Y0028594D03*
X0129528Y0028594D03*
D53*
X0113189Y0028594D03*
X0115157Y0028594D03*
X0117126Y0028594D03*
X0119094Y0028594D03*
X0121063Y0028594D03*
X0123031Y0028594D03*
X0125000Y0028594D03*
X0126969Y0028594D03*
D54*
X0099961Y0026330D03*
X0140197Y0026330D03*
X0099961Y0010857D03*
X0140197Y0010857D03*
D55*
X0108661Y0024390D03*
X0131496Y0024390D03*
D56*
X0062480Y0042027D03*
X0064449Y0042027D03*
X0066417Y0042027D03*
X0068386Y0042027D03*
X0070354Y0042027D03*
X0072323Y0042027D03*
X0074291Y0042027D03*
X0076260Y0042027D03*
D57*
X0050276Y0036121D03*
X0088465Y0036121D03*
D58*
X0048126Y0040471D02*
X0048126Y0031771D01*
X0052426Y0031771D01*
X0052426Y0028465D01*
X0057526Y0028465D01*
X0057526Y0040471D01*
X0048126Y0040471D01*
X0052426Y0028470D02*
X0057526Y0028470D01*
X0057526Y0028568D02*
X0052426Y0028568D01*
X0052426Y0028667D02*
X0057526Y0028667D01*
X0057526Y0028765D02*
X0052426Y0028765D01*
X0052426Y0028864D02*
X0057526Y0028864D01*
X0057526Y0028962D02*
X0052426Y0028962D01*
X0052426Y0029061D02*
X0057526Y0029061D01*
X0057526Y0029159D02*
X0052426Y0029159D01*
X0052426Y0029258D02*
X0057526Y0029258D01*
X0057526Y0029356D02*
X0052426Y0029356D01*
X0052426Y0029455D02*
X0057526Y0029455D01*
X0057526Y0029553D02*
X0052426Y0029553D01*
X0052426Y0029652D02*
X0057526Y0029652D01*
X0057526Y0029750D02*
X0052426Y0029750D01*
X0052426Y0029849D02*
X0057526Y0029849D01*
X0057526Y0029947D02*
X0052426Y0029947D01*
X0052426Y0030046D02*
X0057526Y0030046D01*
X0057526Y0030144D02*
X0052426Y0030144D01*
X0052426Y0030243D02*
X0057526Y0030243D01*
X0057526Y0030341D02*
X0052426Y0030341D01*
X0052426Y0030440D02*
X0057526Y0030440D01*
X0057526Y0030539D02*
X0052426Y0030539D01*
X0052426Y0030637D02*
X0057526Y0030637D01*
X0057526Y0030736D02*
X0052426Y0030736D01*
X0052426Y0030834D02*
X0057526Y0030834D01*
X0057526Y0030933D02*
X0052426Y0030933D01*
X0052426Y0031031D02*
X0057526Y0031031D01*
X0057526Y0031130D02*
X0052426Y0031130D01*
X0052426Y0031228D02*
X0057526Y0031228D01*
X0057526Y0031327D02*
X0052426Y0031327D01*
X0052426Y0031425D02*
X0057526Y0031425D01*
X0057526Y0031524D02*
X0052426Y0031524D01*
X0052426Y0031622D02*
X0057526Y0031622D01*
X0057526Y0031721D02*
X0052426Y0031721D01*
X0048126Y0031819D02*
X0057526Y0031819D01*
X0057526Y0031918D02*
X0048126Y0031918D01*
X0048126Y0032016D02*
X0057526Y0032016D01*
X0057526Y0032115D02*
X0048126Y0032115D01*
X0048126Y0032213D02*
X0057526Y0032213D01*
X0057526Y0032312D02*
X0048126Y0032312D01*
X0048126Y0032410D02*
X0057526Y0032410D01*
X0057526Y0032509D02*
X0048126Y0032509D01*
X0048126Y0032607D02*
X0057526Y0032607D01*
X0057526Y0032706D02*
X0048126Y0032706D01*
X0048126Y0032804D02*
X0057526Y0032804D01*
X0057526Y0032903D02*
X0048126Y0032903D01*
X0048126Y0033001D02*
X0057526Y0033001D01*
X0057526Y0033100D02*
X0048126Y0033100D01*
X0048126Y0033198D02*
X0057526Y0033198D01*
X0057526Y0033297D02*
X0048126Y0033297D01*
X0048126Y0033395D02*
X0057526Y0033395D01*
X0057526Y0033494D02*
X0048126Y0033494D01*
X0048126Y0033592D02*
X0057526Y0033592D01*
X0057526Y0033691D02*
X0048126Y0033691D01*
X0048126Y0033789D02*
X0057526Y0033789D01*
X0057526Y0033888D02*
X0048126Y0033888D01*
X0048126Y0033986D02*
X0057526Y0033986D01*
X0057526Y0034085D02*
X0048126Y0034085D01*
X0048126Y0034183D02*
X0057526Y0034183D01*
X0057526Y0034282D02*
X0048126Y0034282D01*
X0048126Y0034380D02*
X0057526Y0034380D01*
X0057526Y0034479D02*
X0048126Y0034479D01*
X0048126Y0034577D02*
X0057526Y0034577D01*
X0057526Y0034676D02*
X0048126Y0034676D01*
X0048126Y0034774D02*
X0057526Y0034774D01*
X0057526Y0034873D02*
X0048126Y0034873D01*
X0048126Y0034972D02*
X0057526Y0034972D01*
X0057526Y0035070D02*
X0048126Y0035070D01*
X0048126Y0035169D02*
X0057526Y0035169D01*
X0057526Y0035267D02*
X0048126Y0035267D01*
X0048126Y0035366D02*
X0057526Y0035366D01*
X0057526Y0035464D02*
X0048126Y0035464D01*
X0048126Y0035563D02*
X0057526Y0035563D01*
X0057526Y0035661D02*
X0048126Y0035661D01*
X0048126Y0035760D02*
X0057526Y0035760D01*
X0057526Y0035858D02*
X0048126Y0035858D01*
X0048126Y0035957D02*
X0057526Y0035957D01*
X0057526Y0036055D02*
X0048126Y0036055D01*
X0048126Y0036154D02*
X0057526Y0036154D01*
X0057526Y0036252D02*
X0048126Y0036252D01*
X0048126Y0036351D02*
X0057526Y0036351D01*
X0057526Y0036449D02*
X0048126Y0036449D01*
X0048126Y0036548D02*
X0057526Y0036548D01*
X0057526Y0036646D02*
X0048126Y0036646D01*
X0048126Y0036745D02*
X0057526Y0036745D01*
X0057526Y0036843D02*
X0048126Y0036843D01*
X0048126Y0036942D02*
X0057526Y0036942D01*
X0057526Y0037040D02*
X0048126Y0037040D01*
X0048126Y0037139D02*
X0057526Y0037139D01*
X0057526Y0037237D02*
X0048126Y0037237D01*
X0048126Y0037336D02*
X0057526Y0037336D01*
X0057526Y0037434D02*
X0048126Y0037434D01*
X0048126Y0037533D02*
X0057526Y0037533D01*
X0057526Y0037631D02*
X0048126Y0037631D01*
X0048126Y0037730D02*
X0057526Y0037730D01*
X0057526Y0037828D02*
X0048126Y0037828D01*
X0048126Y0037927D02*
X0057526Y0037927D01*
X0057526Y0038025D02*
X0048126Y0038025D01*
X0048126Y0038124D02*
X0057526Y0038124D01*
X0057526Y0038222D02*
X0048126Y0038222D01*
X0048126Y0038321D02*
X0057526Y0038321D01*
X0057526Y0038419D02*
X0048126Y0038419D01*
X0048126Y0038518D02*
X0057526Y0038518D01*
X0057526Y0038616D02*
X0048126Y0038616D01*
X0048126Y0038715D02*
X0057526Y0038715D01*
X0057526Y0038813D02*
X0048126Y0038813D01*
X0048126Y0038912D02*
X0057526Y0038912D01*
X0057526Y0039010D02*
X0048126Y0039010D01*
X0048126Y0039109D02*
X0057526Y0039109D01*
X0057526Y0039208D02*
X0048126Y0039208D01*
X0048126Y0039306D02*
X0057526Y0039306D01*
X0057526Y0039405D02*
X0048126Y0039405D01*
X0048126Y0039503D02*
X0057526Y0039503D01*
X0057526Y0039602D02*
X0048126Y0039602D01*
X0048126Y0039700D02*
X0057526Y0039700D01*
X0057526Y0039799D02*
X0048126Y0039799D01*
X0048126Y0039897D02*
X0057526Y0039897D01*
X0057526Y0039996D02*
X0048126Y0039996D01*
X0048126Y0040094D02*
X0057526Y0040094D01*
X0057526Y0040193D02*
X0048126Y0040193D01*
X0048126Y0040291D02*
X0057526Y0040291D01*
X0057526Y0040390D02*
X0048126Y0040390D01*
X0090615Y0040471D02*
X0090615Y0031771D01*
X0086315Y0031771D01*
X0086315Y0028465D01*
X0081215Y0028465D01*
X0081215Y0040471D01*
X0090615Y0040471D01*
X0086315Y0028470D02*
X0081215Y0028470D01*
X0081215Y0028568D02*
X0086315Y0028568D01*
X0086315Y0028667D02*
X0081215Y0028667D01*
X0081215Y0028765D02*
X0086315Y0028765D01*
X0086315Y0028864D02*
X0081215Y0028864D01*
X0081215Y0028962D02*
X0086315Y0028962D01*
X0086315Y0029061D02*
X0081215Y0029061D01*
X0081215Y0029159D02*
X0086315Y0029159D01*
X0086315Y0029258D02*
X0081215Y0029258D01*
X0081215Y0029356D02*
X0086315Y0029356D01*
X0086315Y0029455D02*
X0081215Y0029455D01*
X0081215Y0029553D02*
X0086315Y0029553D01*
X0086315Y0029652D02*
X0081215Y0029652D01*
X0081215Y0029750D02*
X0086315Y0029750D01*
X0086315Y0029849D02*
X0081215Y0029849D01*
X0081215Y0029947D02*
X0086315Y0029947D01*
X0086315Y0030046D02*
X0081215Y0030046D01*
X0081215Y0030144D02*
X0086315Y0030144D01*
X0086315Y0030243D02*
X0081215Y0030243D01*
X0081215Y0030341D02*
X0086315Y0030341D01*
X0086315Y0030440D02*
X0081215Y0030440D01*
X0081215Y0030539D02*
X0086315Y0030539D01*
X0086315Y0030637D02*
X0081215Y0030637D01*
X0081215Y0030736D02*
X0086315Y0030736D01*
X0086315Y0030834D02*
X0081215Y0030834D01*
X0081215Y0030933D02*
X0086315Y0030933D01*
X0086315Y0031031D02*
X0081215Y0031031D01*
X0081215Y0031130D02*
X0086315Y0031130D01*
X0086315Y0031228D02*
X0081215Y0031228D01*
X0081215Y0031327D02*
X0086315Y0031327D01*
X0086315Y0031425D02*
X0081215Y0031425D01*
X0081215Y0031524D02*
X0086315Y0031524D01*
X0086315Y0031622D02*
X0081215Y0031622D01*
X0081215Y0031721D02*
X0086315Y0031721D01*
X0090615Y0031819D02*
X0081215Y0031819D01*
X0081215Y0031918D02*
X0090615Y0031918D01*
X0090615Y0032016D02*
X0081215Y0032016D01*
X0081215Y0032115D02*
X0090615Y0032115D01*
X0090615Y0032213D02*
X0081215Y0032213D01*
X0081215Y0032312D02*
X0090615Y0032312D01*
X0090615Y0032410D02*
X0081215Y0032410D01*
X0081215Y0032509D02*
X0090615Y0032509D01*
X0090615Y0032607D02*
X0081215Y0032607D01*
X0081215Y0032706D02*
X0090615Y0032706D01*
X0090615Y0032804D02*
X0081215Y0032804D01*
X0081215Y0032903D02*
X0090615Y0032903D01*
X0090615Y0033001D02*
X0081215Y0033001D01*
X0081215Y0033100D02*
X0090615Y0033100D01*
X0090615Y0033198D02*
X0081215Y0033198D01*
X0081215Y0033297D02*
X0090615Y0033297D01*
X0090615Y0033395D02*
X0081215Y0033395D01*
X0081215Y0033494D02*
X0090615Y0033494D01*
X0090615Y0033592D02*
X0081215Y0033592D01*
X0081215Y0033691D02*
X0090615Y0033691D01*
X0090615Y0033789D02*
X0081215Y0033789D01*
X0081215Y0033888D02*
X0090615Y0033888D01*
X0090615Y0033986D02*
X0081215Y0033986D01*
X0081215Y0034085D02*
X0090615Y0034085D01*
X0090615Y0034183D02*
X0081215Y0034183D01*
X0081215Y0034282D02*
X0090615Y0034282D01*
X0090615Y0034380D02*
X0081215Y0034380D01*
X0081215Y0034479D02*
X0090615Y0034479D01*
X0090615Y0034577D02*
X0081215Y0034577D01*
X0081215Y0034676D02*
X0090615Y0034676D01*
X0090615Y0034774D02*
X0081215Y0034774D01*
X0081215Y0034873D02*
X0090615Y0034873D01*
X0090615Y0034972D02*
X0081215Y0034972D01*
X0081215Y0035070D02*
X0090615Y0035070D01*
X0090615Y0035169D02*
X0081215Y0035169D01*
X0081215Y0035267D02*
X0090615Y0035267D01*
X0090615Y0035366D02*
X0081215Y0035366D01*
X0081215Y0035464D02*
X0090615Y0035464D01*
X0090615Y0035563D02*
X0081215Y0035563D01*
X0081215Y0035661D02*
X0090615Y0035661D01*
X0090615Y0035760D02*
X0081215Y0035760D01*
X0081215Y0035858D02*
X0090615Y0035858D01*
X0090615Y0035957D02*
X0081215Y0035957D01*
X0081215Y0036055D02*
X0090615Y0036055D01*
X0090615Y0036154D02*
X0081215Y0036154D01*
X0081215Y0036252D02*
X0090615Y0036252D01*
X0090615Y0036351D02*
X0081215Y0036351D01*
X0081215Y0036449D02*
X0090615Y0036449D01*
X0090615Y0036548D02*
X0081215Y0036548D01*
X0081215Y0036646D02*
X0090615Y0036646D01*
X0090615Y0036745D02*
X0081215Y0036745D01*
X0081215Y0036843D02*
X0090615Y0036843D01*
X0090615Y0036942D02*
X0081215Y0036942D01*
X0081215Y0037040D02*
X0090615Y0037040D01*
X0090615Y0037139D02*
X0081215Y0037139D01*
X0081215Y0037237D02*
X0090615Y0037237D01*
X0090615Y0037336D02*
X0081215Y0037336D01*
X0081215Y0037434D02*
X0090615Y0037434D01*
X0090615Y0037533D02*
X0081215Y0037533D01*
X0081215Y0037631D02*
X0090615Y0037631D01*
X0090615Y0037730D02*
X0081215Y0037730D01*
X0081215Y0037828D02*
X0090615Y0037828D01*
X0090615Y0037927D02*
X0081215Y0037927D01*
X0081215Y0038025D02*
X0090615Y0038025D01*
X0090615Y0038124D02*
X0081215Y0038124D01*
X0081215Y0038222D02*
X0090615Y0038222D01*
X0090615Y0038321D02*
X0081215Y0038321D01*
X0081215Y0038419D02*
X0090615Y0038419D01*
X0090615Y0038518D02*
X0081215Y0038518D01*
X0081215Y0038616D02*
X0090615Y0038616D01*
X0090615Y0038715D02*
X0081215Y0038715D01*
X0081215Y0038813D02*
X0090615Y0038813D01*
X0090615Y0038912D02*
X0081215Y0038912D01*
X0081215Y0039010D02*
X0090615Y0039010D01*
X0090615Y0039109D02*
X0081215Y0039109D01*
X0081215Y0039208D02*
X0090615Y0039208D01*
X0090615Y0039306D02*
X0081215Y0039306D01*
X0081215Y0039405D02*
X0090615Y0039405D01*
X0090615Y0039503D02*
X0081215Y0039503D01*
X0081215Y0039602D02*
X0090615Y0039602D01*
X0090615Y0039700D02*
X0081215Y0039700D01*
X0081215Y0039799D02*
X0090615Y0039799D01*
X0090615Y0039897D02*
X0081215Y0039897D01*
X0081215Y0039996D02*
X0090615Y0039996D01*
X0090615Y0040094D02*
X0081215Y0040094D01*
X0081215Y0040193D02*
X0090615Y0040193D01*
X0090615Y0040291D02*
X0081215Y0040291D01*
X0081215Y0040390D02*
X0090615Y0040390D01*
D59*
X0105315Y0038976D03*
X0107283Y0038976D03*
X0109252Y0038976D03*
X0111220Y0038976D03*
X0111220Y0046457D03*
X0109252Y0046457D03*
X0107283Y0046457D03*
X0105315Y0046457D03*
D60*
X0108268Y0042717D03*
D61*
X0169016Y0137323D03*
X0169016Y0139291D03*
X0169016Y0141260D03*
X0169016Y0143228D03*
X0161535Y0143228D03*
X0161535Y0141260D03*
X0161535Y0139291D03*
X0161535Y0137323D03*
D62*
X0165276Y0140276D03*
D63*
X0020866Y0040354D03*
D64*
X0020866Y0040354D03*
D65*
X0020866Y0050354D03*
X0020866Y0060354D03*
X0020866Y0070354D03*
X0020866Y0080354D03*
X0020866Y0090354D03*
X0020866Y0100354D03*
X0020866Y0110354D03*
D66*
X0020866Y0050354D03*
X0020866Y0060354D03*
X0020866Y0070354D03*
X0020866Y0080354D03*
X0020866Y0090354D03*
X0020866Y0100354D03*
X0020866Y0110354D03*
D67*
X0106299Y0020866D03*
X0135433Y0020079D03*
X0099646Y0143228D03*
X0067323Y0027559D03*
X0048031Y0114567D03*
X0174803Y0071654D03*
X0174803Y0076378D03*
X0111417Y0021417D03*
X0129764Y0020866D03*
X0068386Y0054724D03*
X0074291Y0054724D03*
X0062441Y0054724D03*
M02*
