G75*
%MOIN*%
%OFA0B0*%
%FSLAX25Y25*%
%IPPOS*%
%LPD*%
%AMOC8*
5,1,8,0,0,1.08239X$1,22.5*
%
%ADD10C,0.01000*%
%ADD11C,0.00000*%
D10*
X0187913Y0000000D02*
X0188053Y0000002D01*
X0188193Y0000008D01*
X0188333Y0000018D01*
X0188473Y0000031D01*
X0188612Y0000049D01*
X0188751Y0000071D01*
X0188888Y0000096D01*
X0189026Y0000125D01*
X0189162Y0000158D01*
X0189297Y0000195D01*
X0189431Y0000236D01*
X0189564Y0000281D01*
X0189696Y0000329D01*
X0189826Y0000381D01*
X0189955Y0000436D01*
X0190082Y0000495D01*
X0190208Y0000558D01*
X0190332Y0000624D01*
X0190453Y0000693D01*
X0190573Y0000766D01*
X0190691Y0000843D01*
X0190806Y0000922D01*
X0190920Y0001005D01*
X0191030Y0001091D01*
X0191139Y0001180D01*
X0191245Y0001272D01*
X0191348Y0001367D01*
X0191449Y0001464D01*
X0191546Y0001565D01*
X0191641Y0001668D01*
X0191733Y0001774D01*
X0191822Y0001883D01*
X0191908Y0001993D01*
X0191991Y0002107D01*
X0192070Y0002222D01*
X0192147Y0002340D01*
X0192220Y0002460D01*
X0192289Y0002581D01*
X0192355Y0002705D01*
X0192418Y0002831D01*
X0192477Y0002958D01*
X0192532Y0003087D01*
X0192584Y0003217D01*
X0192632Y0003349D01*
X0192677Y0003482D01*
X0192718Y0003616D01*
X0192755Y0003751D01*
X0192788Y0003887D01*
X0192817Y0004025D01*
X0192842Y0004162D01*
X0192864Y0004301D01*
X0192882Y0004440D01*
X0192895Y0004580D01*
X0192905Y0004720D01*
X0192911Y0004860D01*
X0192913Y0005000D01*
X0192913Y0152480D01*
X0192911Y0152620D01*
X0192905Y0152760D01*
X0192895Y0152900D01*
X0192882Y0153040D01*
X0192864Y0153179D01*
X0192842Y0153318D01*
X0192817Y0153455D01*
X0192788Y0153593D01*
X0192755Y0153729D01*
X0192718Y0153864D01*
X0192677Y0153998D01*
X0192632Y0154131D01*
X0192584Y0154263D01*
X0192532Y0154393D01*
X0192477Y0154522D01*
X0192418Y0154649D01*
X0192355Y0154775D01*
X0192289Y0154899D01*
X0192220Y0155020D01*
X0192147Y0155140D01*
X0192070Y0155258D01*
X0191991Y0155373D01*
X0191908Y0155487D01*
X0191822Y0155597D01*
X0191733Y0155706D01*
X0191641Y0155812D01*
X0191546Y0155915D01*
X0191449Y0156016D01*
X0191348Y0156113D01*
X0191245Y0156208D01*
X0191139Y0156300D01*
X0191030Y0156389D01*
X0190920Y0156475D01*
X0190806Y0156558D01*
X0190691Y0156637D01*
X0190573Y0156714D01*
X0190453Y0156787D01*
X0190332Y0156856D01*
X0190208Y0156922D01*
X0190082Y0156985D01*
X0189955Y0157044D01*
X0189826Y0157099D01*
X0189696Y0157151D01*
X0189564Y0157199D01*
X0189431Y0157244D01*
X0189297Y0157285D01*
X0189162Y0157322D01*
X0189026Y0157355D01*
X0188888Y0157384D01*
X0188751Y0157409D01*
X0188612Y0157431D01*
X0188473Y0157449D01*
X0188333Y0157462D01*
X0188193Y0157472D01*
X0188053Y0157478D01*
X0187913Y0157480D01*
X0005000Y0157480D01*
X0004860Y0157478D01*
X0004720Y0157472D01*
X0004580Y0157462D01*
X0004440Y0157449D01*
X0004301Y0157431D01*
X0004162Y0157409D01*
X0004025Y0157384D01*
X0003887Y0157355D01*
X0003751Y0157322D01*
X0003616Y0157285D01*
X0003482Y0157244D01*
X0003349Y0157199D01*
X0003217Y0157151D01*
X0003087Y0157099D01*
X0002958Y0157044D01*
X0002831Y0156985D01*
X0002705Y0156922D01*
X0002581Y0156856D01*
X0002460Y0156787D01*
X0002340Y0156714D01*
X0002222Y0156637D01*
X0002107Y0156558D01*
X0001993Y0156475D01*
X0001883Y0156389D01*
X0001774Y0156300D01*
X0001668Y0156208D01*
X0001565Y0156113D01*
X0001464Y0156016D01*
X0001367Y0155915D01*
X0001272Y0155812D01*
X0001180Y0155706D01*
X0001091Y0155597D01*
X0001005Y0155487D01*
X0000922Y0155373D01*
X0000843Y0155258D01*
X0000766Y0155140D01*
X0000693Y0155020D01*
X0000624Y0154899D01*
X0000558Y0154775D01*
X0000495Y0154649D01*
X0000436Y0154522D01*
X0000381Y0154393D01*
X0000329Y0154263D01*
X0000281Y0154131D01*
X0000236Y0153998D01*
X0000195Y0153864D01*
X0000158Y0153729D01*
X0000125Y0153593D01*
X0000096Y0153455D01*
X0000071Y0153318D01*
X0000049Y0153179D01*
X0000031Y0153040D01*
X0000018Y0152900D01*
X0000008Y0152760D01*
X0000002Y0152620D01*
X0000000Y0152480D01*
X0000000Y0005000D01*
X0187800Y-0000100D02*
X0004900Y-0000100D01*
X0004760Y-0000098D01*
X0004620Y-0000092D01*
X0004481Y-0000082D01*
X0004341Y-0000068D01*
X0004203Y-0000050D01*
X0004064Y-0000028D01*
X0003927Y-0000002D01*
X0003790Y0000027D01*
X0003654Y0000061D01*
X0003520Y0000098D01*
X0003386Y0000140D01*
X0003253Y0000185D01*
X0003122Y0000234D01*
X0002993Y0000286D01*
X0002864Y0000343D01*
X0002738Y0000403D01*
X0002613Y0000466D01*
X0002491Y0000533D01*
X0002370Y0000604D01*
X0002251Y0000678D01*
X0002134Y0000755D01*
X0002020Y0000836D01*
X0001908Y0000920D01*
X0001798Y0001007D01*
X0001691Y0001097D01*
X0001587Y0001190D01*
X0001485Y0001286D01*
X0001386Y0001385D01*
X0001290Y0001487D01*
X0001197Y0001591D01*
X0001107Y0001698D01*
X0001020Y0001808D01*
X0000936Y0001920D01*
X0000855Y0002034D01*
X0000778Y0002151D01*
X0000704Y0002270D01*
X0000633Y0002391D01*
X0000566Y0002513D01*
X0000503Y0002638D01*
X0000443Y0002764D01*
X0000386Y0002893D01*
X0000334Y0003022D01*
X0000285Y0003153D01*
X0000240Y0003286D01*
X0000198Y0003420D01*
X0000161Y0003554D01*
X0000127Y0003690D01*
X0000098Y0003827D01*
X0000072Y0003964D01*
X0000050Y0004103D01*
X0000032Y0004241D01*
X0000018Y0004381D01*
X0000008Y0004520D01*
X0000002Y0004660D01*
X0000000Y0004800D01*
D11*
X0005374Y0145669D02*
X0005376Y0145768D01*
X0005382Y0145868D01*
X0005392Y0145967D01*
X0005406Y0146065D01*
X0005423Y0146163D01*
X0005445Y0146260D01*
X0005470Y0146356D01*
X0005499Y0146451D01*
X0005532Y0146545D01*
X0005569Y0146637D01*
X0005609Y0146728D01*
X0005653Y0146817D01*
X0005701Y0146905D01*
X0005752Y0146990D01*
X0005806Y0147073D01*
X0005863Y0147155D01*
X0005924Y0147233D01*
X0005988Y0147310D01*
X0006054Y0147383D01*
X0006124Y0147454D01*
X0006196Y0147522D01*
X0006271Y0147588D01*
X0006349Y0147650D01*
X0006429Y0147709D01*
X0006511Y0147765D01*
X0006595Y0147817D01*
X0006682Y0147866D01*
X0006770Y0147912D01*
X0006860Y0147954D01*
X0006952Y0147993D01*
X0007045Y0148028D01*
X0007139Y0148059D01*
X0007235Y0148086D01*
X0007332Y0148109D01*
X0007429Y0148129D01*
X0007527Y0148145D01*
X0007626Y0148157D01*
X0007725Y0148165D01*
X0007824Y0148169D01*
X0007924Y0148169D01*
X0008023Y0148165D01*
X0008122Y0148157D01*
X0008221Y0148145D01*
X0008319Y0148129D01*
X0008416Y0148109D01*
X0008513Y0148086D01*
X0008609Y0148059D01*
X0008703Y0148028D01*
X0008796Y0147993D01*
X0008888Y0147954D01*
X0008978Y0147912D01*
X0009066Y0147866D01*
X0009153Y0147817D01*
X0009237Y0147765D01*
X0009319Y0147709D01*
X0009399Y0147650D01*
X0009477Y0147588D01*
X0009552Y0147522D01*
X0009624Y0147454D01*
X0009694Y0147383D01*
X0009760Y0147310D01*
X0009824Y0147233D01*
X0009885Y0147155D01*
X0009942Y0147073D01*
X0009996Y0146990D01*
X0010047Y0146905D01*
X0010095Y0146817D01*
X0010139Y0146728D01*
X0010179Y0146637D01*
X0010216Y0146545D01*
X0010249Y0146451D01*
X0010278Y0146356D01*
X0010303Y0146260D01*
X0010325Y0146163D01*
X0010342Y0146065D01*
X0010356Y0145967D01*
X0010366Y0145868D01*
X0010372Y0145768D01*
X0010374Y0145669D01*
X0010372Y0145570D01*
X0010366Y0145470D01*
X0010356Y0145371D01*
X0010342Y0145273D01*
X0010325Y0145175D01*
X0010303Y0145078D01*
X0010278Y0144982D01*
X0010249Y0144887D01*
X0010216Y0144793D01*
X0010179Y0144701D01*
X0010139Y0144610D01*
X0010095Y0144521D01*
X0010047Y0144433D01*
X0009996Y0144348D01*
X0009942Y0144265D01*
X0009885Y0144183D01*
X0009824Y0144105D01*
X0009760Y0144028D01*
X0009694Y0143955D01*
X0009624Y0143884D01*
X0009552Y0143816D01*
X0009477Y0143750D01*
X0009399Y0143688D01*
X0009319Y0143629D01*
X0009237Y0143573D01*
X0009153Y0143521D01*
X0009066Y0143472D01*
X0008978Y0143426D01*
X0008888Y0143384D01*
X0008796Y0143345D01*
X0008703Y0143310D01*
X0008609Y0143279D01*
X0008513Y0143252D01*
X0008416Y0143229D01*
X0008319Y0143209D01*
X0008221Y0143193D01*
X0008122Y0143181D01*
X0008023Y0143173D01*
X0007924Y0143169D01*
X0007824Y0143169D01*
X0007725Y0143173D01*
X0007626Y0143181D01*
X0007527Y0143193D01*
X0007429Y0143209D01*
X0007332Y0143229D01*
X0007235Y0143252D01*
X0007139Y0143279D01*
X0007045Y0143310D01*
X0006952Y0143345D01*
X0006860Y0143384D01*
X0006770Y0143426D01*
X0006682Y0143472D01*
X0006595Y0143521D01*
X0006511Y0143573D01*
X0006429Y0143629D01*
X0006349Y0143688D01*
X0006271Y0143750D01*
X0006196Y0143816D01*
X0006124Y0143884D01*
X0006054Y0143955D01*
X0005988Y0144028D01*
X0005924Y0144105D01*
X0005863Y0144183D01*
X0005806Y0144265D01*
X0005752Y0144348D01*
X0005701Y0144433D01*
X0005653Y0144521D01*
X0005609Y0144610D01*
X0005569Y0144701D01*
X0005532Y0144793D01*
X0005499Y0144887D01*
X0005470Y0144982D01*
X0005445Y0145078D01*
X0005423Y0145175D01*
X0005406Y0145273D01*
X0005392Y0145371D01*
X0005382Y0145470D01*
X0005376Y0145570D01*
X0005374Y0145669D01*
X0005374Y0007874D02*
X0005376Y0007973D01*
X0005382Y0008073D01*
X0005392Y0008172D01*
X0005406Y0008270D01*
X0005423Y0008368D01*
X0005445Y0008465D01*
X0005470Y0008561D01*
X0005499Y0008656D01*
X0005532Y0008750D01*
X0005569Y0008842D01*
X0005609Y0008933D01*
X0005653Y0009022D01*
X0005701Y0009110D01*
X0005752Y0009195D01*
X0005806Y0009278D01*
X0005863Y0009360D01*
X0005924Y0009438D01*
X0005988Y0009515D01*
X0006054Y0009588D01*
X0006124Y0009659D01*
X0006196Y0009727D01*
X0006271Y0009793D01*
X0006349Y0009855D01*
X0006429Y0009914D01*
X0006511Y0009970D01*
X0006595Y0010022D01*
X0006682Y0010071D01*
X0006770Y0010117D01*
X0006860Y0010159D01*
X0006952Y0010198D01*
X0007045Y0010233D01*
X0007139Y0010264D01*
X0007235Y0010291D01*
X0007332Y0010314D01*
X0007429Y0010334D01*
X0007527Y0010350D01*
X0007626Y0010362D01*
X0007725Y0010370D01*
X0007824Y0010374D01*
X0007924Y0010374D01*
X0008023Y0010370D01*
X0008122Y0010362D01*
X0008221Y0010350D01*
X0008319Y0010334D01*
X0008416Y0010314D01*
X0008513Y0010291D01*
X0008609Y0010264D01*
X0008703Y0010233D01*
X0008796Y0010198D01*
X0008888Y0010159D01*
X0008978Y0010117D01*
X0009066Y0010071D01*
X0009153Y0010022D01*
X0009237Y0009970D01*
X0009319Y0009914D01*
X0009399Y0009855D01*
X0009477Y0009793D01*
X0009552Y0009727D01*
X0009624Y0009659D01*
X0009694Y0009588D01*
X0009760Y0009515D01*
X0009824Y0009438D01*
X0009885Y0009360D01*
X0009942Y0009278D01*
X0009996Y0009195D01*
X0010047Y0009110D01*
X0010095Y0009022D01*
X0010139Y0008933D01*
X0010179Y0008842D01*
X0010216Y0008750D01*
X0010249Y0008656D01*
X0010278Y0008561D01*
X0010303Y0008465D01*
X0010325Y0008368D01*
X0010342Y0008270D01*
X0010356Y0008172D01*
X0010366Y0008073D01*
X0010372Y0007973D01*
X0010374Y0007874D01*
X0010372Y0007775D01*
X0010366Y0007675D01*
X0010356Y0007576D01*
X0010342Y0007478D01*
X0010325Y0007380D01*
X0010303Y0007283D01*
X0010278Y0007187D01*
X0010249Y0007092D01*
X0010216Y0006998D01*
X0010179Y0006906D01*
X0010139Y0006815D01*
X0010095Y0006726D01*
X0010047Y0006638D01*
X0009996Y0006553D01*
X0009942Y0006470D01*
X0009885Y0006388D01*
X0009824Y0006310D01*
X0009760Y0006233D01*
X0009694Y0006160D01*
X0009624Y0006089D01*
X0009552Y0006021D01*
X0009477Y0005955D01*
X0009399Y0005893D01*
X0009319Y0005834D01*
X0009237Y0005778D01*
X0009153Y0005726D01*
X0009066Y0005677D01*
X0008978Y0005631D01*
X0008888Y0005589D01*
X0008796Y0005550D01*
X0008703Y0005515D01*
X0008609Y0005484D01*
X0008513Y0005457D01*
X0008416Y0005434D01*
X0008319Y0005414D01*
X0008221Y0005398D01*
X0008122Y0005386D01*
X0008023Y0005378D01*
X0007924Y0005374D01*
X0007824Y0005374D01*
X0007725Y0005378D01*
X0007626Y0005386D01*
X0007527Y0005398D01*
X0007429Y0005414D01*
X0007332Y0005434D01*
X0007235Y0005457D01*
X0007139Y0005484D01*
X0007045Y0005515D01*
X0006952Y0005550D01*
X0006860Y0005589D01*
X0006770Y0005631D01*
X0006682Y0005677D01*
X0006595Y0005726D01*
X0006511Y0005778D01*
X0006429Y0005834D01*
X0006349Y0005893D01*
X0006271Y0005955D01*
X0006196Y0006021D01*
X0006124Y0006089D01*
X0006054Y0006160D01*
X0005988Y0006233D01*
X0005924Y0006310D01*
X0005863Y0006388D01*
X0005806Y0006470D01*
X0005752Y0006553D01*
X0005701Y0006638D01*
X0005653Y0006726D01*
X0005609Y0006815D01*
X0005569Y0006906D01*
X0005532Y0006998D01*
X0005499Y0007092D01*
X0005470Y0007187D01*
X0005445Y0007283D01*
X0005423Y0007380D01*
X0005406Y0007478D01*
X0005392Y0007576D01*
X0005382Y0007675D01*
X0005376Y0007775D01*
X0005374Y0007874D01*
X0182539Y0007874D02*
X0182541Y0007973D01*
X0182547Y0008073D01*
X0182557Y0008172D01*
X0182571Y0008270D01*
X0182588Y0008368D01*
X0182610Y0008465D01*
X0182635Y0008561D01*
X0182664Y0008656D01*
X0182697Y0008750D01*
X0182734Y0008842D01*
X0182774Y0008933D01*
X0182818Y0009022D01*
X0182866Y0009110D01*
X0182917Y0009195D01*
X0182971Y0009278D01*
X0183028Y0009360D01*
X0183089Y0009438D01*
X0183153Y0009515D01*
X0183219Y0009588D01*
X0183289Y0009659D01*
X0183361Y0009727D01*
X0183436Y0009793D01*
X0183514Y0009855D01*
X0183594Y0009914D01*
X0183676Y0009970D01*
X0183760Y0010022D01*
X0183847Y0010071D01*
X0183935Y0010117D01*
X0184025Y0010159D01*
X0184117Y0010198D01*
X0184210Y0010233D01*
X0184304Y0010264D01*
X0184400Y0010291D01*
X0184497Y0010314D01*
X0184594Y0010334D01*
X0184692Y0010350D01*
X0184791Y0010362D01*
X0184890Y0010370D01*
X0184989Y0010374D01*
X0185089Y0010374D01*
X0185188Y0010370D01*
X0185287Y0010362D01*
X0185386Y0010350D01*
X0185484Y0010334D01*
X0185581Y0010314D01*
X0185678Y0010291D01*
X0185774Y0010264D01*
X0185868Y0010233D01*
X0185961Y0010198D01*
X0186053Y0010159D01*
X0186143Y0010117D01*
X0186231Y0010071D01*
X0186318Y0010022D01*
X0186402Y0009970D01*
X0186484Y0009914D01*
X0186564Y0009855D01*
X0186642Y0009793D01*
X0186717Y0009727D01*
X0186789Y0009659D01*
X0186859Y0009588D01*
X0186925Y0009515D01*
X0186989Y0009438D01*
X0187050Y0009360D01*
X0187107Y0009278D01*
X0187161Y0009195D01*
X0187212Y0009110D01*
X0187260Y0009022D01*
X0187304Y0008933D01*
X0187344Y0008842D01*
X0187381Y0008750D01*
X0187414Y0008656D01*
X0187443Y0008561D01*
X0187468Y0008465D01*
X0187490Y0008368D01*
X0187507Y0008270D01*
X0187521Y0008172D01*
X0187531Y0008073D01*
X0187537Y0007973D01*
X0187539Y0007874D01*
X0187537Y0007775D01*
X0187531Y0007675D01*
X0187521Y0007576D01*
X0187507Y0007478D01*
X0187490Y0007380D01*
X0187468Y0007283D01*
X0187443Y0007187D01*
X0187414Y0007092D01*
X0187381Y0006998D01*
X0187344Y0006906D01*
X0187304Y0006815D01*
X0187260Y0006726D01*
X0187212Y0006638D01*
X0187161Y0006553D01*
X0187107Y0006470D01*
X0187050Y0006388D01*
X0186989Y0006310D01*
X0186925Y0006233D01*
X0186859Y0006160D01*
X0186789Y0006089D01*
X0186717Y0006021D01*
X0186642Y0005955D01*
X0186564Y0005893D01*
X0186484Y0005834D01*
X0186402Y0005778D01*
X0186318Y0005726D01*
X0186231Y0005677D01*
X0186143Y0005631D01*
X0186053Y0005589D01*
X0185961Y0005550D01*
X0185868Y0005515D01*
X0185774Y0005484D01*
X0185678Y0005457D01*
X0185581Y0005434D01*
X0185484Y0005414D01*
X0185386Y0005398D01*
X0185287Y0005386D01*
X0185188Y0005378D01*
X0185089Y0005374D01*
X0184989Y0005374D01*
X0184890Y0005378D01*
X0184791Y0005386D01*
X0184692Y0005398D01*
X0184594Y0005414D01*
X0184497Y0005434D01*
X0184400Y0005457D01*
X0184304Y0005484D01*
X0184210Y0005515D01*
X0184117Y0005550D01*
X0184025Y0005589D01*
X0183935Y0005631D01*
X0183847Y0005677D01*
X0183760Y0005726D01*
X0183676Y0005778D01*
X0183594Y0005834D01*
X0183514Y0005893D01*
X0183436Y0005955D01*
X0183361Y0006021D01*
X0183289Y0006089D01*
X0183219Y0006160D01*
X0183153Y0006233D01*
X0183089Y0006310D01*
X0183028Y0006388D01*
X0182971Y0006470D01*
X0182917Y0006553D01*
X0182866Y0006638D01*
X0182818Y0006726D01*
X0182774Y0006815D01*
X0182734Y0006906D01*
X0182697Y0006998D01*
X0182664Y0007092D01*
X0182635Y0007187D01*
X0182610Y0007283D01*
X0182588Y0007380D01*
X0182571Y0007478D01*
X0182557Y0007576D01*
X0182547Y0007675D01*
X0182541Y0007775D01*
X0182539Y0007874D01*
X0182539Y0145669D02*
X0182541Y0145768D01*
X0182547Y0145868D01*
X0182557Y0145967D01*
X0182571Y0146065D01*
X0182588Y0146163D01*
X0182610Y0146260D01*
X0182635Y0146356D01*
X0182664Y0146451D01*
X0182697Y0146545D01*
X0182734Y0146637D01*
X0182774Y0146728D01*
X0182818Y0146817D01*
X0182866Y0146905D01*
X0182917Y0146990D01*
X0182971Y0147073D01*
X0183028Y0147155D01*
X0183089Y0147233D01*
X0183153Y0147310D01*
X0183219Y0147383D01*
X0183289Y0147454D01*
X0183361Y0147522D01*
X0183436Y0147588D01*
X0183514Y0147650D01*
X0183594Y0147709D01*
X0183676Y0147765D01*
X0183760Y0147817D01*
X0183847Y0147866D01*
X0183935Y0147912D01*
X0184025Y0147954D01*
X0184117Y0147993D01*
X0184210Y0148028D01*
X0184304Y0148059D01*
X0184400Y0148086D01*
X0184497Y0148109D01*
X0184594Y0148129D01*
X0184692Y0148145D01*
X0184791Y0148157D01*
X0184890Y0148165D01*
X0184989Y0148169D01*
X0185089Y0148169D01*
X0185188Y0148165D01*
X0185287Y0148157D01*
X0185386Y0148145D01*
X0185484Y0148129D01*
X0185581Y0148109D01*
X0185678Y0148086D01*
X0185774Y0148059D01*
X0185868Y0148028D01*
X0185961Y0147993D01*
X0186053Y0147954D01*
X0186143Y0147912D01*
X0186231Y0147866D01*
X0186318Y0147817D01*
X0186402Y0147765D01*
X0186484Y0147709D01*
X0186564Y0147650D01*
X0186642Y0147588D01*
X0186717Y0147522D01*
X0186789Y0147454D01*
X0186859Y0147383D01*
X0186925Y0147310D01*
X0186989Y0147233D01*
X0187050Y0147155D01*
X0187107Y0147073D01*
X0187161Y0146990D01*
X0187212Y0146905D01*
X0187260Y0146817D01*
X0187304Y0146728D01*
X0187344Y0146637D01*
X0187381Y0146545D01*
X0187414Y0146451D01*
X0187443Y0146356D01*
X0187468Y0146260D01*
X0187490Y0146163D01*
X0187507Y0146065D01*
X0187521Y0145967D01*
X0187531Y0145868D01*
X0187537Y0145768D01*
X0187539Y0145669D01*
X0187537Y0145570D01*
X0187531Y0145470D01*
X0187521Y0145371D01*
X0187507Y0145273D01*
X0187490Y0145175D01*
X0187468Y0145078D01*
X0187443Y0144982D01*
X0187414Y0144887D01*
X0187381Y0144793D01*
X0187344Y0144701D01*
X0187304Y0144610D01*
X0187260Y0144521D01*
X0187212Y0144433D01*
X0187161Y0144348D01*
X0187107Y0144265D01*
X0187050Y0144183D01*
X0186989Y0144105D01*
X0186925Y0144028D01*
X0186859Y0143955D01*
X0186789Y0143884D01*
X0186717Y0143816D01*
X0186642Y0143750D01*
X0186564Y0143688D01*
X0186484Y0143629D01*
X0186402Y0143573D01*
X0186318Y0143521D01*
X0186231Y0143472D01*
X0186143Y0143426D01*
X0186053Y0143384D01*
X0185961Y0143345D01*
X0185868Y0143310D01*
X0185774Y0143279D01*
X0185678Y0143252D01*
X0185581Y0143229D01*
X0185484Y0143209D01*
X0185386Y0143193D01*
X0185287Y0143181D01*
X0185188Y0143173D01*
X0185089Y0143169D01*
X0184989Y0143169D01*
X0184890Y0143173D01*
X0184791Y0143181D01*
X0184692Y0143193D01*
X0184594Y0143209D01*
X0184497Y0143229D01*
X0184400Y0143252D01*
X0184304Y0143279D01*
X0184210Y0143310D01*
X0184117Y0143345D01*
X0184025Y0143384D01*
X0183935Y0143426D01*
X0183847Y0143472D01*
X0183760Y0143521D01*
X0183676Y0143573D01*
X0183594Y0143629D01*
X0183514Y0143688D01*
X0183436Y0143750D01*
X0183361Y0143816D01*
X0183289Y0143884D01*
X0183219Y0143955D01*
X0183153Y0144028D01*
X0183089Y0144105D01*
X0183028Y0144183D01*
X0182971Y0144265D01*
X0182917Y0144348D01*
X0182866Y0144433D01*
X0182818Y0144521D01*
X0182774Y0144610D01*
X0182734Y0144701D01*
X0182697Y0144793D01*
X0182664Y0144887D01*
X0182635Y0144982D01*
X0182610Y0145078D01*
X0182588Y0145175D01*
X0182571Y0145273D01*
X0182557Y0145371D01*
X0182547Y0145470D01*
X0182541Y0145570D01*
X0182539Y0145669D01*
X0107362Y0024390D02*
X0107364Y0024462D01*
X0107370Y0024533D01*
X0107380Y0024604D01*
X0107393Y0024674D01*
X0107411Y0024743D01*
X0107432Y0024812D01*
X0107457Y0024879D01*
X0107486Y0024944D01*
X0107519Y0025008D01*
X0107554Y0025070D01*
X0107594Y0025130D01*
X0107636Y0025188D01*
X0107681Y0025243D01*
X0107730Y0025296D01*
X0107781Y0025346D01*
X0107835Y0025393D01*
X0107892Y0025437D01*
X0107951Y0025477D01*
X0108011Y0025515D01*
X0108074Y0025549D01*
X0108139Y0025580D01*
X0108206Y0025607D01*
X0108273Y0025630D01*
X0108342Y0025649D01*
X0108412Y0025665D01*
X0108483Y0025677D01*
X0108554Y0025685D01*
X0108625Y0025689D01*
X0108697Y0025689D01*
X0108768Y0025685D01*
X0108839Y0025677D01*
X0108910Y0025665D01*
X0108980Y0025649D01*
X0109049Y0025630D01*
X0109116Y0025607D01*
X0109183Y0025580D01*
X0109248Y0025549D01*
X0109310Y0025515D01*
X0109371Y0025477D01*
X0109430Y0025437D01*
X0109487Y0025393D01*
X0109541Y0025346D01*
X0109592Y0025296D01*
X0109641Y0025243D01*
X0109686Y0025188D01*
X0109728Y0025130D01*
X0109768Y0025070D01*
X0109803Y0025008D01*
X0109836Y0024944D01*
X0109865Y0024879D01*
X0109890Y0024812D01*
X0109911Y0024743D01*
X0109929Y0024674D01*
X0109942Y0024604D01*
X0109952Y0024533D01*
X0109958Y0024462D01*
X0109960Y0024390D01*
X0109958Y0024318D01*
X0109952Y0024247D01*
X0109942Y0024176D01*
X0109929Y0024106D01*
X0109911Y0024037D01*
X0109890Y0023968D01*
X0109865Y0023901D01*
X0109836Y0023836D01*
X0109803Y0023772D01*
X0109768Y0023710D01*
X0109728Y0023650D01*
X0109686Y0023592D01*
X0109641Y0023537D01*
X0109592Y0023484D01*
X0109541Y0023434D01*
X0109487Y0023387D01*
X0109430Y0023343D01*
X0109371Y0023303D01*
X0109311Y0023265D01*
X0109248Y0023231D01*
X0109183Y0023200D01*
X0109116Y0023173D01*
X0109049Y0023150D01*
X0108980Y0023131D01*
X0108910Y0023115D01*
X0108839Y0023103D01*
X0108768Y0023095D01*
X0108697Y0023091D01*
X0108625Y0023091D01*
X0108554Y0023095D01*
X0108483Y0023103D01*
X0108412Y0023115D01*
X0108342Y0023131D01*
X0108273Y0023150D01*
X0108206Y0023173D01*
X0108139Y0023200D01*
X0108074Y0023231D01*
X0108011Y0023265D01*
X0107951Y0023303D01*
X0107892Y0023343D01*
X0107835Y0023387D01*
X0107781Y0023434D01*
X0107730Y0023484D01*
X0107681Y0023537D01*
X0107636Y0023592D01*
X0107594Y0023650D01*
X0107554Y0023710D01*
X0107519Y0023772D01*
X0107486Y0023836D01*
X0107457Y0023901D01*
X0107432Y0023968D01*
X0107411Y0024037D01*
X0107393Y0024106D01*
X0107380Y0024176D01*
X0107370Y0024247D01*
X0107364Y0024318D01*
X0107362Y0024390D01*
X0130197Y0024390D02*
X0130199Y0024462D01*
X0130205Y0024533D01*
X0130215Y0024604D01*
X0130228Y0024674D01*
X0130246Y0024743D01*
X0130267Y0024812D01*
X0130292Y0024879D01*
X0130321Y0024944D01*
X0130354Y0025008D01*
X0130389Y0025070D01*
X0130429Y0025130D01*
X0130471Y0025188D01*
X0130516Y0025243D01*
X0130565Y0025296D01*
X0130616Y0025346D01*
X0130670Y0025393D01*
X0130727Y0025437D01*
X0130786Y0025477D01*
X0130846Y0025515D01*
X0130909Y0025549D01*
X0130974Y0025580D01*
X0131041Y0025607D01*
X0131108Y0025630D01*
X0131177Y0025649D01*
X0131247Y0025665D01*
X0131318Y0025677D01*
X0131389Y0025685D01*
X0131460Y0025689D01*
X0131532Y0025689D01*
X0131603Y0025685D01*
X0131674Y0025677D01*
X0131745Y0025665D01*
X0131815Y0025649D01*
X0131884Y0025630D01*
X0131951Y0025607D01*
X0132018Y0025580D01*
X0132083Y0025549D01*
X0132145Y0025515D01*
X0132206Y0025477D01*
X0132265Y0025437D01*
X0132322Y0025393D01*
X0132376Y0025346D01*
X0132427Y0025296D01*
X0132476Y0025243D01*
X0132521Y0025188D01*
X0132563Y0025130D01*
X0132603Y0025070D01*
X0132638Y0025008D01*
X0132671Y0024944D01*
X0132700Y0024879D01*
X0132725Y0024812D01*
X0132746Y0024743D01*
X0132764Y0024674D01*
X0132777Y0024604D01*
X0132787Y0024533D01*
X0132793Y0024462D01*
X0132795Y0024390D01*
X0132793Y0024318D01*
X0132787Y0024247D01*
X0132777Y0024176D01*
X0132764Y0024106D01*
X0132746Y0024037D01*
X0132725Y0023968D01*
X0132700Y0023901D01*
X0132671Y0023836D01*
X0132638Y0023772D01*
X0132603Y0023710D01*
X0132563Y0023650D01*
X0132521Y0023592D01*
X0132476Y0023537D01*
X0132427Y0023484D01*
X0132376Y0023434D01*
X0132322Y0023387D01*
X0132265Y0023343D01*
X0132206Y0023303D01*
X0132146Y0023265D01*
X0132083Y0023231D01*
X0132018Y0023200D01*
X0131951Y0023173D01*
X0131884Y0023150D01*
X0131815Y0023131D01*
X0131745Y0023115D01*
X0131674Y0023103D01*
X0131603Y0023095D01*
X0131532Y0023091D01*
X0131460Y0023091D01*
X0131389Y0023095D01*
X0131318Y0023103D01*
X0131247Y0023115D01*
X0131177Y0023131D01*
X0131108Y0023150D01*
X0131041Y0023173D01*
X0130974Y0023200D01*
X0130909Y0023231D01*
X0130846Y0023265D01*
X0130786Y0023303D01*
X0130727Y0023343D01*
X0130670Y0023387D01*
X0130616Y0023434D01*
X0130565Y0023484D01*
X0130516Y0023537D01*
X0130471Y0023592D01*
X0130429Y0023650D01*
X0130389Y0023710D01*
X0130354Y0023772D01*
X0130321Y0023836D01*
X0130292Y0023901D01*
X0130267Y0023968D01*
X0130246Y0024037D01*
X0130228Y0024106D01*
X0130215Y0024176D01*
X0130205Y0024247D01*
X0130199Y0024318D01*
X0130197Y0024390D01*
M02*
