G75*
%MOIN*%
%OFA0B0*%
%FSLAX25Y25*%
%IPPOS*%
%LPD*%
%AMOC8*
5,1,8,0,0,1.08239X$1,22.5*
%
%ADD10R,0.04500X0.04500*%
%ADD11C,0.04500*%
%ADD12R,0.03976X0.03976*%
%ADD13C,0.03976*%
%ADD14C,0.01387*%
%ADD15R,0.06450X0.06450*%
%ADD16C,0.06450*%
%ADD17C,0.01400*%
%ADD18C,0.00500*%
%ADD19C,0.03543*%
%ADD20C,0.01600*%
D10*
X0169291Y0003346D03*
X0177165Y0057087D03*
D11*
X0169291Y0008346D03*
X0169291Y0013346D03*
X0169291Y0018346D03*
X0169291Y0023346D03*
X0169291Y0028346D03*
X0177165Y0052087D03*
X0177165Y0047087D03*
X0177165Y0042087D03*
X0177165Y0037087D03*
X0177165Y0032087D03*
D12*
X0094488Y0125177D03*
X0098484Y0129921D03*
D13*
X0094488Y0120177D03*
X0094488Y0115177D03*
X0094488Y0110177D03*
X0094488Y0105177D03*
X0094488Y0100177D03*
X0094488Y0095177D03*
X0094488Y0090177D03*
X0094488Y0085177D03*
X0094488Y0080177D03*
X0094488Y0075177D03*
X0094488Y0070177D03*
X0094488Y0065177D03*
X0094488Y0060177D03*
X0094488Y0055177D03*
X0094488Y0050177D03*
X0094488Y0045177D03*
X0094488Y0040177D03*
X0103484Y0129921D03*
X0108484Y0129921D03*
X0113484Y0129921D03*
X0118484Y0129921D03*
X0123484Y0129921D03*
X0128484Y0129921D03*
X0133484Y0129921D03*
X0138484Y0129921D03*
X0143484Y0129921D03*
X0148484Y0129921D03*
X0153484Y0129921D03*
D14*
X0156299Y0120669D03*
X0156299Y0116929D03*
X0156299Y0113189D03*
D15*
X0020866Y0040354D03*
D16*
X0020866Y0050354D03*
X0020866Y0060354D03*
X0020866Y0070354D03*
X0020866Y0080354D03*
X0020866Y0090354D03*
X0020866Y0100354D03*
X0020866Y0110354D03*
D17*
X0130906Y0074803D03*
X0150591Y0097835D03*
X0127362Y0093504D03*
X0154921Y0067323D03*
X0134646Y0037008D03*
X0127953Y0052362D03*
X0106693Y0057480D03*
X0111417Y0053543D03*
X0136811Y0104921D03*
X0141732Y0082677D03*
X0141732Y0086614D03*
X0133858Y0086614D03*
X0137795Y0086614D03*
X0145669Y0086614D03*
X0149606Y0086614D03*
X0133858Y0082677D03*
X0137795Y0082677D03*
X0145669Y0082677D03*
X0149606Y0082677D03*
X0149606Y0078740D03*
X0145669Y0078740D03*
X0141732Y0078740D03*
X0137795Y0078740D03*
X0133858Y0078740D03*
X0133858Y0074803D03*
X0137795Y0074803D03*
X0141732Y0074803D03*
X0145669Y0074803D03*
X0149606Y0074803D03*
X0141732Y0047244D03*
X0145669Y0047244D03*
X0149606Y0043307D03*
X0145669Y0043307D03*
X0141732Y0043307D03*
X0141732Y0039370D03*
X0145669Y0039370D03*
X0149606Y0039370D03*
X0166339Y0053937D03*
X0152559Y0020079D03*
X0155315Y0020079D03*
X0155315Y0017520D03*
X0152559Y0017520D03*
X0108858Y0103543D03*
X0116339Y0101181D03*
X0104331Y0075591D03*
X0104331Y0069685D03*
X0155709Y0108268D03*
X0150984Y0108268D03*
X0171457Y0091732D03*
X0127559Y0042520D03*
X0109055Y0118110D03*
X0175000Y0126870D03*
X0135531Y0112697D03*
X0140276Y0141929D03*
X0044488Y0054843D03*
X0054134Y0141496D03*
X0054134Y0136220D03*
X0048740Y0135984D03*
X0048937Y0141417D03*
X0066850Y0061102D03*
X0070787Y0061102D03*
X0066850Y0065039D03*
X0070787Y0065039D03*
X0074724Y0068976D03*
X0074724Y0072913D03*
X0074724Y0076850D03*
X0070787Y0080787D03*
X0070787Y0076850D03*
X0070787Y0072913D03*
X0070787Y0068976D03*
X0066850Y0068976D03*
X0066850Y0072913D03*
X0066850Y0076850D03*
X0066850Y0080787D03*
X0062913Y0076850D03*
X0062913Y0072913D03*
X0062913Y0068976D03*
X0072835Y0099606D03*
X0142913Y0143307D03*
X0166929Y0074409D03*
X0053937Y0059843D03*
X0104331Y0064173D03*
X0115748Y0053937D03*
X0072835Y0103937D03*
X0073228Y0094094D03*
X0105906Y0042402D03*
X0108228Y0042402D03*
X0110630Y0042402D03*
X0165276Y0142559D03*
X0165276Y0140315D03*
X0165276Y0137953D03*
X0176378Y0114567D03*
X0161614Y0096850D03*
X0173780Y0104055D03*
X0152559Y0086614D03*
X0133858Y0093504D03*
X0154528Y0089567D03*
X0133858Y0071850D03*
X0130906Y0090551D03*
X0130906Y0088583D03*
X0131890Y0093504D03*
X0128740Y0016929D03*
X0124803Y0016969D03*
X0138583Y0120472D03*
X0056457Y0128661D03*
X0054488Y0126732D03*
X0056693Y0150394D03*
X0054724Y0151969D03*
X0139764Y0071850D03*
X0152756Y0031102D03*
X0141732Y0071850D03*
X0137205Y0043406D03*
X0166142Y0038976D03*
X0147638Y0071850D03*
X0159252Y0044685D03*
X0145669Y0071850D03*
X0138346Y0063465D03*
X0143701Y0071850D03*
X0143701Y0066240D03*
X0137795Y0093504D03*
X0130906Y0086614D03*
X0130906Y0084646D03*
X0130906Y0082677D03*
X0130906Y0080709D03*
X0130906Y0078740D03*
X0130906Y0072835D03*
X0137795Y0071850D03*
X0124016Y0056299D03*
X0118504Y0056299D03*
X0139764Y0093504D03*
X0145669Y0093504D03*
X0147638Y0093504D03*
X0152559Y0074803D03*
X0152559Y0078740D03*
X0152559Y0076772D03*
X0052520Y0148898D03*
X0052480Y0128937D03*
X0149606Y0071850D03*
X0102362Y0040157D03*
X0144488Y0059055D03*
X0102362Y0045276D03*
X0138976Y0059055D03*
X0102362Y0050197D03*
X0152559Y0080709D03*
X0163543Y0118858D03*
X0177559Y0120827D03*
X0164173Y0126772D03*
X0113780Y0037008D03*
X0114173Y0067323D03*
X0163780Y0120866D03*
X0118504Y0150472D03*
X0136299Y0151772D03*
X0141732Y0093504D03*
X0153465Y0148740D03*
X0143701Y0093504D03*
X0124252Y0152913D03*
X0121260Y0053543D03*
X0121260Y0058661D03*
D18*
X0156299Y0118873D02*
X0156299Y0120669D01*
X0156299Y0120669D01*
X0156299Y0116929D01*
X0156299Y0116929D01*
X0156299Y0118873D01*
X0156299Y0115133D02*
X0156299Y0116929D01*
X0156299Y0116929D01*
X0156299Y0113189D01*
X0156299Y0113189D01*
X0156299Y0115133D01*
X0104984Y0097169D02*
X0104984Y0127038D01*
X0105319Y0127176D01*
X0105984Y0127842D01*
X0106650Y0127176D01*
X0107840Y0126683D01*
X0109128Y0126683D01*
X0110319Y0127176D01*
X0110984Y0127842D01*
X0111650Y0127176D01*
X0111984Y0127038D01*
X0111984Y0097169D01*
X0104984Y0097169D01*
X0114984Y0098744D02*
X0114984Y0127038D01*
X0115319Y0127176D01*
X0115984Y0127842D01*
X0116650Y0127176D01*
X0117840Y0126683D01*
X0119128Y0126683D01*
X0120319Y0127176D01*
X0120984Y0127842D01*
X0121650Y0127176D01*
X0121984Y0127038D01*
X0121984Y0098744D01*
X0114984Y0098744D01*
X0135319Y0127176D02*
X0135984Y0127842D01*
X0136650Y0127176D01*
X0137840Y0126683D01*
X0139128Y0126683D01*
X0140319Y0127176D01*
X0140984Y0127842D01*
X0141650Y0127176D01*
X0142004Y0127029D01*
X0142004Y0101697D01*
X0134984Y0101697D01*
X0134984Y0127038D01*
X0135319Y0127176D01*
X0140533Y0119665D02*
X0140533Y0121280D01*
X0139390Y0122422D01*
X0137775Y0122422D01*
X0136633Y0121280D01*
X0136633Y0119665D01*
X0137775Y0118522D01*
X0139390Y0118522D01*
X0140533Y0119665D01*
X0161593Y0119666D02*
X0161593Y0118051D01*
X0162736Y0116908D01*
X0164351Y0116908D01*
X0164801Y0117358D01*
X0177165Y0117358D01*
X0177165Y0078289D01*
X0176515Y0078940D01*
X0175404Y0079400D01*
X0174202Y0079400D01*
X0173092Y0078940D01*
X0172242Y0078090D01*
X0171781Y0076979D01*
X0171781Y0075777D01*
X0172242Y0074666D01*
X0172892Y0074016D01*
X0172242Y0073365D01*
X0171781Y0072255D01*
X0171781Y0071052D01*
X0172242Y0069942D01*
X0173092Y0069092D01*
X0174202Y0068632D01*
X0175404Y0068632D01*
X0176515Y0069092D01*
X0177165Y0069742D01*
X0177165Y0060587D01*
X0175634Y0060587D01*
X0175634Y0063141D01*
X0174755Y0064020D01*
X0159413Y0079361D01*
X0158535Y0080240D01*
X0154509Y0080240D01*
X0154509Y0081516D01*
X0153367Y0082659D01*
X0151751Y0082659D01*
X0150609Y0081516D01*
X0150609Y0079901D01*
X0150786Y0079724D01*
X0150609Y0079548D01*
X0150609Y0077932D01*
X0150786Y0077756D01*
X0150609Y0077579D01*
X0150609Y0075964D01*
X0150786Y0075787D01*
X0150609Y0075611D01*
X0150609Y0073995D01*
X0151751Y0072853D01*
X0153367Y0072853D01*
X0153817Y0073303D01*
X0157253Y0073303D01*
X0169760Y0060796D01*
X0169760Y0039054D01*
X0169217Y0039598D01*
X0168338Y0040476D01*
X0167399Y0040476D01*
X0166949Y0040926D01*
X0165334Y0040926D01*
X0164192Y0039784D01*
X0164192Y0038169D01*
X0165334Y0037026D01*
X0166949Y0037026D01*
X0167247Y0037324D01*
X0171728Y0032843D01*
X0171728Y0030859D01*
X0171522Y0031065D01*
X0170949Y0031448D01*
X0170312Y0031712D01*
X0169636Y0031846D01*
X0169541Y0031846D01*
X0169541Y0028597D01*
X0169041Y0028597D01*
X0169041Y0031846D01*
X0168947Y0031846D01*
X0168270Y0031712D01*
X0167633Y0031448D01*
X0167060Y0031065D01*
X0166573Y0030578D01*
X0166190Y0030004D01*
X0165926Y0029367D01*
X0165791Y0028691D01*
X0165791Y0028596D01*
X0169041Y0028596D01*
X0169041Y0028096D01*
X0165791Y0028096D01*
X0165791Y0028002D01*
X0165926Y0027326D01*
X0166190Y0026689D01*
X0166573Y0026115D01*
X0166842Y0025846D01*
X0166324Y0025329D01*
X0165791Y0024043D01*
X0165791Y0022650D01*
X0166324Y0021364D01*
X0166842Y0020846D01*
X0166324Y0020329D01*
X0165791Y0019043D01*
X0165791Y0017650D01*
X0166324Y0016364D01*
X0166842Y0015846D01*
X0166324Y0015329D01*
X0165791Y0014043D01*
X0165791Y0012650D01*
X0166324Y0011364D01*
X0166842Y0010846D01*
X0166324Y0010329D01*
X0165791Y0009043D01*
X0165791Y0007650D01*
X0166241Y0006564D01*
X0165791Y0006114D01*
X0165791Y0001650D01*
X0004900Y0001650D01*
X0004285Y0001711D01*
X0003150Y0002181D01*
X0002281Y0003050D01*
X0001811Y0004185D01*
X0001750Y0004800D01*
X0001750Y0152480D01*
X0001812Y0153114D01*
X0002298Y0154286D01*
X0003194Y0155183D01*
X0004366Y0155668D01*
X0005000Y0155730D01*
X0177165Y0155730D01*
X0177165Y0122777D01*
X0176751Y0122777D01*
X0175609Y0121634D01*
X0175609Y0120358D01*
X0165730Y0120358D01*
X0165730Y0121674D01*
X0164587Y0122816D01*
X0162972Y0122816D01*
X0161830Y0121674D01*
X0161830Y0120058D01*
X0161908Y0119980D01*
X0161593Y0119666D01*
X0104312Y0044468D02*
X0104312Y0046083D01*
X0103170Y0047226D01*
X0101554Y0047226D01*
X0100412Y0046083D01*
X0100412Y0044468D01*
X0101554Y0043326D01*
X0103170Y0043326D01*
X0104312Y0044468D01*
X0113367Y0052736D02*
X0113367Y0054351D01*
X0112225Y0055493D01*
X0110610Y0055493D01*
X0109467Y0054351D01*
X0109467Y0052736D01*
X0110610Y0051593D01*
X0112225Y0051593D01*
X0113367Y0052736D01*
X0129903Y0051554D02*
X0129903Y0053170D01*
X0128760Y0054312D01*
X0127145Y0054312D01*
X0126003Y0053170D01*
X0126003Y0051554D01*
X0127145Y0050412D01*
X0128760Y0050412D01*
X0129903Y0051554D01*
X0156871Y0066515D02*
X0156871Y0068131D01*
X0155729Y0069273D01*
X0154114Y0069273D01*
X0152971Y0068131D01*
X0152971Y0066515D01*
X0154114Y0065373D01*
X0155729Y0065373D01*
X0156871Y0066515D01*
X0025341Y0109464D02*
X0025341Y0111244D01*
X0024660Y0112889D01*
X0023401Y0114148D01*
X0021756Y0114829D01*
X0019976Y0114829D01*
X0018331Y0114148D01*
X0017072Y0112889D01*
X0016391Y0111244D01*
X0016391Y0109464D01*
X0017072Y0107819D01*
X0018331Y0106561D01*
X0019976Y0105879D01*
X0021756Y0105879D01*
X0023401Y0106561D01*
X0024660Y0107819D01*
X0025341Y0109464D01*
X0025341Y0099464D02*
X0025341Y0101244D01*
X0024660Y0102889D01*
X0023401Y0104148D01*
X0021756Y0104829D01*
X0019976Y0104829D01*
X0018331Y0104148D01*
X0017072Y0102889D01*
X0016391Y0101244D01*
X0016391Y0099464D01*
X0017072Y0097819D01*
X0018331Y0096561D01*
X0019976Y0095879D01*
X0021756Y0095879D01*
X0023401Y0096561D01*
X0024660Y0097819D01*
X0025341Y0099464D01*
X0025341Y0089464D02*
X0025341Y0091244D01*
X0024660Y0092889D01*
X0023401Y0094148D01*
X0021756Y0094829D01*
X0019976Y0094829D01*
X0018331Y0094148D01*
X0017072Y0092889D01*
X0016391Y0091244D01*
X0016391Y0089464D01*
X0017072Y0087819D01*
X0018331Y0086561D01*
X0019976Y0085879D01*
X0021756Y0085879D01*
X0023401Y0086561D01*
X0024660Y0087819D01*
X0025341Y0089464D01*
X0156043Y0111245D02*
X0156299Y0111245D01*
X0156299Y0113189D01*
X0156299Y0113189D01*
X0156299Y0111245D01*
X0156555Y0111245D01*
X0157049Y0111378D01*
X0157493Y0111634D01*
X0157855Y0111996D01*
X0158110Y0112439D01*
X0158243Y0112933D01*
X0158243Y0113189D01*
X0156299Y0113189D01*
X0156299Y0113189D01*
X0158243Y0113189D01*
X0158243Y0113445D01*
X0158110Y0113939D01*
X0157855Y0114382D01*
X0157493Y0114744D01*
X0157049Y0115000D01*
X0156830Y0115059D01*
X0157049Y0115118D01*
X0157493Y0115374D01*
X0157855Y0115736D01*
X0158110Y0116179D01*
X0158243Y0116673D01*
X0158243Y0116929D01*
X0156299Y0116929D01*
X0156299Y0116929D01*
X0158243Y0116929D01*
X0158243Y0117185D01*
X0158110Y0117679D01*
X0157855Y0118123D01*
X0157493Y0118484D01*
X0157049Y0118740D01*
X0156830Y0118799D01*
X0157049Y0118858D01*
X0157493Y0119114D01*
X0157855Y0119476D01*
X0158110Y0119919D01*
X0158243Y0120413D01*
X0158243Y0120669D01*
X0156299Y0120669D01*
X0156299Y0120669D01*
X0158243Y0120669D01*
X0158243Y0120925D01*
X0158110Y0121420D01*
X0157855Y0121863D01*
X0157493Y0122225D01*
X0157049Y0122481D01*
X0156555Y0122613D01*
X0156299Y0122613D01*
X0156299Y0120669D01*
X0156299Y0120669D01*
X0156299Y0122613D01*
X0156043Y0122613D01*
X0155549Y0122481D01*
X0155106Y0122225D01*
X0154744Y0121863D01*
X0154488Y0121420D01*
X0154356Y0120925D01*
X0154356Y0120669D01*
X0156299Y0120669D01*
X0156299Y0120669D01*
X0154356Y0120669D01*
X0154356Y0120413D01*
X0154488Y0119919D01*
X0154744Y0119476D01*
X0155106Y0119114D01*
X0155549Y0118858D01*
X0155769Y0118799D01*
X0155549Y0118740D01*
X0155106Y0118484D01*
X0154744Y0118123D01*
X0154488Y0117679D01*
X0154356Y0117185D01*
X0154356Y0116929D01*
X0156299Y0116929D01*
X0156299Y0116929D01*
X0154356Y0116929D01*
X0154356Y0116673D01*
X0154488Y0116179D01*
X0154744Y0115736D01*
X0155106Y0115374D01*
X0155549Y0115118D01*
X0155769Y0115059D01*
X0155549Y0115000D01*
X0155106Y0114744D01*
X0154744Y0114382D01*
X0154488Y0113939D01*
X0154356Y0113445D01*
X0154356Y0113189D01*
X0156299Y0113189D01*
X0156299Y0113189D01*
X0154356Y0113189D01*
X0154356Y0112933D01*
X0154488Y0112439D01*
X0154744Y0111996D01*
X0155106Y0111634D01*
X0155549Y0111378D01*
X0156043Y0111245D01*
X0011624Y0144923D02*
X0011624Y0146415D01*
X0011053Y0147793D01*
X0009998Y0148848D01*
X0008620Y0149419D01*
X0007128Y0149419D01*
X0005750Y0148848D01*
X0004695Y0147793D01*
X0004124Y0146415D01*
X0004124Y0144923D01*
X0004695Y0143545D01*
X0005750Y0142490D01*
X0007128Y0141919D01*
X0008620Y0141919D01*
X0009998Y0142490D01*
X0011053Y0143545D01*
X0011624Y0144923D01*
X0011624Y0007128D02*
X0011624Y0008620D01*
X0011053Y0009998D01*
X0009998Y0011053D01*
X0008620Y0011624D01*
X0007128Y0011624D01*
X0005750Y0011053D01*
X0004695Y0009998D01*
X0004124Y0008620D01*
X0004124Y0007128D01*
X0004695Y0005750D01*
X0005750Y0004695D01*
X0007128Y0004124D01*
X0008620Y0004124D01*
X0009998Y0004695D01*
X0011053Y0005750D01*
X0011624Y0007128D01*
X0111211Y0024897D02*
X0110823Y0025834D01*
X0110105Y0026551D01*
X0109168Y0026939D01*
X0108154Y0026939D01*
X0107217Y0026551D01*
X0106500Y0025834D01*
X0106112Y0024897D01*
X0106112Y0023883D01*
X0106500Y0022946D01*
X0107217Y0022229D01*
X0108154Y0021841D01*
X0108396Y0021841D01*
X0108396Y0020816D01*
X0108856Y0019706D01*
X0109706Y0018856D01*
X0110816Y0018396D01*
X0112018Y0018396D01*
X0113129Y0018856D01*
X0113979Y0019706D01*
X0114439Y0020816D01*
X0114439Y0022018D01*
X0113979Y0023129D01*
X0113129Y0023979D01*
X0112018Y0024439D01*
X0111211Y0024439D01*
X0111211Y0024897D01*
X0134045Y0023883D02*
X0134045Y0024897D01*
X0133657Y0025834D01*
X0132940Y0026551D01*
X0132003Y0026939D01*
X0130989Y0026939D01*
X0130052Y0026551D01*
X0129335Y0025834D01*
X0128947Y0024897D01*
X0128947Y0023883D01*
X0128977Y0023811D01*
X0128052Y0023428D01*
X0127202Y0022578D01*
X0126742Y0021467D01*
X0126742Y0020265D01*
X0127202Y0019155D01*
X0127705Y0018652D01*
X0127495Y0018442D01*
X0126073Y0018456D01*
X0125611Y0018918D01*
X0123995Y0018918D01*
X0122853Y0017776D01*
X0122853Y0016161D01*
X0123995Y0015019D01*
X0125611Y0015019D01*
X0126048Y0015456D01*
X0127470Y0015442D01*
X0127932Y0014979D01*
X0129548Y0014979D01*
X0130690Y0016121D01*
X0130690Y0017737D01*
X0130519Y0017908D01*
X0131475Y0018305D01*
X0132325Y0019155D01*
X0132785Y0020265D01*
X0132785Y0021467D01*
X0132539Y0022062D01*
X0132940Y0022229D01*
X0133657Y0022946D01*
X0134045Y0023883D01*
X0025341Y0059464D02*
X0025341Y0061244D01*
X0024660Y0062889D01*
X0023401Y0064148D01*
X0021756Y0064829D01*
X0019976Y0064829D01*
X0018331Y0064148D01*
X0017072Y0062889D01*
X0016872Y0062404D01*
X0010568Y0062404D01*
X0009367Y0061203D01*
X0009367Y0030253D01*
X0010568Y0029052D01*
X0075140Y0029052D01*
X0076341Y0030253D01*
X0076341Y0052501D01*
X0076853Y0053013D01*
X0077313Y0054123D01*
X0077313Y0055325D01*
X0076853Y0056436D01*
X0076003Y0057286D01*
X0074892Y0057746D01*
X0073690Y0057746D01*
X0072580Y0057286D01*
X0071730Y0056436D01*
X0071339Y0055492D01*
X0070947Y0056436D01*
X0070097Y0057286D01*
X0068987Y0057746D01*
X0067785Y0057746D01*
X0066674Y0057286D01*
X0065824Y0056436D01*
X0065413Y0055444D01*
X0065003Y0056436D01*
X0064153Y0057286D01*
X0063042Y0057746D01*
X0061840Y0057746D01*
X0060729Y0057286D01*
X0059879Y0056436D01*
X0059419Y0055325D01*
X0059419Y0054123D01*
X0059879Y0053013D01*
X0060391Y0052501D01*
X0060391Y0042404D01*
X0025341Y0042404D01*
X0025341Y0044097D01*
X0024609Y0044829D01*
X0017123Y0044829D01*
X0017011Y0044717D01*
X0017011Y0047969D01*
X0017072Y0047819D01*
X0018331Y0046561D01*
X0019976Y0045879D01*
X0021756Y0045879D01*
X0023401Y0046561D01*
X0024660Y0047819D01*
X0025341Y0049464D01*
X0025341Y0051244D01*
X0024660Y0052889D01*
X0023401Y0054148D01*
X0021756Y0054829D01*
X0019976Y0054829D01*
X0018331Y0054148D01*
X0017072Y0052889D01*
X0016872Y0052404D01*
X0014111Y0052404D01*
X0013467Y0051760D01*
X0013467Y0058304D01*
X0016872Y0058304D01*
X0017072Y0057819D01*
X0018331Y0056561D01*
X0019976Y0055879D01*
X0021756Y0055879D01*
X0023401Y0056561D01*
X0024660Y0057819D01*
X0025341Y0059464D01*
X0025341Y0069464D02*
X0025341Y0071244D01*
X0024660Y0072889D01*
X0023401Y0074148D01*
X0021756Y0074829D01*
X0019976Y0074829D01*
X0018331Y0074148D01*
X0017072Y0072889D01*
X0016391Y0071244D01*
X0016391Y0069464D01*
X0017072Y0067819D01*
X0018331Y0066561D01*
X0019976Y0065879D01*
X0021756Y0065879D01*
X0023401Y0066561D01*
X0024660Y0067819D01*
X0025341Y0069464D01*
X0020514Y0075879D02*
X0020616Y0075879D01*
X0020616Y0080104D01*
X0021116Y0080104D01*
X0021116Y0075879D01*
X0021218Y0075879D01*
X0021914Y0075990D01*
X0022584Y0076207D01*
X0023212Y0076527D01*
X0023781Y0076941D01*
X0024279Y0077439D01*
X0024693Y0078009D01*
X0025013Y0078637D01*
X0025231Y0079306D01*
X0025341Y0080002D01*
X0025341Y0080104D01*
X0021116Y0080104D01*
X0021116Y0080604D01*
X0025341Y0080604D01*
X0025341Y0080707D01*
X0025231Y0081402D01*
X0025013Y0082072D01*
X0024693Y0082700D01*
X0024279Y0083270D01*
X0023781Y0083768D01*
X0023212Y0084182D01*
X0022584Y0084501D01*
X0021914Y0084719D01*
X0021218Y0084829D01*
X0021116Y0084829D01*
X0021116Y0080604D01*
X0020616Y0080604D01*
X0020616Y0084829D01*
X0020514Y0084829D01*
X0019818Y0084719D01*
X0019148Y0084501D01*
X0018521Y0084182D01*
X0017951Y0083768D01*
X0017453Y0083270D01*
X0017039Y0082700D01*
X0016719Y0082072D01*
X0016501Y0081402D01*
X0016391Y0080707D01*
X0016391Y0080604D01*
X0020616Y0080604D01*
X0020616Y0080104D01*
X0016391Y0080104D01*
X0016391Y0080002D01*
X0016501Y0079306D01*
X0016719Y0078637D01*
X0017039Y0078009D01*
X0017453Y0077439D01*
X0017951Y0076941D01*
X0018521Y0076527D01*
X0019148Y0076207D01*
X0019818Y0075990D01*
X0020514Y0075879D01*
X0058407Y0127854D02*
X0058407Y0129469D01*
X0057264Y0130611D01*
X0055649Y0130611D01*
X0054507Y0129469D01*
X0054507Y0128682D01*
X0054430Y0128682D01*
X0054430Y0129745D01*
X0053983Y0130192D01*
X0054017Y0147637D01*
X0054470Y0148090D01*
X0054470Y0149705D01*
X0054157Y0150019D01*
X0054743Y0150019D01*
X0054743Y0149586D01*
X0055885Y0148444D01*
X0057501Y0148444D01*
X0058643Y0149586D01*
X0058643Y0151201D01*
X0057501Y0152344D01*
X0056674Y0152344D01*
X0056674Y0152776D01*
X0055532Y0153918D01*
X0053917Y0153918D01*
X0052774Y0152776D01*
X0052774Y0151161D01*
X0053088Y0150848D01*
X0051712Y0150848D01*
X0050570Y0149705D01*
X0050570Y0148090D01*
X0051017Y0147642D01*
X0050983Y0130197D01*
X0050530Y0129745D01*
X0050530Y0128129D01*
X0051673Y0126987D01*
X0052538Y0126987D01*
X0052538Y0125925D01*
X0053680Y0124782D01*
X0055296Y0124782D01*
X0056438Y0125925D01*
X0056438Y0126711D01*
X0057264Y0126711D01*
X0058407Y0127854D01*
X0125966Y0055491D02*
X0125966Y0057107D01*
X0124823Y0058249D01*
X0123210Y0058249D01*
X0123210Y0058677D01*
X0127334Y0058677D01*
X0128213Y0059556D01*
X0133146Y0064489D01*
X0133146Y0041111D01*
X0134024Y0040232D01*
X0134024Y0040232D01*
X0135299Y0038958D01*
X0133838Y0038958D01*
X0132696Y0037816D01*
X0132696Y0036200D01*
X0133838Y0035058D01*
X0135453Y0035058D01*
X0136596Y0036200D01*
X0136596Y0037661D01*
X0138264Y0035993D01*
X0138264Y0035993D01*
X0139142Y0035114D01*
X0146623Y0035114D01*
X0150806Y0030931D01*
X0150806Y0030295D01*
X0151948Y0029152D01*
X0153564Y0029152D01*
X0154706Y0030295D01*
X0154706Y0031910D01*
X0153564Y0033052D01*
X0152927Y0033052D01*
X0147865Y0038114D01*
X0140385Y0038114D01*
X0137044Y0041456D01*
X0138012Y0041456D01*
X0139155Y0042598D01*
X0139155Y0044213D01*
X0138705Y0044663D01*
X0138705Y0057105D01*
X0139784Y0057105D01*
X0140926Y0058247D01*
X0140926Y0059863D01*
X0139784Y0061005D01*
X0138705Y0061005D01*
X0138705Y0061448D01*
X0138638Y0061515D01*
X0139154Y0061515D01*
X0139583Y0061943D01*
X0142281Y0061897D01*
X0142292Y0061886D01*
X0142901Y0061886D01*
X0143509Y0061875D01*
X0143520Y0061886D01*
X0143535Y0061886D01*
X0143965Y0062316D01*
X0144402Y0062739D01*
X0144403Y0062754D01*
X0146138Y0064489D01*
X0146138Y0060163D01*
X0145296Y0061005D01*
X0143680Y0061005D01*
X0142538Y0059863D01*
X0142538Y0058247D01*
X0143680Y0057105D01*
X0145296Y0057105D01*
X0146138Y0057947D01*
X0146138Y0055678D01*
X0147016Y0054799D01*
X0157302Y0044514D01*
X0157302Y0043877D01*
X0158444Y0042735D01*
X0160060Y0042735D01*
X0161202Y0043877D01*
X0161202Y0045493D01*
X0160060Y0046635D01*
X0159423Y0046635D01*
X0149138Y0056921D01*
X0149138Y0069900D01*
X0150414Y0069900D01*
X0151556Y0071043D01*
X0151556Y0072658D01*
X0150414Y0073800D01*
X0148799Y0073800D01*
X0148622Y0073624D01*
X0148446Y0073800D01*
X0146830Y0073800D01*
X0146654Y0073624D01*
X0146477Y0073800D01*
X0144862Y0073800D01*
X0144685Y0073624D01*
X0144509Y0073800D01*
X0142893Y0073800D01*
X0142717Y0073624D01*
X0142540Y0073800D01*
X0140925Y0073800D01*
X0140748Y0073624D01*
X0140571Y0073800D01*
X0138956Y0073800D01*
X0138780Y0073624D01*
X0138603Y0073800D01*
X0136988Y0073800D01*
X0135845Y0072658D01*
X0135845Y0071431D01*
X0135808Y0071394D01*
X0135808Y0072658D01*
X0134666Y0073800D01*
X0133051Y0073800D01*
X0132855Y0073605D01*
X0132855Y0073642D01*
X0132679Y0073819D01*
X0132855Y0073995D01*
X0132855Y0075611D01*
X0131713Y0076753D01*
X0130098Y0076753D01*
X0128956Y0075611D01*
X0128956Y0073995D01*
X0129132Y0073819D01*
X0128956Y0073642D01*
X0128956Y0072027D01*
X0130098Y0070885D01*
X0131713Y0070885D01*
X0131908Y0071080D01*
X0131908Y0071043D01*
X0133051Y0069900D01*
X0134315Y0069900D01*
X0126091Y0061677D01*
X0097372Y0061677D01*
X0097233Y0062011D01*
X0096568Y0062677D01*
X0097233Y0063343D01*
X0097726Y0064533D01*
X0097726Y0065821D01*
X0097233Y0067011D01*
X0096568Y0067677D01*
X0097233Y0068343D01*
X0097726Y0069533D01*
X0097726Y0070821D01*
X0097233Y0072011D01*
X0096568Y0072677D01*
X0097233Y0073343D01*
X0097726Y0074533D01*
X0097726Y0075821D01*
X0097233Y0077011D01*
X0097005Y0077240D01*
X0129648Y0077240D01*
X0130098Y0076790D01*
X0131713Y0076790D01*
X0132855Y0077932D01*
X0132855Y0079548D01*
X0132679Y0079724D01*
X0132855Y0079901D01*
X0132855Y0081516D01*
X0132679Y0081693D01*
X0132855Y0081869D01*
X0132855Y0083485D01*
X0132679Y0083661D01*
X0132855Y0083838D01*
X0132855Y0085453D01*
X0132679Y0085630D01*
X0132855Y0085806D01*
X0132855Y0087422D01*
X0132679Y0087598D01*
X0132855Y0087775D01*
X0132855Y0089390D01*
X0132679Y0089567D01*
X0132855Y0089743D01*
X0132855Y0090811D01*
X0133237Y0090429D01*
X0152632Y0090429D01*
X0152578Y0090375D01*
X0152578Y0088759D01*
X0152773Y0088564D01*
X0151751Y0088564D01*
X0150609Y0087422D01*
X0150609Y0085806D01*
X0151751Y0084664D01*
X0153367Y0084664D01*
X0154509Y0085806D01*
X0154509Y0087422D01*
X0154314Y0087617D01*
X0155335Y0087617D01*
X0156478Y0088759D01*
X0156478Y0090375D01*
X0156028Y0090825D01*
X0156028Y0092550D01*
X0155149Y0093429D01*
X0149588Y0093429D01*
X0149588Y0094312D01*
X0149138Y0094762D01*
X0149138Y0096530D01*
X0149783Y0095885D01*
X0151398Y0095885D01*
X0152541Y0097027D01*
X0152541Y0098642D01*
X0151398Y0099785D01*
X0149783Y0099785D01*
X0149138Y0099140D01*
X0149138Y0100501D01*
X0149984Y0101347D01*
X0149984Y0102590D01*
X0149106Y0103468D01*
X0147016Y0103468D01*
X0146752Y0103204D01*
X0146291Y0103665D01*
X0145004Y0103665D01*
X0145004Y0127046D01*
X0145319Y0127176D01*
X0145984Y0127842D01*
X0146650Y0127176D01*
X0147840Y0126683D01*
X0149128Y0126683D01*
X0150319Y0127176D01*
X0150984Y0127842D01*
X0151650Y0127176D01*
X0152840Y0126683D01*
X0154128Y0126683D01*
X0155319Y0127176D01*
X0156229Y0128087D01*
X0156722Y0129277D01*
X0156722Y0130565D01*
X0156229Y0131756D01*
X0155319Y0132666D01*
X0154984Y0132805D01*
X0154984Y0147502D01*
X0155415Y0147932D01*
X0155415Y0149548D01*
X0154272Y0150690D01*
X0152657Y0150690D01*
X0151515Y0149548D01*
X0151515Y0147932D01*
X0151984Y0147463D01*
X0151984Y0132805D01*
X0151650Y0132666D01*
X0150984Y0132001D01*
X0150319Y0132666D01*
X0149984Y0132805D01*
X0149984Y0136369D01*
X0149106Y0137248D01*
X0139571Y0137248D01*
X0139571Y0152393D01*
X0138692Y0153272D01*
X0137557Y0153272D01*
X0137107Y0153722D01*
X0135491Y0153722D01*
X0134349Y0152579D01*
X0134349Y0151037D01*
X0125134Y0151037D01*
X0126202Y0152106D01*
X0126202Y0153721D01*
X0125060Y0154863D01*
X0123444Y0154863D01*
X0122994Y0154413D01*
X0119930Y0154413D01*
X0119051Y0153535D01*
X0119051Y0152422D01*
X0117696Y0152422D01*
X0116554Y0151280D01*
X0116554Y0149665D01*
X0117004Y0149215D01*
X0117004Y0132813D01*
X0116650Y0132666D01*
X0115984Y0132001D01*
X0115319Y0132666D01*
X0114128Y0133159D01*
X0112840Y0133159D01*
X0111650Y0132666D01*
X0110984Y0132001D01*
X0110319Y0132666D01*
X0109128Y0133159D01*
X0107840Y0133159D01*
X0106650Y0132666D01*
X0105984Y0132001D01*
X0105319Y0132666D01*
X0104128Y0133159D01*
X0102840Y0133159D01*
X0101650Y0132666D01*
X0101567Y0132583D01*
X0100990Y0133159D01*
X0095978Y0133159D01*
X0095246Y0132427D01*
X0095246Y0128415D01*
X0091982Y0128415D01*
X0091250Y0127683D01*
X0091250Y0122671D01*
X0091826Y0122095D01*
X0091743Y0122011D01*
X0091250Y0120821D01*
X0091250Y0119533D01*
X0091743Y0118343D01*
X0092409Y0117677D01*
X0091743Y0117011D01*
X0091250Y0115821D01*
X0091250Y0114533D01*
X0091743Y0113343D01*
X0092409Y0112677D01*
X0091743Y0112011D01*
X0091250Y0110821D01*
X0091250Y0109533D01*
X0091743Y0108343D01*
X0092409Y0107677D01*
X0091743Y0107011D01*
X0091250Y0105821D01*
X0091250Y0104533D01*
X0091743Y0103343D01*
X0092409Y0102677D01*
X0091743Y0102011D01*
X0091250Y0100821D01*
X0091250Y0099533D01*
X0091743Y0098343D01*
X0092409Y0097677D01*
X0091743Y0097011D01*
X0091250Y0095821D01*
X0091250Y0094533D01*
X0091743Y0093343D01*
X0092409Y0092677D01*
X0091743Y0092011D01*
X0091250Y0090821D01*
X0091250Y0089533D01*
X0091743Y0088343D01*
X0092409Y0087677D01*
X0091743Y0087011D01*
X0091250Y0085821D01*
X0091250Y0084533D01*
X0091743Y0083343D01*
X0092409Y0082677D01*
X0091743Y0082011D01*
X0091250Y0080821D01*
X0091250Y0079533D01*
X0091743Y0078343D01*
X0092409Y0077677D01*
X0091743Y0077011D01*
X0091250Y0075821D01*
X0091250Y0074533D01*
X0091743Y0073343D01*
X0092409Y0072677D01*
X0091743Y0072011D01*
X0091250Y0070821D01*
X0091250Y0069533D01*
X0091743Y0068343D01*
X0092409Y0067677D01*
X0091743Y0067011D01*
X0091250Y0065821D01*
X0091250Y0064533D01*
X0091743Y0063343D01*
X0092409Y0062677D01*
X0091743Y0062011D01*
X0091250Y0060821D01*
X0091250Y0059533D01*
X0091743Y0058343D01*
X0092409Y0057677D01*
X0091743Y0057011D01*
X0091250Y0055821D01*
X0091250Y0054533D01*
X0091743Y0053343D01*
X0092409Y0052677D01*
X0091743Y0052011D01*
X0091250Y0050821D01*
X0091250Y0049533D01*
X0091743Y0048343D01*
X0092409Y0047677D01*
X0091743Y0047011D01*
X0091250Y0045821D01*
X0091250Y0044533D01*
X0091743Y0043343D01*
X0092409Y0042677D01*
X0091743Y0042011D01*
X0091250Y0040821D01*
X0091250Y0039533D01*
X0091743Y0038343D01*
X0092654Y0037432D01*
X0093844Y0036939D01*
X0095132Y0036939D01*
X0096322Y0037432D01*
X0097233Y0038343D01*
X0097726Y0039533D01*
X0097726Y0040821D01*
X0097233Y0042011D01*
X0096568Y0042677D01*
X0097233Y0043343D01*
X0097726Y0044533D01*
X0097726Y0045821D01*
X0097233Y0047011D01*
X0096568Y0047677D01*
X0097233Y0048343D01*
X0097726Y0049533D01*
X0097726Y0050821D01*
X0097233Y0052011D01*
X0096568Y0052677D01*
X0097233Y0053343D01*
X0097726Y0054533D01*
X0097726Y0055821D01*
X0097233Y0057011D01*
X0096568Y0057677D01*
X0097233Y0058343D01*
X0097372Y0058677D01*
X0105132Y0058677D01*
X0104743Y0058288D01*
X0104743Y0056673D01*
X0105885Y0055530D01*
X0107501Y0055530D01*
X0108643Y0056673D01*
X0108643Y0058288D01*
X0108254Y0058677D01*
X0119310Y0058677D01*
X0119310Y0058249D01*
X0117696Y0058249D01*
X0116554Y0057107D01*
X0116554Y0055491D01*
X0117696Y0054349D01*
X0119310Y0054349D01*
X0119310Y0052736D01*
X0120452Y0051593D01*
X0122068Y0051593D01*
X0123210Y0052736D01*
X0123210Y0054349D01*
X0124823Y0054349D01*
X0125966Y0055491D01*
X0104312Y0039350D02*
X0104312Y0040965D01*
X0103170Y0042107D01*
X0101554Y0042107D01*
X0100412Y0040965D01*
X0100412Y0039350D01*
X0101554Y0038207D01*
X0103170Y0038207D01*
X0104312Y0039350D01*
X0104312Y0049389D02*
X0104312Y0051005D01*
X0103170Y0052147D01*
X0101554Y0052147D01*
X0100412Y0051005D01*
X0100412Y0049389D01*
X0101554Y0048247D01*
X0103170Y0048247D01*
X0104312Y0049389D01*
X0166123Y0125964D02*
X0166123Y0127579D01*
X0164981Y0128722D01*
X0163366Y0128722D01*
X0162223Y0127579D01*
X0162223Y0125964D01*
X0163366Y0124822D01*
X0164981Y0124822D01*
X0166123Y0125964D01*
X0115730Y0036200D02*
X0115730Y0037816D01*
X0114587Y0038958D01*
X0112972Y0038958D01*
X0111830Y0037816D01*
X0111830Y0036200D01*
X0112972Y0035058D01*
X0114587Y0035058D01*
X0115730Y0036200D01*
X0116123Y0066515D02*
X0116123Y0068131D01*
X0114981Y0069273D01*
X0113366Y0069273D01*
X0112223Y0068131D01*
X0112223Y0066515D01*
X0113366Y0065373D01*
X0114981Y0065373D01*
X0116123Y0066515D01*
X0165791Y0001994D02*
X0003601Y0001994D01*
X0002838Y0002493D02*
X0165791Y0002493D01*
X0165791Y0002991D02*
X0002340Y0002991D01*
X0002099Y0003490D02*
X0165791Y0003490D01*
X0165791Y0003988D02*
X0001892Y0003988D01*
X0001781Y0004487D02*
X0006253Y0004487D01*
X0009495Y0004487D02*
X0165791Y0004487D01*
X0005460Y0004985D02*
X0001750Y0004985D01*
X0010288Y0004985D02*
X0165791Y0004985D01*
X0004961Y0005484D02*
X0001750Y0005484D01*
X0010787Y0005484D02*
X0165791Y0005484D01*
X0004599Y0005982D02*
X0001750Y0005982D01*
X0011149Y0005982D02*
X0165791Y0005982D01*
X0004392Y0006481D02*
X0001750Y0006481D01*
X0011356Y0006481D02*
X0166158Y0006481D01*
X0004186Y0006979D02*
X0001750Y0006979D01*
X0011562Y0006979D02*
X0166069Y0006979D01*
X0004124Y0007478D02*
X0001750Y0007478D01*
X0011624Y0007478D02*
X0165863Y0007478D01*
X0004124Y0007976D02*
X0001750Y0007976D01*
X0011624Y0007976D02*
X0165791Y0007976D01*
X0004124Y0008475D02*
X0001750Y0008475D01*
X0011624Y0008475D02*
X0165791Y0008475D01*
X0004270Y0008973D02*
X0001750Y0008973D01*
X0011478Y0008973D02*
X0165791Y0008973D01*
X0004477Y0009472D02*
X0001750Y0009472D01*
X0011271Y0009472D02*
X0165969Y0009472D01*
X0004683Y0009970D02*
X0001750Y0009970D01*
X0011065Y0009970D02*
X0166176Y0009970D01*
X0005165Y0010469D02*
X0001750Y0010469D01*
X0010583Y0010469D02*
X0166464Y0010469D01*
X0005664Y0010967D02*
X0001750Y0010967D01*
X0010084Y0010967D02*
X0166721Y0010967D01*
X0006746Y0011466D02*
X0001750Y0011466D01*
X0009002Y0011466D02*
X0166282Y0011466D01*
X0166075Y0011964D02*
X0001750Y0011964D01*
X0001750Y0012463D02*
X0165869Y0012463D01*
X0165791Y0012961D02*
X0001750Y0012961D01*
X0001750Y0013460D02*
X0165791Y0013460D01*
X0165791Y0013958D02*
X0001750Y0013958D01*
X0001750Y0014457D02*
X0165963Y0014457D01*
X0166169Y0014955D02*
X0001750Y0014955D01*
X0001750Y0015454D02*
X0123560Y0015454D01*
X0126046Y0015454D02*
X0126261Y0015454D01*
X0130023Y0015454D02*
X0166449Y0015454D01*
X0123062Y0015952D02*
X0001750Y0015952D01*
X0130521Y0015952D02*
X0166736Y0015952D01*
X0122853Y0016451D02*
X0001750Y0016451D01*
X0130690Y0016451D02*
X0166288Y0016451D01*
X0122853Y0016949D02*
X0001750Y0016949D01*
X0130690Y0016949D02*
X0166082Y0016949D01*
X0122853Y0017448D02*
X0001750Y0017448D01*
X0130690Y0017448D02*
X0165875Y0017448D01*
X0123023Y0017946D02*
X0001750Y0017946D01*
X0130611Y0017946D02*
X0165791Y0017946D01*
X0110697Y0018445D02*
X0001750Y0018445D01*
X0112137Y0018445D02*
X0123522Y0018445D01*
X0127168Y0018445D02*
X0127498Y0018445D01*
X0131616Y0018445D02*
X0165791Y0018445D01*
X0109618Y0018943D02*
X0001750Y0018943D01*
X0113217Y0018943D02*
X0127413Y0018943D01*
X0132114Y0018943D02*
X0165791Y0018943D01*
X0109119Y0019442D02*
X0001750Y0019442D01*
X0113715Y0019442D02*
X0127083Y0019442D01*
X0132444Y0019442D02*
X0165957Y0019442D01*
X0108758Y0019940D02*
X0001750Y0019940D01*
X0114076Y0019940D02*
X0126877Y0019940D01*
X0132651Y0019940D02*
X0166163Y0019940D01*
X0108552Y0020439D02*
X0001750Y0020439D01*
X0114283Y0020439D02*
X0126742Y0020439D01*
X0132785Y0020439D02*
X0166434Y0020439D01*
X0108396Y0020937D02*
X0001750Y0020937D01*
X0114439Y0020937D02*
X0126742Y0020937D01*
X0132785Y0020937D02*
X0166751Y0020937D01*
X0108396Y0021436D02*
X0001750Y0021436D01*
X0114439Y0021436D02*
X0126742Y0021436D01*
X0132785Y0021436D02*
X0166294Y0021436D01*
X0107928Y0021934D02*
X0001750Y0021934D01*
X0114439Y0021934D02*
X0126936Y0021934D01*
X0132592Y0021934D02*
X0166088Y0021934D01*
X0107013Y0022433D02*
X0001750Y0022433D01*
X0114267Y0022433D02*
X0127142Y0022433D01*
X0133144Y0022433D02*
X0165881Y0022433D01*
X0106515Y0022932D02*
X0001750Y0022932D01*
X0114061Y0022932D02*
X0127556Y0022932D01*
X0133643Y0022932D02*
X0165791Y0022932D01*
X0106300Y0023430D02*
X0001750Y0023430D01*
X0113678Y0023430D02*
X0128058Y0023430D01*
X0133858Y0023430D02*
X0165791Y0023430D01*
X0106112Y0023929D02*
X0001750Y0023929D01*
X0113179Y0023929D02*
X0128947Y0023929D01*
X0134045Y0023929D02*
X0165791Y0023929D01*
X0106112Y0024427D02*
X0001750Y0024427D01*
X0112047Y0024427D02*
X0128947Y0024427D01*
X0134045Y0024427D02*
X0165951Y0024427D01*
X0106124Y0024926D02*
X0001750Y0024926D01*
X0111199Y0024926D02*
X0128959Y0024926D01*
X0134033Y0024926D02*
X0166157Y0024926D01*
X0106331Y0025424D02*
X0001750Y0025424D01*
X0110992Y0025424D02*
X0129165Y0025424D01*
X0133827Y0025424D02*
X0166419Y0025424D01*
X0106589Y0025923D02*
X0001750Y0025923D01*
X0110734Y0025923D02*
X0129424Y0025923D01*
X0133568Y0025923D02*
X0166765Y0025923D01*
X0107088Y0026421D02*
X0001750Y0026421D01*
X0110235Y0026421D02*
X0129922Y0026421D01*
X0133070Y0026421D02*
X0166368Y0026421D01*
X0108108Y0026920D02*
X0001750Y0026920D01*
X0109215Y0026920D02*
X0130942Y0026920D01*
X0132050Y0026920D02*
X0166094Y0026920D01*
X0165907Y0027418D02*
X0001750Y0027418D01*
X0001750Y0027917D02*
X0165808Y0027917D01*
X0169041Y0028415D02*
X0001750Y0028415D01*
X0001750Y0028914D02*
X0165836Y0028914D01*
X0169041Y0028914D02*
X0169541Y0028914D01*
X0010208Y0029412D02*
X0001750Y0029412D01*
X0075500Y0029412D02*
X0151688Y0029412D01*
X0153823Y0029412D02*
X0165944Y0029412D01*
X0169041Y0029412D02*
X0169541Y0029412D01*
X0009710Y0029911D02*
X0001750Y0029911D01*
X0075999Y0029911D02*
X0151190Y0029911D01*
X0154322Y0029911D02*
X0166151Y0029911D01*
X0169041Y0029911D02*
X0169541Y0029911D01*
X0009367Y0030409D02*
X0001750Y0030409D01*
X0076341Y0030409D02*
X0150806Y0030409D01*
X0154706Y0030409D02*
X0166460Y0030409D01*
X0169041Y0030409D02*
X0169541Y0030409D01*
X0009367Y0030908D02*
X0001750Y0030908D01*
X0076341Y0030908D02*
X0150806Y0030908D01*
X0154706Y0030908D02*
X0166903Y0030908D01*
X0169041Y0030908D02*
X0169541Y0030908D01*
X0171680Y0030908D02*
X0171728Y0030908D01*
X0009367Y0031406D02*
X0001750Y0031406D01*
X0076341Y0031406D02*
X0150331Y0031406D01*
X0154706Y0031406D02*
X0167571Y0031406D01*
X0169041Y0031406D02*
X0169541Y0031406D01*
X0171012Y0031406D02*
X0171728Y0031406D01*
X0009367Y0031905D02*
X0001750Y0031905D01*
X0076341Y0031905D02*
X0149832Y0031905D01*
X0154706Y0031905D02*
X0171728Y0031905D01*
X0009367Y0032403D02*
X0001750Y0032403D01*
X0076341Y0032403D02*
X0149334Y0032403D01*
X0154213Y0032403D02*
X0171728Y0032403D01*
X0009367Y0032902D02*
X0001750Y0032902D01*
X0076341Y0032902D02*
X0148835Y0032902D01*
X0153714Y0032902D02*
X0171670Y0032902D01*
X0009367Y0033400D02*
X0001750Y0033400D01*
X0076341Y0033400D02*
X0148337Y0033400D01*
X0152579Y0033400D02*
X0171171Y0033400D01*
X0009367Y0033899D02*
X0001750Y0033899D01*
X0076341Y0033899D02*
X0147838Y0033899D01*
X0152081Y0033899D02*
X0170673Y0033899D01*
X0009367Y0034397D02*
X0001750Y0034397D01*
X0076341Y0034397D02*
X0147340Y0034397D01*
X0151582Y0034397D02*
X0170174Y0034397D01*
X0009367Y0034896D02*
X0001750Y0034896D01*
X0076341Y0034896D02*
X0146841Y0034896D01*
X0151084Y0034896D02*
X0169676Y0034896D01*
X0009367Y0035394D02*
X0001750Y0035394D01*
X0076341Y0035394D02*
X0112635Y0035394D01*
X0114924Y0035394D02*
X0133502Y0035394D01*
X0135790Y0035394D02*
X0138862Y0035394D01*
X0150585Y0035394D02*
X0169177Y0035394D01*
X0009367Y0035893D02*
X0001750Y0035893D01*
X0076341Y0035893D02*
X0112137Y0035893D01*
X0115422Y0035893D02*
X0133003Y0035893D01*
X0136288Y0035893D02*
X0138364Y0035893D01*
X0150087Y0035893D02*
X0168679Y0035893D01*
X0009367Y0036391D02*
X0001750Y0036391D01*
X0076341Y0036391D02*
X0111830Y0036391D01*
X0115730Y0036391D02*
X0132696Y0036391D01*
X0136596Y0036391D02*
X0137865Y0036391D01*
X0149588Y0036391D02*
X0168180Y0036391D01*
X0009367Y0036890D02*
X0001750Y0036890D01*
X0076341Y0036890D02*
X0111830Y0036890D01*
X0115730Y0036890D02*
X0132696Y0036890D01*
X0136596Y0036890D02*
X0137367Y0036890D01*
X0149090Y0036890D02*
X0167682Y0036890D01*
X0009367Y0037388D02*
X0001750Y0037388D01*
X0076341Y0037388D02*
X0092759Y0037388D01*
X0096217Y0037388D02*
X0111830Y0037388D01*
X0115730Y0037388D02*
X0132696Y0037388D01*
X0136596Y0037388D02*
X0136868Y0037388D01*
X0148591Y0037388D02*
X0164972Y0037388D01*
X0009367Y0037887D02*
X0001750Y0037887D01*
X0076341Y0037887D02*
X0092199Y0037887D01*
X0096777Y0037887D02*
X0111901Y0037887D01*
X0115658Y0037887D02*
X0132767Y0037887D01*
X0148093Y0037887D02*
X0164474Y0037887D01*
X0009367Y0038385D02*
X0001750Y0038385D01*
X0076341Y0038385D02*
X0091725Y0038385D01*
X0097251Y0038385D02*
X0101377Y0038385D01*
X0103348Y0038385D02*
X0112399Y0038385D01*
X0115160Y0038385D02*
X0133265Y0038385D01*
X0140114Y0038385D02*
X0164192Y0038385D01*
X0009367Y0038884D02*
X0001750Y0038884D01*
X0076341Y0038884D02*
X0091519Y0038884D01*
X0097457Y0038884D02*
X0100878Y0038884D01*
X0103846Y0038884D02*
X0112898Y0038884D01*
X0114661Y0038884D02*
X0133764Y0038884D01*
X0139615Y0038884D02*
X0164192Y0038884D01*
X0009367Y0039382D02*
X0001750Y0039382D01*
X0076341Y0039382D02*
X0091312Y0039382D01*
X0097664Y0039382D02*
X0100412Y0039382D01*
X0104312Y0039382D02*
X0134874Y0039382D01*
X0139117Y0039382D02*
X0164192Y0039382D01*
X0169432Y0039382D02*
X0169760Y0039382D01*
X0009367Y0039881D02*
X0001750Y0039881D01*
X0076341Y0039881D02*
X0091250Y0039881D01*
X0097726Y0039881D02*
X0100412Y0039881D01*
X0104312Y0039881D02*
X0134376Y0039881D01*
X0138618Y0039881D02*
X0164289Y0039881D01*
X0168933Y0039881D02*
X0169760Y0039881D01*
X0009367Y0040379D02*
X0001750Y0040379D01*
X0076341Y0040379D02*
X0091250Y0040379D01*
X0097726Y0040379D02*
X0100412Y0040379D01*
X0104312Y0040379D02*
X0133877Y0040379D01*
X0138120Y0040379D02*
X0164787Y0040379D01*
X0168435Y0040379D02*
X0169760Y0040379D01*
X0009367Y0040878D02*
X0001750Y0040878D01*
X0076341Y0040878D02*
X0091273Y0040878D01*
X0097703Y0040878D02*
X0100412Y0040878D01*
X0104312Y0040878D02*
X0133379Y0040878D01*
X0137621Y0040878D02*
X0165286Y0040878D01*
X0166998Y0040878D02*
X0169760Y0040878D01*
X0009367Y0041376D02*
X0001750Y0041376D01*
X0076341Y0041376D02*
X0091480Y0041376D01*
X0097496Y0041376D02*
X0100823Y0041376D01*
X0103901Y0041376D02*
X0133146Y0041376D01*
X0137123Y0041376D02*
X0169760Y0041376D01*
X0009367Y0041875D02*
X0001750Y0041875D01*
X0076341Y0041875D02*
X0091686Y0041875D01*
X0097290Y0041875D02*
X0101322Y0041875D01*
X0103402Y0041875D02*
X0133146Y0041875D01*
X0138432Y0041875D02*
X0169760Y0041875D01*
X0009367Y0042373D02*
X0001750Y0042373D01*
X0076341Y0042373D02*
X0092105Y0042373D01*
X0096871Y0042373D02*
X0133146Y0042373D01*
X0138930Y0042373D02*
X0169760Y0042373D01*
X0009367Y0042872D02*
X0001750Y0042872D01*
X0025341Y0042872D02*
X0060391Y0042872D01*
X0076341Y0042872D02*
X0092214Y0042872D01*
X0096762Y0042872D02*
X0133146Y0042872D01*
X0139155Y0042872D02*
X0158307Y0042872D01*
X0160197Y0042872D02*
X0169760Y0042872D01*
X0009367Y0043370D02*
X0001750Y0043370D01*
X0025341Y0043370D02*
X0060391Y0043370D01*
X0076341Y0043370D02*
X0091732Y0043370D01*
X0097245Y0043370D02*
X0101510Y0043370D01*
X0103215Y0043370D02*
X0133146Y0043370D01*
X0139155Y0043370D02*
X0157809Y0043370D01*
X0160695Y0043370D02*
X0169760Y0043370D01*
X0009367Y0043869D02*
X0001750Y0043869D01*
X0025341Y0043869D02*
X0060391Y0043869D01*
X0076341Y0043869D02*
X0091525Y0043869D01*
X0097451Y0043869D02*
X0101011Y0043869D01*
X0103713Y0043869D02*
X0133146Y0043869D01*
X0139155Y0043869D02*
X0157310Y0043869D01*
X0161194Y0043869D02*
X0169760Y0043869D01*
X0009367Y0044368D02*
X0001750Y0044368D01*
X0025071Y0044368D02*
X0060391Y0044368D01*
X0076341Y0044368D02*
X0091319Y0044368D01*
X0097658Y0044368D02*
X0100513Y0044368D01*
X0104212Y0044368D02*
X0133146Y0044368D01*
X0139000Y0044368D02*
X0157302Y0044368D01*
X0161202Y0044368D02*
X0169760Y0044368D01*
X0009367Y0044866D02*
X0001750Y0044866D01*
X0017011Y0044866D02*
X0060391Y0044866D01*
X0076341Y0044866D02*
X0091250Y0044866D01*
X0097726Y0044866D02*
X0100412Y0044866D01*
X0104312Y0044866D02*
X0133146Y0044866D01*
X0138705Y0044866D02*
X0156950Y0044866D01*
X0161202Y0044866D02*
X0169760Y0044866D01*
X0009367Y0045365D02*
X0001750Y0045365D01*
X0017011Y0045365D02*
X0060391Y0045365D01*
X0076341Y0045365D02*
X0091250Y0045365D01*
X0097726Y0045365D02*
X0100412Y0045365D01*
X0104312Y0045365D02*
X0133146Y0045365D01*
X0138705Y0045365D02*
X0156451Y0045365D01*
X0161202Y0045365D02*
X0169760Y0045365D01*
X0009367Y0045863D02*
X0001750Y0045863D01*
X0017011Y0045863D02*
X0060391Y0045863D01*
X0076341Y0045863D02*
X0091267Y0045863D01*
X0097709Y0045863D02*
X0100412Y0045863D01*
X0104312Y0045863D02*
X0133146Y0045863D01*
X0138705Y0045863D02*
X0155953Y0045863D01*
X0160832Y0045863D02*
X0169760Y0045863D01*
X0009367Y0046362D02*
X0001750Y0046362D01*
X0017011Y0046362D02*
X0018812Y0046362D01*
X0022920Y0046362D02*
X0060391Y0046362D01*
X0076341Y0046362D02*
X0091474Y0046362D01*
X0097503Y0046362D02*
X0100690Y0046362D01*
X0104034Y0046362D02*
X0133146Y0046362D01*
X0138705Y0046362D02*
X0155454Y0046362D01*
X0160333Y0046362D02*
X0169760Y0046362D01*
X0009367Y0046860D02*
X0001750Y0046860D01*
X0017011Y0046860D02*
X0018032Y0046860D01*
X0023700Y0046860D02*
X0060391Y0046860D01*
X0076341Y0046860D02*
X0091680Y0046860D01*
X0097296Y0046860D02*
X0101189Y0046860D01*
X0103535Y0046860D02*
X0133146Y0046860D01*
X0138705Y0046860D02*
X0154956Y0046860D01*
X0159198Y0046860D02*
X0169760Y0046860D01*
X0009367Y0047359D02*
X0001750Y0047359D01*
X0017011Y0047359D02*
X0017533Y0047359D01*
X0024199Y0047359D02*
X0060391Y0047359D01*
X0076341Y0047359D02*
X0092090Y0047359D01*
X0096886Y0047359D02*
X0133146Y0047359D01*
X0138705Y0047359D02*
X0154457Y0047359D01*
X0158700Y0047359D02*
X0169760Y0047359D01*
X0009367Y0047857D02*
X0001750Y0047857D01*
X0017011Y0047857D02*
X0017057Y0047857D01*
X0024675Y0047857D02*
X0060391Y0047857D01*
X0076341Y0047857D02*
X0092229Y0047857D01*
X0096748Y0047857D02*
X0133146Y0047857D01*
X0138705Y0047857D02*
X0153959Y0047857D01*
X0158201Y0047857D02*
X0169760Y0047857D01*
X0009367Y0048356D02*
X0001750Y0048356D01*
X0024882Y0048356D02*
X0060391Y0048356D01*
X0076341Y0048356D02*
X0091738Y0048356D01*
X0097239Y0048356D02*
X0101446Y0048356D01*
X0103279Y0048356D02*
X0133146Y0048356D01*
X0138705Y0048356D02*
X0153460Y0048356D01*
X0157703Y0048356D02*
X0169760Y0048356D01*
X0009367Y0048854D02*
X0001750Y0048854D01*
X0025088Y0048854D02*
X0060391Y0048854D01*
X0076341Y0048854D02*
X0091531Y0048854D01*
X0097445Y0048854D02*
X0100947Y0048854D01*
X0103777Y0048854D02*
X0133146Y0048854D01*
X0138705Y0048854D02*
X0152962Y0048854D01*
X0157204Y0048854D02*
X0169760Y0048854D01*
X0009367Y0049353D02*
X0001750Y0049353D01*
X0025295Y0049353D02*
X0060391Y0049353D01*
X0076341Y0049353D02*
X0091325Y0049353D01*
X0097652Y0049353D02*
X0100449Y0049353D01*
X0104276Y0049353D02*
X0133146Y0049353D01*
X0138705Y0049353D02*
X0152463Y0049353D01*
X0156706Y0049353D02*
X0169760Y0049353D01*
X0009367Y0049851D02*
X0001750Y0049851D01*
X0025341Y0049851D02*
X0060391Y0049851D01*
X0076341Y0049851D02*
X0091250Y0049851D01*
X0097726Y0049851D02*
X0100412Y0049851D01*
X0104312Y0049851D02*
X0133146Y0049851D01*
X0138705Y0049851D02*
X0151965Y0049851D01*
X0156207Y0049851D02*
X0169760Y0049851D01*
X0009367Y0050350D02*
X0001750Y0050350D01*
X0025341Y0050350D02*
X0060391Y0050350D01*
X0076341Y0050350D02*
X0091250Y0050350D01*
X0097726Y0050350D02*
X0100412Y0050350D01*
X0104312Y0050350D02*
X0133146Y0050350D01*
X0138705Y0050350D02*
X0151466Y0050350D01*
X0155709Y0050350D02*
X0169760Y0050350D01*
X0009367Y0050848D02*
X0001750Y0050848D01*
X0025341Y0050848D02*
X0060391Y0050848D01*
X0076341Y0050848D02*
X0091261Y0050848D01*
X0097715Y0050848D02*
X0100412Y0050848D01*
X0104312Y0050848D02*
X0126709Y0050848D01*
X0129196Y0050848D02*
X0133146Y0050848D01*
X0138705Y0050848D02*
X0150968Y0050848D01*
X0155210Y0050848D02*
X0169760Y0050848D01*
X0009367Y0051347D02*
X0001750Y0051347D01*
X0025299Y0051347D02*
X0060391Y0051347D01*
X0076341Y0051347D02*
X0091468Y0051347D01*
X0097509Y0051347D02*
X0100754Y0051347D01*
X0103970Y0051347D02*
X0126211Y0051347D01*
X0129695Y0051347D02*
X0133146Y0051347D01*
X0138705Y0051347D02*
X0150469Y0051347D01*
X0154712Y0051347D02*
X0169760Y0051347D01*
X0009367Y0051845D02*
X0001750Y0051845D01*
X0013467Y0051845D02*
X0013552Y0051845D01*
X0025092Y0051845D02*
X0060391Y0051845D01*
X0076341Y0051845D02*
X0091674Y0051845D01*
X0097302Y0051845D02*
X0101253Y0051845D01*
X0103472Y0051845D02*
X0110358Y0051845D01*
X0112477Y0051845D02*
X0120200Y0051845D01*
X0122319Y0051845D02*
X0126003Y0051845D01*
X0129903Y0051845D02*
X0133146Y0051845D01*
X0138705Y0051845D02*
X0149970Y0051845D01*
X0154213Y0051845D02*
X0169760Y0051845D01*
X0009367Y0052344D02*
X0001750Y0052344D01*
X0013467Y0052344D02*
X0014051Y0052344D01*
X0024886Y0052344D02*
X0060391Y0052344D01*
X0076341Y0052344D02*
X0092075Y0052344D01*
X0096901Y0052344D02*
X0109859Y0052344D01*
X0112975Y0052344D02*
X0119702Y0052344D01*
X0122818Y0052344D02*
X0126003Y0052344D01*
X0129903Y0052344D02*
X0133146Y0052344D01*
X0138705Y0052344D02*
X0149472Y0052344D01*
X0153715Y0052344D02*
X0169760Y0052344D01*
X0009367Y0052842D02*
X0001750Y0052842D01*
X0013467Y0052842D02*
X0017053Y0052842D01*
X0024679Y0052842D02*
X0060050Y0052842D01*
X0076682Y0052842D02*
X0092244Y0052842D01*
X0096733Y0052842D02*
X0109467Y0052842D01*
X0113367Y0052842D02*
X0119310Y0052842D01*
X0123210Y0052842D02*
X0126003Y0052842D01*
X0129903Y0052842D02*
X0133146Y0052842D01*
X0138705Y0052842D02*
X0148973Y0052842D01*
X0153216Y0052842D02*
X0169760Y0052842D01*
X0009367Y0053341D02*
X0001750Y0053341D01*
X0013467Y0053341D02*
X0017524Y0053341D01*
X0024208Y0053341D02*
X0059743Y0053341D01*
X0076989Y0053341D02*
X0091745Y0053341D01*
X0097231Y0053341D02*
X0109467Y0053341D01*
X0113367Y0053341D02*
X0119310Y0053341D01*
X0123210Y0053341D02*
X0126174Y0053341D01*
X0129732Y0053341D02*
X0133146Y0053341D01*
X0138705Y0053341D02*
X0148475Y0053341D01*
X0152718Y0053341D02*
X0169760Y0053341D01*
X0009367Y0053839D02*
X0001750Y0053839D01*
X0013467Y0053839D02*
X0018022Y0053839D01*
X0023710Y0053839D02*
X0059537Y0053839D01*
X0077195Y0053839D02*
X0091537Y0053839D01*
X0097439Y0053839D02*
X0109467Y0053839D01*
X0113367Y0053839D02*
X0119310Y0053839D01*
X0123210Y0053839D02*
X0126672Y0053839D01*
X0129233Y0053839D02*
X0133146Y0053839D01*
X0138705Y0053839D02*
X0147976Y0053839D01*
X0152219Y0053839D02*
X0169760Y0053839D01*
X0009367Y0054338D02*
X0001750Y0054338D01*
X0013467Y0054338D02*
X0018789Y0054338D01*
X0022943Y0054338D02*
X0059419Y0054338D01*
X0077313Y0054338D02*
X0091331Y0054338D01*
X0097645Y0054338D02*
X0109467Y0054338D01*
X0113367Y0054338D02*
X0119310Y0054338D01*
X0123210Y0054338D02*
X0133146Y0054338D01*
X0138705Y0054338D02*
X0147478Y0054338D01*
X0151721Y0054338D02*
X0169760Y0054338D01*
X0009367Y0054836D02*
X0001750Y0054836D01*
X0013467Y0054836D02*
X0059419Y0054836D01*
X0077313Y0054836D02*
X0091250Y0054836D01*
X0097726Y0054836D02*
X0109953Y0054836D01*
X0112882Y0054836D02*
X0117209Y0054836D01*
X0125310Y0054836D02*
X0133146Y0054836D01*
X0138705Y0054836D02*
X0146979Y0054836D01*
X0151222Y0054836D02*
X0169760Y0054836D01*
X0009367Y0055335D02*
X0001750Y0055335D01*
X0013467Y0055335D02*
X0059423Y0055335D01*
X0077309Y0055335D02*
X0091250Y0055335D01*
X0097726Y0055335D02*
X0110451Y0055335D01*
X0112384Y0055335D02*
X0116711Y0055335D01*
X0125809Y0055335D02*
X0133146Y0055335D01*
X0138705Y0055335D02*
X0146481Y0055335D01*
X0150724Y0055335D02*
X0169760Y0055335D01*
X0009367Y0055833D02*
X0001750Y0055833D01*
X0013467Y0055833D02*
X0059630Y0055833D01*
X0065252Y0055833D02*
X0065575Y0055833D01*
X0071197Y0055833D02*
X0071480Y0055833D01*
X0077103Y0055833D02*
X0091255Y0055833D01*
X0097721Y0055833D02*
X0105582Y0055833D01*
X0107804Y0055833D02*
X0116554Y0055833D01*
X0125966Y0055833D02*
X0133146Y0055833D01*
X0138705Y0055833D02*
X0146138Y0055833D01*
X0150225Y0055833D02*
X0169760Y0055833D01*
X0009367Y0056332D02*
X0001750Y0056332D01*
X0013467Y0056332D02*
X0018884Y0056332D01*
X0022849Y0056332D02*
X0059836Y0056332D01*
X0065046Y0056332D02*
X0065781Y0056332D01*
X0070991Y0056332D02*
X0071687Y0056332D01*
X0076896Y0056332D02*
X0091461Y0056332D01*
X0097515Y0056332D02*
X0105084Y0056332D01*
X0108302Y0056332D02*
X0116554Y0056332D01*
X0125966Y0056332D02*
X0133146Y0056332D01*
X0138705Y0056332D02*
X0146138Y0056332D01*
X0149727Y0056332D02*
X0169760Y0056332D01*
X0009367Y0056830D02*
X0001750Y0056830D01*
X0013467Y0056830D02*
X0018062Y0056830D01*
X0023671Y0056830D02*
X0060274Y0056830D01*
X0064608Y0056830D02*
X0066218Y0056830D01*
X0070553Y0056830D02*
X0072124Y0056830D01*
X0076459Y0056830D02*
X0091668Y0056830D01*
X0097308Y0056830D02*
X0104743Y0056830D01*
X0108643Y0056830D02*
X0116554Y0056830D01*
X0125966Y0056830D02*
X0133146Y0056830D01*
X0138705Y0056830D02*
X0146138Y0056830D01*
X0149228Y0056830D02*
X0169760Y0056830D01*
X0009367Y0057329D02*
X0001750Y0057329D01*
X0013467Y0057329D02*
X0017563Y0057329D01*
X0024169Y0057329D02*
X0060833Y0057329D01*
X0064049Y0057329D02*
X0066777Y0057329D01*
X0069994Y0057329D02*
X0072683Y0057329D01*
X0075900Y0057329D02*
X0092060Y0057329D01*
X0096916Y0057329D02*
X0104743Y0057329D01*
X0108643Y0057329D02*
X0116776Y0057329D01*
X0125744Y0057329D02*
X0133146Y0057329D01*
X0140008Y0057329D02*
X0143457Y0057329D01*
X0145520Y0057329D02*
X0146138Y0057329D01*
X0149138Y0057329D02*
X0169760Y0057329D01*
X0009367Y0057827D02*
X0001750Y0057827D01*
X0013467Y0057827D02*
X0017069Y0057827D01*
X0024663Y0057827D02*
X0092259Y0057827D01*
X0096718Y0057827D02*
X0104743Y0057827D01*
X0108643Y0057827D02*
X0117274Y0057827D01*
X0125245Y0057827D02*
X0133146Y0057827D01*
X0140506Y0057827D02*
X0142958Y0057827D01*
X0146018Y0057827D02*
X0146138Y0057827D01*
X0149138Y0057827D02*
X0169760Y0057827D01*
X0009367Y0058326D02*
X0001750Y0058326D01*
X0024870Y0058326D02*
X0091760Y0058326D01*
X0097216Y0058326D02*
X0104781Y0058326D01*
X0108605Y0058326D02*
X0119310Y0058326D01*
X0123210Y0058326D02*
X0133146Y0058326D01*
X0140926Y0058326D02*
X0142538Y0058326D01*
X0149138Y0058326D02*
X0169760Y0058326D01*
X0009367Y0058824D02*
X0001750Y0058824D01*
X0025076Y0058824D02*
X0091544Y0058824D01*
X0127481Y0058824D02*
X0133146Y0058824D01*
X0140926Y0058824D02*
X0142538Y0058824D01*
X0149138Y0058824D02*
X0169760Y0058824D01*
X0009367Y0059323D02*
X0001750Y0059323D01*
X0025283Y0059323D02*
X0091337Y0059323D01*
X0127980Y0059323D02*
X0133146Y0059323D01*
X0140926Y0059323D02*
X0142538Y0059323D01*
X0149138Y0059323D02*
X0169760Y0059323D01*
X0009367Y0059821D02*
X0001750Y0059821D01*
X0025341Y0059821D02*
X0091250Y0059821D01*
X0128478Y0059821D02*
X0133146Y0059821D01*
X0140926Y0059821D02*
X0142538Y0059821D01*
X0149138Y0059821D02*
X0169760Y0059821D01*
X0009367Y0060320D02*
X0001750Y0060320D01*
X0025341Y0060320D02*
X0091250Y0060320D01*
X0128977Y0060320D02*
X0133146Y0060320D01*
X0140469Y0060320D02*
X0142995Y0060320D01*
X0145981Y0060320D02*
X0146138Y0060320D01*
X0149138Y0060320D02*
X0169760Y0060320D01*
X0009367Y0060818D02*
X0001750Y0060818D01*
X0025341Y0060818D02*
X0091250Y0060818D01*
X0129475Y0060818D02*
X0133146Y0060818D01*
X0139971Y0060818D02*
X0143494Y0060818D01*
X0145483Y0060818D02*
X0146138Y0060818D01*
X0149138Y0060818D02*
X0169737Y0060818D01*
X0175634Y0060818D02*
X0177165Y0060818D01*
X0009481Y0061317D02*
X0001750Y0061317D01*
X0025311Y0061317D02*
X0091455Y0061317D01*
X0129974Y0061317D02*
X0133146Y0061317D01*
X0138705Y0061317D02*
X0146138Y0061317D01*
X0149138Y0061317D02*
X0169239Y0061317D01*
X0175634Y0061317D02*
X0177165Y0061317D01*
X0009979Y0061815D02*
X0001750Y0061815D01*
X0025105Y0061815D02*
X0091662Y0061815D01*
X0097315Y0061815D02*
X0126230Y0061815D01*
X0130472Y0061815D02*
X0133146Y0061815D01*
X0139455Y0061815D02*
X0146138Y0061815D01*
X0149138Y0061815D02*
X0168740Y0061815D01*
X0175634Y0061815D02*
X0177165Y0061815D01*
X0010478Y0062314D02*
X0001750Y0062314D01*
X0024898Y0062314D02*
X0092045Y0062314D01*
X0096931Y0062314D02*
X0126728Y0062314D01*
X0130971Y0062314D02*
X0133146Y0062314D01*
X0143963Y0062314D02*
X0146138Y0062314D01*
X0149138Y0062314D02*
X0168242Y0062314D01*
X0175634Y0062314D02*
X0177165Y0062314D01*
X0017041Y0062812D02*
X0001750Y0062812D01*
X0024692Y0062812D02*
X0092273Y0062812D01*
X0096703Y0062812D02*
X0127227Y0062812D01*
X0131469Y0062812D02*
X0133146Y0062812D01*
X0144461Y0062812D02*
X0146138Y0062812D01*
X0149138Y0062812D02*
X0167743Y0062812D01*
X0175634Y0062812D02*
X0177165Y0062812D01*
X0017494Y0063311D02*
X0001750Y0063311D01*
X0024238Y0063311D02*
X0091775Y0063311D01*
X0097201Y0063311D02*
X0127725Y0063311D01*
X0131968Y0063311D02*
X0133146Y0063311D01*
X0144960Y0063311D02*
X0146138Y0063311D01*
X0149138Y0063311D02*
X0167245Y0063311D01*
X0175464Y0063311D02*
X0177165Y0063311D01*
X0017993Y0063809D02*
X0001750Y0063809D01*
X0023740Y0063809D02*
X0091550Y0063809D01*
X0097427Y0063809D02*
X0128224Y0063809D01*
X0132466Y0063809D02*
X0133146Y0063809D01*
X0145458Y0063809D02*
X0146138Y0063809D01*
X0149138Y0063809D02*
X0166746Y0063809D01*
X0174965Y0063809D02*
X0177165Y0063809D01*
X0018717Y0064308D02*
X0001750Y0064308D01*
X0023015Y0064308D02*
X0091343Y0064308D01*
X0097633Y0064308D02*
X0128722Y0064308D01*
X0132965Y0064308D02*
X0133146Y0064308D01*
X0145957Y0064308D02*
X0146138Y0064308D01*
X0149138Y0064308D02*
X0166248Y0064308D01*
X0174467Y0064308D02*
X0177165Y0064308D01*
X0019921Y0064806D02*
X0001750Y0064806D01*
X0021811Y0064806D02*
X0091250Y0064806D01*
X0097726Y0064806D02*
X0129221Y0064806D01*
X0149138Y0064806D02*
X0165749Y0064806D01*
X0173968Y0064806D02*
X0177165Y0064806D01*
X0091250Y0065305D02*
X0001750Y0065305D01*
X0097726Y0065305D02*
X0129719Y0065305D01*
X0149138Y0065305D02*
X0165251Y0065305D01*
X0173470Y0065305D02*
X0177165Y0065305D01*
X0091250Y0065803D02*
X0001750Y0065803D01*
X0097726Y0065803D02*
X0112935Y0065803D01*
X0115412Y0065803D02*
X0130218Y0065803D01*
X0149138Y0065803D02*
X0153683Y0065803D01*
X0156160Y0065803D02*
X0164752Y0065803D01*
X0172971Y0065803D02*
X0177165Y0065803D01*
X0018956Y0066302D02*
X0001750Y0066302D01*
X0022777Y0066302D02*
X0091449Y0066302D01*
X0097527Y0066302D02*
X0112436Y0066302D01*
X0115910Y0066302D02*
X0130716Y0066302D01*
X0149138Y0066302D02*
X0153184Y0066302D01*
X0156658Y0066302D02*
X0164254Y0066302D01*
X0172473Y0066302D02*
X0177165Y0066302D01*
X0018091Y0066801D02*
X0001750Y0066801D01*
X0023641Y0066801D02*
X0091656Y0066801D01*
X0097321Y0066801D02*
X0112223Y0066801D01*
X0116123Y0066801D02*
X0131215Y0066801D01*
X0149138Y0066801D02*
X0152971Y0066801D01*
X0156871Y0066801D02*
X0163755Y0066801D01*
X0171974Y0066801D02*
X0177165Y0066801D01*
X0017593Y0067299D02*
X0001750Y0067299D01*
X0024139Y0067299D02*
X0092031Y0067299D01*
X0096946Y0067299D02*
X0112223Y0067299D01*
X0116123Y0067299D02*
X0131713Y0067299D01*
X0149138Y0067299D02*
X0152971Y0067299D01*
X0156871Y0067299D02*
X0163257Y0067299D01*
X0171476Y0067299D02*
X0177165Y0067299D01*
X0017094Y0067798D02*
X0001750Y0067798D01*
X0024638Y0067798D02*
X0092288Y0067798D01*
X0096688Y0067798D02*
X0112223Y0067798D01*
X0116123Y0067798D02*
X0132212Y0067798D01*
X0149138Y0067798D02*
X0152971Y0067798D01*
X0156871Y0067798D02*
X0162758Y0067798D01*
X0170977Y0067798D02*
X0177165Y0067798D01*
X0016875Y0068296D02*
X0001750Y0068296D01*
X0024857Y0068296D02*
X0091790Y0068296D01*
X0097187Y0068296D02*
X0112389Y0068296D01*
X0115958Y0068296D02*
X0132710Y0068296D01*
X0149138Y0068296D02*
X0153137Y0068296D01*
X0156706Y0068296D02*
X0162260Y0068296D01*
X0170479Y0068296D02*
X0177165Y0068296D01*
X0016669Y0068795D02*
X0001750Y0068795D01*
X0025064Y0068795D02*
X0091556Y0068795D01*
X0097420Y0068795D02*
X0112887Y0068795D01*
X0115459Y0068795D02*
X0133209Y0068795D01*
X0149138Y0068795D02*
X0153635Y0068795D01*
X0156207Y0068795D02*
X0161761Y0068795D01*
X0169980Y0068795D02*
X0173809Y0068795D01*
X0175797Y0068795D02*
X0177165Y0068795D01*
X0016462Y0069293D02*
X0001750Y0069293D01*
X0025270Y0069293D02*
X0091349Y0069293D01*
X0097627Y0069293D02*
X0133707Y0069293D01*
X0149138Y0069293D02*
X0161263Y0069293D01*
X0169482Y0069293D02*
X0172890Y0069293D01*
X0176716Y0069293D02*
X0177165Y0069293D01*
X0016391Y0069792D02*
X0001750Y0069792D01*
X0025341Y0069792D02*
X0091250Y0069792D01*
X0097726Y0069792D02*
X0134206Y0069792D01*
X0149138Y0069792D02*
X0160764Y0069792D01*
X0168983Y0069792D02*
X0172392Y0069792D01*
X0016391Y0070290D02*
X0001750Y0070290D01*
X0025341Y0070290D02*
X0091250Y0070290D01*
X0097726Y0070290D02*
X0132661Y0070290D01*
X0150804Y0070290D02*
X0160266Y0070290D01*
X0168485Y0070290D02*
X0172097Y0070290D01*
X0016391Y0070789D02*
X0001750Y0070789D01*
X0025341Y0070789D02*
X0091250Y0070789D01*
X0097726Y0070789D02*
X0132162Y0070789D01*
X0151302Y0070789D02*
X0159767Y0070789D01*
X0167986Y0070789D02*
X0171891Y0070789D01*
X0016409Y0071287D02*
X0001750Y0071287D01*
X0025323Y0071287D02*
X0091443Y0071287D01*
X0097533Y0071287D02*
X0129695Y0071287D01*
X0151556Y0071287D02*
X0159269Y0071287D01*
X0167488Y0071287D02*
X0171781Y0071287D01*
X0016615Y0071786D02*
X0001750Y0071786D01*
X0025117Y0071786D02*
X0091649Y0071786D01*
X0097327Y0071786D02*
X0129197Y0071786D01*
X0135808Y0071786D02*
X0135845Y0071786D01*
X0151556Y0071786D02*
X0158770Y0071786D01*
X0166989Y0071786D02*
X0171781Y0071786D01*
X0016822Y0072284D02*
X0001750Y0072284D01*
X0024910Y0072284D02*
X0092016Y0072284D01*
X0096961Y0072284D02*
X0128956Y0072284D01*
X0135808Y0072284D02*
X0135845Y0072284D01*
X0151556Y0072284D02*
X0158272Y0072284D01*
X0166491Y0072284D02*
X0171794Y0072284D01*
X0017028Y0072783D02*
X0001750Y0072783D01*
X0024704Y0072783D02*
X0092303Y0072783D01*
X0096673Y0072783D02*
X0128956Y0072783D01*
X0135684Y0072783D02*
X0135970Y0072783D01*
X0151432Y0072783D02*
X0157773Y0072783D01*
X0165992Y0072783D02*
X0172000Y0072783D01*
X0017464Y0073281D02*
X0001750Y0073281D01*
X0024268Y0073281D02*
X0091805Y0073281D01*
X0097172Y0073281D02*
X0128956Y0073281D01*
X0135185Y0073281D02*
X0136468Y0073281D01*
X0150933Y0073281D02*
X0151323Y0073281D01*
X0153795Y0073281D02*
X0157275Y0073281D01*
X0165494Y0073281D02*
X0172207Y0073281D01*
X0017963Y0073780D02*
X0001750Y0073780D01*
X0023769Y0073780D02*
X0091562Y0073780D01*
X0097414Y0073780D02*
X0129093Y0073780D01*
X0132718Y0073780D02*
X0133030Y0073780D01*
X0134687Y0073780D02*
X0136967Y0073780D01*
X0138624Y0073780D02*
X0138935Y0073780D01*
X0140592Y0073780D02*
X0140904Y0073780D01*
X0142561Y0073780D02*
X0142872Y0073780D01*
X0144529Y0073780D02*
X0144841Y0073780D01*
X0146498Y0073780D02*
X0146809Y0073780D01*
X0148466Y0073780D02*
X0148778Y0073780D01*
X0150435Y0073780D02*
X0150825Y0073780D01*
X0164995Y0073780D02*
X0172656Y0073780D01*
X0018645Y0074278D02*
X0001750Y0074278D01*
X0023087Y0074278D02*
X0091356Y0074278D01*
X0097621Y0074278D02*
X0128956Y0074278D01*
X0132855Y0074278D02*
X0150609Y0074278D01*
X0164497Y0074278D02*
X0172630Y0074278D01*
X0019849Y0074777D02*
X0001750Y0074777D01*
X0021883Y0074777D02*
X0091250Y0074777D01*
X0097726Y0074777D02*
X0128956Y0074777D01*
X0132855Y0074777D02*
X0150609Y0074777D01*
X0163998Y0074777D02*
X0172196Y0074777D01*
X0091250Y0075275D02*
X0001750Y0075275D01*
X0097726Y0075275D02*
X0128956Y0075275D01*
X0132855Y0075275D02*
X0150609Y0075275D01*
X0163500Y0075275D02*
X0171989Y0075275D01*
X0091250Y0075774D02*
X0001750Y0075774D01*
X0097726Y0075774D02*
X0129118Y0075774D01*
X0132693Y0075774D02*
X0150772Y0075774D01*
X0163001Y0075774D02*
X0171783Y0075774D01*
X0019021Y0076272D02*
X0001750Y0076272D01*
X0020616Y0076272D02*
X0021116Y0076272D01*
X0022712Y0076272D02*
X0091437Y0076272D01*
X0097540Y0076272D02*
X0129617Y0076272D01*
X0132194Y0076272D02*
X0150609Y0076272D01*
X0162503Y0076272D02*
X0171781Y0076272D01*
X0018185Y0076771D02*
X0001750Y0076771D01*
X0020616Y0076771D02*
X0021116Y0076771D01*
X0023547Y0076771D02*
X0091643Y0076771D01*
X0097333Y0076771D02*
X0150609Y0076771D01*
X0162004Y0076771D02*
X0171781Y0076771D01*
X0017623Y0077269D02*
X0001750Y0077269D01*
X0020616Y0077269D02*
X0021116Y0077269D01*
X0024110Y0077269D02*
X0092001Y0077269D01*
X0132192Y0077269D02*
X0150609Y0077269D01*
X0161506Y0077269D02*
X0171902Y0077269D01*
X0017214Y0077768D02*
X0001750Y0077768D01*
X0020616Y0077768D02*
X0021116Y0077768D01*
X0024518Y0077768D02*
X0092318Y0077768D01*
X0132691Y0077768D02*
X0150774Y0077768D01*
X0161007Y0077768D02*
X0172108Y0077768D01*
X0016908Y0078266D02*
X0001750Y0078266D01*
X0020616Y0078266D02*
X0021116Y0078266D01*
X0024825Y0078266D02*
X0091820Y0078266D01*
X0132855Y0078266D02*
X0150609Y0078266D01*
X0160509Y0078266D02*
X0172418Y0078266D01*
X0016677Y0078765D02*
X0001750Y0078765D01*
X0020616Y0078765D02*
X0021116Y0078765D01*
X0025055Y0078765D02*
X0091568Y0078765D01*
X0132855Y0078765D02*
X0150609Y0078765D01*
X0160010Y0078765D02*
X0172917Y0078765D01*
X0176690Y0078765D02*
X0177165Y0078765D01*
X0016515Y0079263D02*
X0001750Y0079263D01*
X0020616Y0079263D02*
X0021116Y0079263D01*
X0025217Y0079263D02*
X0091362Y0079263D01*
X0132855Y0079263D02*
X0150609Y0079263D01*
X0159512Y0079263D02*
X0173873Y0079263D01*
X0175733Y0079263D02*
X0177165Y0079263D01*
X0016429Y0079762D02*
X0001750Y0079762D01*
X0020616Y0079762D02*
X0021116Y0079762D01*
X0025303Y0079762D02*
X0091250Y0079762D01*
X0132716Y0079762D02*
X0150748Y0079762D01*
X0159013Y0079762D02*
X0177165Y0079762D01*
X0020616Y0080260D02*
X0001750Y0080260D01*
X0021116Y0080260D02*
X0091250Y0080260D01*
X0132855Y0080260D02*
X0150609Y0080260D01*
X0154509Y0080260D02*
X0177165Y0080260D01*
X0016399Y0080759D02*
X0001750Y0080759D01*
X0020616Y0080759D02*
X0021116Y0080759D01*
X0025333Y0080759D02*
X0091250Y0080759D01*
X0132855Y0080759D02*
X0150609Y0080759D01*
X0154509Y0080759D02*
X0177165Y0080759D01*
X0016478Y0081257D02*
X0001750Y0081257D01*
X0020616Y0081257D02*
X0021116Y0081257D01*
X0025254Y0081257D02*
X0091431Y0081257D01*
X0132855Y0081257D02*
X0150609Y0081257D01*
X0154509Y0081257D02*
X0177165Y0081257D01*
X0016616Y0081756D02*
X0001750Y0081756D01*
X0020616Y0081756D02*
X0021116Y0081756D01*
X0025116Y0081756D02*
X0091637Y0081756D01*
X0132742Y0081756D02*
X0150849Y0081756D01*
X0154270Y0081756D02*
X0177165Y0081756D01*
X0016812Y0082254D02*
X0001750Y0082254D01*
X0020616Y0082254D02*
X0021116Y0082254D01*
X0024920Y0082254D02*
X0091986Y0082254D01*
X0132855Y0082254D02*
X0151347Y0082254D01*
X0153771Y0082254D02*
X0177165Y0082254D01*
X0017077Y0082753D02*
X0001750Y0082753D01*
X0020616Y0082753D02*
X0021116Y0082753D01*
X0024655Y0082753D02*
X0092333Y0082753D01*
X0132855Y0082753D02*
X0177165Y0082753D01*
X0017440Y0083251D02*
X0001750Y0083251D01*
X0020616Y0083251D02*
X0021116Y0083251D01*
X0024293Y0083251D02*
X0091834Y0083251D01*
X0132855Y0083251D02*
X0177165Y0083251D01*
X0017933Y0083750D02*
X0001750Y0083750D01*
X0020616Y0083750D02*
X0021116Y0083750D01*
X0023799Y0083750D02*
X0091574Y0083750D01*
X0132767Y0083750D02*
X0177165Y0083750D01*
X0018652Y0084248D02*
X0001750Y0084248D01*
X0020616Y0084248D02*
X0021116Y0084248D01*
X0023081Y0084248D02*
X0091368Y0084248D01*
X0132855Y0084248D02*
X0177165Y0084248D01*
X0019994Y0084747D02*
X0001750Y0084747D01*
X0020616Y0084747D02*
X0021116Y0084747D01*
X0021739Y0084747D02*
X0091250Y0084747D01*
X0132855Y0084747D02*
X0151669Y0084747D01*
X0153450Y0084747D02*
X0177165Y0084747D01*
X0091250Y0085245D02*
X0001750Y0085245D01*
X0132855Y0085245D02*
X0151170Y0085245D01*
X0153948Y0085245D02*
X0177165Y0085245D01*
X0091250Y0085744D02*
X0001750Y0085744D01*
X0132793Y0085744D02*
X0150672Y0085744D01*
X0154447Y0085744D02*
X0177165Y0085744D01*
X0019099Y0086242D02*
X0001750Y0086242D01*
X0022633Y0086242D02*
X0091424Y0086242D01*
X0132855Y0086242D02*
X0150609Y0086242D01*
X0154509Y0086242D02*
X0177165Y0086242D01*
X0018151Y0086741D02*
X0001750Y0086741D01*
X0023581Y0086741D02*
X0091631Y0086741D01*
X0132855Y0086741D02*
X0150609Y0086741D01*
X0154509Y0086741D02*
X0177165Y0086741D01*
X0017652Y0087239D02*
X0001750Y0087239D01*
X0024080Y0087239D02*
X0091971Y0087239D01*
X0132855Y0087239D02*
X0150609Y0087239D01*
X0154509Y0087239D02*
X0177165Y0087239D01*
X0017154Y0087738D02*
X0001750Y0087738D01*
X0024578Y0087738D02*
X0092348Y0087738D01*
X0132819Y0087738D02*
X0150925Y0087738D01*
X0155456Y0087738D02*
X0177165Y0087738D01*
X0016900Y0088237D02*
X0001750Y0088237D01*
X0024833Y0088237D02*
X0091849Y0088237D01*
X0132855Y0088237D02*
X0151424Y0088237D01*
X0155955Y0088237D02*
X0177165Y0088237D01*
X0016693Y0088735D02*
X0001750Y0088735D01*
X0025039Y0088735D02*
X0091581Y0088735D01*
X0132855Y0088735D02*
X0152602Y0088735D01*
X0156453Y0088735D02*
X0177165Y0088735D01*
X0016487Y0089234D02*
X0001750Y0089234D01*
X0025246Y0089234D02*
X0091374Y0089234D01*
X0132855Y0089234D02*
X0152578Y0089234D01*
X0156478Y0089234D02*
X0177165Y0089234D01*
X0016391Y0089732D02*
X0001750Y0089732D01*
X0025341Y0089732D02*
X0091250Y0089732D01*
X0132844Y0089732D02*
X0152578Y0089732D01*
X0156478Y0089732D02*
X0177165Y0089732D01*
X0016391Y0090231D02*
X0001750Y0090231D01*
X0025341Y0090231D02*
X0091250Y0090231D01*
X0132855Y0090231D02*
X0152578Y0090231D01*
X0156478Y0090231D02*
X0177165Y0090231D01*
X0016391Y0090729D02*
X0001750Y0090729D01*
X0025341Y0090729D02*
X0091250Y0090729D01*
X0132855Y0090729D02*
X0132937Y0090729D01*
X0156123Y0090729D02*
X0177165Y0090729D01*
X0016391Y0091228D02*
X0001750Y0091228D01*
X0025341Y0091228D02*
X0091418Y0091228D01*
X0156028Y0091228D02*
X0177165Y0091228D01*
X0016591Y0091726D02*
X0001750Y0091726D01*
X0025142Y0091726D02*
X0091625Y0091726D01*
X0156028Y0091726D02*
X0177165Y0091726D01*
X0016797Y0092225D02*
X0001750Y0092225D01*
X0024935Y0092225D02*
X0091956Y0092225D01*
X0156028Y0092225D02*
X0177165Y0092225D01*
X0017004Y0092723D02*
X0001750Y0092723D01*
X0024729Y0092723D02*
X0092363Y0092723D01*
X0155855Y0092723D02*
X0177165Y0092723D01*
X0017405Y0093222D02*
X0001750Y0093222D01*
X0024327Y0093222D02*
X0091864Y0093222D01*
X0155356Y0093222D02*
X0177165Y0093222D01*
X0017903Y0093720D02*
X0001750Y0093720D01*
X0023829Y0093720D02*
X0091587Y0093720D01*
X0149588Y0093720D02*
X0177165Y0093720D01*
X0018502Y0094219D02*
X0001750Y0094219D01*
X0023231Y0094219D02*
X0091380Y0094219D01*
X0149588Y0094219D02*
X0177165Y0094219D01*
X0019705Y0094717D02*
X0001750Y0094717D01*
X0022027Y0094717D02*
X0091250Y0094717D01*
X0149182Y0094717D02*
X0177165Y0094717D01*
X0091250Y0095216D02*
X0001750Y0095216D01*
X0149138Y0095216D02*
X0177165Y0095216D01*
X0091250Y0095714D02*
X0001750Y0095714D01*
X0149138Y0095714D02*
X0177165Y0095714D01*
X0019171Y0096213D02*
X0001750Y0096213D01*
X0022561Y0096213D02*
X0091412Y0096213D01*
X0149138Y0096213D02*
X0149455Y0096213D01*
X0151726Y0096213D02*
X0177165Y0096213D01*
X0018181Y0096711D02*
X0001750Y0096711D01*
X0023552Y0096711D02*
X0091619Y0096711D01*
X0152225Y0096711D02*
X0177165Y0096711D01*
X0017682Y0097210D02*
X0001750Y0097210D01*
X0024050Y0097210D02*
X0091941Y0097210D01*
X0104984Y0097210D02*
X0111984Y0097210D01*
X0152541Y0097210D02*
X0177165Y0097210D01*
X0017184Y0097708D02*
X0001750Y0097708D01*
X0024549Y0097708D02*
X0092378Y0097708D01*
X0104984Y0097708D02*
X0111984Y0097708D01*
X0152541Y0097708D02*
X0177165Y0097708D01*
X0016912Y0098207D02*
X0001750Y0098207D01*
X0024820Y0098207D02*
X0091879Y0098207D01*
X0104984Y0098207D02*
X0111984Y0098207D01*
X0152541Y0098207D02*
X0177165Y0098207D01*
X0016705Y0098705D02*
X0001750Y0098705D01*
X0025027Y0098705D02*
X0091593Y0098705D01*
X0104984Y0098705D02*
X0111984Y0098705D01*
X0152478Y0098705D02*
X0177165Y0098705D01*
X0016499Y0099204D02*
X0001750Y0099204D01*
X0025233Y0099204D02*
X0091386Y0099204D01*
X0104984Y0099204D02*
X0111984Y0099204D01*
X0114984Y0099204D02*
X0121984Y0099204D01*
X0149138Y0099204D02*
X0149202Y0099204D01*
X0151979Y0099204D02*
X0177165Y0099204D01*
X0016391Y0099702D02*
X0001750Y0099702D01*
X0025341Y0099702D02*
X0091250Y0099702D01*
X0104984Y0099702D02*
X0111984Y0099702D01*
X0114984Y0099702D02*
X0121984Y0099702D01*
X0149138Y0099702D02*
X0149700Y0099702D01*
X0151481Y0099702D02*
X0177165Y0099702D01*
X0016391Y0100201D02*
X0001750Y0100201D01*
X0025341Y0100201D02*
X0091250Y0100201D01*
X0104984Y0100201D02*
X0111984Y0100201D01*
X0114984Y0100201D02*
X0121984Y0100201D01*
X0149138Y0100201D02*
X0177165Y0100201D01*
X0016391Y0100699D02*
X0001750Y0100699D01*
X0025341Y0100699D02*
X0091250Y0100699D01*
X0104984Y0100699D02*
X0111984Y0100699D01*
X0114984Y0100699D02*
X0121984Y0100699D01*
X0149336Y0100699D02*
X0177165Y0100699D01*
X0016391Y0101198D02*
X0001750Y0101198D01*
X0025341Y0101198D02*
X0091406Y0101198D01*
X0104984Y0101198D02*
X0111984Y0101198D01*
X0114984Y0101198D02*
X0121984Y0101198D01*
X0149835Y0101198D02*
X0177165Y0101198D01*
X0016578Y0101696D02*
X0001750Y0101696D01*
X0025154Y0101696D02*
X0091612Y0101696D01*
X0104984Y0101696D02*
X0111984Y0101696D01*
X0114984Y0101696D02*
X0121984Y0101696D01*
X0149984Y0101696D02*
X0177165Y0101696D01*
X0016785Y0102195D02*
X0001750Y0102195D01*
X0024947Y0102195D02*
X0091926Y0102195D01*
X0104984Y0102195D02*
X0111984Y0102195D01*
X0114984Y0102195D02*
X0121984Y0102195D01*
X0134984Y0102195D02*
X0142004Y0102195D01*
X0149984Y0102195D02*
X0177165Y0102195D01*
X0016991Y0102693D02*
X0001750Y0102693D01*
X0024741Y0102693D02*
X0092393Y0102693D01*
X0104984Y0102693D02*
X0111984Y0102693D01*
X0114984Y0102693D02*
X0121984Y0102693D01*
X0134984Y0102693D02*
X0142004Y0102693D01*
X0149881Y0102693D02*
X0177165Y0102693D01*
X0017375Y0103192D02*
X0001750Y0103192D01*
X0024357Y0103192D02*
X0091894Y0103192D01*
X0104984Y0103192D02*
X0111984Y0103192D01*
X0114984Y0103192D02*
X0121984Y0103192D01*
X0134984Y0103192D02*
X0142004Y0103192D01*
X0149382Y0103192D02*
X0177165Y0103192D01*
X0017874Y0103690D02*
X0001750Y0103690D01*
X0023859Y0103690D02*
X0091599Y0103690D01*
X0104984Y0103690D02*
X0111984Y0103690D01*
X0114984Y0103690D02*
X0121984Y0103690D01*
X0134984Y0103690D02*
X0142004Y0103690D01*
X0145004Y0103690D02*
X0177165Y0103690D01*
X0018430Y0104189D02*
X0001750Y0104189D01*
X0023302Y0104189D02*
X0091393Y0104189D01*
X0104984Y0104189D02*
X0111984Y0104189D01*
X0114984Y0104189D02*
X0121984Y0104189D01*
X0134984Y0104189D02*
X0142004Y0104189D01*
X0145004Y0104189D02*
X0177165Y0104189D01*
X0019633Y0104687D02*
X0001750Y0104687D01*
X0022099Y0104687D02*
X0091250Y0104687D01*
X0104984Y0104687D02*
X0111984Y0104687D01*
X0114984Y0104687D02*
X0121984Y0104687D01*
X0134984Y0104687D02*
X0142004Y0104687D01*
X0145004Y0104687D02*
X0177165Y0104687D01*
X0091250Y0105186D02*
X0001750Y0105186D01*
X0104984Y0105186D02*
X0111984Y0105186D01*
X0114984Y0105186D02*
X0121984Y0105186D01*
X0134984Y0105186D02*
X0142004Y0105186D01*
X0145004Y0105186D02*
X0177165Y0105186D01*
X0091250Y0105684D02*
X0001750Y0105684D01*
X0104984Y0105684D02*
X0111984Y0105684D01*
X0114984Y0105684D02*
X0121984Y0105684D01*
X0134984Y0105684D02*
X0142004Y0105684D01*
X0145004Y0105684D02*
X0177165Y0105684D01*
X0019243Y0106183D02*
X0001750Y0106183D01*
X0022489Y0106183D02*
X0091400Y0106183D01*
X0104984Y0106183D02*
X0111984Y0106183D01*
X0114984Y0106183D02*
X0121984Y0106183D01*
X0134984Y0106183D02*
X0142004Y0106183D01*
X0145004Y0106183D02*
X0177165Y0106183D01*
X0018210Y0106681D02*
X0001750Y0106681D01*
X0023522Y0106681D02*
X0091606Y0106681D01*
X0104984Y0106681D02*
X0111984Y0106681D01*
X0114984Y0106681D02*
X0121984Y0106681D01*
X0134984Y0106681D02*
X0142004Y0106681D01*
X0145004Y0106681D02*
X0177165Y0106681D01*
X0017712Y0107180D02*
X0001750Y0107180D01*
X0024020Y0107180D02*
X0091911Y0107180D01*
X0104984Y0107180D02*
X0111984Y0107180D01*
X0114984Y0107180D02*
X0121984Y0107180D01*
X0134984Y0107180D02*
X0142004Y0107180D01*
X0145004Y0107180D02*
X0177165Y0107180D01*
X0017213Y0107678D02*
X0001750Y0107678D01*
X0024519Y0107678D02*
X0092407Y0107678D01*
X0104984Y0107678D02*
X0111984Y0107678D01*
X0114984Y0107678D02*
X0121984Y0107678D01*
X0134984Y0107678D02*
X0142004Y0107678D01*
X0145004Y0107678D02*
X0177165Y0107678D01*
X0016924Y0108177D02*
X0001750Y0108177D01*
X0024808Y0108177D02*
X0091909Y0108177D01*
X0104984Y0108177D02*
X0111984Y0108177D01*
X0114984Y0108177D02*
X0121984Y0108177D01*
X0134984Y0108177D02*
X0142004Y0108177D01*
X0145004Y0108177D02*
X0177165Y0108177D01*
X0016718Y0108675D02*
X0001750Y0108675D01*
X0025014Y0108675D02*
X0091605Y0108675D01*
X0104984Y0108675D02*
X0111984Y0108675D01*
X0114984Y0108675D02*
X0121984Y0108675D01*
X0134984Y0108675D02*
X0142004Y0108675D01*
X0145004Y0108675D02*
X0177165Y0108675D01*
X0016511Y0109174D02*
X0001750Y0109174D01*
X0025221Y0109174D02*
X0091399Y0109174D01*
X0104984Y0109174D02*
X0111984Y0109174D01*
X0114984Y0109174D02*
X0121984Y0109174D01*
X0134984Y0109174D02*
X0142004Y0109174D01*
X0145004Y0109174D02*
X0177165Y0109174D01*
X0016391Y0109672D02*
X0001750Y0109672D01*
X0025341Y0109672D02*
X0091250Y0109672D01*
X0104984Y0109672D02*
X0111984Y0109672D01*
X0114984Y0109672D02*
X0121984Y0109672D01*
X0134984Y0109672D02*
X0142004Y0109672D01*
X0145004Y0109672D02*
X0177165Y0109672D01*
X0016391Y0110171D02*
X0001750Y0110171D01*
X0025341Y0110171D02*
X0091250Y0110171D01*
X0104984Y0110171D02*
X0111984Y0110171D01*
X0114984Y0110171D02*
X0121984Y0110171D01*
X0134984Y0110171D02*
X0142004Y0110171D01*
X0145004Y0110171D02*
X0177165Y0110171D01*
X0016391Y0110670D02*
X0001750Y0110670D01*
X0025341Y0110670D02*
X0091250Y0110670D01*
X0104984Y0110670D02*
X0111984Y0110670D01*
X0114984Y0110670D02*
X0121984Y0110670D01*
X0134984Y0110670D02*
X0142004Y0110670D01*
X0145004Y0110670D02*
X0177165Y0110670D01*
X0016391Y0111168D02*
X0001750Y0111168D01*
X0025341Y0111168D02*
X0091394Y0111168D01*
X0104984Y0111168D02*
X0111984Y0111168D01*
X0114984Y0111168D02*
X0121984Y0111168D01*
X0134984Y0111168D02*
X0142004Y0111168D01*
X0145004Y0111168D02*
X0177165Y0111168D01*
X0016566Y0111667D02*
X0001750Y0111667D01*
X0025166Y0111667D02*
X0091600Y0111667D01*
X0104984Y0111667D02*
X0111984Y0111667D01*
X0114984Y0111667D02*
X0121984Y0111667D01*
X0134984Y0111667D02*
X0142004Y0111667D01*
X0145004Y0111667D02*
X0155073Y0111667D01*
X0156299Y0111667D02*
X0156299Y0111667D01*
X0157526Y0111667D02*
X0177165Y0111667D01*
X0016772Y0112165D02*
X0001750Y0112165D01*
X0024960Y0112165D02*
X0091897Y0112165D01*
X0104984Y0112165D02*
X0111984Y0112165D01*
X0114984Y0112165D02*
X0121984Y0112165D01*
X0134984Y0112165D02*
X0142004Y0112165D01*
X0145004Y0112165D02*
X0154646Y0112165D01*
X0156299Y0112165D02*
X0156299Y0112165D01*
X0157952Y0112165D02*
X0177165Y0112165D01*
X0016979Y0112664D02*
X0001750Y0112664D01*
X0024753Y0112664D02*
X0092395Y0112664D01*
X0104984Y0112664D02*
X0111984Y0112664D01*
X0114984Y0112664D02*
X0121984Y0112664D01*
X0134984Y0112664D02*
X0142004Y0112664D01*
X0145004Y0112664D02*
X0154428Y0112664D01*
X0156299Y0112664D02*
X0156299Y0112664D01*
X0158171Y0112664D02*
X0177165Y0112664D01*
X0017345Y0113162D02*
X0001750Y0113162D01*
X0024387Y0113162D02*
X0091924Y0113162D01*
X0104984Y0113162D02*
X0111984Y0113162D01*
X0114984Y0113162D02*
X0121984Y0113162D01*
X0134984Y0113162D02*
X0142004Y0113162D01*
X0145004Y0113162D02*
X0154356Y0113162D01*
X0156299Y0113162D02*
X0156299Y0113162D01*
X0158243Y0113162D02*
X0177165Y0113162D01*
X0017844Y0113661D02*
X0001750Y0113661D01*
X0023888Y0113661D02*
X0091611Y0113661D01*
X0104984Y0113661D02*
X0111984Y0113661D01*
X0114984Y0113661D02*
X0121984Y0113661D01*
X0134984Y0113661D02*
X0142004Y0113661D01*
X0145004Y0113661D02*
X0154413Y0113661D01*
X0156299Y0113661D02*
X0156299Y0113661D01*
X0158185Y0113661D02*
X0177165Y0113661D01*
X0018358Y0114159D02*
X0001750Y0114159D01*
X0023374Y0114159D02*
X0091405Y0114159D01*
X0104984Y0114159D02*
X0111984Y0114159D01*
X0114984Y0114159D02*
X0121984Y0114159D01*
X0134984Y0114159D02*
X0142004Y0114159D01*
X0145004Y0114159D02*
X0154615Y0114159D01*
X0156299Y0114159D02*
X0156299Y0114159D01*
X0157984Y0114159D02*
X0177165Y0114159D01*
X0019561Y0114658D02*
X0001750Y0114658D01*
X0022171Y0114658D02*
X0091250Y0114658D01*
X0104984Y0114658D02*
X0111984Y0114658D01*
X0114984Y0114658D02*
X0121984Y0114658D01*
X0134984Y0114658D02*
X0142004Y0114658D01*
X0145004Y0114658D02*
X0155019Y0114658D01*
X0156299Y0114658D02*
X0156299Y0114658D01*
X0157579Y0114658D02*
X0177165Y0114658D01*
X0091250Y0115156D02*
X0001750Y0115156D01*
X0104984Y0115156D02*
X0111984Y0115156D01*
X0114984Y0115156D02*
X0121984Y0115156D01*
X0134984Y0115156D02*
X0142004Y0115156D01*
X0145004Y0115156D02*
X0155483Y0115156D01*
X0156299Y0115156D02*
X0156299Y0115156D01*
X0157116Y0115156D02*
X0177165Y0115156D01*
X0091250Y0115655D02*
X0001750Y0115655D01*
X0104984Y0115655D02*
X0111984Y0115655D01*
X0114984Y0115655D02*
X0121984Y0115655D01*
X0134984Y0115655D02*
X0142004Y0115655D01*
X0145004Y0115655D02*
X0154825Y0115655D01*
X0156299Y0115655D02*
X0156299Y0115655D01*
X0157774Y0115655D02*
X0177165Y0115655D01*
X0091387Y0116153D02*
X0001750Y0116153D01*
X0104984Y0116153D02*
X0111984Y0116153D01*
X0114984Y0116153D02*
X0121984Y0116153D01*
X0134984Y0116153D02*
X0142004Y0116153D01*
X0145004Y0116153D02*
X0154503Y0116153D01*
X0156299Y0116153D02*
X0156299Y0116153D01*
X0158096Y0116153D02*
X0177165Y0116153D01*
X0091594Y0116652D02*
X0001750Y0116652D01*
X0104984Y0116652D02*
X0111984Y0116652D01*
X0114984Y0116652D02*
X0121984Y0116652D01*
X0134984Y0116652D02*
X0142004Y0116652D01*
X0145004Y0116652D02*
X0154361Y0116652D01*
X0156299Y0116652D02*
X0156299Y0116652D01*
X0158237Y0116652D02*
X0177165Y0116652D01*
X0091882Y0117150D02*
X0001750Y0117150D01*
X0104984Y0117150D02*
X0111984Y0117150D01*
X0114984Y0117150D02*
X0121984Y0117150D01*
X0134984Y0117150D02*
X0142004Y0117150D01*
X0145004Y0117150D02*
X0154356Y0117150D01*
X0156299Y0117150D02*
X0156299Y0117150D01*
X0158243Y0117150D02*
X0162494Y0117150D01*
X0164593Y0117150D02*
X0177165Y0117150D01*
X0092380Y0117649D02*
X0001750Y0117649D01*
X0104984Y0117649D02*
X0111984Y0117649D01*
X0114984Y0117649D02*
X0121984Y0117649D01*
X0134984Y0117649D02*
X0142004Y0117649D01*
X0145004Y0117649D02*
X0154480Y0117649D01*
X0156299Y0117649D02*
X0156299Y0117649D01*
X0158119Y0117649D02*
X0161995Y0117649D01*
X0091939Y0118147D02*
X0001750Y0118147D01*
X0104984Y0118147D02*
X0111984Y0118147D01*
X0114984Y0118147D02*
X0121984Y0118147D01*
X0134984Y0118147D02*
X0142004Y0118147D01*
X0145004Y0118147D02*
X0154768Y0118147D01*
X0156299Y0118147D02*
X0156299Y0118147D01*
X0157830Y0118147D02*
X0161593Y0118147D01*
X0091618Y0118646D02*
X0001750Y0118646D01*
X0104984Y0118646D02*
X0111984Y0118646D01*
X0114984Y0118646D02*
X0121984Y0118646D01*
X0134984Y0118646D02*
X0137652Y0118646D01*
X0139514Y0118646D02*
X0142004Y0118646D01*
X0145004Y0118646D02*
X0155385Y0118646D01*
X0156299Y0118646D02*
X0156299Y0118646D01*
X0157213Y0118646D02*
X0161593Y0118646D01*
X0091411Y0119144D02*
X0001750Y0119144D01*
X0104984Y0119144D02*
X0111984Y0119144D01*
X0114984Y0119144D02*
X0121984Y0119144D01*
X0134984Y0119144D02*
X0137153Y0119144D01*
X0140012Y0119144D02*
X0142004Y0119144D01*
X0145004Y0119144D02*
X0155075Y0119144D01*
X0156299Y0119144D02*
X0156299Y0119144D01*
X0157523Y0119144D02*
X0161593Y0119144D01*
X0091250Y0119643D02*
X0001750Y0119643D01*
X0104984Y0119643D02*
X0111984Y0119643D01*
X0114984Y0119643D02*
X0121984Y0119643D01*
X0134984Y0119643D02*
X0136655Y0119643D01*
X0140511Y0119643D02*
X0142004Y0119643D01*
X0145004Y0119643D02*
X0154648Y0119643D01*
X0156299Y0119643D02*
X0156299Y0119643D01*
X0157951Y0119643D02*
X0161593Y0119643D01*
X0091250Y0120141D02*
X0001750Y0120141D01*
X0104984Y0120141D02*
X0111984Y0120141D01*
X0114984Y0120141D02*
X0121984Y0120141D01*
X0134984Y0120141D02*
X0136633Y0120141D01*
X0140533Y0120141D02*
X0142004Y0120141D01*
X0145004Y0120141D02*
X0154428Y0120141D01*
X0156299Y0120141D02*
X0156299Y0120141D01*
X0158170Y0120141D02*
X0161830Y0120141D01*
X0091250Y0120640D02*
X0001750Y0120640D01*
X0104984Y0120640D02*
X0111984Y0120640D01*
X0114984Y0120640D02*
X0121984Y0120640D01*
X0134984Y0120640D02*
X0136633Y0120640D01*
X0140533Y0120640D02*
X0142004Y0120640D01*
X0145004Y0120640D02*
X0154356Y0120640D01*
X0156299Y0120640D02*
X0156299Y0120640D01*
X0158243Y0120640D02*
X0161830Y0120640D01*
X0165730Y0120640D02*
X0175609Y0120640D01*
X0091381Y0121138D02*
X0001750Y0121138D01*
X0104984Y0121138D02*
X0111984Y0121138D01*
X0114984Y0121138D02*
X0121984Y0121138D01*
X0134984Y0121138D02*
X0136633Y0121138D01*
X0140533Y0121138D02*
X0142004Y0121138D01*
X0145004Y0121138D02*
X0154413Y0121138D01*
X0156299Y0121138D02*
X0156299Y0121138D01*
X0158186Y0121138D02*
X0161830Y0121138D01*
X0165730Y0121138D02*
X0175609Y0121138D01*
X0091588Y0121637D02*
X0001750Y0121637D01*
X0104984Y0121637D02*
X0111984Y0121637D01*
X0114984Y0121637D02*
X0121984Y0121637D01*
X0134984Y0121637D02*
X0136989Y0121637D01*
X0140176Y0121637D02*
X0142004Y0121637D01*
X0145004Y0121637D02*
X0154613Y0121637D01*
X0156299Y0121637D02*
X0156299Y0121637D01*
X0157985Y0121637D02*
X0161830Y0121637D01*
X0165730Y0121637D02*
X0175611Y0121637D01*
X0091786Y0122135D02*
X0001750Y0122135D01*
X0104984Y0122135D02*
X0111984Y0122135D01*
X0114984Y0122135D02*
X0121984Y0122135D01*
X0134984Y0122135D02*
X0137488Y0122135D01*
X0139678Y0122135D02*
X0142004Y0122135D01*
X0145004Y0122135D02*
X0155016Y0122135D01*
X0156299Y0122135D02*
X0156299Y0122135D01*
X0157582Y0122135D02*
X0162291Y0122135D01*
X0165268Y0122135D02*
X0176110Y0122135D01*
X0091287Y0122634D02*
X0001750Y0122634D01*
X0104984Y0122634D02*
X0111984Y0122634D01*
X0114984Y0122634D02*
X0121984Y0122634D01*
X0134984Y0122634D02*
X0142004Y0122634D01*
X0145004Y0122634D02*
X0162789Y0122634D01*
X0164770Y0122634D02*
X0176608Y0122634D01*
X0091250Y0123132D02*
X0001750Y0123132D01*
X0104984Y0123132D02*
X0111984Y0123132D01*
X0114984Y0123132D02*
X0121984Y0123132D01*
X0134984Y0123132D02*
X0142004Y0123132D01*
X0145004Y0123132D02*
X0177165Y0123132D01*
X0091250Y0123631D02*
X0001750Y0123631D01*
X0104984Y0123631D02*
X0111984Y0123631D01*
X0114984Y0123631D02*
X0121984Y0123631D01*
X0134984Y0123631D02*
X0142004Y0123631D01*
X0145004Y0123631D02*
X0177165Y0123631D01*
X0091250Y0124129D02*
X0001750Y0124129D01*
X0104984Y0124129D02*
X0111984Y0124129D01*
X0114984Y0124129D02*
X0121984Y0124129D01*
X0134984Y0124129D02*
X0142004Y0124129D01*
X0145004Y0124129D02*
X0177165Y0124129D01*
X0091250Y0124628D02*
X0001750Y0124628D01*
X0104984Y0124628D02*
X0111984Y0124628D01*
X0114984Y0124628D02*
X0121984Y0124628D01*
X0134984Y0124628D02*
X0142004Y0124628D01*
X0145004Y0124628D02*
X0177165Y0124628D01*
X0053336Y0125126D02*
X0001750Y0125126D01*
X0055640Y0125126D02*
X0091250Y0125126D01*
X0104984Y0125126D02*
X0111984Y0125126D01*
X0114984Y0125126D02*
X0121984Y0125126D01*
X0134984Y0125126D02*
X0142004Y0125126D01*
X0145004Y0125126D02*
X0163061Y0125126D01*
X0165286Y0125126D02*
X0177165Y0125126D01*
X0052838Y0125625D02*
X0001750Y0125625D01*
X0056138Y0125625D02*
X0091250Y0125625D01*
X0104984Y0125625D02*
X0111984Y0125625D01*
X0114984Y0125625D02*
X0121984Y0125625D01*
X0134984Y0125625D02*
X0142004Y0125625D01*
X0145004Y0125625D02*
X0162562Y0125625D01*
X0165784Y0125625D02*
X0177165Y0125625D01*
X0052538Y0126123D02*
X0001750Y0126123D01*
X0056438Y0126123D02*
X0091250Y0126123D01*
X0104984Y0126123D02*
X0111984Y0126123D01*
X0114984Y0126123D02*
X0121984Y0126123D01*
X0134984Y0126123D02*
X0142004Y0126123D01*
X0145004Y0126123D02*
X0162223Y0126123D01*
X0166123Y0126123D02*
X0177165Y0126123D01*
X0052538Y0126622D02*
X0001750Y0126622D01*
X0056438Y0126622D02*
X0091250Y0126622D01*
X0104984Y0126622D02*
X0111984Y0126622D01*
X0114984Y0126622D02*
X0121984Y0126622D01*
X0134984Y0126622D02*
X0142004Y0126622D01*
X0145004Y0126622D02*
X0162223Y0126622D01*
X0166123Y0126622D02*
X0177165Y0126622D01*
X0051539Y0127120D02*
X0001750Y0127120D01*
X0057673Y0127120D02*
X0091250Y0127120D01*
X0105184Y0127120D02*
X0106784Y0127120D01*
X0110184Y0127120D02*
X0111784Y0127120D01*
X0115184Y0127120D02*
X0116784Y0127120D01*
X0120184Y0127120D02*
X0121784Y0127120D01*
X0135184Y0127120D02*
X0136784Y0127120D01*
X0140184Y0127120D02*
X0141784Y0127120D01*
X0145184Y0127120D02*
X0146784Y0127120D01*
X0150184Y0127120D02*
X0151784Y0127120D01*
X0155184Y0127120D02*
X0162223Y0127120D01*
X0166123Y0127120D02*
X0177165Y0127120D01*
X0051041Y0127619D02*
X0001750Y0127619D01*
X0058172Y0127619D02*
X0091250Y0127619D01*
X0105761Y0127619D02*
X0106207Y0127619D01*
X0110761Y0127619D02*
X0111207Y0127619D01*
X0115761Y0127619D02*
X0116207Y0127619D01*
X0120761Y0127619D02*
X0121207Y0127619D01*
X0135761Y0127619D02*
X0136207Y0127619D01*
X0140761Y0127619D02*
X0141207Y0127619D01*
X0145761Y0127619D02*
X0146207Y0127619D01*
X0150761Y0127619D02*
X0151207Y0127619D01*
X0155761Y0127619D02*
X0162263Y0127619D01*
X0166084Y0127619D02*
X0177165Y0127619D01*
X0050542Y0128117D02*
X0001750Y0128117D01*
X0058407Y0128117D02*
X0091684Y0128117D01*
X0156242Y0128117D02*
X0162761Y0128117D01*
X0165585Y0128117D02*
X0177165Y0128117D01*
X0050530Y0128616D02*
X0001750Y0128616D01*
X0058407Y0128616D02*
X0095246Y0128616D01*
X0156449Y0128616D02*
X0163260Y0128616D01*
X0165087Y0128616D02*
X0177165Y0128616D01*
X0050530Y0129114D02*
X0001750Y0129114D01*
X0054430Y0129114D02*
X0054507Y0129114D01*
X0058407Y0129114D02*
X0095246Y0129114D01*
X0156655Y0129114D02*
X0177165Y0129114D01*
X0050530Y0129613D02*
X0001750Y0129613D01*
X0054430Y0129613D02*
X0054651Y0129613D01*
X0058263Y0129613D02*
X0095246Y0129613D01*
X0156722Y0129613D02*
X0177165Y0129613D01*
X0050897Y0130111D02*
X0001750Y0130111D01*
X0054064Y0130111D02*
X0055149Y0130111D01*
X0057764Y0130111D02*
X0095246Y0130111D01*
X0156722Y0130111D02*
X0177165Y0130111D01*
X0050984Y0130610D02*
X0001750Y0130610D01*
X0053984Y0130610D02*
X0055648Y0130610D01*
X0057266Y0130610D02*
X0095246Y0130610D01*
X0156704Y0130610D02*
X0177165Y0130610D01*
X0050985Y0131108D02*
X0001750Y0131108D01*
X0053985Y0131108D02*
X0095246Y0131108D01*
X0156497Y0131108D02*
X0177165Y0131108D01*
X0050986Y0131607D02*
X0001750Y0131607D01*
X0053986Y0131607D02*
X0095246Y0131607D01*
X0156291Y0131607D02*
X0177165Y0131607D01*
X0050987Y0132105D02*
X0001750Y0132105D01*
X0053987Y0132105D02*
X0095246Y0132105D01*
X0105879Y0132105D02*
X0106089Y0132105D01*
X0110879Y0132105D02*
X0111089Y0132105D01*
X0115879Y0132105D02*
X0116089Y0132105D01*
X0150879Y0132105D02*
X0151089Y0132105D01*
X0155879Y0132105D02*
X0177165Y0132105D01*
X0050988Y0132604D02*
X0001750Y0132604D01*
X0053988Y0132604D02*
X0095423Y0132604D01*
X0101546Y0132604D02*
X0101588Y0132604D01*
X0105381Y0132604D02*
X0106588Y0132604D01*
X0110381Y0132604D02*
X0111588Y0132604D01*
X0115381Y0132604D02*
X0116588Y0132604D01*
X0150381Y0132604D02*
X0151588Y0132604D01*
X0155381Y0132604D02*
X0177165Y0132604D01*
X0050989Y0133103D02*
X0001750Y0133103D01*
X0053989Y0133103D02*
X0095921Y0133103D01*
X0101047Y0133103D02*
X0102703Y0133103D01*
X0104266Y0133103D02*
X0107703Y0133103D01*
X0109266Y0133103D02*
X0112703Y0133103D01*
X0114266Y0133103D02*
X0117004Y0133103D01*
X0149984Y0133103D02*
X0151984Y0133103D01*
X0154984Y0133103D02*
X0177165Y0133103D01*
X0050990Y0133601D02*
X0001750Y0133601D01*
X0053989Y0133601D02*
X0117004Y0133601D01*
X0149984Y0133601D02*
X0151984Y0133601D01*
X0154984Y0133601D02*
X0177165Y0133601D01*
X0050991Y0134100D02*
X0001750Y0134100D01*
X0053990Y0134100D02*
X0117004Y0134100D01*
X0149984Y0134100D02*
X0151984Y0134100D01*
X0154984Y0134100D02*
X0177165Y0134100D01*
X0050991Y0134598D02*
X0001750Y0134598D01*
X0053991Y0134598D02*
X0117004Y0134598D01*
X0149984Y0134598D02*
X0151984Y0134598D01*
X0154984Y0134598D02*
X0177165Y0134598D01*
X0050992Y0135097D02*
X0001750Y0135097D01*
X0053992Y0135097D02*
X0117004Y0135097D01*
X0149984Y0135097D02*
X0151984Y0135097D01*
X0154984Y0135097D02*
X0177165Y0135097D01*
X0050993Y0135595D02*
X0001750Y0135595D01*
X0053993Y0135595D02*
X0117004Y0135595D01*
X0149984Y0135595D02*
X0151984Y0135595D01*
X0154984Y0135595D02*
X0177165Y0135595D01*
X0050994Y0136094D02*
X0001750Y0136094D01*
X0053994Y0136094D02*
X0117004Y0136094D01*
X0149984Y0136094D02*
X0151984Y0136094D01*
X0154984Y0136094D02*
X0177165Y0136094D01*
X0050995Y0136592D02*
X0001750Y0136592D01*
X0053995Y0136592D02*
X0117004Y0136592D01*
X0149761Y0136592D02*
X0151984Y0136592D01*
X0154984Y0136592D02*
X0177165Y0136592D01*
X0050996Y0137091D02*
X0001750Y0137091D01*
X0053996Y0137091D02*
X0117004Y0137091D01*
X0149263Y0137091D02*
X0151984Y0137091D01*
X0154984Y0137091D02*
X0177165Y0137091D01*
X0050997Y0137589D02*
X0001750Y0137589D01*
X0053997Y0137589D02*
X0117004Y0137589D01*
X0139571Y0137589D02*
X0151984Y0137589D01*
X0154984Y0137589D02*
X0177165Y0137589D01*
X0050998Y0138088D02*
X0001750Y0138088D01*
X0053998Y0138088D02*
X0117004Y0138088D01*
X0139571Y0138088D02*
X0151984Y0138088D01*
X0154984Y0138088D02*
X0177165Y0138088D01*
X0050999Y0138586D02*
X0001750Y0138586D01*
X0053999Y0138586D02*
X0117004Y0138586D01*
X0139571Y0138586D02*
X0151984Y0138586D01*
X0154984Y0138586D02*
X0177165Y0138586D01*
X0051000Y0139085D02*
X0001750Y0139085D01*
X0054000Y0139085D02*
X0117004Y0139085D01*
X0139571Y0139085D02*
X0151984Y0139085D01*
X0154984Y0139085D02*
X0177165Y0139085D01*
X0051001Y0139583D02*
X0001750Y0139583D01*
X0054001Y0139583D02*
X0117004Y0139583D01*
X0139571Y0139583D02*
X0151984Y0139583D01*
X0154984Y0139583D02*
X0177165Y0139583D01*
X0051002Y0140082D02*
X0001750Y0140082D01*
X0054002Y0140082D02*
X0117004Y0140082D01*
X0139571Y0140082D02*
X0151984Y0140082D01*
X0154984Y0140082D02*
X0177165Y0140082D01*
X0051003Y0140580D02*
X0001750Y0140580D01*
X0054003Y0140580D02*
X0117004Y0140580D01*
X0139571Y0140580D02*
X0151984Y0140580D01*
X0154984Y0140580D02*
X0177165Y0140580D01*
X0051004Y0141079D02*
X0001750Y0141079D01*
X0054004Y0141079D02*
X0117004Y0141079D01*
X0139571Y0141079D02*
X0151984Y0141079D01*
X0154984Y0141079D02*
X0177165Y0141079D01*
X0051005Y0141577D02*
X0001750Y0141577D01*
X0054005Y0141577D02*
X0117004Y0141577D01*
X0139571Y0141577D02*
X0151984Y0141577D01*
X0154984Y0141577D02*
X0177165Y0141577D01*
X0006750Y0142076D02*
X0001750Y0142076D01*
X0008998Y0142076D02*
X0051006Y0142076D01*
X0054006Y0142076D02*
X0117004Y0142076D01*
X0139571Y0142076D02*
X0151984Y0142076D01*
X0154984Y0142076D02*
X0177165Y0142076D01*
X0005666Y0142574D02*
X0001750Y0142574D01*
X0010082Y0142574D02*
X0051007Y0142574D01*
X0054007Y0142574D02*
X0117004Y0142574D01*
X0139571Y0142574D02*
X0151984Y0142574D01*
X0154984Y0142574D02*
X0177165Y0142574D01*
X0005167Y0143073D02*
X0001750Y0143073D01*
X0010581Y0143073D02*
X0051008Y0143073D01*
X0054008Y0143073D02*
X0117004Y0143073D01*
X0139571Y0143073D02*
X0151984Y0143073D01*
X0154984Y0143073D02*
X0177165Y0143073D01*
X0004684Y0143571D02*
X0001750Y0143571D01*
X0011064Y0143571D02*
X0051009Y0143571D01*
X0054009Y0143571D02*
X0117004Y0143571D01*
X0139571Y0143571D02*
X0151984Y0143571D01*
X0154984Y0143571D02*
X0177165Y0143571D01*
X0004478Y0144070D02*
X0001750Y0144070D01*
X0011270Y0144070D02*
X0051010Y0144070D01*
X0054010Y0144070D02*
X0117004Y0144070D01*
X0139571Y0144070D02*
X0151984Y0144070D01*
X0154984Y0144070D02*
X0177165Y0144070D01*
X0004271Y0144568D02*
X0001750Y0144568D01*
X0011477Y0144568D02*
X0051011Y0144568D01*
X0054011Y0144568D02*
X0117004Y0144568D01*
X0139571Y0144568D02*
X0151984Y0144568D01*
X0154984Y0144568D02*
X0177165Y0144568D01*
X0004124Y0145067D02*
X0001750Y0145067D01*
X0011624Y0145067D02*
X0051012Y0145067D01*
X0054012Y0145067D02*
X0117004Y0145067D01*
X0139571Y0145067D02*
X0151984Y0145067D01*
X0154984Y0145067D02*
X0177165Y0145067D01*
X0004124Y0145565D02*
X0001750Y0145565D01*
X0011624Y0145565D02*
X0051013Y0145565D01*
X0054013Y0145565D02*
X0117004Y0145565D01*
X0139571Y0145565D02*
X0151984Y0145565D01*
X0154984Y0145565D02*
X0177165Y0145565D01*
X0004124Y0146064D02*
X0001750Y0146064D01*
X0011624Y0146064D02*
X0051014Y0146064D01*
X0054014Y0146064D02*
X0117004Y0146064D01*
X0139571Y0146064D02*
X0151984Y0146064D01*
X0154984Y0146064D02*
X0177165Y0146064D01*
X0004185Y0146562D02*
X0001750Y0146562D01*
X0011563Y0146562D02*
X0051015Y0146562D01*
X0054015Y0146562D02*
X0117004Y0146562D01*
X0139571Y0146562D02*
X0151984Y0146562D01*
X0154984Y0146562D02*
X0177165Y0146562D01*
X0004391Y0147061D02*
X0001750Y0147061D01*
X0011357Y0147061D02*
X0051016Y0147061D01*
X0054016Y0147061D02*
X0117004Y0147061D01*
X0139571Y0147061D02*
X0151984Y0147061D01*
X0154984Y0147061D02*
X0177165Y0147061D01*
X0004598Y0147559D02*
X0001750Y0147559D01*
X0011150Y0147559D02*
X0051017Y0147559D01*
X0054017Y0147559D02*
X0117004Y0147559D01*
X0139571Y0147559D02*
X0151888Y0147559D01*
X0155041Y0147559D02*
X0177165Y0147559D01*
X0004959Y0148058D02*
X0001750Y0148058D01*
X0010789Y0148058D02*
X0050602Y0148058D01*
X0054438Y0148058D02*
X0117004Y0148058D01*
X0139571Y0148058D02*
X0151515Y0148058D01*
X0155415Y0148058D02*
X0177165Y0148058D01*
X0005458Y0148556D02*
X0001750Y0148556D01*
X0010290Y0148556D02*
X0050570Y0148556D01*
X0054470Y0148556D02*
X0055773Y0148556D01*
X0057613Y0148556D02*
X0117004Y0148556D01*
X0139571Y0148556D02*
X0151515Y0148556D01*
X0155415Y0148556D02*
X0177165Y0148556D01*
X0006248Y0149055D02*
X0001750Y0149055D01*
X0009500Y0149055D02*
X0050570Y0149055D01*
X0054470Y0149055D02*
X0055274Y0149055D01*
X0058112Y0149055D02*
X0117004Y0149055D01*
X0139571Y0149055D02*
X0151515Y0149055D01*
X0155415Y0149055D02*
X0177165Y0149055D01*
X0050570Y0149553D02*
X0001750Y0149553D01*
X0054470Y0149553D02*
X0054775Y0149553D01*
X0058610Y0149553D02*
X0116665Y0149553D01*
X0139571Y0149553D02*
X0151520Y0149553D01*
X0155409Y0149553D02*
X0177165Y0149553D01*
X0050916Y0150052D02*
X0001750Y0150052D01*
X0058643Y0150052D02*
X0116554Y0150052D01*
X0139571Y0150052D02*
X0152019Y0150052D01*
X0154911Y0150052D02*
X0177165Y0150052D01*
X0051415Y0150550D02*
X0001750Y0150550D01*
X0058643Y0150550D02*
X0116554Y0150550D01*
X0139571Y0150550D02*
X0152517Y0150550D01*
X0154412Y0150550D02*
X0177165Y0150550D01*
X0052886Y0151049D02*
X0001750Y0151049D01*
X0058643Y0151049D02*
X0116554Y0151049D01*
X0125145Y0151049D02*
X0134349Y0151049D01*
X0139571Y0151049D02*
X0177165Y0151049D01*
X0052774Y0151547D02*
X0001750Y0151547D01*
X0058297Y0151547D02*
X0116821Y0151547D01*
X0125644Y0151547D02*
X0134349Y0151547D01*
X0139571Y0151547D02*
X0177165Y0151547D01*
X0052774Y0152046D02*
X0001750Y0152046D01*
X0057798Y0152046D02*
X0117320Y0152046D01*
X0126142Y0152046D02*
X0134349Y0152046D01*
X0139571Y0152046D02*
X0177165Y0152046D01*
X0052774Y0152544D02*
X0001756Y0152544D01*
X0056674Y0152544D02*
X0119051Y0152544D01*
X0126202Y0152544D02*
X0134349Y0152544D01*
X0139419Y0152544D02*
X0177165Y0152544D01*
X0053041Y0153043D02*
X0001805Y0153043D01*
X0056408Y0153043D02*
X0119051Y0153043D01*
X0126202Y0153043D02*
X0134813Y0153043D01*
X0138921Y0153043D02*
X0177165Y0153043D01*
X0053540Y0153541D02*
X0001989Y0153541D01*
X0055909Y0153541D02*
X0119058Y0153541D01*
X0126202Y0153541D02*
X0135311Y0153541D01*
X0137287Y0153541D02*
X0177165Y0153541D01*
X0119556Y0154040D02*
X0002196Y0154040D01*
X0125883Y0154040D02*
X0177165Y0154040D01*
X0123119Y0154539D02*
X0002550Y0154539D01*
X0125385Y0154539D02*
X0177165Y0154539D01*
X0177165Y0155037D02*
X0003049Y0155037D01*
X0004046Y0155536D02*
X0177165Y0155536D01*
X0133858Y0093504D02*
X0133858Y0091929D01*
X0154528Y0091929D01*
X0154528Y0089567D01*
X0128740Y0016929D02*
X0124803Y0016969D01*
X0139764Y0071850D02*
X0139764Y0070866D01*
X0134646Y0065748D01*
X0134646Y0041732D01*
X0139764Y0036614D01*
X0147244Y0036614D01*
X0152756Y0031102D01*
X0137205Y0043406D02*
X0137205Y0060827D01*
X0141732Y0071850D02*
X0141732Y0069291D01*
X0136614Y0064173D01*
X0136614Y0061417D01*
X0137205Y0060827D01*
X0169291Y0008346D02*
X0169291Y0008268D01*
X0173228Y0012205D01*
X0173228Y0033465D01*
X0167717Y0038976D01*
X0166142Y0038976D01*
X0159252Y0044685D02*
X0147638Y0056299D01*
X0147638Y0071850D01*
X0145669Y0071850D02*
X0145669Y0066142D01*
X0142913Y0063386D01*
X0138346Y0063465D01*
X0143701Y0066240D02*
X0143701Y0071850D01*
X0137795Y0093504D02*
X0137795Y0095669D01*
X0103484Y0095669D01*
X0103484Y0129921D01*
X0130906Y0086614D02*
X0100984Y0086614D01*
X0100984Y0120177D01*
X0094488Y0120177D01*
X0130906Y0084646D02*
X0099803Y0084646D01*
X0099803Y0110177D01*
X0094488Y0110177D01*
X0130906Y0082677D02*
X0098622Y0082677D01*
X0098622Y0100177D01*
X0094488Y0100177D01*
X0130906Y0080709D02*
X0097441Y0080709D01*
X0097441Y0090177D01*
X0094488Y0090177D01*
X0130906Y0078740D02*
X0096220Y0078740D01*
X0096220Y0080177D01*
X0094488Y0080177D01*
X0137795Y0071850D02*
X0137795Y0071260D01*
X0126713Y0060177D01*
X0094488Y0060177D01*
X0139764Y0093504D02*
X0139764Y0097244D01*
X0113484Y0097244D01*
X0113484Y0129921D01*
X0145669Y0093504D02*
X0145669Y0102165D01*
X0143504Y0102165D01*
X0143504Y0129921D01*
X0148484Y0101969D02*
X0147638Y0101969D01*
X0147638Y0093504D01*
X0152559Y0074803D02*
X0157874Y0074803D01*
X0171260Y0061417D01*
X0171260Y0037992D01*
X0177165Y0032087D01*
X0174134Y0062520D02*
X0157913Y0078740D01*
X0152559Y0078740D01*
X0174134Y0062520D02*
X0174134Y0053031D01*
X0175079Y0052087D01*
X0177165Y0052087D01*
X0152559Y0076772D02*
X0157874Y0076772D01*
X0172835Y0061811D01*
X0172835Y0046417D01*
X0177165Y0042087D01*
X0052480Y0128937D02*
X0052520Y0148898D01*
X0163543Y0118858D02*
X0177559Y0118858D01*
X0177559Y0120827D01*
X0118504Y0150472D02*
X0118504Y0129921D01*
X0118484Y0129921D01*
X0148484Y0129921D02*
X0148484Y0135748D01*
X0138071Y0135748D01*
X0138071Y0151772D01*
X0136299Y0151772D01*
X0141732Y0093504D02*
X0141732Y0098819D01*
X0123484Y0098819D01*
X0123484Y0129921D01*
X0153465Y0148740D02*
X0153484Y0148740D01*
X0153484Y0129921D01*
X0143701Y0093504D02*
X0143701Y0100197D01*
X0133484Y0100197D01*
X0133484Y0129921D01*
X0124252Y0152913D02*
X0120551Y0152913D01*
X0120551Y0133071D01*
X0143484Y0133071D01*
X0143484Y0129921D01*
X0121260Y0058661D02*
X0121260Y0053543D01*
D19*
X0106299Y0020866D03*
X0135433Y0020079D03*
X0099646Y0143228D03*
X0067323Y0027559D03*
X0048031Y0114567D03*
X0174803Y0071654D03*
X0174803Y0076378D03*
X0111417Y0021417D03*
X0129764Y0020866D03*
X0068386Y0054724D03*
X0074291Y0054724D03*
X0062441Y0054724D03*
D20*
X0020866Y0050354D02*
X0014961Y0050354D01*
X0014961Y0034646D01*
X0068386Y0034646D01*
X0068386Y0054724D01*
X0020866Y0060354D02*
X0011417Y0060354D01*
X0011417Y0031102D01*
X0074291Y0031102D01*
X0074291Y0054724D01*
X0020866Y0040354D02*
X0062441Y0040354D01*
X0062441Y0054724D01*
M02*
