G75*
%MOIN*%
%OFA0B0*%
%FSLAX25Y25*%
%IPPOS*%
%LPD*%
%AMOC8*
5,1,8,0,0,1.08239X$1,22.5*
%
%ADD10C,0.01000*%
%ADD11C,0.01083*%
%ADD12R,0.19094X0.19094*%
%ADD13R,0.02362X0.01969*%
%ADD14R,0.01969X0.02362*%
%ADD15R,0.06100X0.02600*%
%ADD16R,0.02362X0.03543*%
%ADD17R,0.03900X0.01000*%
%ADD18R,0.01000X0.03900*%
%ADD19R,0.05700X0.05700*%
%ADD20R,0.04500X0.04500*%
%ADD21C,0.04500*%
%ADD22R,0.04000X0.01700*%
%ADD23R,0.13800X0.17300*%
%ADD24R,0.03976X0.03976*%
%ADD25C,0.03976*%
%ADD26R,0.02362X0.00984*%
%ADD27R,0.00984X0.02362*%
%ADD28R,0.14567X0.22441*%
%ADD29C,0.00039*%
%ADD30R,0.00984X0.02756*%
%ADD31R,0.02756X0.00984*%
%ADD32R,0.01969X0.01969*%
%ADD33R,0.04429X0.04429*%
%ADD34R,0.01476X0.01476*%
%ADD35C,0.00217*%
%ADD36R,0.09843X0.03543*%
%ADD37R,0.02756X0.05118*%
%ADD38R,0.10050X0.13000*%
%ADD39R,0.05118X0.02756*%
%ADD40R,0.03543X0.02362*%
%ADD41C,0.00074*%
%ADD42R,0.03307X0.09449*%
%ADD43C,0.01387*%
%ADD44R,0.04724X0.05787*%
%ADD45R,0.02750X0.05500*%
%ADD46C,0.01575*%
%ADD47R,0.03150X0.03543*%
%ADD48R,0.02400X0.04500*%
%ADD49R,0.01200X0.04500*%
%ADD50R,0.08500X0.07900*%
%ADD51R,0.01200X0.03200*%
%ADD52R,0.00500X0.00500*%
%ADD53C,0.00100*%
%ADD54R,0.00984X0.01969*%
%ADD55R,0.06299X0.03543*%
%ADD56R,0.01969X0.00984*%
%ADD57R,0.03543X0.06299*%
%ADD58R,0.06450X0.06450*%
%ADD59C,0.06450*%
%ADD60C,0.01400*%
%ADD61C,0.00500*%
%ADD62C,0.03543*%
%ADD63C,0.01600*%
%ADD64C,0.01000*%
D10*
X0136811Y0095472D03*
X0138780Y0095472D03*
X0140748Y0095472D03*
X0142717Y0095472D03*
X0144685Y0095472D03*
X0146654Y0095472D03*
X0148622Y0095472D03*
X0150591Y0095472D03*
X0152559Y0095472D03*
X0128937Y0093504D03*
X0137795Y0093504D03*
X0139764Y0093504D03*
X0141732Y0093504D03*
X0143701Y0093504D03*
X0145669Y0093504D03*
X0147638Y0093504D03*
X0154528Y0093504D03*
X0128937Y0091535D03*
X0130906Y0090551D03*
X0152559Y0090551D03*
X0154528Y0089567D03*
X0130906Y0088583D03*
X0152559Y0088583D03*
X0128937Y0087598D03*
X0130906Y0086614D03*
X0152559Y0086614D03*
X0128937Y0085630D03*
X0154528Y0085630D03*
X0130906Y0084646D03*
X0128937Y0083661D03*
X0154528Y0083661D03*
X0130906Y0082677D03*
X0128937Y0081693D03*
X0154528Y0081693D03*
X0130906Y0080709D03*
X0152559Y0080709D03*
X0128937Y0079724D03*
X0154528Y0079724D03*
X0130906Y0078740D03*
X0152559Y0078740D03*
X0128937Y0077756D03*
X0154528Y0077756D03*
X0152559Y0076772D03*
X0128937Y0075787D03*
X0154528Y0075787D03*
X0130906Y0074803D03*
X0152559Y0074803D03*
X0154528Y0073819D03*
X0130906Y0072835D03*
X0133858Y0071850D03*
X0137795Y0071850D03*
X0139764Y0071850D03*
X0141732Y0071850D03*
X0143701Y0071850D03*
X0145669Y0071850D03*
X0147638Y0071850D03*
X0149606Y0071850D03*
X0154528Y0071850D03*
X0130906Y0069882D03*
X0132874Y0069882D03*
X0134843Y0069882D03*
X0136811Y0069882D03*
X0138780Y0069882D03*
X0140748Y0069882D03*
X0142717Y0069882D03*
X0144685Y0069882D03*
X0146654Y0069882D03*
X0148622Y0069882D03*
X0150591Y0069882D03*
X0152559Y0069882D03*
D11*
X0131890Y0093504D03*
X0133858Y0093504D03*
X0135827Y0093504D03*
D12*
X0141732Y0082677D03*
D13*
X0177165Y0099803D03*
X0177165Y0104134D03*
X0161609Y0104134D03*
X0161609Y0099803D03*
X0160126Y0087457D03*
X0160126Y0091787D03*
X0178665Y0087417D03*
X0178665Y0091748D03*
X0127505Y0049096D03*
X0127505Y0044766D03*
X0150984Y0101417D03*
X0150984Y0105748D03*
X0106299Y0113752D03*
X0106299Y0118083D03*
X0155709Y0101417D03*
X0155709Y0105748D03*
X0112012Y0113776D03*
X0112012Y0118106D03*
X0116843Y0113776D03*
X0116843Y0118106D03*
X0105709Y0099354D03*
X0105709Y0103685D03*
X0111626Y0099354D03*
X0111626Y0103685D03*
X0173969Y0087417D03*
X0173969Y0091748D03*
X0138760Y0117126D03*
X0138760Y0112795D03*
X0037638Y0147795D03*
X0037638Y0143465D03*
X0037598Y0133937D03*
X0037598Y0138268D03*
X0047362Y0064252D03*
X0047362Y0068583D03*
X0051181Y0080394D03*
X0051181Y0084724D03*
X0082205Y0065335D03*
X0082205Y0069665D03*
X0052972Y0073602D03*
X0052972Y0069272D03*
X0047362Y0059134D03*
X0047362Y0054803D03*
X0082205Y0060217D03*
X0082205Y0055886D03*
X0110827Y0142717D03*
X0110827Y0138386D03*
X0140256Y0148524D03*
X0140256Y0144193D03*
X0117126Y0142677D03*
X0117126Y0138346D03*
X0116850Y0037205D03*
X0116850Y0041535D03*
X0175039Y0138228D03*
X0175039Y0142559D03*
D14*
X0120669Y0092787D03*
X0116339Y0092787D03*
X0110760Y0075591D03*
X0106429Y0075591D03*
G36*
X0162301Y0080523D02*
X0163692Y0079132D01*
X0162023Y0077463D01*
X0160632Y0078854D01*
X0162301Y0080523D01*
G37*
G36*
X0165363Y0077460D02*
X0166754Y0076069D01*
X0165085Y0074400D01*
X0163694Y0075791D01*
X0165363Y0077460D01*
G37*
X0164835Y0092126D03*
X0169165Y0092126D03*
X0139173Y0104921D03*
X0134843Y0104921D03*
X0120669Y0097630D03*
X0116339Y0097630D03*
X0110760Y0069791D03*
X0106429Y0069791D03*
X0110760Y0064260D03*
X0106429Y0064260D03*
X0107256Y0108748D03*
X0111587Y0108748D03*
X0164803Y0087425D03*
X0169134Y0087425D03*
X0037520Y0123819D03*
X0041850Y0123819D03*
X0041850Y0118898D03*
X0037520Y0118898D03*
X0082106Y0094291D03*
X0077776Y0094291D03*
X0167520Y0126969D03*
X0171850Y0126969D03*
X0148031Y0112894D03*
X0143701Y0112894D03*
X0167520Y0109252D03*
X0163189Y0109252D03*
X0103976Y0057402D03*
X0099646Y0057402D03*
X0150000Y0143346D03*
X0145669Y0143346D03*
X0055630Y0104094D03*
X0059961Y0104094D03*
X0055630Y0099213D03*
X0059961Y0099213D03*
X0055630Y0094252D03*
X0059961Y0094252D03*
X0065079Y0094291D03*
X0069409Y0094291D03*
X0065079Y0099213D03*
X0069409Y0099213D03*
X0065079Y0104094D03*
X0069409Y0104094D03*
D15*
X0187008Y0087393D03*
X0187008Y0098591D03*
D16*
X0116866Y0108276D03*
X0122772Y0108276D03*
X0167441Y0114764D03*
X0173346Y0114764D03*
X0105315Y0050787D03*
X0111220Y0050787D03*
X0109606Y0057165D03*
X0115512Y0057165D03*
X0150000Y0137795D03*
X0144094Y0137795D03*
D17*
X0159532Y0016811D03*
X0159532Y0018780D03*
X0159532Y0020748D03*
X0148421Y0020748D03*
X0148421Y0018780D03*
X0148421Y0016811D03*
D18*
X0156929Y0024335D03*
X0154961Y0024335D03*
X0152992Y0024335D03*
X0151024Y0024335D03*
X0151024Y0013224D03*
X0152992Y0013224D03*
X0154961Y0013224D03*
X0156929Y0013224D03*
D19*
X0153976Y0018780D03*
D20*
X0169291Y0003346D03*
X0177165Y0057087D03*
D21*
X0169291Y0008346D03*
X0169291Y0013346D03*
X0169291Y0018346D03*
X0169291Y0023346D03*
X0169291Y0028346D03*
X0177165Y0052087D03*
X0177165Y0047087D03*
X0177165Y0042087D03*
X0177165Y0037087D03*
X0177165Y0032087D03*
D22*
X0162704Y0038979D03*
X0162704Y0043979D03*
X0162704Y0048979D03*
X0162704Y0053979D03*
X0131604Y0053979D03*
X0131604Y0048979D03*
X0131604Y0043979D03*
X0131604Y0038979D03*
D23*
X0147154Y0046479D03*
D24*
X0094488Y0125177D03*
X0098484Y0129921D03*
D25*
X0094488Y0120177D03*
X0094488Y0115177D03*
X0094488Y0110177D03*
X0094488Y0105177D03*
X0094488Y0100177D03*
X0094488Y0095177D03*
X0094488Y0090177D03*
X0094488Y0085177D03*
X0094488Y0080177D03*
X0094488Y0075177D03*
X0094488Y0070177D03*
X0094488Y0065177D03*
X0094488Y0060177D03*
X0094488Y0055177D03*
X0094488Y0050177D03*
X0094488Y0045177D03*
X0094488Y0040177D03*
X0103484Y0129921D03*
X0108484Y0129921D03*
X0113484Y0129921D03*
X0118484Y0129921D03*
X0123484Y0129921D03*
X0128484Y0129921D03*
X0133484Y0129921D03*
X0138484Y0129921D03*
X0143484Y0129921D03*
X0148484Y0129921D03*
X0153484Y0129921D03*
D26*
X0058839Y0082343D03*
X0058839Y0080374D03*
X0058839Y0078406D03*
X0058839Y0076437D03*
X0058839Y0074469D03*
X0058839Y0072500D03*
X0058839Y0070531D03*
X0058839Y0068563D03*
X0058839Y0066594D03*
X0058839Y0064626D03*
X0058839Y0062657D03*
X0058839Y0060689D03*
X0077736Y0060689D03*
X0077736Y0062657D03*
X0077736Y0064626D03*
X0077736Y0066594D03*
X0077736Y0068563D03*
X0077736Y0070531D03*
X0077736Y0072500D03*
X0077736Y0074469D03*
X0077736Y0076437D03*
X0077736Y0078406D03*
X0077736Y0080374D03*
X0077736Y0082343D03*
D27*
X0061398Y0058130D03*
X0063366Y0058130D03*
X0065335Y0058130D03*
X0067303Y0058130D03*
X0069272Y0058130D03*
X0071240Y0058130D03*
X0073209Y0058130D03*
X0075177Y0058130D03*
X0075177Y0084902D03*
X0073209Y0084902D03*
X0071240Y0084902D03*
X0069272Y0084902D03*
X0067303Y0084902D03*
X0065335Y0084902D03*
X0063366Y0084902D03*
X0061398Y0084902D03*
D28*
X0068287Y0071516D03*
D29*
X0051142Y0138425D02*
X0051142Y0133996D01*
X0047827Y0133996D01*
X0046713Y0135110D01*
X0046713Y0138425D01*
X0051142Y0138425D01*
X0051142Y0134024D02*
X0047798Y0134024D01*
X0047761Y0134062D02*
X0051142Y0134062D01*
X0051142Y0134100D02*
X0047723Y0134100D01*
X0047685Y0134138D02*
X0051142Y0134138D01*
X0051142Y0134176D02*
X0047647Y0134176D01*
X0047609Y0134214D02*
X0051142Y0134214D01*
X0051142Y0134252D02*
X0047571Y0134252D01*
X0047533Y0134290D02*
X0051142Y0134290D01*
X0051142Y0134327D02*
X0047495Y0134327D01*
X0047458Y0134365D02*
X0051142Y0134365D01*
X0051142Y0134403D02*
X0047420Y0134403D01*
X0047382Y0134441D02*
X0051142Y0134441D01*
X0051142Y0134479D02*
X0047344Y0134479D01*
X0047306Y0134517D02*
X0051142Y0134517D01*
X0051142Y0134555D02*
X0047268Y0134555D01*
X0047230Y0134593D02*
X0051142Y0134593D01*
X0051142Y0134630D02*
X0047192Y0134630D01*
X0047154Y0134668D02*
X0051142Y0134668D01*
X0051142Y0134706D02*
X0047117Y0134706D01*
X0047079Y0134744D02*
X0051142Y0134744D01*
X0051142Y0134782D02*
X0047041Y0134782D01*
X0047003Y0134820D02*
X0051142Y0134820D01*
X0051142Y0134858D02*
X0046965Y0134858D01*
X0046927Y0134896D02*
X0051142Y0134896D01*
X0051142Y0134934D02*
X0046889Y0134934D01*
X0046851Y0134971D02*
X0051142Y0134971D01*
X0051142Y0135009D02*
X0046814Y0135009D01*
X0046776Y0135047D02*
X0051142Y0135047D01*
X0051142Y0135085D02*
X0046738Y0135085D01*
X0046713Y0135123D02*
X0051142Y0135123D01*
X0051142Y0135161D02*
X0046713Y0135161D01*
X0046713Y0135199D02*
X0051142Y0135199D01*
X0051142Y0135237D02*
X0046713Y0135237D01*
X0046713Y0135274D02*
X0051142Y0135274D01*
X0051142Y0135312D02*
X0046713Y0135312D01*
X0046713Y0135350D02*
X0051142Y0135350D01*
X0051142Y0135388D02*
X0046713Y0135388D01*
X0046713Y0135426D02*
X0051142Y0135426D01*
X0051142Y0135464D02*
X0046713Y0135464D01*
X0046713Y0135502D02*
X0051142Y0135502D01*
X0051142Y0135540D02*
X0046713Y0135540D01*
X0046713Y0135578D02*
X0051142Y0135578D01*
X0051142Y0135615D02*
X0046713Y0135615D01*
X0046713Y0135653D02*
X0051142Y0135653D01*
X0051142Y0135691D02*
X0046713Y0135691D01*
X0046713Y0135729D02*
X0051142Y0135729D01*
X0051142Y0135767D02*
X0046713Y0135767D01*
X0046713Y0135805D02*
X0051142Y0135805D01*
X0051142Y0135843D02*
X0046713Y0135843D01*
X0046713Y0135881D02*
X0051142Y0135881D01*
X0051142Y0135918D02*
X0046713Y0135918D01*
X0046713Y0135956D02*
X0051142Y0135956D01*
X0051142Y0135994D02*
X0046713Y0135994D01*
X0046713Y0136032D02*
X0051142Y0136032D01*
X0051142Y0136070D02*
X0046713Y0136070D01*
X0046713Y0136108D02*
X0051142Y0136108D01*
X0051142Y0136146D02*
X0046713Y0136146D01*
X0046713Y0136184D02*
X0051142Y0136184D01*
X0051142Y0136222D02*
X0046713Y0136222D01*
X0046713Y0136259D02*
X0051142Y0136259D01*
X0051142Y0136297D02*
X0046713Y0136297D01*
X0046713Y0136335D02*
X0051142Y0136335D01*
X0051142Y0136373D02*
X0046713Y0136373D01*
X0046713Y0136411D02*
X0051142Y0136411D01*
X0051142Y0136449D02*
X0046713Y0136449D01*
X0046713Y0136487D02*
X0051142Y0136487D01*
X0051142Y0136525D02*
X0046713Y0136525D01*
X0046713Y0136562D02*
X0051142Y0136562D01*
X0051142Y0136600D02*
X0046713Y0136600D01*
X0046713Y0136638D02*
X0051142Y0136638D01*
X0051142Y0136676D02*
X0046713Y0136676D01*
X0046713Y0136714D02*
X0051142Y0136714D01*
X0051142Y0136752D02*
X0046713Y0136752D01*
X0046713Y0136790D02*
X0051142Y0136790D01*
X0051142Y0136828D02*
X0046713Y0136828D01*
X0046713Y0136865D02*
X0051142Y0136865D01*
X0051142Y0136903D02*
X0046713Y0136903D01*
X0046713Y0136941D02*
X0051142Y0136941D01*
X0051142Y0136979D02*
X0046713Y0136979D01*
X0046713Y0137017D02*
X0051142Y0137017D01*
X0051142Y0137055D02*
X0046713Y0137055D01*
X0046713Y0137093D02*
X0051142Y0137093D01*
X0051142Y0137131D02*
X0046713Y0137131D01*
X0046713Y0137169D02*
X0051142Y0137169D01*
X0051142Y0137206D02*
X0046713Y0137206D01*
X0046713Y0137244D02*
X0051142Y0137244D01*
X0051142Y0137282D02*
X0046713Y0137282D01*
X0046713Y0137320D02*
X0051142Y0137320D01*
X0051142Y0137358D02*
X0046713Y0137358D01*
X0046713Y0137396D02*
X0051142Y0137396D01*
X0051142Y0137434D02*
X0046713Y0137434D01*
X0046713Y0137472D02*
X0051142Y0137472D01*
X0051142Y0137509D02*
X0046713Y0137509D01*
X0046713Y0137547D02*
X0051142Y0137547D01*
X0051142Y0137585D02*
X0046713Y0137585D01*
X0046713Y0137623D02*
X0051142Y0137623D01*
X0051142Y0137661D02*
X0046713Y0137661D01*
X0046713Y0137699D02*
X0051142Y0137699D01*
X0051142Y0137737D02*
X0046713Y0137737D01*
X0046713Y0137775D02*
X0051142Y0137775D01*
X0051142Y0137813D02*
X0046713Y0137813D01*
X0046713Y0137850D02*
X0051142Y0137850D01*
X0051142Y0137888D02*
X0046713Y0137888D01*
X0046713Y0137926D02*
X0051142Y0137926D01*
X0051142Y0137964D02*
X0046713Y0137964D01*
X0046713Y0138002D02*
X0051142Y0138002D01*
X0051142Y0138040D02*
X0046713Y0138040D01*
X0046713Y0138078D02*
X0051142Y0138078D01*
X0051142Y0138116D02*
X0046713Y0138116D01*
X0046713Y0138153D02*
X0051142Y0138153D01*
X0051142Y0138191D02*
X0046713Y0138191D01*
X0046713Y0138229D02*
X0051142Y0138229D01*
X0051142Y0138267D02*
X0046713Y0138267D01*
X0046713Y0138305D02*
X0051142Y0138305D01*
X0051142Y0138343D02*
X0046713Y0138343D01*
X0046713Y0138381D02*
X0051142Y0138381D01*
X0051142Y0138419D02*
X0046713Y0138419D01*
D30*
X0046614Y0131339D03*
X0048583Y0131339D03*
X0050551Y0131339D03*
X0052520Y0131339D03*
X0054488Y0131339D03*
X0056457Y0131339D03*
X0056457Y0146299D03*
X0054488Y0146299D03*
X0052520Y0146299D03*
X0050551Y0146299D03*
X0048583Y0146299D03*
X0046614Y0146299D03*
D31*
X0059016Y0133898D03*
X0059016Y0135866D03*
X0059016Y0137835D03*
X0059016Y0139803D03*
X0059016Y0141772D03*
X0059016Y0143740D03*
X0044055Y0143740D03*
X0044055Y0141772D03*
X0044055Y0139803D03*
X0044055Y0137835D03*
X0044055Y0135866D03*
X0044055Y0133898D03*
D32*
X0048681Y0135965D03*
D33*
X0048927Y0141427D03*
X0054144Y0141427D03*
X0054144Y0136211D03*
D34*
X0044400Y0131683D03*
X0044400Y0145955D03*
X0058671Y0145955D03*
X0058671Y0131683D03*
D35*
X0134171Y0138636D02*
X0136475Y0138636D01*
X0136475Y0137986D01*
X0134171Y0137986D01*
X0134171Y0138636D01*
X0134171Y0138202D02*
X0136475Y0138202D01*
X0136475Y0138418D02*
X0134171Y0138418D01*
X0134171Y0138634D02*
X0136475Y0138634D01*
X0134171Y0140211D02*
X0136475Y0140211D01*
X0136475Y0139561D01*
X0134171Y0139561D01*
X0134171Y0140211D01*
X0134171Y0139777D02*
X0136475Y0139777D01*
X0136475Y0139993D02*
X0134171Y0139993D01*
X0134171Y0140209D02*
X0136475Y0140209D01*
X0134171Y0141786D02*
X0136475Y0141786D01*
X0136475Y0141136D01*
X0134171Y0141136D01*
X0134171Y0141786D01*
X0134171Y0141352D02*
X0136475Y0141352D01*
X0136475Y0141568D02*
X0134171Y0141568D01*
X0134171Y0141784D02*
X0136475Y0141784D01*
X0134171Y0143360D02*
X0136475Y0143360D01*
X0136475Y0142710D01*
X0134171Y0142710D01*
X0134171Y0143360D01*
X0134171Y0142926D02*
X0136475Y0142926D01*
X0136475Y0143142D02*
X0134171Y0143142D01*
X0134171Y0143358D02*
X0136475Y0143358D01*
X0134171Y0144935D02*
X0136475Y0144935D01*
X0136475Y0144285D01*
X0134171Y0144285D01*
X0134171Y0144935D01*
X0134171Y0144501D02*
X0136475Y0144501D01*
X0136475Y0144717D02*
X0134171Y0144717D01*
X0134171Y0144933D02*
X0136475Y0144933D01*
X0134171Y0146510D02*
X0136475Y0146510D01*
X0136475Y0145860D01*
X0134171Y0145860D01*
X0134171Y0146510D01*
X0134171Y0146076D02*
X0136475Y0146076D01*
X0136475Y0146292D02*
X0134171Y0146292D01*
X0134171Y0146508D02*
X0136475Y0146508D01*
X0132852Y0149483D02*
X0133502Y0149483D01*
X0133502Y0147179D01*
X0132852Y0147179D01*
X0132852Y0149483D01*
X0132852Y0147395D02*
X0133502Y0147395D01*
X0133502Y0147611D02*
X0132852Y0147611D01*
X0132852Y0147827D02*
X0133502Y0147827D01*
X0133502Y0148043D02*
X0132852Y0148043D01*
X0132852Y0148259D02*
X0133502Y0148259D01*
X0133502Y0148475D02*
X0132852Y0148475D01*
X0132852Y0148691D02*
X0133502Y0148691D01*
X0133502Y0148907D02*
X0132852Y0148907D01*
X0132852Y0149123D02*
X0133502Y0149123D01*
X0133502Y0149339D02*
X0132852Y0149339D01*
X0131277Y0149483D02*
X0131927Y0149483D01*
X0131927Y0147179D01*
X0131277Y0147179D01*
X0131277Y0149483D01*
X0131277Y0147395D02*
X0131927Y0147395D01*
X0131927Y0147611D02*
X0131277Y0147611D01*
X0131277Y0147827D02*
X0131927Y0147827D01*
X0131927Y0148043D02*
X0131277Y0148043D01*
X0131277Y0148259D02*
X0131927Y0148259D01*
X0131927Y0148475D02*
X0131277Y0148475D01*
X0131277Y0148691D02*
X0131927Y0148691D01*
X0131927Y0148907D02*
X0131277Y0148907D01*
X0131277Y0149123D02*
X0131927Y0149123D01*
X0131927Y0149339D02*
X0131277Y0149339D01*
X0129703Y0149483D02*
X0130353Y0149483D01*
X0130353Y0147179D01*
X0129703Y0147179D01*
X0129703Y0149483D01*
X0129703Y0147395D02*
X0130353Y0147395D01*
X0130353Y0147611D02*
X0129703Y0147611D01*
X0129703Y0147827D02*
X0130353Y0147827D01*
X0130353Y0148043D02*
X0129703Y0148043D01*
X0129703Y0148259D02*
X0130353Y0148259D01*
X0130353Y0148475D02*
X0129703Y0148475D01*
X0129703Y0148691D02*
X0130353Y0148691D01*
X0130353Y0148907D02*
X0129703Y0148907D01*
X0129703Y0149123D02*
X0130353Y0149123D01*
X0130353Y0149339D02*
X0129703Y0149339D01*
X0128128Y0149483D02*
X0128778Y0149483D01*
X0128778Y0147179D01*
X0128128Y0147179D01*
X0128128Y0149483D01*
X0128128Y0147395D02*
X0128778Y0147395D01*
X0128778Y0147611D02*
X0128128Y0147611D01*
X0128128Y0147827D02*
X0128778Y0147827D01*
X0128778Y0148043D02*
X0128128Y0148043D01*
X0128128Y0148259D02*
X0128778Y0148259D01*
X0128778Y0148475D02*
X0128128Y0148475D01*
X0128128Y0148691D02*
X0128778Y0148691D01*
X0128778Y0148907D02*
X0128128Y0148907D01*
X0128128Y0149123D02*
X0128778Y0149123D01*
X0128778Y0149339D02*
X0128128Y0149339D01*
X0126553Y0149483D02*
X0127203Y0149483D01*
X0127203Y0147179D01*
X0126553Y0147179D01*
X0126553Y0149483D01*
X0126553Y0147395D02*
X0127203Y0147395D01*
X0127203Y0147611D02*
X0126553Y0147611D01*
X0126553Y0147827D02*
X0127203Y0147827D01*
X0127203Y0148043D02*
X0126553Y0148043D01*
X0126553Y0148259D02*
X0127203Y0148259D01*
X0127203Y0148475D02*
X0126553Y0148475D01*
X0126553Y0148691D02*
X0127203Y0148691D01*
X0127203Y0148907D02*
X0126553Y0148907D01*
X0126553Y0149123D02*
X0127203Y0149123D01*
X0127203Y0149339D02*
X0126553Y0149339D01*
X0124978Y0149483D02*
X0125628Y0149483D01*
X0125628Y0147179D01*
X0124978Y0147179D01*
X0124978Y0149483D01*
X0124978Y0147395D02*
X0125628Y0147395D01*
X0125628Y0147611D02*
X0124978Y0147611D01*
X0124978Y0147827D02*
X0125628Y0147827D01*
X0125628Y0148043D02*
X0124978Y0148043D01*
X0124978Y0148259D02*
X0125628Y0148259D01*
X0125628Y0148475D02*
X0124978Y0148475D01*
X0124978Y0148691D02*
X0125628Y0148691D01*
X0125628Y0148907D02*
X0124978Y0148907D01*
X0124978Y0149123D02*
X0125628Y0149123D01*
X0125628Y0149339D02*
X0124978Y0149339D01*
X0122005Y0146510D02*
X0124309Y0146510D01*
X0124309Y0145860D01*
X0122005Y0145860D01*
X0122005Y0146510D01*
X0122005Y0146076D02*
X0124309Y0146076D01*
X0124309Y0146292D02*
X0122005Y0146292D01*
X0122005Y0146508D02*
X0124309Y0146508D01*
X0122005Y0144935D02*
X0124309Y0144935D01*
X0124309Y0144285D01*
X0122005Y0144285D01*
X0122005Y0144935D01*
X0122005Y0144501D02*
X0124309Y0144501D01*
X0124309Y0144717D02*
X0122005Y0144717D01*
X0122005Y0144933D02*
X0124309Y0144933D01*
X0122005Y0143360D02*
X0124309Y0143360D01*
X0124309Y0142710D01*
X0122005Y0142710D01*
X0122005Y0143360D01*
X0122005Y0142926D02*
X0124309Y0142926D01*
X0124309Y0143142D02*
X0122005Y0143142D01*
X0122005Y0143358D02*
X0124309Y0143358D01*
X0122005Y0141786D02*
X0124309Y0141786D01*
X0124309Y0141136D01*
X0122005Y0141136D01*
X0122005Y0141786D01*
X0122005Y0141352D02*
X0124309Y0141352D01*
X0124309Y0141568D02*
X0122005Y0141568D01*
X0122005Y0141784D02*
X0124309Y0141784D01*
X0122005Y0140211D02*
X0124309Y0140211D01*
X0124309Y0139561D01*
X0122005Y0139561D01*
X0122005Y0140211D01*
X0122005Y0139777D02*
X0124309Y0139777D01*
X0124309Y0139993D02*
X0122005Y0139993D01*
X0122005Y0140209D02*
X0124309Y0140209D01*
X0122005Y0138636D02*
X0124309Y0138636D01*
X0124309Y0137986D01*
X0122005Y0137986D01*
X0122005Y0138636D01*
X0122005Y0138202D02*
X0124309Y0138202D01*
X0124309Y0138418D02*
X0122005Y0138418D01*
X0122005Y0138634D02*
X0124309Y0138634D01*
X0124978Y0137317D02*
X0125628Y0137317D01*
X0125628Y0135013D01*
X0124978Y0135013D01*
X0124978Y0137317D01*
X0124978Y0135229D02*
X0125628Y0135229D01*
X0125628Y0135445D02*
X0124978Y0135445D01*
X0124978Y0135661D02*
X0125628Y0135661D01*
X0125628Y0135877D02*
X0124978Y0135877D01*
X0124978Y0136093D02*
X0125628Y0136093D01*
X0125628Y0136309D02*
X0124978Y0136309D01*
X0124978Y0136525D02*
X0125628Y0136525D01*
X0125628Y0136741D02*
X0124978Y0136741D01*
X0124978Y0136957D02*
X0125628Y0136957D01*
X0125628Y0137173D02*
X0124978Y0137173D01*
X0126553Y0137317D02*
X0127203Y0137317D01*
X0127203Y0135013D01*
X0126553Y0135013D01*
X0126553Y0137317D01*
X0126553Y0135229D02*
X0127203Y0135229D01*
X0127203Y0135445D02*
X0126553Y0135445D01*
X0126553Y0135661D02*
X0127203Y0135661D01*
X0127203Y0135877D02*
X0126553Y0135877D01*
X0126553Y0136093D02*
X0127203Y0136093D01*
X0127203Y0136309D02*
X0126553Y0136309D01*
X0126553Y0136525D02*
X0127203Y0136525D01*
X0127203Y0136741D02*
X0126553Y0136741D01*
X0126553Y0136957D02*
X0127203Y0136957D01*
X0127203Y0137173D02*
X0126553Y0137173D01*
X0128128Y0137317D02*
X0128778Y0137317D01*
X0128778Y0135013D01*
X0128128Y0135013D01*
X0128128Y0137317D01*
X0128128Y0135229D02*
X0128778Y0135229D01*
X0128778Y0135445D02*
X0128128Y0135445D01*
X0128128Y0135661D02*
X0128778Y0135661D01*
X0128778Y0135877D02*
X0128128Y0135877D01*
X0128128Y0136093D02*
X0128778Y0136093D01*
X0128778Y0136309D02*
X0128128Y0136309D01*
X0128128Y0136525D02*
X0128778Y0136525D01*
X0128778Y0136741D02*
X0128128Y0136741D01*
X0128128Y0136957D02*
X0128778Y0136957D01*
X0128778Y0137173D02*
X0128128Y0137173D01*
X0129703Y0137317D02*
X0130353Y0137317D01*
X0130353Y0135013D01*
X0129703Y0135013D01*
X0129703Y0137317D01*
X0129703Y0135229D02*
X0130353Y0135229D01*
X0130353Y0135445D02*
X0129703Y0135445D01*
X0129703Y0135661D02*
X0130353Y0135661D01*
X0130353Y0135877D02*
X0129703Y0135877D01*
X0129703Y0136093D02*
X0130353Y0136093D01*
X0130353Y0136309D02*
X0129703Y0136309D01*
X0129703Y0136525D02*
X0130353Y0136525D01*
X0130353Y0136741D02*
X0129703Y0136741D01*
X0129703Y0136957D02*
X0130353Y0136957D01*
X0130353Y0137173D02*
X0129703Y0137173D01*
X0131277Y0137317D02*
X0131927Y0137317D01*
X0131927Y0135013D01*
X0131277Y0135013D01*
X0131277Y0137317D01*
X0131277Y0135229D02*
X0131927Y0135229D01*
X0131927Y0135445D02*
X0131277Y0135445D01*
X0131277Y0135661D02*
X0131927Y0135661D01*
X0131927Y0135877D02*
X0131277Y0135877D01*
X0131277Y0136093D02*
X0131927Y0136093D01*
X0131927Y0136309D02*
X0131277Y0136309D01*
X0131277Y0136525D02*
X0131927Y0136525D01*
X0131927Y0136741D02*
X0131277Y0136741D01*
X0131277Y0136957D02*
X0131927Y0136957D01*
X0131927Y0137173D02*
X0131277Y0137173D01*
X0132852Y0137317D02*
X0133502Y0137317D01*
X0133502Y0135013D01*
X0132852Y0135013D01*
X0132852Y0137317D01*
X0132852Y0135229D02*
X0133502Y0135229D01*
X0133502Y0135445D02*
X0132852Y0135445D01*
X0132852Y0135661D02*
X0133502Y0135661D01*
X0133502Y0135877D02*
X0132852Y0135877D01*
X0132852Y0136093D02*
X0133502Y0136093D01*
X0133502Y0136309D02*
X0132852Y0136309D01*
X0132852Y0136525D02*
X0133502Y0136525D01*
X0133502Y0136741D02*
X0132852Y0136741D01*
X0132852Y0136957D02*
X0133502Y0136957D01*
X0133502Y0137173D02*
X0132852Y0137173D01*
D36*
X0099685Y0137638D03*
X0099685Y0149055D03*
D37*
X0055315Y0120354D03*
X0047835Y0120354D03*
D38*
X0087012Y0137795D03*
X0067162Y0137795D03*
D39*
X0054154Y0064252D03*
X0054154Y0056772D03*
D40*
X0045276Y0074488D03*
X0045276Y0080394D03*
X0156102Y0137441D03*
X0156102Y0143346D03*
D41*
X0153801Y0120372D02*
X0150963Y0120372D01*
X0150963Y0121360D01*
X0153801Y0121360D01*
X0153801Y0120372D01*
X0153801Y0120445D02*
X0150963Y0120445D01*
X0150963Y0120518D02*
X0153801Y0120518D01*
X0153801Y0120591D02*
X0150963Y0120591D01*
X0150963Y0120664D02*
X0153801Y0120664D01*
X0153801Y0120737D02*
X0150963Y0120737D01*
X0150963Y0120810D02*
X0153801Y0120810D01*
X0153801Y0120883D02*
X0150963Y0120883D01*
X0150963Y0120956D02*
X0153801Y0120956D01*
X0153801Y0121029D02*
X0150963Y0121029D01*
X0150963Y0121102D02*
X0153801Y0121102D01*
X0153801Y0121175D02*
X0150963Y0121175D01*
X0150963Y0121248D02*
X0153801Y0121248D01*
X0153801Y0121321D02*
X0150963Y0121321D01*
X0153801Y0118404D02*
X0150963Y0118404D01*
X0150963Y0119392D01*
X0153801Y0119392D01*
X0153801Y0118404D01*
X0153801Y0118477D02*
X0150963Y0118477D01*
X0150963Y0118550D02*
X0153801Y0118550D01*
X0153801Y0118623D02*
X0150963Y0118623D01*
X0150963Y0118696D02*
X0153801Y0118696D01*
X0153801Y0118769D02*
X0150963Y0118769D01*
X0150963Y0118842D02*
X0153801Y0118842D01*
X0153801Y0118915D02*
X0150963Y0118915D01*
X0150963Y0118988D02*
X0153801Y0118988D01*
X0153801Y0119061D02*
X0150963Y0119061D01*
X0150963Y0119134D02*
X0153801Y0119134D01*
X0153801Y0119207D02*
X0150963Y0119207D01*
X0150963Y0119280D02*
X0153801Y0119280D01*
X0153801Y0119353D02*
X0150963Y0119353D01*
X0153801Y0116435D02*
X0150963Y0116435D01*
X0150963Y0117423D01*
X0153801Y0117423D01*
X0153801Y0116435D01*
X0153801Y0116508D02*
X0150963Y0116508D01*
X0150963Y0116581D02*
X0153801Y0116581D01*
X0153801Y0116654D02*
X0150963Y0116654D01*
X0150963Y0116727D02*
X0153801Y0116727D01*
X0153801Y0116800D02*
X0150963Y0116800D01*
X0150963Y0116873D02*
X0153801Y0116873D01*
X0153801Y0116946D02*
X0150963Y0116946D01*
X0150963Y0117019D02*
X0153801Y0117019D01*
X0153801Y0117092D02*
X0150963Y0117092D01*
X0150963Y0117165D02*
X0153801Y0117165D01*
X0153801Y0117238D02*
X0150963Y0117238D01*
X0150963Y0117311D02*
X0153801Y0117311D01*
X0153801Y0117384D02*
X0150963Y0117384D01*
X0153801Y0114467D02*
X0150963Y0114467D01*
X0150963Y0115455D01*
X0153801Y0115455D01*
X0153801Y0114467D01*
X0153801Y0114540D02*
X0150963Y0114540D01*
X0150963Y0114613D02*
X0153801Y0114613D01*
X0153801Y0114686D02*
X0150963Y0114686D01*
X0150963Y0114759D02*
X0153801Y0114759D01*
X0153801Y0114832D02*
X0150963Y0114832D01*
X0150963Y0114905D02*
X0153801Y0114905D01*
X0153801Y0114978D02*
X0150963Y0114978D01*
X0150963Y0115051D02*
X0153801Y0115051D01*
X0153801Y0115124D02*
X0150963Y0115124D01*
X0150963Y0115197D02*
X0153801Y0115197D01*
X0153801Y0115270D02*
X0150963Y0115270D01*
X0150963Y0115343D02*
X0153801Y0115343D01*
X0153801Y0115416D02*
X0150963Y0115416D01*
X0153801Y0112498D02*
X0150963Y0112498D01*
X0150963Y0113486D01*
X0153801Y0113486D01*
X0153801Y0112498D01*
X0153801Y0112571D02*
X0150963Y0112571D01*
X0150963Y0112644D02*
X0153801Y0112644D01*
X0153801Y0112717D02*
X0150963Y0112717D01*
X0150963Y0112790D02*
X0153801Y0112790D01*
X0153801Y0112863D02*
X0150963Y0112863D01*
X0150963Y0112936D02*
X0153801Y0112936D01*
X0153801Y0113009D02*
X0150963Y0113009D01*
X0150963Y0113082D02*
X0153801Y0113082D01*
X0153801Y0113155D02*
X0150963Y0113155D01*
X0150963Y0113228D02*
X0153801Y0113228D01*
X0153801Y0113301D02*
X0150963Y0113301D01*
X0150963Y0113374D02*
X0153801Y0113374D01*
X0153801Y0113447D02*
X0150963Y0113447D01*
X0161636Y0112498D02*
X0158798Y0112498D01*
X0158798Y0113486D01*
X0161636Y0113486D01*
X0161636Y0112498D01*
X0161636Y0112571D02*
X0158798Y0112571D01*
X0158798Y0112644D02*
X0161636Y0112644D01*
X0161636Y0112717D02*
X0158798Y0112717D01*
X0158798Y0112790D02*
X0161636Y0112790D01*
X0161636Y0112863D02*
X0158798Y0112863D01*
X0158798Y0112936D02*
X0161636Y0112936D01*
X0161636Y0113009D02*
X0158798Y0113009D01*
X0158798Y0113082D02*
X0161636Y0113082D01*
X0161636Y0113155D02*
X0158798Y0113155D01*
X0158798Y0113228D02*
X0161636Y0113228D01*
X0161636Y0113301D02*
X0158798Y0113301D01*
X0158798Y0113374D02*
X0161636Y0113374D01*
X0161636Y0113447D02*
X0158798Y0113447D01*
X0161636Y0114467D02*
X0158798Y0114467D01*
X0158798Y0115455D01*
X0161636Y0115455D01*
X0161636Y0114467D01*
X0161636Y0114540D02*
X0158798Y0114540D01*
X0158798Y0114613D02*
X0161636Y0114613D01*
X0161636Y0114686D02*
X0158798Y0114686D01*
X0158798Y0114759D02*
X0161636Y0114759D01*
X0161636Y0114832D02*
X0158798Y0114832D01*
X0158798Y0114905D02*
X0161636Y0114905D01*
X0161636Y0114978D02*
X0158798Y0114978D01*
X0158798Y0115051D02*
X0161636Y0115051D01*
X0161636Y0115124D02*
X0158798Y0115124D01*
X0158798Y0115197D02*
X0161636Y0115197D01*
X0161636Y0115270D02*
X0158798Y0115270D01*
X0158798Y0115343D02*
X0161636Y0115343D01*
X0161636Y0115416D02*
X0158798Y0115416D01*
X0161636Y0116435D02*
X0158798Y0116435D01*
X0158798Y0117423D01*
X0161636Y0117423D01*
X0161636Y0116435D01*
X0161636Y0116508D02*
X0158798Y0116508D01*
X0158798Y0116581D02*
X0161636Y0116581D01*
X0161636Y0116654D02*
X0158798Y0116654D01*
X0158798Y0116727D02*
X0161636Y0116727D01*
X0161636Y0116800D02*
X0158798Y0116800D01*
X0158798Y0116873D02*
X0161636Y0116873D01*
X0161636Y0116946D02*
X0158798Y0116946D01*
X0158798Y0117019D02*
X0161636Y0117019D01*
X0161636Y0117092D02*
X0158798Y0117092D01*
X0158798Y0117165D02*
X0161636Y0117165D01*
X0161636Y0117238D02*
X0158798Y0117238D01*
X0158798Y0117311D02*
X0161636Y0117311D01*
X0161636Y0117384D02*
X0158798Y0117384D01*
X0161636Y0118404D02*
X0158798Y0118404D01*
X0158798Y0119392D01*
X0161636Y0119392D01*
X0161636Y0118404D01*
X0161636Y0118477D02*
X0158798Y0118477D01*
X0158798Y0118550D02*
X0161636Y0118550D01*
X0161636Y0118623D02*
X0158798Y0118623D01*
X0158798Y0118696D02*
X0161636Y0118696D01*
X0161636Y0118769D02*
X0158798Y0118769D01*
X0158798Y0118842D02*
X0161636Y0118842D01*
X0161636Y0118915D02*
X0158798Y0118915D01*
X0158798Y0118988D02*
X0161636Y0118988D01*
X0161636Y0119061D02*
X0158798Y0119061D01*
X0158798Y0119134D02*
X0161636Y0119134D01*
X0161636Y0119207D02*
X0158798Y0119207D01*
X0158798Y0119280D02*
X0161636Y0119280D01*
X0161636Y0119353D02*
X0158798Y0119353D01*
X0161636Y0120372D02*
X0158798Y0120372D01*
X0158798Y0121360D01*
X0161636Y0121360D01*
X0161636Y0120372D01*
X0161636Y0120445D02*
X0158798Y0120445D01*
X0158798Y0120518D02*
X0161636Y0120518D01*
X0161636Y0120591D02*
X0158798Y0120591D01*
X0158798Y0120664D02*
X0161636Y0120664D01*
X0161636Y0120737D02*
X0158798Y0120737D01*
X0158798Y0120810D02*
X0161636Y0120810D01*
X0161636Y0120883D02*
X0158798Y0120883D01*
X0158798Y0120956D02*
X0161636Y0120956D01*
X0161636Y0121029D02*
X0158798Y0121029D01*
X0158798Y0121102D02*
X0161636Y0121102D01*
X0161636Y0121175D02*
X0158798Y0121175D01*
X0158798Y0121248D02*
X0161636Y0121248D01*
X0161636Y0121321D02*
X0158798Y0121321D01*
D42*
X0156299Y0116929D03*
D43*
X0156299Y0120669D03*
X0156299Y0116929D03*
X0156299Y0113189D03*
D44*
X0174252Y0120866D03*
X0167480Y0120866D03*
D45*
X0105686Y0092913D03*
X0111636Y0092913D03*
D46*
X0169488Y0097638D02*
X0169488Y0099606D01*
X0171064Y0099606D01*
X0171064Y0097638D01*
X0169488Y0097638D01*
X0169488Y0099212D02*
X0171064Y0099212D01*
D47*
X0170276Y0104134D03*
X0165945Y0098622D03*
X0165945Y0104134D03*
D48*
X0107480Y0028594D03*
X0132677Y0028594D03*
X0110630Y0028594D03*
X0129528Y0028594D03*
D49*
X0113189Y0028594D03*
X0115157Y0028594D03*
X0117126Y0028594D03*
X0119094Y0028594D03*
X0121063Y0028594D03*
X0123031Y0028594D03*
X0125000Y0028594D03*
X0126969Y0028594D03*
D50*
X0099961Y0026330D03*
X0140197Y0026330D03*
X0099961Y0010857D03*
X0140197Y0010857D03*
D51*
X0062480Y0042027D03*
X0064449Y0042027D03*
X0066417Y0042027D03*
X0068386Y0042027D03*
X0070354Y0042027D03*
X0072323Y0042027D03*
X0074291Y0042027D03*
X0076260Y0042027D03*
D52*
X0050276Y0036121D03*
X0088465Y0036121D03*
D53*
X0090615Y0040471D02*
X0090615Y0031771D01*
X0086315Y0031771D01*
X0086315Y0028465D01*
X0081215Y0028465D01*
X0081215Y0040471D01*
X0090615Y0040471D01*
X0086315Y0028470D02*
X0081215Y0028470D01*
X0081215Y0028568D02*
X0086315Y0028568D01*
X0086315Y0028667D02*
X0081215Y0028667D01*
X0081215Y0028765D02*
X0086315Y0028765D01*
X0086315Y0028864D02*
X0081215Y0028864D01*
X0081215Y0028962D02*
X0086315Y0028962D01*
X0086315Y0029061D02*
X0081215Y0029061D01*
X0081215Y0029159D02*
X0086315Y0029159D01*
X0086315Y0029258D02*
X0081215Y0029258D01*
X0081215Y0029356D02*
X0086315Y0029356D01*
X0086315Y0029455D02*
X0081215Y0029455D01*
X0081215Y0029553D02*
X0086315Y0029553D01*
X0086315Y0029652D02*
X0081215Y0029652D01*
X0081215Y0029750D02*
X0086315Y0029750D01*
X0086315Y0029849D02*
X0081215Y0029849D01*
X0081215Y0029947D02*
X0086315Y0029947D01*
X0086315Y0030046D02*
X0081215Y0030046D01*
X0081215Y0030144D02*
X0086315Y0030144D01*
X0086315Y0030243D02*
X0081215Y0030243D01*
X0081215Y0030341D02*
X0086315Y0030341D01*
X0086315Y0030440D02*
X0081215Y0030440D01*
X0081215Y0030539D02*
X0086315Y0030539D01*
X0086315Y0030637D02*
X0081215Y0030637D01*
X0081215Y0030736D02*
X0086315Y0030736D01*
X0086315Y0030834D02*
X0081215Y0030834D01*
X0081215Y0030933D02*
X0086315Y0030933D01*
X0086315Y0031031D02*
X0081215Y0031031D01*
X0081215Y0031130D02*
X0086315Y0031130D01*
X0086315Y0031228D02*
X0081215Y0031228D01*
X0081215Y0031327D02*
X0086315Y0031327D01*
X0086315Y0031425D02*
X0081215Y0031425D01*
X0081215Y0031524D02*
X0086315Y0031524D01*
X0086315Y0031622D02*
X0081215Y0031622D01*
X0081215Y0031721D02*
X0086315Y0031721D01*
X0090615Y0031819D02*
X0081215Y0031819D01*
X0081215Y0031918D02*
X0090615Y0031918D01*
X0090615Y0032016D02*
X0081215Y0032016D01*
X0081215Y0032115D02*
X0090615Y0032115D01*
X0090615Y0032213D02*
X0081215Y0032213D01*
X0081215Y0032312D02*
X0090615Y0032312D01*
X0090615Y0032410D02*
X0081215Y0032410D01*
X0081215Y0032509D02*
X0090615Y0032509D01*
X0090615Y0032607D02*
X0081215Y0032607D01*
X0081215Y0032706D02*
X0090615Y0032706D01*
X0090615Y0032804D02*
X0081215Y0032804D01*
X0081215Y0032903D02*
X0090615Y0032903D01*
X0090615Y0033001D02*
X0081215Y0033001D01*
X0081215Y0033100D02*
X0090615Y0033100D01*
X0090615Y0033198D02*
X0081215Y0033198D01*
X0081215Y0033297D02*
X0090615Y0033297D01*
X0090615Y0033395D02*
X0081215Y0033395D01*
X0081215Y0033494D02*
X0090615Y0033494D01*
X0090615Y0033592D02*
X0081215Y0033592D01*
X0081215Y0033691D02*
X0090615Y0033691D01*
X0090615Y0033789D02*
X0081215Y0033789D01*
X0081215Y0033888D02*
X0090615Y0033888D01*
X0090615Y0033986D02*
X0081215Y0033986D01*
X0081215Y0034085D02*
X0090615Y0034085D01*
X0090615Y0034183D02*
X0081215Y0034183D01*
X0081215Y0034282D02*
X0090615Y0034282D01*
X0090615Y0034380D02*
X0081215Y0034380D01*
X0081215Y0034479D02*
X0090615Y0034479D01*
X0090615Y0034577D02*
X0081215Y0034577D01*
X0081215Y0034676D02*
X0090615Y0034676D01*
X0090615Y0034774D02*
X0081215Y0034774D01*
X0081215Y0034873D02*
X0090615Y0034873D01*
X0090615Y0034972D02*
X0081215Y0034972D01*
X0081215Y0035070D02*
X0090615Y0035070D01*
X0090615Y0035169D02*
X0081215Y0035169D01*
X0081215Y0035267D02*
X0090615Y0035267D01*
X0090615Y0035366D02*
X0081215Y0035366D01*
X0081215Y0035464D02*
X0090615Y0035464D01*
X0090615Y0035563D02*
X0081215Y0035563D01*
X0081215Y0035661D02*
X0090615Y0035661D01*
X0090615Y0035760D02*
X0081215Y0035760D01*
X0081215Y0035858D02*
X0090615Y0035858D01*
X0090615Y0035957D02*
X0081215Y0035957D01*
X0081215Y0036055D02*
X0090615Y0036055D01*
X0090615Y0036154D02*
X0081215Y0036154D01*
X0081215Y0036252D02*
X0090615Y0036252D01*
X0090615Y0036351D02*
X0081215Y0036351D01*
X0081215Y0036449D02*
X0090615Y0036449D01*
X0090615Y0036548D02*
X0081215Y0036548D01*
X0081215Y0036646D02*
X0090615Y0036646D01*
X0090615Y0036745D02*
X0081215Y0036745D01*
X0081215Y0036843D02*
X0090615Y0036843D01*
X0090615Y0036942D02*
X0081215Y0036942D01*
X0081215Y0037040D02*
X0090615Y0037040D01*
X0090615Y0037139D02*
X0081215Y0037139D01*
X0081215Y0037237D02*
X0090615Y0037237D01*
X0090615Y0037336D02*
X0081215Y0037336D01*
X0081215Y0037434D02*
X0090615Y0037434D01*
X0090615Y0037533D02*
X0081215Y0037533D01*
X0081215Y0037631D02*
X0090615Y0037631D01*
X0090615Y0037730D02*
X0081215Y0037730D01*
X0081215Y0037828D02*
X0090615Y0037828D01*
X0090615Y0037927D02*
X0081215Y0037927D01*
X0081215Y0038025D02*
X0090615Y0038025D01*
X0090615Y0038124D02*
X0081215Y0038124D01*
X0081215Y0038222D02*
X0090615Y0038222D01*
X0090615Y0038321D02*
X0081215Y0038321D01*
X0081215Y0038419D02*
X0090615Y0038419D01*
X0090615Y0038518D02*
X0081215Y0038518D01*
X0081215Y0038616D02*
X0090615Y0038616D01*
X0090615Y0038715D02*
X0081215Y0038715D01*
X0081215Y0038813D02*
X0090615Y0038813D01*
X0090615Y0038912D02*
X0081215Y0038912D01*
X0081215Y0039010D02*
X0090615Y0039010D01*
X0090615Y0039109D02*
X0081215Y0039109D01*
X0081215Y0039208D02*
X0090615Y0039208D01*
X0090615Y0039306D02*
X0081215Y0039306D01*
X0081215Y0039405D02*
X0090615Y0039405D01*
X0090615Y0039503D02*
X0081215Y0039503D01*
X0081215Y0039602D02*
X0090615Y0039602D01*
X0090615Y0039700D02*
X0081215Y0039700D01*
X0081215Y0039799D02*
X0090615Y0039799D01*
X0090615Y0039897D02*
X0081215Y0039897D01*
X0081215Y0039996D02*
X0090615Y0039996D01*
X0090615Y0040094D02*
X0081215Y0040094D01*
X0081215Y0040193D02*
X0090615Y0040193D01*
X0090615Y0040291D02*
X0081215Y0040291D01*
X0081215Y0040390D02*
X0090615Y0040390D01*
X0048126Y0040471D02*
X0048126Y0031771D01*
X0052426Y0031771D01*
X0052426Y0028465D01*
X0057526Y0028465D01*
X0057526Y0040471D01*
X0048126Y0040471D01*
X0052426Y0028470D02*
X0057526Y0028470D01*
X0057526Y0028568D02*
X0052426Y0028568D01*
X0052426Y0028667D02*
X0057526Y0028667D01*
X0057526Y0028765D02*
X0052426Y0028765D01*
X0052426Y0028864D02*
X0057526Y0028864D01*
X0057526Y0028962D02*
X0052426Y0028962D01*
X0052426Y0029061D02*
X0057526Y0029061D01*
X0057526Y0029159D02*
X0052426Y0029159D01*
X0052426Y0029258D02*
X0057526Y0029258D01*
X0057526Y0029356D02*
X0052426Y0029356D01*
X0052426Y0029455D02*
X0057526Y0029455D01*
X0057526Y0029553D02*
X0052426Y0029553D01*
X0052426Y0029652D02*
X0057526Y0029652D01*
X0057526Y0029750D02*
X0052426Y0029750D01*
X0052426Y0029849D02*
X0057526Y0029849D01*
X0057526Y0029947D02*
X0052426Y0029947D01*
X0052426Y0030046D02*
X0057526Y0030046D01*
X0057526Y0030144D02*
X0052426Y0030144D01*
X0052426Y0030243D02*
X0057526Y0030243D01*
X0057526Y0030341D02*
X0052426Y0030341D01*
X0052426Y0030440D02*
X0057526Y0030440D01*
X0057526Y0030539D02*
X0052426Y0030539D01*
X0052426Y0030637D02*
X0057526Y0030637D01*
X0057526Y0030736D02*
X0052426Y0030736D01*
X0052426Y0030834D02*
X0057526Y0030834D01*
X0057526Y0030933D02*
X0052426Y0030933D01*
X0052426Y0031031D02*
X0057526Y0031031D01*
X0057526Y0031130D02*
X0052426Y0031130D01*
X0052426Y0031228D02*
X0057526Y0031228D01*
X0057526Y0031327D02*
X0052426Y0031327D01*
X0052426Y0031425D02*
X0057526Y0031425D01*
X0057526Y0031524D02*
X0052426Y0031524D01*
X0052426Y0031622D02*
X0057526Y0031622D01*
X0057526Y0031721D02*
X0052426Y0031721D01*
X0048126Y0031819D02*
X0057526Y0031819D01*
X0057526Y0031918D02*
X0048126Y0031918D01*
X0048126Y0032016D02*
X0057526Y0032016D01*
X0057526Y0032115D02*
X0048126Y0032115D01*
X0048126Y0032213D02*
X0057526Y0032213D01*
X0057526Y0032312D02*
X0048126Y0032312D01*
X0048126Y0032410D02*
X0057526Y0032410D01*
X0057526Y0032509D02*
X0048126Y0032509D01*
X0048126Y0032607D02*
X0057526Y0032607D01*
X0057526Y0032706D02*
X0048126Y0032706D01*
X0048126Y0032804D02*
X0057526Y0032804D01*
X0057526Y0032903D02*
X0048126Y0032903D01*
X0048126Y0033001D02*
X0057526Y0033001D01*
X0057526Y0033100D02*
X0048126Y0033100D01*
X0048126Y0033198D02*
X0057526Y0033198D01*
X0057526Y0033297D02*
X0048126Y0033297D01*
X0048126Y0033395D02*
X0057526Y0033395D01*
X0057526Y0033494D02*
X0048126Y0033494D01*
X0048126Y0033592D02*
X0057526Y0033592D01*
X0057526Y0033691D02*
X0048126Y0033691D01*
X0048126Y0033789D02*
X0057526Y0033789D01*
X0057526Y0033888D02*
X0048126Y0033888D01*
X0048126Y0033986D02*
X0057526Y0033986D01*
X0057526Y0034085D02*
X0048126Y0034085D01*
X0048126Y0034183D02*
X0057526Y0034183D01*
X0057526Y0034282D02*
X0048126Y0034282D01*
X0048126Y0034380D02*
X0057526Y0034380D01*
X0057526Y0034479D02*
X0048126Y0034479D01*
X0048126Y0034577D02*
X0057526Y0034577D01*
X0057526Y0034676D02*
X0048126Y0034676D01*
X0048126Y0034774D02*
X0057526Y0034774D01*
X0057526Y0034873D02*
X0048126Y0034873D01*
X0048126Y0034972D02*
X0057526Y0034972D01*
X0057526Y0035070D02*
X0048126Y0035070D01*
X0048126Y0035169D02*
X0057526Y0035169D01*
X0057526Y0035267D02*
X0048126Y0035267D01*
X0048126Y0035366D02*
X0057526Y0035366D01*
X0057526Y0035464D02*
X0048126Y0035464D01*
X0048126Y0035563D02*
X0057526Y0035563D01*
X0057526Y0035661D02*
X0048126Y0035661D01*
X0048126Y0035760D02*
X0057526Y0035760D01*
X0057526Y0035858D02*
X0048126Y0035858D01*
X0048126Y0035957D02*
X0057526Y0035957D01*
X0057526Y0036055D02*
X0048126Y0036055D01*
X0048126Y0036154D02*
X0057526Y0036154D01*
X0057526Y0036252D02*
X0048126Y0036252D01*
X0048126Y0036351D02*
X0057526Y0036351D01*
X0057526Y0036449D02*
X0048126Y0036449D01*
X0048126Y0036548D02*
X0057526Y0036548D01*
X0057526Y0036646D02*
X0048126Y0036646D01*
X0048126Y0036745D02*
X0057526Y0036745D01*
X0057526Y0036843D02*
X0048126Y0036843D01*
X0048126Y0036942D02*
X0057526Y0036942D01*
X0057526Y0037040D02*
X0048126Y0037040D01*
X0048126Y0037139D02*
X0057526Y0037139D01*
X0057526Y0037237D02*
X0048126Y0037237D01*
X0048126Y0037336D02*
X0057526Y0037336D01*
X0057526Y0037434D02*
X0048126Y0037434D01*
X0048126Y0037533D02*
X0057526Y0037533D01*
X0057526Y0037631D02*
X0048126Y0037631D01*
X0048126Y0037730D02*
X0057526Y0037730D01*
X0057526Y0037828D02*
X0048126Y0037828D01*
X0048126Y0037927D02*
X0057526Y0037927D01*
X0057526Y0038025D02*
X0048126Y0038025D01*
X0048126Y0038124D02*
X0057526Y0038124D01*
X0057526Y0038222D02*
X0048126Y0038222D01*
X0048126Y0038321D02*
X0057526Y0038321D01*
X0057526Y0038419D02*
X0048126Y0038419D01*
X0048126Y0038518D02*
X0057526Y0038518D01*
X0057526Y0038616D02*
X0048126Y0038616D01*
X0048126Y0038715D02*
X0057526Y0038715D01*
X0057526Y0038813D02*
X0048126Y0038813D01*
X0048126Y0038912D02*
X0057526Y0038912D01*
X0057526Y0039010D02*
X0048126Y0039010D01*
X0048126Y0039109D02*
X0057526Y0039109D01*
X0057526Y0039208D02*
X0048126Y0039208D01*
X0048126Y0039306D02*
X0057526Y0039306D01*
X0057526Y0039405D02*
X0048126Y0039405D01*
X0048126Y0039503D02*
X0057526Y0039503D01*
X0057526Y0039602D02*
X0048126Y0039602D01*
X0048126Y0039700D02*
X0057526Y0039700D01*
X0057526Y0039799D02*
X0048126Y0039799D01*
X0048126Y0039897D02*
X0057526Y0039897D01*
X0057526Y0039996D02*
X0048126Y0039996D01*
X0048126Y0040094D02*
X0057526Y0040094D01*
X0057526Y0040193D02*
X0048126Y0040193D01*
X0048126Y0040291D02*
X0057526Y0040291D01*
X0057526Y0040390D02*
X0048126Y0040390D01*
D54*
X0105315Y0038976D03*
X0107283Y0038976D03*
X0109252Y0038976D03*
X0111220Y0038976D03*
X0111220Y0046457D03*
X0109252Y0046457D03*
X0107283Y0046457D03*
X0105315Y0046457D03*
D55*
X0108268Y0042717D03*
D56*
X0169016Y0137323D03*
X0169016Y0139291D03*
X0169016Y0141260D03*
X0169016Y0143228D03*
X0161535Y0143228D03*
X0161535Y0141260D03*
X0161535Y0139291D03*
X0161535Y0137323D03*
D57*
X0165276Y0140276D03*
D58*
X0020866Y0040354D03*
D59*
X0020866Y0050354D03*
X0020866Y0060354D03*
X0020866Y0070354D03*
X0020866Y0080354D03*
X0020866Y0090354D03*
X0020866Y0100354D03*
X0020866Y0110354D03*
D60*
X0130906Y0074803D03*
X0150591Y0097835D03*
X0127362Y0093504D03*
X0154921Y0067323D03*
X0134646Y0037008D03*
X0127953Y0052362D03*
X0106693Y0057480D03*
X0111417Y0053543D03*
X0136811Y0104921D03*
X0141732Y0082677D03*
X0141732Y0086614D03*
X0133858Y0086614D03*
X0137795Y0086614D03*
X0145669Y0086614D03*
X0149606Y0086614D03*
X0133858Y0082677D03*
X0137795Y0082677D03*
X0145669Y0082677D03*
X0149606Y0082677D03*
X0149606Y0078740D03*
X0145669Y0078740D03*
X0141732Y0078740D03*
X0137795Y0078740D03*
X0133858Y0078740D03*
X0133858Y0074803D03*
X0137795Y0074803D03*
X0141732Y0074803D03*
X0145669Y0074803D03*
X0149606Y0074803D03*
X0141732Y0047244D03*
X0145669Y0047244D03*
X0149606Y0043307D03*
X0145669Y0043307D03*
X0141732Y0043307D03*
X0141732Y0039370D03*
X0145669Y0039370D03*
X0149606Y0039370D03*
X0166339Y0053937D03*
X0152559Y0020079D03*
X0155315Y0020079D03*
X0155315Y0017520D03*
X0152559Y0017520D03*
X0108858Y0103543D03*
X0116339Y0101181D03*
X0104331Y0075591D03*
X0104331Y0069685D03*
X0155709Y0108268D03*
X0150984Y0108268D03*
X0171457Y0091732D03*
X0127559Y0042520D03*
X0109055Y0118110D03*
X0175000Y0126870D03*
X0135531Y0112697D03*
X0140276Y0141929D03*
X0044488Y0054843D03*
X0054134Y0141496D03*
X0054134Y0136220D03*
X0048740Y0135984D03*
X0048937Y0141417D03*
X0066850Y0061102D03*
X0070787Y0061102D03*
X0066850Y0065039D03*
X0070787Y0065039D03*
X0074724Y0068976D03*
X0074724Y0072913D03*
X0074724Y0076850D03*
X0070787Y0080787D03*
X0070787Y0076850D03*
X0070787Y0072913D03*
X0070787Y0068976D03*
X0066850Y0068976D03*
X0066850Y0072913D03*
X0066850Y0076850D03*
X0066850Y0080787D03*
X0062913Y0076850D03*
X0062913Y0072913D03*
X0062913Y0068976D03*
X0072835Y0099606D03*
X0142913Y0143307D03*
X0166929Y0074409D03*
X0053937Y0059843D03*
X0104331Y0064173D03*
X0115748Y0053937D03*
X0072835Y0103937D03*
X0073228Y0094094D03*
X0105906Y0042402D03*
X0108228Y0042402D03*
X0110630Y0042402D03*
X0165276Y0142559D03*
X0165276Y0140315D03*
X0165276Y0137953D03*
X0176378Y0114567D03*
X0161614Y0096850D03*
X0173780Y0104055D03*
X0152559Y0086614D03*
X0133858Y0093504D03*
X0154528Y0089567D03*
X0133858Y0071850D03*
X0130906Y0090551D03*
X0130906Y0088583D03*
X0131890Y0093504D03*
X0128740Y0016929D03*
X0124803Y0016969D03*
X0138583Y0120472D03*
X0056457Y0128661D03*
X0054488Y0126732D03*
X0056693Y0150394D03*
X0054724Y0151969D03*
X0139764Y0071850D03*
X0152756Y0031102D03*
X0141732Y0071850D03*
X0137205Y0043406D03*
X0166142Y0038976D03*
X0147638Y0071850D03*
X0159252Y0044685D03*
X0145669Y0071850D03*
X0138346Y0063465D03*
X0143701Y0071850D03*
X0143701Y0066240D03*
X0137795Y0093504D03*
X0130906Y0086614D03*
X0130906Y0084646D03*
X0130906Y0082677D03*
X0130906Y0080709D03*
X0130906Y0078740D03*
X0130906Y0072835D03*
X0137795Y0071850D03*
X0124016Y0056299D03*
X0118504Y0056299D03*
X0139764Y0093504D03*
X0145669Y0093504D03*
X0147638Y0093504D03*
X0152559Y0074803D03*
X0152559Y0078740D03*
X0152559Y0076772D03*
X0052520Y0148898D03*
X0052480Y0128937D03*
X0149606Y0071850D03*
X0102362Y0040157D03*
X0144488Y0059055D03*
X0102362Y0045276D03*
X0138976Y0059055D03*
X0102362Y0050197D03*
X0152559Y0080709D03*
X0163543Y0118858D03*
X0177559Y0120827D03*
X0164173Y0126772D03*
X0113780Y0037008D03*
X0114173Y0067323D03*
X0163780Y0120866D03*
X0118504Y0150472D03*
X0136299Y0151772D03*
X0141732Y0093504D03*
X0153465Y0148740D03*
X0143701Y0093504D03*
X0124252Y0152913D03*
X0121260Y0053543D03*
X0121260Y0058661D03*
D61*
X0130906Y0074803D02*
X0128937Y0074803D01*
X0128937Y0075787D01*
X0150591Y0095472D02*
X0150591Y0097835D01*
X0150591Y0101024D01*
X0150984Y0101417D01*
X0152559Y0069882D02*
X0154921Y0069882D01*
X0154921Y0067323D01*
X0155709Y0101417D02*
X0150984Y0101417D01*
X0131604Y0038979D02*
X0134646Y0038979D01*
X0134646Y0037008D01*
X0120669Y0097630D02*
X0123228Y0097630D01*
X0123228Y0094882D01*
X0138051Y0065512D02*
X0138622Y0065512D01*
X0142717Y0069606D01*
X0142717Y0069882D01*
X0110760Y0075591D02*
X0110760Y0075787D01*
X0128937Y0075787D01*
X0111220Y0050787D02*
X0109252Y0050787D01*
X0159532Y0020748D02*
X0159532Y0024335D01*
X0156929Y0024335D01*
X0159532Y0020748D02*
X0159532Y0020472D01*
X0159449Y0020472D01*
X0159532Y0020472D02*
X0162598Y0020472D01*
X0162598Y0023228D01*
X0169291Y0023228D01*
X0169291Y0023346D01*
X0127505Y0049096D02*
X0127953Y0049544D01*
X0127953Y0052362D01*
X0138051Y0065512D02*
X0127953Y0055413D01*
X0127953Y0052362D01*
X0103976Y0057402D02*
X0104055Y0057480D01*
X0106693Y0057480D01*
X0107008Y0057165D01*
X0109606Y0057165D01*
X0111220Y0050787D02*
X0111417Y0050787D01*
X0111417Y0053543D01*
X0109252Y0050787D02*
X0109252Y0046457D01*
X0128937Y0093504D02*
X0127362Y0093504D01*
X0124606Y0093504D01*
X0123228Y0094882D01*
X0134843Y0104921D02*
X0136811Y0104921D01*
X0141732Y0082677D02*
X0141732Y0086614D01*
X0141732Y0088583D01*
X0152559Y0088583D01*
X0162704Y0053979D02*
X0162746Y0053937D01*
X0166339Y0053937D01*
X0148421Y0020748D02*
X0152559Y0020748D01*
X0152559Y0020079D01*
X0148421Y0018780D02*
X0152559Y0018780D01*
X0152559Y0020079D01*
X0105709Y0103685D02*
X0108717Y0103685D01*
X0108739Y0103683D01*
X0108761Y0103678D01*
X0108781Y0103670D01*
X0108800Y0103658D01*
X0108817Y0103643D01*
X0108832Y0103626D01*
X0108844Y0103607D01*
X0108852Y0103587D01*
X0108857Y0103565D01*
X0108859Y0103543D01*
X0111626Y0103685D02*
X0109000Y0103685D01*
X0108978Y0103683D01*
X0108956Y0103678D01*
X0108936Y0103670D01*
X0108917Y0103658D01*
X0108900Y0103643D01*
X0108885Y0103626D01*
X0108873Y0103607D01*
X0108865Y0103587D01*
X0108860Y0103565D01*
X0108858Y0103543D01*
X0116339Y0092787D02*
X0116339Y0097630D01*
X0116339Y0101181D01*
X0106429Y0075591D02*
X0104331Y0075591D01*
X0135827Y0093504D02*
X0135827Y0086614D01*
X0137795Y0086614D01*
X0155709Y0105748D02*
X0155709Y0108268D01*
X0150984Y0108268D02*
X0150984Y0105748D01*
X0173969Y0091748D02*
X0173969Y0091732D01*
X0171457Y0091732D01*
X0171654Y0092126D01*
X0169165Y0092126D01*
X0127505Y0044766D02*
X0127559Y0044766D01*
X0127559Y0042520D01*
X0145669Y0047244D02*
X0146434Y0046479D01*
X0147154Y0046479D01*
X0106299Y0118083D02*
X0109028Y0118083D01*
X0109055Y0118110D01*
X0112012Y0118106D02*
X0109059Y0118106D01*
X0109055Y0118110D01*
X0112012Y0118106D02*
X0116843Y0118106D01*
X0171850Y0126969D02*
X0175000Y0126969D01*
X0175000Y0126870D01*
X0152382Y0120866D02*
X0156299Y0120866D01*
X0156299Y0120669D01*
X0138760Y0112795D02*
X0135531Y0112795D01*
X0135531Y0112697D01*
X0138760Y0112795D02*
X0143701Y0112795D01*
X0143701Y0112894D01*
X0160217Y0112992D02*
X0156299Y0112992D01*
X0156299Y0113189D01*
X0082205Y0070531D02*
X0077736Y0070531D01*
X0140256Y0144193D02*
X0140276Y0144193D01*
X0140276Y0141929D01*
X0047362Y0054843D02*
X0047362Y0054803D01*
X0037598Y0138268D02*
X0037598Y0137835D01*
X0044055Y0137835D01*
X0044055Y0137953D01*
X0037638Y0143465D02*
X0037638Y0138268D01*
X0037598Y0138268D01*
X0175039Y0142559D02*
X0175039Y0143346D01*
X0050551Y0131339D02*
X0050551Y0135984D01*
X0048740Y0135984D01*
X0044055Y0137835D02*
X0048740Y0137835D01*
X0048740Y0135984D01*
X0050551Y0146299D02*
X0050551Y0141417D01*
X0048937Y0141417D01*
X0077736Y0070531D02*
X0074724Y0070531D01*
X0074724Y0068976D01*
X0058839Y0076437D02*
X0062913Y0076437D01*
X0062913Y0076850D01*
X0058839Y0080374D02*
X0062913Y0080374D01*
X0062913Y0076850D01*
X0066850Y0072913D02*
X0068287Y0072913D01*
X0068287Y0071516D01*
X0065335Y0058130D02*
X0065335Y0061102D01*
X0066850Y0061102D01*
X0071240Y0058130D02*
X0071240Y0061102D01*
X0070787Y0061102D01*
X0058839Y0060689D02*
X0062913Y0060689D01*
X0062913Y0068976D01*
X0106429Y0069791D02*
X0106429Y0069685D01*
X0104331Y0069685D01*
X0069409Y0099213D02*
X0069409Y0099606D01*
X0072835Y0099606D01*
X0047362Y0054803D02*
X0047323Y0054843D01*
X0044488Y0054843D01*
X0051181Y0084724D02*
X0053150Y0084724D01*
X0053150Y0084646D01*
X0055906Y0084646D01*
X0055906Y0080374D01*
X0058839Y0080374D01*
X0145669Y0143346D02*
X0142913Y0143346D01*
X0142913Y0143307D01*
X0165224Y0075930D02*
X0165408Y0075930D01*
X0166929Y0074409D01*
X0178665Y0091748D02*
X0178665Y0092051D01*
X0178740Y0092126D01*
X0174346Y0092126D01*
X0173969Y0091748D01*
X0160126Y0091787D02*
X0160126Y0090551D01*
X0156693Y0090551D01*
X0156693Y0088071D01*
X0152559Y0088071D01*
X0152559Y0088583D01*
X0054154Y0056772D02*
X0053937Y0056772D01*
X0053937Y0059843D01*
X0106429Y0064260D02*
X0104331Y0064260D01*
X0104331Y0064173D01*
X0144094Y0137795D02*
X0140276Y0137795D01*
X0140276Y0141929D01*
X0069409Y0099213D02*
X0069685Y0099213D01*
X0069685Y0098819D01*
X0115512Y0057165D02*
X0115512Y0054173D01*
X0115748Y0053937D01*
X0099646Y0057402D02*
X0099646Y0058307D01*
X0101181Y0059843D01*
X0113386Y0059843D01*
X0115512Y0057717D01*
X0115512Y0057165D01*
X0082205Y0069665D02*
X0082205Y0070531D01*
X0153976Y0018780D02*
X0153976Y0017520D01*
X0152559Y0017520D01*
X0054134Y0136220D02*
X0054144Y0136220D01*
X0054144Y0136211D01*
X0048681Y0135965D02*
X0048740Y0135965D01*
X0048740Y0135984D01*
X0048927Y0141427D02*
X0048937Y0141427D01*
X0048937Y0141417D01*
X0054134Y0141496D02*
X0054144Y0141496D01*
X0054144Y0141427D01*
X0069409Y0104094D02*
X0069409Y0103937D01*
X0072835Y0103937D01*
X0069409Y0094291D02*
X0069409Y0094094D01*
X0073228Y0094094D01*
X0073228Y0094291D01*
X0077776Y0094291D01*
X0111220Y0046457D02*
X0111220Y0042402D01*
X0116850Y0041535D02*
X0116850Y0042402D01*
X0110630Y0042402D01*
X0111220Y0038976D02*
X0111220Y0042402D01*
X0110630Y0042402D01*
X0105315Y0038976D02*
X0105315Y0042402D01*
X0105906Y0042402D01*
X0169016Y0137323D02*
X0165276Y0137323D01*
X0165276Y0137953D01*
X0169016Y0143228D02*
X0165276Y0143228D01*
X0161535Y0143228D01*
X0165276Y0143228D02*
X0165276Y0142559D01*
X0175039Y0143346D02*
X0169016Y0143346D01*
X0169016Y0143228D01*
X0173346Y0114764D02*
X0176181Y0114764D01*
X0176207Y0114762D01*
X0176232Y0114757D01*
X0176256Y0114749D01*
X0176280Y0114738D01*
X0176301Y0114723D01*
X0176320Y0114706D01*
X0176337Y0114687D01*
X0176352Y0114666D01*
X0176363Y0114642D01*
X0176371Y0114618D01*
X0176376Y0114593D01*
X0176378Y0114567D01*
X0161609Y0099803D02*
X0161609Y0096850D01*
X0161614Y0096850D01*
X0161614Y0098622D01*
X0165945Y0098622D01*
X0170276Y0104134D02*
X0173780Y0104134D01*
X0173780Y0104055D01*
X0177165Y0104055D01*
X0177165Y0104134D01*
X0117126Y0138346D02*
X0123157Y0138346D01*
X0123157Y0138311D01*
X0117126Y0138346D02*
X0110827Y0138346D01*
X0110827Y0138386D01*
X0107126Y0138386D01*
X0107126Y0143228D01*
X0099646Y0143228D01*
X0152559Y0086614D02*
X0152559Y0087008D01*
X0159677Y0087008D01*
X0159718Y0087010D01*
X0159760Y0087016D01*
X0159800Y0087025D01*
X0159839Y0087038D01*
X0159877Y0087055D01*
X0159913Y0087075D01*
X0159948Y0087099D01*
X0159979Y0087125D01*
X0160009Y0087155D01*
X0160035Y0087186D01*
X0160059Y0087221D01*
X0160079Y0087257D01*
X0160096Y0087295D01*
X0160109Y0087334D01*
X0160118Y0087374D01*
X0160124Y0087416D01*
X0160126Y0087457D01*
X0164772Y0087457D01*
X0164772Y0087456D02*
X0164782Y0087454D01*
X0164790Y0087450D01*
X0164797Y0087443D01*
X0164801Y0087435D01*
X0164803Y0087425D01*
X0152559Y0090551D02*
X0152559Y0091732D01*
X0156890Y0091732D01*
X0156890Y0094094D01*
X0164835Y0094094D01*
X0164835Y0092126D01*
X0133858Y0093504D02*
X0133858Y0096457D01*
X0126575Y0096457D01*
X0126575Y0111220D01*
X0116843Y0111220D01*
X0116843Y0113776D01*
X0107343Y0108835D02*
X0107341Y0108818D01*
X0107336Y0108802D01*
X0107328Y0108787D01*
X0107318Y0108773D01*
X0107304Y0108763D01*
X0107289Y0108755D01*
X0107273Y0108750D01*
X0107256Y0108748D01*
X0116843Y0113776D02*
X0112012Y0113776D01*
X0107366Y0113776D01*
X0107326Y0113811D01*
X0107283Y0113844D01*
X0107238Y0113874D01*
X0107191Y0113900D01*
X0107142Y0113924D01*
X0107092Y0113943D01*
X0107041Y0113959D01*
X0106988Y0113971D01*
X0106935Y0113980D01*
X0106881Y0113984D01*
X0106827Y0113985D01*
X0106773Y0113982D01*
X0106720Y0113975D01*
X0106667Y0113964D01*
X0106615Y0113950D01*
X0106565Y0113931D01*
X0106515Y0113910D01*
X0106468Y0113884D01*
X0106422Y0113856D01*
X0106378Y0113824D01*
X0106337Y0113790D01*
X0106298Y0113752D01*
X0106299Y0113752D02*
X0106299Y0109705D01*
X0107256Y0108748D01*
X0154528Y0081693D02*
X0159462Y0081693D01*
X0162162Y0078993D01*
X0133858Y0071850D02*
X0133858Y0071260D01*
X0112992Y0071260D01*
X0112992Y0069791D01*
X0110760Y0069791D01*
X0154528Y0093504D02*
X0154724Y0093504D01*
X0154724Y0093307D01*
X0154724Y0093504D02*
X0154724Y0095276D01*
X0170276Y0095276D01*
X0170276Y0098622D01*
X0177165Y0098622D01*
X0177165Y0099803D01*
X0152559Y0095472D02*
X0152559Y0098031D01*
X0159055Y0098031D01*
X0159055Y0104134D01*
X0161609Y0104134D01*
X0165945Y0104134D01*
X0130906Y0090551D02*
X0130512Y0090157D01*
X0111636Y0090157D01*
X0111636Y0092913D01*
X0111626Y0099354D02*
X0111636Y0099354D01*
X0111636Y0092913D01*
X0130906Y0088976D02*
X0130906Y0088583D01*
X0105686Y0092913D02*
X0105709Y0092913D01*
X0105709Y0099354D01*
X0130906Y0088583D02*
X0130512Y0088976D01*
X0105686Y0088976D01*
X0105686Y0092913D01*
X0128937Y0091535D02*
X0122835Y0091535D01*
X0122835Y0092787D01*
X0120669Y0092787D01*
X0154528Y0083661D02*
X0160827Y0083661D01*
X0167323Y0077165D01*
X0169291Y0077165D01*
X0174803Y0071654D01*
X0154528Y0085630D02*
X0156890Y0085630D01*
X0157480Y0085039D01*
X0161417Y0085039D01*
X0167717Y0078740D01*
X0172441Y0078740D01*
X0174803Y0076378D01*
X0146654Y0095472D02*
X0146654Y0103740D01*
X0139173Y0103740D01*
X0139173Y0104921D01*
X0131890Y0093504D02*
X0131890Y0095079D01*
X0125394Y0095079D01*
X0125394Y0108276D01*
X0122772Y0108276D01*
X0111587Y0108748D02*
X0116394Y0108748D01*
X0116435Y0108746D01*
X0116476Y0108741D01*
X0116516Y0108732D01*
X0116555Y0108720D01*
X0116593Y0108704D01*
X0116630Y0108685D01*
X0116665Y0108663D01*
X0116697Y0108638D01*
X0116728Y0108610D01*
X0116756Y0108579D01*
X0116781Y0108547D01*
X0116803Y0108512D01*
X0116822Y0108475D01*
X0116838Y0108437D01*
X0116850Y0108398D01*
X0116859Y0108358D01*
X0116864Y0108317D01*
X0116866Y0108276D01*
X0169134Y0087425D02*
X0173961Y0087425D01*
X0173969Y0087417D01*
X0178665Y0087417D01*
X0186983Y0087417D01*
X0187008Y0087393D01*
X0151024Y0013224D02*
X0148421Y0013224D01*
X0148421Y0016811D01*
X0148421Y0016929D01*
X0128740Y0016929D01*
X0115157Y0028594D02*
X0115157Y0016969D01*
X0124803Y0016969D01*
X0152382Y0116929D02*
X0138760Y0116929D01*
X0138760Y0117126D01*
X0138760Y0120472D01*
X0138583Y0120472D01*
X0152382Y0118898D02*
X0142520Y0118898D01*
X0142520Y0120472D01*
X0138583Y0120472D01*
X0159532Y0018780D02*
X0162598Y0018780D01*
X0162598Y0003346D01*
X0169291Y0003346D01*
X0138780Y0069882D02*
X0125591Y0056693D01*
X0125591Y0055118D01*
X0123228Y0052756D01*
X0123228Y0037795D01*
X0128740Y0032283D01*
X0148425Y0032283D01*
X0151024Y0029685D01*
X0151024Y0024335D01*
X0152756Y0031102D02*
X0152992Y0030866D01*
X0152992Y0024335D01*
X0154961Y0013224D02*
X0154961Y0007874D01*
X0152992Y0007874D01*
X0152992Y0013224D01*
X0140748Y0069882D02*
X0126772Y0055906D01*
X0126772Y0054331D01*
X0124803Y0052362D01*
X0124803Y0038189D01*
X0129134Y0033858D01*
X0153543Y0033858D01*
X0154961Y0024335D02*
X0154961Y0032441D01*
X0153543Y0033858D01*
X0159532Y0016811D02*
X0159646Y0016811D01*
X0159646Y0016831D01*
X0159532Y0016811D02*
X0159532Y0013224D01*
X0156929Y0013224D01*
X0156929Y0005079D01*
X0126969Y0028594D02*
X0126969Y0005079D01*
X0156929Y0005079D01*
X0154528Y0073819D02*
X0156969Y0073819D01*
X0170079Y0060591D01*
X0170079Y0037795D01*
X0174016Y0033858D01*
X0174016Y0018071D01*
X0169291Y0013346D01*
X0154528Y0071850D02*
X0156890Y0071850D01*
X0168898Y0059843D01*
X0168898Y0037008D01*
X0172835Y0033071D01*
X0172835Y0021890D01*
X0169291Y0018346D01*
X0162704Y0038979D02*
X0157382Y0038979D01*
X0157382Y0035925D01*
X0137205Y0035925D01*
X0137205Y0043406D01*
X0166142Y0038976D02*
X0162707Y0038976D01*
X0162704Y0038979D01*
X0162704Y0048979D02*
X0159584Y0048979D01*
X0157087Y0051476D01*
X0157087Y0057972D01*
X0150591Y0064469D01*
X0150591Y0069882D01*
X0162704Y0043979D02*
X0159958Y0043979D01*
X0159252Y0044685D01*
X0131604Y0053979D02*
X0131604Y0056998D01*
X0138346Y0063465D01*
X0131604Y0048979D02*
X0131755Y0048979D01*
X0131988Y0049213D01*
X0134646Y0049213D01*
X0135925Y0050492D01*
X0135925Y0058465D01*
X0143701Y0066240D01*
X0131604Y0043979D02*
X0135515Y0043979D01*
X0137795Y0046260D01*
X0137795Y0055512D02*
X0146654Y0064370D01*
X0146654Y0069882D01*
X0137795Y0055512D02*
X0137795Y0046260D01*
X0136811Y0095472D02*
X0136811Y0097638D01*
X0127756Y0097638D01*
X0127756Y0112402D01*
X0119291Y0112402D01*
X0119291Y0120669D01*
X0104528Y0120669D01*
X0104528Y0126575D01*
X0098484Y0126575D01*
X0098484Y0129921D01*
X0059961Y0104094D02*
X0065079Y0104094D01*
X0065079Y0106299D01*
X0080866Y0106299D01*
X0080866Y0117126D01*
X0091181Y0117126D01*
X0091181Y0128189D01*
X0095157Y0128189D01*
X0095157Y0129921D01*
X0098484Y0129921D01*
X0128937Y0087598D02*
X0102165Y0087598D01*
X0102165Y0125177D01*
X0094488Y0125177D01*
X0128937Y0085630D02*
X0100984Y0085630D01*
X0100984Y0115177D01*
X0094488Y0115177D01*
X0059961Y0099213D02*
X0065079Y0099213D01*
X0065079Y0101575D01*
X0082283Y0101575D01*
X0082283Y0115177D01*
X0094488Y0115177D01*
X0059961Y0094252D02*
X0059961Y0094291D01*
X0065079Y0094291D01*
X0065079Y0096850D01*
X0083858Y0096850D01*
X0083858Y0110177D01*
X0094488Y0110177D01*
X0128937Y0083661D02*
X0099803Y0083661D01*
X0099803Y0105177D01*
X0094488Y0105177D01*
X0069272Y0084902D02*
X0069272Y0090157D01*
X0085827Y0090157D01*
X0085827Y0105177D01*
X0094488Y0105177D01*
X0071240Y0084902D02*
X0071240Y0088583D01*
X0087402Y0088583D01*
X0087402Y0100177D01*
X0094488Y0100177D01*
X0128937Y0081693D02*
X0098622Y0081693D01*
X0098622Y0095177D01*
X0094488Y0095177D01*
X0073209Y0084902D02*
X0073209Y0087008D01*
X0088976Y0087008D01*
X0088976Y0095177D01*
X0094488Y0095177D01*
X0075177Y0084902D02*
X0090551Y0084902D01*
X0090551Y0090177D01*
X0094488Y0090177D01*
X0128937Y0079724D02*
X0097441Y0079724D01*
X0097441Y0085236D01*
X0094488Y0085236D01*
X0094488Y0085177D01*
X0077736Y0082343D02*
X0091732Y0082343D01*
X0091732Y0085177D01*
X0094488Y0085177D01*
X0077736Y0080374D02*
X0077736Y0080177D01*
X0094488Y0080177D01*
X0094488Y0080315D01*
X0094488Y0075177D02*
X0088976Y0075177D01*
X0088976Y0078406D01*
X0077736Y0078406D01*
X0128937Y0077756D02*
X0098031Y0077756D01*
X0098031Y0075177D01*
X0094488Y0075177D01*
X0138780Y0095472D02*
X0138780Y0099016D01*
X0128937Y0099016D01*
X0128937Y0113583D01*
X0120472Y0113583D01*
X0120472Y0121850D01*
X0108465Y0121850D01*
X0108465Y0129921D01*
X0108484Y0129921D01*
X0140748Y0095472D02*
X0140748Y0100197D01*
X0130118Y0100197D01*
X0130118Y0114764D01*
X0121654Y0114764D01*
X0121654Y0123031D01*
X0118504Y0123031D01*
X0118504Y0129921D01*
X0148622Y0095472D02*
X0148622Y0107087D01*
X0133661Y0107087D01*
X0133661Y0124803D01*
X0153484Y0124803D01*
X0130906Y0072835D02*
X0097441Y0072835D01*
X0097441Y0070079D01*
X0094488Y0070079D01*
X0094488Y0070177D01*
X0094488Y0060177D02*
X0086614Y0060177D01*
X0086614Y0074469D01*
X0077736Y0074469D01*
X0094488Y0065177D02*
X0087795Y0065177D01*
X0087795Y0076437D01*
X0077736Y0076437D01*
X0136811Y0069882D02*
X0124016Y0057087D01*
X0124016Y0056299D01*
X0117323Y0061024D02*
X0102756Y0061024D01*
X0098602Y0065177D01*
X0094488Y0065177D01*
X0117323Y0061024D02*
X0118504Y0059843D01*
X0118504Y0056299D01*
X0154528Y0075787D02*
X0157087Y0075787D01*
X0171654Y0061220D01*
X0171654Y0042598D01*
X0177165Y0037087D01*
X0154528Y0077756D02*
X0156890Y0077756D01*
X0172835Y0061811D01*
X0172835Y0051417D01*
X0177165Y0047087D01*
X0154528Y0079724D02*
X0156890Y0079724D01*
X0177165Y0059449D01*
X0177165Y0057087D01*
X0052520Y0146299D02*
X0052520Y0148898D01*
X0052520Y0148937D01*
X0052480Y0128937D02*
X0052480Y0131339D01*
X0052520Y0131339D01*
X0041850Y0123819D02*
X0041850Y0128740D01*
X0046614Y0128740D01*
X0046614Y0131339D01*
X0047362Y0064252D02*
X0047362Y0059134D01*
X0058839Y0066594D02*
X0056693Y0066594D01*
X0056693Y0064626D01*
X0056693Y0064252D01*
X0056693Y0062657D01*
X0058839Y0062657D01*
X0058839Y0064626D02*
X0056693Y0064626D01*
X0054154Y0064252D02*
X0053543Y0064252D01*
X0053543Y0064173D01*
X0054154Y0064252D02*
X0056693Y0064252D01*
X0037598Y0133937D02*
X0044055Y0133937D01*
X0044055Y0133898D01*
X0037520Y0118898D02*
X0037520Y0123819D01*
X0037598Y0123819D01*
X0037598Y0133937D01*
X0046614Y0146299D02*
X0046614Y0147795D01*
X0037638Y0147795D01*
X0102362Y0040157D02*
X0094508Y0040157D01*
X0094488Y0040177D01*
X0148622Y0069882D02*
X0148622Y0063189D01*
X0144488Y0059055D01*
X0102362Y0045276D02*
X0100295Y0045177D01*
X0094488Y0045177D01*
X0144685Y0069882D02*
X0145472Y0069094D01*
X0145472Y0065551D01*
X0138976Y0059055D01*
X0102362Y0050197D02*
X0102362Y0050354D01*
X0099311Y0050354D01*
X0094488Y0055177D01*
X0094094Y0055177D01*
X0094094Y0055512D01*
X0085433Y0055512D01*
X0085433Y0072500D01*
X0077736Y0072500D01*
X0067949Y0135866D02*
X0067162Y0137795D01*
X0059016Y0137835D02*
X0059016Y0137795D01*
X0067162Y0137795D01*
X0059016Y0139803D02*
X0066535Y0139803D01*
X0067162Y0139803D01*
X0067162Y0137795D01*
X0059016Y0141772D02*
X0066535Y0141772D01*
X0066535Y0139803D01*
X0059016Y0143740D02*
X0066535Y0143740D01*
X0066535Y0141772D01*
X0059016Y0135866D02*
X0067162Y0135866D01*
X0067162Y0137795D01*
X0077736Y0068563D02*
X0079843Y0068563D01*
X0079843Y0065335D01*
X0082205Y0060217D02*
X0082205Y0065335D01*
X0079843Y0065335D01*
X0058839Y0074469D02*
X0055433Y0074469D01*
X0055433Y0076063D01*
X0050315Y0076063D01*
X0050315Y0074488D01*
X0045276Y0074488D01*
X0045276Y0080394D02*
X0051181Y0080394D01*
X0058839Y0078406D02*
X0051181Y0078406D01*
X0051181Y0080394D01*
X0077736Y0062657D02*
X0079843Y0062657D01*
X0079843Y0055886D01*
X0082205Y0055886D01*
X0058839Y0072500D02*
X0052972Y0072500D01*
X0052972Y0073602D01*
X0058839Y0070531D02*
X0052972Y0070531D01*
X0052972Y0069272D01*
X0058839Y0068563D02*
X0055472Y0068563D01*
X0055472Y0066614D01*
X0050315Y0066614D01*
X0050315Y0068583D01*
X0047362Y0068583D01*
X0082106Y0094291D02*
X0082106Y0091732D01*
X0067303Y0091732D01*
X0067303Y0084902D01*
X0160217Y0118898D02*
X0160217Y0118858D01*
X0163543Y0118858D01*
X0177559Y0120827D02*
X0174252Y0120827D01*
X0174252Y0120866D01*
X0167520Y0126969D02*
X0167480Y0126969D01*
X0175039Y0139409D02*
X0171575Y0139409D01*
X0171575Y0141378D01*
X0167520Y0126969D02*
X0167520Y0126850D01*
X0167480Y0126969D02*
X0167480Y0126772D01*
X0167717Y0126772D01*
X0167480Y0126772D02*
X0164173Y0126772D01*
X0167480Y0120866D02*
X0167520Y0120866D01*
X0167520Y0126969D01*
X0167520Y0131890D01*
X0175039Y0131890D01*
X0175039Y0138228D01*
X0175039Y0139409D01*
X0130906Y0069882D02*
X0114173Y0069882D01*
X0114173Y0067323D01*
X0114173Y0064260D01*
X0110760Y0064260D01*
X0116850Y0037205D02*
X0116654Y0037008D01*
X0113780Y0037008D01*
X0109252Y0037008D01*
X0107283Y0038976D02*
X0107283Y0037008D01*
X0109252Y0037008D01*
X0109252Y0038976D01*
X0169016Y0141260D02*
X0169016Y0141378D01*
X0171575Y0141378D01*
X0169016Y0139291D02*
X0169016Y0139409D01*
X0171575Y0139409D01*
X0160217Y0120866D02*
X0163780Y0120866D01*
X0167480Y0120866D01*
X0167441Y0114764D02*
X0167441Y0120827D01*
X0167442Y0120837D01*
X0167446Y0120847D01*
X0167452Y0120855D01*
X0167461Y0120861D01*
X0167470Y0120865D01*
X0167480Y0120866D01*
X0167520Y0109252D02*
X0167441Y0109252D01*
X0167441Y0114764D01*
X0152382Y0112992D02*
X0148031Y0112992D01*
X0148031Y0112894D01*
X0152382Y0112992D02*
X0152382Y0110630D01*
X0163189Y0110630D01*
X0163189Y0109252D01*
X0123157Y0146185D02*
X0117126Y0146185D01*
X0117126Y0142677D01*
X0128453Y0148331D02*
X0128453Y0155512D01*
X0110827Y0155512D01*
X0110827Y0142717D01*
X0156102Y0141378D02*
X0156102Y0143346D01*
X0150000Y0143346D01*
X0150000Y0148524D01*
X0140256Y0148524D01*
X0150000Y0143346D02*
X0150000Y0137795D01*
X0161535Y0141260D02*
X0161535Y0141378D01*
X0156102Y0141378D01*
X0140256Y0148524D02*
X0140256Y0153425D01*
X0131602Y0153425D01*
X0131602Y0148331D01*
X0125303Y0148331D02*
X0125303Y0150472D01*
X0118504Y0150472D01*
X0133177Y0148331D02*
X0133177Y0151772D01*
X0136299Y0151772D01*
X0128453Y0136165D02*
X0128453Y0133465D01*
X0123484Y0133465D01*
X0123484Y0129921D01*
X0130028Y0148331D02*
X0130028Y0155039D01*
X0153465Y0155039D01*
X0153465Y0148740D01*
X0131602Y0136165D02*
X0131602Y0129921D01*
X0133484Y0129921D01*
X0144685Y0095472D02*
X0144685Y0102559D01*
X0132480Y0102559D01*
X0132480Y0125984D01*
X0138484Y0125984D01*
X0138484Y0129921D02*
X0138484Y0133465D01*
X0133177Y0133465D01*
X0133177Y0136165D01*
X0138484Y0129921D02*
X0138484Y0125984D01*
X0142717Y0095472D02*
X0142717Y0101378D01*
X0131299Y0101378D01*
X0131299Y0116142D01*
X0128543Y0116142D01*
X0128543Y0129921D01*
X0130028Y0136165D02*
X0130028Y0129921D01*
X0128484Y0129921D01*
X0126878Y0148331D02*
X0126878Y0152913D01*
X0124252Y0152913D01*
X0105315Y0050787D02*
X0107283Y0050787D01*
X0107283Y0046457D01*
X0156102Y0137441D02*
X0156102Y0139409D01*
X0161535Y0139291D02*
X0161535Y0139409D01*
X0156102Y0139409D01*
X0063366Y0084902D02*
X0063366Y0090157D01*
X0052756Y0090157D01*
X0052756Y0099213D01*
X0055630Y0099213D01*
X0061398Y0084902D02*
X0061398Y0088583D01*
X0051181Y0088583D01*
X0051181Y0104094D01*
X0055630Y0104094D01*
X0065335Y0084902D02*
X0065335Y0091732D01*
X0055630Y0091732D01*
X0055630Y0094252D01*
X0121063Y0028594D02*
X0121063Y0053543D01*
X0121260Y0053543D01*
X0121260Y0058661D02*
X0121654Y0058661D01*
X0132874Y0069882D01*
X0134843Y0069882D02*
X0119094Y0054134D01*
X0119094Y0028594D01*
X0020866Y0090354D02*
X0015748Y0090354D01*
X0015748Y0024803D01*
X0072323Y0042027D02*
X0072323Y0024803D01*
X0015748Y0024803D01*
X0020866Y0100354D02*
X0014173Y0100354D01*
X0014173Y0023228D01*
X0074291Y0023228D01*
X0074291Y0042027D01*
X0020866Y0110354D02*
X0012205Y0110354D01*
X0012205Y0021654D01*
X0076260Y0021654D01*
X0076260Y0042027D01*
D62*
X0106299Y0020866D03*
X0135433Y0020079D03*
X0099646Y0143228D03*
X0067323Y0027559D03*
X0048031Y0114567D03*
X0174803Y0071654D03*
X0174803Y0076378D03*
X0111417Y0021417D03*
X0129764Y0020866D03*
X0068386Y0054724D03*
X0074291Y0054724D03*
X0062441Y0054724D03*
D63*
X0106299Y0020866D02*
X0106299Y0023228D01*
X0105906Y0023622D01*
X0105906Y0025197D01*
X0107480Y0026772D01*
X0107480Y0028594D01*
X0132677Y0028740D02*
X0132677Y0028594D01*
X0132677Y0027559D01*
X0134252Y0025984D01*
X0134252Y0021260D01*
X0135433Y0020079D01*
X0099685Y0149055D02*
X0099646Y0149055D01*
X0099646Y0143228D01*
X0047835Y0120354D02*
X0047835Y0114567D01*
X0048031Y0114567D01*
X0110630Y0028594D02*
X0110630Y0026378D01*
X0111457Y0025551D01*
X0111457Y0021457D01*
X0111417Y0021417D01*
X0129528Y0028594D02*
X0129528Y0026220D01*
X0128661Y0025354D01*
X0128661Y0021969D01*
X0129764Y0020866D01*
X0054154Y0064252D02*
X0047362Y0064252D01*
X0041850Y0064252D01*
X0099685Y0137638D02*
X0087012Y0137638D01*
X0087012Y0137795D01*
X0020866Y0070354D02*
X0031496Y0070354D01*
X0031496Y0064252D01*
X0041850Y0064252D01*
X0041850Y0118898D02*
X0041850Y0109961D01*
X0041850Y0064252D01*
X0087012Y0137795D02*
X0087012Y0154291D01*
X0030472Y0154291D01*
X0030472Y0109961D01*
X0041850Y0109961D01*
D64*
X0108268Y0042717D02*
X0108228Y0042717D01*
X0108228Y0042402D01*
X0165276Y0140276D02*
X0165276Y0140315D01*
X0070354Y0042027D02*
X0070354Y0027559D01*
X0067323Y0027559D01*
X0056457Y0128661D02*
X0056457Y0131339D01*
X0054488Y0131339D02*
X0054488Y0126732D01*
X0054488Y0121181D01*
X0055315Y0120354D01*
X0056457Y0146299D02*
X0056457Y0150394D01*
X0056693Y0150394D01*
X0054488Y0146299D02*
X0054488Y0151732D01*
X0054490Y0151760D01*
X0054495Y0151788D01*
X0054503Y0151816D01*
X0054515Y0151842D01*
X0054530Y0151866D01*
X0054547Y0151888D01*
X0054568Y0151909D01*
X0054590Y0151926D01*
X0054614Y0151941D01*
X0054640Y0151953D01*
X0054668Y0151961D01*
X0054696Y0151966D01*
X0054724Y0151968D01*
X0068386Y0042027D02*
X0068386Y0037402D01*
X0060236Y0037402D01*
X0060236Y0046457D01*
X0041850Y0046457D01*
X0041850Y0064252D01*
X0067303Y0058130D02*
X0067303Y0054724D01*
X0068386Y0054724D01*
X0069272Y0058130D02*
X0069272Y0054724D01*
X0068386Y0054724D01*
X0064449Y0042027D02*
X0064449Y0051181D01*
X0068386Y0051181D01*
X0068386Y0054724D01*
X0075177Y0058130D02*
X0075177Y0054724D01*
X0074291Y0054724D01*
X0073209Y0058130D02*
X0073209Y0054724D01*
X0074291Y0054724D01*
X0066417Y0042027D02*
X0066417Y0049213D01*
X0074291Y0049213D01*
X0074291Y0054724D01*
X0062441Y0054724D02*
X0063366Y0054724D01*
X0063366Y0058130D01*
X0061398Y0058130D02*
X0061398Y0054724D01*
X0062441Y0054724D01*
X0063465Y0054724D01*
X0062480Y0042027D02*
X0062480Y0054685D01*
X0062479Y0054695D01*
X0062475Y0054705D01*
X0062469Y0054713D01*
X0062461Y0054719D01*
X0062451Y0054723D01*
X0062441Y0054724D01*
M02*
